<?xml version="1.0" ?><!DOCTYPE svg  PUBLIC '-//W3C//DTD SVG 1.1//EN'  'http://www.w3.org/Graphics/SVG/1.1/DTD/svg11.dtd'><svg height="6.82666in" style="shape-rendering:geometricPrecision; text-rendering:geometricPrecision; image-rendering:optimizeQuality; fill-rule:evenodd; clip-rule:evenodd" viewBox="0 0 6.82666 6.82666" width="6.82666in" xml:space="preserve" xmlns="http://www.w3.org/2000/svg" xmlns:xlink="http://www.w3.org/1999/xlink"><defs><style type="text/css">
   <![CDATA[
    .fil2 {fill:none}
    .fil0 {fill:#DE2910}
    .fil1 {fill:#FFDE00}
   ]]>
  </style></defs><g id="Layer_x0020_1"><g id="_334770040"><path class="fil0" d="M5.88504 5.09057l-4.94344 0c-0.0487244,0 -0.0882717,-0.0395512 -0.0882717,-0.0882756l0 -3.17792c0,-0.0487244 0.0395472,-0.0882756 0.0882717,-0.0882756l4.94344 0c0.0487362,0 0.0882874,0.0395512 0.0882874,0.0882756l0 3.17792c0,0.0487756 -0.0395512,0.0882756 -0.0882874,0.0882756z" id="_334770352"/><path class="fil1" d="M1.70337 2.26065l0.0841772 0.252335 0.26602 0.00205118c0.0344134,0.00030315 0.0486772,0.0442402 0.0209882,0.0647008l-0.213957 0.158016 0.0802244 0.253606c0.0103465,0.032815 -0.027,0.06 -0.0550276,0.0399882l-0.216413 -0.154736 -0.216398 0.154689c-0.0280394,0.0200591 -0.0653858,-0.00712598 -0.0550394,-0.039937l0.0802795 -0.25361 -0.214012 -0.158016c-0.027689,-0.0204606 -0.0134252,-0.0643976 0.0210472,-0.0647008l0.265961 -0.00205118 0.0841772 -0.252335c0.0108976,-0.0326772 0.0570866,-0.0326732 0.0679724,0z" id="_334770208"/><path class="fil1" d="M2.66928 2.32286l0.0603504 0.0822717 0.0974094 -0.0304646c0.0126024,-0.00390945 0.023,0.0104488 0.0152913,0.0211417l-0.0596614 0.0828071 0.0590709 0.083252c0.00767717,0.010748 -0.00282677,0.0250512 -0.015374,0.0210512l-0.0972283 -0.0311024 -0.0608819 0.081878c-0.0078622,0.0105984 -0.0247008,0.00503543 -0.024752,-0.00814961l-0.000488189 -0.102051 -0.096685 -0.0326142c-0.0125,-0.00425197 -0.0124528,-0.0219252 9.84252e-005,-0.0260748l0.096874 -0.0319882 0.00117717 -0.102051c0.000149606,-0.013185 0.0170354,-0.0185472 0.0247992,-0.00790551z" id="_334769416"/><path class="fil1" d="M2.30191 2.07754l0.101413 0.0110394 0.043311 -0.092437c0.00561024,-0.0119646 0.023185,-0.00990157 0.025878,0.00303543l0.0208976 0.0998504 0.101224 0.0125984c0.013122,0.00166142 0.0165984,0.0190394 0.00517717,0.0255866l-0.0885748 0.0507244 0.0192835 0.100201c0.00253937,0.0129882 -0.012937,0.021626 -0.0227126,0.0127874l-0.0755827 -0.0685512 -0.0893543 0.049311c-0.0115236,0.00640157 -0.0246102,-0.0056063 -0.019185,-0.0176732l0.0418504 -0.0930591 -0.0745118 -0.0697244c-0.00967323,-0.00899213 -0.00225197,-0.0251024 0.0108858,-0.023689z" id="_334770064"/><path class="fil1" d="M2.46226 3.06645l-0.0603504 0.0823228 -0.0973622 -0.0304646c-0.0125984,-0.00394882 -0.023,0.0104528 -0.0152874,0.0211378l0.059626 0.082811 -0.0590394 0.0832165c-0.00766142,0.0107835 0.0027874,0.0250866 0.015374,0.0210354l0.0972244 -0.0310984 0.0608898 0.0818858c0.0078622,0.0105906 0.0246969,0.0050748 0.024748,-0.00816142l0.000440945 -0.102051 0.0967323 -0.032563c0.0125039,-0.00424803 0.0124528,-0.0219724 -9.84252e-005,-0.026126l-0.0969213 -0.0319331 -0.00112598 -0.102051c-0.000149606,-0.0131732 -0.0170394,-0.0185984 -0.0248504,-0.00796063z" id="_334769896"/><path class="fil1" d="M2.82969 2.83594l-0.101465 0.0110354 -0.0432638 -0.092437c-0.00561024,-0.0119134 -0.0232362,-0.0098622 -0.0259252,0.00303937l-0.0208465 0.0998976 -0.101264 0.0125984c-0.0131378,0.00160236 -0.0166142,0.0189882 -0.0051378,0.0255748l0.0885236 0.050689 -0.0192874 0.100201c-0.00253543,0.0129843 0.0129528,0.0216732 0.0227126,0.0127874l0.0755866 -0.0685512 0.0893504 0.049315c0.0115748,0.00639764 0.0246142,-0.00561417 0.019189,-0.0176732l-0.0418346 -0.0930669 0.0745118 -0.0697244c0.00965748,-0.00898425 0.00228346,-0.0250984 -0.0108504,-0.023685z" id="_334769824"/></g></g><rect class="fil2" height="6.82666" width="6.82666"/></svg>