<svg width="220" height="59" viewBox="0 0 220 59" fill="none" xmlns="http://www.w3.org/2000/svg">
<path d="M32.4502 1.425C29.5102 1.425 27.2002 3.63 27.2002 6.765C27.2002 9.9 29.5102 12.09 32.4502 12.09C35.2852 12.09 37.3402 10.005 37.5802 7.41V6.36H31.9552V7.47H36.1252C35.9152 9.54 34.5052 10.86 32.4502 10.86C30.2452 10.86 28.5952 9.27 28.5952 6.765C28.5952 4.245 30.2452 2.655 32.4502 2.655C33.9202 2.655 35.0602 3.36 35.6302 4.575H37.2652C36.4852 2.565 34.6552 1.425 32.4502 1.425ZM40.75 7.53C40.75 5.625 41.74 5.04 43.045 5.04H43.405V3.63C42.1 3.63 41.215 4.2 40.75 5.115V3.78H39.385V12H40.75V7.53ZM44.4707 7.86C44.4707 10.41 46.1657 12.135 48.3557 12.135C49.8707 12.135 50.9357 11.355 51.4307 10.47V12H52.8107V3.78H51.4307V5.28C50.9507 4.425 49.9007 3.645 48.3707 3.645C46.1657 3.645 44.4707 5.295 44.4707 7.86ZM51.4307 7.875C51.4307 9.81 50.1407 10.935 48.6407 10.935C47.1407 10.935 45.8657 9.795 45.8657 7.86C45.8657 5.925 47.1407 4.83 48.6407 4.83C50.1407 4.83 51.4307 5.97 51.4307 7.875ZM56.4824 5.31V0.9H55.1174V12H56.4824V10.485C56.9924 11.385 58.0574 12.135 59.5574 12.135C61.7624 12.135 63.4574 10.41 63.4574 7.86C63.4574 5.295 61.7774 3.645 59.5574 3.645C58.1024 3.645 57.0074 4.395 56.4824 5.31ZM62.0624 7.86C62.0624 9.795 60.7874 10.935 59.2724 10.935C57.7874 10.935 56.4824 9.81 56.4824 7.875C56.4824 5.97 57.7874 4.83 59.2724 4.83C60.7874 4.83 62.0624 5.925 62.0624 7.86ZM68.6081 2.655H71.4731V12H72.8381V2.655H75.6881V1.545H68.6081V2.655ZM77.3684 12H78.7334V7.455C78.7334 5.685 79.6934 4.815 81.0884 4.815C82.4684 4.815 83.3834 5.67 83.3834 7.35V12H84.7334V7.155C84.7334 4.8 83.2784 3.63 81.4484 3.63C80.2934 3.63 79.2734 4.095 78.7334 4.965V0.9H77.3684V12ZM90.4581 4.8C91.8681 4.8 93.0681 5.685 93.0531 7.29H87.8631C88.0131 5.685 89.1231 4.8 90.4581 4.8ZM94.2981 9.465H92.8281C92.5281 10.35 91.7481 10.98 90.5181 10.98C89.1231 10.98 87.9531 10.065 87.8481 8.4H94.4181C94.4481 8.115 94.4631 7.875 94.4631 7.575C94.4631 5.325 92.9031 3.645 90.5181 3.645C88.1181 3.645 86.4531 5.28 86.4531 7.875C86.4531 10.485 88.1781 12.135 90.5181 12.135C92.5581 12.135 93.8781 10.965 94.2981 9.465ZM106.204 9.06C106.204 10.2 105.394 10.875 104.044 10.875H101.629V7.185H103.999C105.334 7.185 106.204 7.905 106.204 9.06ZM105.934 4.365C105.934 5.43 105.199 6.06 103.924 6.06H101.629V2.67H103.894C105.229 2.67 105.934 3.33 105.934 4.365ZM107.569 9.195C107.569 7.905 106.639 6.81 105.499 6.615C106.504 6.285 107.329 5.52 107.329 4.2C107.329 2.745 106.219 1.545 104.014 1.545H100.264V12H104.164C106.324 12 107.569 10.77 107.569 9.195ZM112.958 4.8C114.368 4.8 115.568 5.685 115.553 7.29H110.363C110.513 5.685 111.623 4.8 112.958 4.8ZM116.798 9.465H115.328C115.028 10.35 114.248 10.98 113.018 10.98C111.623 10.98 110.453 10.065 110.348 8.4H116.918C116.948 8.115 116.963 7.875 116.963 7.575C116.963 5.325 115.403 3.645 113.018 3.645C110.618 3.645 108.953 5.28 108.953 7.875C108.953 10.485 110.678 12.135 113.018 12.135C115.058 12.135 116.378 10.965 116.798 9.465ZM124.675 9.765C124.615 6.825 119.845 7.89 119.845 5.94C119.845 5.28 120.445 4.8 121.45 4.8C122.545 4.8 123.175 5.4 123.235 6.225H124.6C124.51 4.62 123.31 3.645 121.495 3.645C119.665 3.645 118.48 4.68 118.48 5.94C118.48 9 123.34 7.935 123.34 9.765C123.34 10.44 122.74 10.98 121.66 10.98C120.505 10.98 119.8 10.38 119.725 9.585H118.315C118.405 11.085 119.755 12.135 121.675 12.135C123.49 12.135 124.675 11.115 124.675 9.765ZM126.902 9.75C126.902 11.4 127.727 12 129.182 12H130.412V10.845H129.407C128.567 10.845 128.267 10.56 128.267 9.75V4.905H130.412V3.78H128.267V1.71H126.902V3.78H125.837V4.905H126.902V9.75ZM136.065 12H137.43V1.545H136.065V12ZM145.771 12H147.121V7.155C147.121 4.8 145.666 3.63 143.761 3.63C142.651 3.63 141.661 4.095 141.121 4.95V3.78H139.756V12H141.121V7.455C141.121 5.685 142.081 4.815 143.476 4.815C144.856 4.815 145.771 5.67 145.771 7.35V12ZM152.84 6.765C152.84 9.9 155.135 12.09 158.06 12.09C160.325 12.09 162.125 10.965 162.905 8.955H161.27C160.7 10.2 159.59 10.905 158.06 10.905C155.87 10.905 154.235 9.315 154.235 6.765C154.235 4.2 155.87 2.61 158.06 2.61C159.59 2.61 160.7 3.315 161.27 4.575H162.905C162.125 2.55 160.325 1.41 158.06 1.41C155.135 1.41 152.84 3.63 152.84 6.765ZM164.937 12H166.302V0.9H164.937V12ZM168.118 7.86C168.118 10.41 169.813 12.135 172.003 12.135C173.518 12.135 174.583 11.355 175.078 10.47V12H176.458V3.78H175.078V5.28C174.598 4.425 173.548 3.645 172.018 3.645C169.813 3.645 168.118 5.295 168.118 7.86ZM175.078 7.875C175.078 9.81 173.788 10.935 172.288 10.935C170.788 10.935 169.513 9.795 169.513 7.86C169.513 5.925 170.788 4.83 172.288 4.83C173.788 4.83 175.078 5.97 175.078 7.875ZM184.675 9.765C184.615 6.825 179.845 7.89 179.845 5.94C179.845 5.28 180.445 4.8 181.45 4.8C182.545 4.8 183.175 5.4 183.235 6.225H184.6C184.51 4.62 183.31 3.645 181.495 3.645C179.665 3.645 178.48 4.68 178.48 5.94C178.48 9 183.34 7.935 183.34 9.765C183.34 10.44 182.74 10.98 181.66 10.98C180.505 10.98 179.8 10.38 179.725 9.585H178.315C178.405 11.085 179.755 12.135 181.675 12.135C183.49 12.135 184.675 11.115 184.675 9.765ZM192.512 9.765C192.452 6.825 187.682 7.89 187.682 5.94C187.682 5.28 188.282 4.8 189.287 4.8C190.382 4.8 191.012 5.4 191.072 6.225H192.437C192.347 4.62 191.147 3.645 189.332 3.645C187.502 3.645 186.317 4.68 186.317 5.94C186.317 9 191.177 7.935 191.177 9.765C191.177 10.44 190.577 10.98 189.497 10.98C188.342 10.98 187.637 10.38 187.562 9.585H186.152C186.242 11.085 187.592 12.135 189.512 12.135C191.327 12.135 192.512 11.115 192.512 9.765ZM4.21713 24.545H0.962129V35H4.21713C7.65213 35 9.76713 33.035 9.76713 29.795C9.76713 26.555 7.65213 24.545 4.21713 24.545ZM2.32713 33.875V25.655H4.21713C6.94713 25.655 8.37213 27.245 8.37213 29.795C8.37213 32.345 6.94713 33.875 4.21713 33.875H2.32713ZM11.5676 35H12.9326V26.78H11.5676V35ZM12.2726 25.445C12.7676 25.445 13.1726 25.04 13.1726 24.515C13.1726 23.99 12.7676 23.585 12.2726 23.585C11.7476 23.585 11.3426 23.99 11.3426 24.515C11.3426 25.04 11.7476 25.445 12.2726 25.445ZM14.749 30.86C14.749 33.41 16.444 35.135 18.649 35.135C20.149 35.135 21.214 34.34 21.709 33.455V35.18C21.709 36.935 20.614 37.865 19.159 37.865C17.809 37.865 16.834 37.19 16.534 36.2H15.184C15.454 37.955 16.999 39.05 19.159 39.05C21.574 39.05 23.089 37.445 23.089 35.18V26.78H21.709V28.28C21.229 27.395 20.149 26.645 18.649 26.645C16.444 26.645 14.749 28.295 14.749 30.86ZM21.709 30.875C21.709 32.81 20.419 33.935 18.919 33.935C17.419 33.935 16.144 32.795 16.144 30.86C16.144 28.925 17.419 27.83 18.919 27.83C20.419 27.83 21.709 28.97 21.709 30.875ZM25.3957 35H26.7607V26.78H25.3957V35ZM26.1007 25.445C26.5957 25.445 27.0007 25.04 27.0007 24.515C27.0007 23.99 26.5957 23.585 26.1007 23.585C25.5757 23.585 25.1707 23.99 25.1707 24.515C25.1707 25.04 25.5757 25.445 26.1007 25.445ZM29.3871 32.75C29.3871 34.4 30.2121 35 31.6671 35H32.8971V33.845H31.8921C31.0521 33.845 30.7521 33.56 30.7521 32.75V27.905H32.8971V26.78H30.7521V24.71H29.3871V26.78H28.3221V27.905H29.3871V32.75ZM34.041 30.86C34.041 33.41 35.736 35.135 37.926 35.135C39.441 35.135 40.506 34.355 41.001 33.47V35H42.381V26.78H41.001V28.28C40.521 27.425 39.471 26.645 37.941 26.645C35.736 26.645 34.041 28.295 34.041 30.86ZM41.001 30.875C41.001 32.81 39.711 33.935 38.211 33.935C36.711 33.935 35.436 32.795 35.436 30.86C35.436 28.925 36.711 27.83 38.211 27.83C39.711 27.83 41.001 28.97 41.001 30.875ZM44.6877 35H46.0527V23.9H44.6877V35ZM58.0031 24.53H52.3781V35H58.0031V33.875H53.7431V30.275H57.5531V29.15H53.7431V25.655H58.0031V24.53ZM64.3586 35H65.9036L63.2486 30.845L65.8886 26.78H64.4636L62.6036 29.825L60.6536 26.78H59.1086L61.7636 30.92L59.1086 35H60.5336L62.4086 31.94L64.3586 35ZM68.6113 28.295V26.78H67.2463V38.9H68.6113V33.485C69.1213 34.325 70.1863 35.135 71.6863 35.135C73.8913 35.135 75.5863 33.41 75.5863 30.86C75.5863 28.295 73.8913 26.645 71.6863 26.645C70.1863 26.645 69.1063 27.425 68.6113 28.295ZM74.1913 30.86C74.1913 32.795 72.9163 33.935 71.4013 33.935C69.9163 33.935 68.6113 32.81 68.6113 30.875C68.6113 28.97 69.9163 27.83 71.4013 27.83C72.9163 27.83 74.1913 28.925 74.1913 30.86ZM80.878 27.8C82.288 27.8 83.488 28.685 83.473 30.29H78.283C78.433 28.685 79.543 27.8 80.878 27.8ZM84.718 32.465H83.248C82.948 33.35 82.168 33.98 80.938 33.98C79.543 33.98 78.373 33.065 78.268 31.4H84.838C84.868 31.115 84.883 30.875 84.883 30.575C84.883 28.325 83.323 26.645 80.938 26.645C78.538 26.645 76.873 28.28 76.873 30.875C76.873 33.485 78.598 35.135 80.938 35.135C82.978 35.135 84.298 33.965 84.718 32.465ZM88.0498 30.53C88.0498 28.625 89.0398 28.04 90.3448 28.04H90.7048V26.63C89.3998 26.63 88.5148 27.2 88.0498 28.115V26.78H86.6848V35H88.0498V30.53ZM92.2805 35H93.6455V26.78H92.2805V35ZM92.9855 25.445C93.4805 25.445 93.8855 25.04 93.8855 24.515C93.8855 23.99 93.4805 23.585 92.9855 23.585C92.4605 23.585 92.0555 23.99 92.0555 24.515C92.0555 25.04 92.4605 25.445 92.9855 25.445ZM99.4669 27.8C100.877 27.8 102.077 28.685 102.062 30.29H96.8719C97.0219 28.685 98.1319 27.8 99.4669 27.8ZM103.307 32.465H101.837C101.537 33.35 100.757 33.98 99.5269 33.98C98.1319 33.98 96.9619 33.065 96.8569 31.4H103.427C103.457 31.115 103.472 30.875 103.472 30.575C103.472 28.325 101.912 26.645 99.5269 26.645C97.1269 26.645 95.4619 28.28 95.4619 30.875C95.4619 33.485 97.1869 35.135 99.5269 35.135C101.567 35.135 102.887 33.965 103.307 32.465ZM111.289 35H112.639V30.155C112.639 27.8 111.184 26.63 109.279 26.63C108.169 26.63 107.179 27.095 106.639 27.95V26.78H105.274V35H106.639V30.455C106.639 28.685 107.599 27.815 108.994 27.815C110.374 27.815 111.289 28.67 111.289 30.35V35ZM114.358 30.875C114.358 33.485 116.023 35.135 118.363 35.135C120.403 35.135 121.738 33.995 122.158 32.36H120.688C120.388 33.395 119.578 33.98 118.363 33.98C116.863 33.98 115.753 32.915 115.753 30.875C115.753 28.865 116.863 27.8 118.363 27.8C119.578 27.8 120.403 28.43 120.688 29.42H122.158C121.738 27.695 120.403 26.645 118.363 26.645C116.023 26.645 114.358 28.295 114.358 30.875ZM127.475 27.8C128.885 27.8 130.085 28.685 130.07 30.29H124.88C125.03 28.685 126.14 27.8 127.475 27.8ZM131.315 32.465H129.845C129.545 33.35 128.765 33.98 127.535 33.98C126.14 33.98 124.97 33.065 124.865 31.4H131.435C131.465 31.115 131.48 30.875 131.48 30.575C131.48 28.325 129.92 26.645 127.535 26.645C125.135 26.645 123.47 28.28 123.47 30.875C123.47 33.485 125.195 35.135 127.535 35.135C129.575 35.135 130.895 33.965 131.315 32.465ZM136.77 29.765C136.77 32.9 139.065 35.09 141.99 35.09C144.255 35.09 146.055 33.965 146.835 31.955H145.2C144.63 33.2 143.52 33.905 141.99 33.905C139.8 33.905 138.165 32.315 138.165 29.765C138.165 27.2 139.8 25.61 141.99 25.61C143.52 25.61 144.63 26.315 145.2 27.575H146.835C146.055 25.55 144.255 24.41 141.99 24.41C139.065 24.41 136.77 26.63 136.77 29.765ZM150.232 30.53C150.232 28.625 151.222 28.04 152.527 28.04H152.887V26.63C151.582 26.63 150.697 27.2 150.232 28.115V26.78H148.867V35H150.232V30.53ZM153.953 30.86C153.953 33.41 155.648 35.135 157.838 35.135C159.353 35.135 160.418 34.355 160.913 33.47V35H162.293V26.78H160.913V28.28C160.433 27.425 159.383 26.645 157.853 26.645C155.648 26.645 153.953 28.295 153.953 30.86ZM160.913 30.875C160.913 32.81 159.623 33.935 158.123 33.935C156.623 33.935 155.348 32.795 155.348 30.86C155.348 28.925 156.623 27.83 158.123 27.83C159.623 27.83 160.913 28.97 160.913 30.875ZM164.855 35H166.22V27.905H167.945V26.78H166.22V26.195C166.22 25.13 166.625 24.68 167.855 24.68V23.54C165.755 23.54 164.855 24.365 164.855 26.195V26.78H163.79V27.905H164.855V35ZM169.836 32.75C169.836 34.4 170.661 35 172.116 35H173.346V33.845H172.341C171.501 33.845 171.201 33.56 171.201 32.75V27.905H173.346V26.78H171.201V24.71H169.836V26.78H168.771V27.905H169.836V32.75ZM178.495 27.8C179.905 27.8 181.105 28.685 181.09 30.29H175.9C176.05 28.685 177.16 27.8 178.495 27.8ZM182.335 32.465H180.865C180.565 33.35 179.785 33.98 178.555 33.98C177.16 33.98 175.99 33.065 175.885 31.4H182.455C182.485 31.115 182.5 30.875 182.5 30.575C182.5 28.325 180.94 26.645 178.555 26.645C176.155 26.645 174.49 28.28 174.49 30.875C174.49 33.485 176.215 35.135 178.555 35.135C180.595 35.135 181.915 33.965 182.335 32.465ZM183.792 30.86C183.792 33.41 185.487 35.135 187.692 35.135C189.192 35.135 190.257 34.37 190.752 33.455V35H192.132V23.9H190.752V28.25C190.182 27.305 188.997 26.645 187.707 26.645C185.487 26.645 183.792 28.295 183.792 30.86ZM190.752 30.875C190.752 32.81 189.462 33.935 187.962 33.935C186.462 33.935 185.187 32.795 185.187 30.86C185.187 28.925 186.462 27.83 187.962 27.83C189.462 27.83 190.752 28.97 190.752 30.875ZM198.438 35H199.803V30.29H203.493V29.18H199.803V25.655H204.348V24.545H198.438V35ZM213.796 30.875C213.796 28.28 211.981 26.645 209.641 26.645C207.316 26.645 205.486 28.28 205.486 30.875C205.486 33.485 207.256 35.135 209.581 35.135C211.921 35.135 213.796 33.485 213.796 30.875ZM206.881 30.875C206.881 28.805 208.186 27.83 209.626 27.83C211.036 27.83 212.401 28.805 212.401 30.875C212.401 32.96 211.006 33.935 209.581 33.935C208.156 33.935 206.881 32.96 206.881 30.875ZM216.956 30.53C216.956 28.625 217.946 28.04 219.251 28.04H219.611V26.63C218.306 26.63 217.421 27.2 216.956 28.115V26.78H215.591V35H216.956V30.53ZM80.2688 47.53H74.6438V58H80.2688V56.875H76.0088V53.275H79.8188V52.15H76.0088V48.655H80.2688V47.53ZM86.2492 56.56L82.9642 47.545H81.5092L85.4542 58H87.0292L90.9742 47.545H89.5342L86.2492 56.56ZM99.7249 47.545H96.4699V58H99.7249C103.16 58 105.275 56.035 105.275 52.795C105.275 49.555 103.16 47.545 99.7249 47.545ZM97.8349 56.875V48.655H99.7249C102.455 48.655 103.88 50.245 103.88 52.795C103.88 55.345 102.455 56.875 99.7249 56.875H97.8349ZM108.44 53.53C108.44 51.625 109.43 51.04 110.735 51.04H111.095V49.63C109.79 49.63 108.905 50.2 108.44 51.115V49.78H107.075V58H108.44V53.53ZM112.671 58H114.036V49.78H112.671V58ZM113.376 48.445C113.871 48.445 114.276 48.04 114.276 47.515C114.276 46.99 113.871 46.585 113.376 46.585C112.851 46.585 112.446 46.99 112.446 47.515C112.446 48.04 112.851 48.445 113.376 48.445ZM115.388 49.78L118.613 58H120.203L123.428 49.78H121.973L119.423 56.74L116.858 49.78H115.388ZM128.266 50.8C129.676 50.8 130.876 51.685 130.861 53.29H125.671C125.821 51.685 126.931 50.8 128.266 50.8ZM132.106 55.465H130.636C130.336 56.35 129.556 56.98 128.326 56.98C126.931 56.98 125.761 56.065 125.656 54.4H132.226C132.256 54.115 132.271 53.875 132.271 53.575C132.271 51.325 130.711 49.645 128.326 49.645C125.926 49.645 124.261 51.28 124.261 53.875C124.261 56.485 125.986 58.135 128.326 58.135C130.366 58.135 131.686 56.965 132.106 55.465ZM135.437 53.53C135.437 51.625 136.427 51.04 137.732 51.04H138.092V49.63C136.787 49.63 135.902 50.2 135.437 51.115V49.78H134.072V58H135.437V53.53ZM145.578 55.765C145.518 52.825 140.748 53.89 140.748 51.94C140.748 51.28 141.348 50.8 142.353 50.8C143.448 50.8 144.078 51.4 144.138 52.225H145.503C145.413 50.62 144.213 49.645 142.398 49.645C140.568 49.645 139.383 50.68 139.383 51.94C139.383 55 144.243 53.935 144.243 55.765C144.243 56.44 143.643 56.98 142.563 56.98C141.408 56.98 140.703 56.38 140.628 55.585H139.218C139.308 57.085 140.658 58.135 142.578 58.135C144.393 58.135 145.578 57.115 145.578 55.765Z" fill="black"/>
</svg>
