<svg width="469" height="235" viewBox="0 0 469 235" fill="none" xmlns="http://www.w3.org/2000/svg">
<path d="M52.5861 234.641C58.3964 234.641 64.0327 233.522 69.3383 231.315C71.8881 230.255 74.3476 228.942 76.6483 227.414C78.9269 225.9 81.0697 224.161 83.0171 222.247C84.9643 220.332 86.7321 218.225 88.2714 215.984C89.8253 213.722 91.1599 211.304 92.2382 208.798C94.4815 203.582 95.6189 198.042 95.6189 192.331C95.6189 186.619 94.4815 181.079 92.2382 175.863C91.1599 173.357 89.8253 170.939 88.2714 168.677C86.7321 166.436 84.9643 164.329 83.0171 162.415C81.0698 160.5 78.927 158.761 76.6483 157.247C74.3477 155.719 71.8883 154.406 69.3383 153.346C64.0327 151.139 58.3964 150.02 52.5861 150.02C46.7757 150.02 41.1394 151.139 35.8338 153.346C33.2839 154.406 30.8244 155.719 28.5239 157.247C26.2451 158.761 24.1024 160.5 22.155 162.415C20.2078 164.329 18.44 166.436 16.9007 168.677C15.3468 170.939 14.0122 173.357 12.9339 175.863C10.6906 181.079 9.55322 186.619 9.55322 192.331C9.55322 198.042 10.6906 203.582 12.9339 208.798C14.0122 211.304 15.3468 213.722 16.9007 215.984C18.44 218.225 20.2078 220.332 22.155 222.247C24.1024 224.161 26.2452 225.9 28.5239 227.414C30.8245 228.942 33.284 230.255 35.8338 231.315C41.1395 233.522 46.7757 234.641 52.5861 234.641ZM52.5861 163.645C56.4588 163.645 60.2159 164.404 63.753 165.9C67.1693 167.345 70.2374 169.413 72.872 172.047C75.5066 174.681 77.5751 177.749 79.0201 181.165C80.5162 184.702 81.2748 188.458 81.2748 192.331C81.2748 196.203 80.5162 199.96 79.0201 203.496C77.5751 206.912 75.5066 209.98 72.872 212.614C70.2374 215.248 67.1693 217.317 63.753 218.761C60.2159 220.257 56.4588 221.016 52.5861 221.016C48.7133 221.016 44.9562 220.257 41.4191 218.761C38.0028 217.317 34.9348 215.248 32.3001 212.614C29.6655 209.98 27.597 206.912 26.152 203.496C24.6559 199.96 23.8973 196.203 23.8973 192.331C23.8973 188.458 24.6559 184.702 26.152 181.165C27.597 177.749 29.6655 174.681 32.3001 172.047C34.9348 169.413 38.0028 167.344 41.4191 165.9C44.9562 164.404 48.7133 163.645 52.5861 163.645Z" fill="#2E2E2D"/>
<path d="M310.784 234.641C316.594 234.641 322.23 233.522 327.536 231.315C330.086 230.255 332.545 228.942 334.846 227.414C337.124 225.9 339.267 224.161 341.215 222.247C343.162 220.332 344.93 218.225 346.469 215.984C348.023 213.722 349.357 211.304 350.436 208.798C352.679 203.582 353.816 198.042 353.816 192.331C353.816 186.619 352.679 181.079 350.436 175.863C349.357 173.357 348.023 170.939 346.469 168.677C344.93 166.436 343.162 164.329 341.215 162.415C339.267 160.5 337.124 158.761 334.846 157.247C332.545 155.719 330.086 154.406 327.536 153.346C322.23 151.139 316.594 150.02 310.784 150.02C304.973 150.02 299.337 151.139 294.031 153.346C291.481 154.406 289.022 155.719 286.721 157.247C284.443 158.761 282.3 160.5 280.353 162.415C278.405 164.329 276.638 166.436 275.098 168.677C273.544 170.939 272.21 173.357 271.131 175.863C268.888 181.079 267.751 186.619 267.751 192.331C267.751 198.042 268.888 203.582 271.131 208.798C272.21 211.304 273.544 213.722 275.098 215.984C276.638 218.225 278.405 220.332 280.353 222.247C282.3 224.161 284.443 225.9 286.721 227.414C289.022 228.942 291.481 230.255 294.031 231.315C299.337 233.522 304.973 234.641 310.784 234.641ZM310.784 163.645C314.656 163.645 318.413 164.404 321.951 165.9C325.367 167.345 328.435 169.413 331.07 172.047C333.704 174.681 335.773 177.749 337.218 181.165C338.714 184.702 339.472 188.458 339.472 192.331C339.472 196.203 338.714 199.96 337.218 203.496C335.773 206.912 333.704 209.98 331.07 212.614C328.435 215.248 325.367 217.317 321.951 218.761C318.413 220.257 314.656 221.016 310.784 221.016C306.911 221.016 303.154 220.257 299.617 218.761C296.2 217.317 293.132 215.248 290.498 212.614C287.863 209.98 285.794 206.912 284.349 203.496C282.853 199.96 282.095 196.203 282.095 192.331C282.095 188.458 282.853 184.702 284.349 181.165C285.794 177.749 287.863 174.681 290.498 172.047C293.132 169.413 296.2 167.344 299.617 165.9C303.154 164.404 306.911 163.645 310.784 163.645Z" fill="#2E2E2D"/>
<path d="M287.68 145.445C287.68 145.445 296.223 141.081 303.842 140.804C311.461 140.526 320.384 140.069 324.632 142.565C328.881 145.061 330.623 144.452 329.588 147.114C328.554 149.776 328.424 152.463 324.632 152.095C320.841 151.728 309.418 150.341 306.697 150.573C303.976 150.805 286.447 156.367 280.459 163.737C274.471 171.106 272.613 175.987 270.643 181.42C268.672 186.853 267.516 181.42 267.516 181.42L287.68 145.445Z" fill="#2E2E2D"/>
<path d="M22.2212 145.053C22.2212 145.053 13.388 147.325 9.70795 151.78C5.06279 157.271 1.99262 163.917 0.823817 171.014C-0.556107 179.536 -0.318702 179.045 2.42609 177.98C5.17087 176.914 8.69596 172.326 11.1926 167.982C12.9061 165.199 15.2576 162.864 18.0528 161.169C18.0528 161.169 19.8824 165.322 24.4439 164.311C26.1083 164.007 27.5888 163.067 28.5712 161.689C29.5536 160.312 29.9607 158.606 29.7061 156.933C29.3475 154.529 35.5995 153.174 35.5995 153.174C35.5995 153.174 28.3893 150.344 26.8789 149.239C25.3684 148.134 22.2212 145.053 22.2212 145.053Z" fill="#2E2E2D"/>
<path d="M117.979 186.228C117.979 186.228 59.106 212.424 52.8719 212.554C46.6379 212.685 42.2994 214.381 36.457 206.089C30.6145 197.796 27.0077 188.816 32.0189 183.427C37.0301 178.038 44.4855 174.335 49.7341 174.789C54.9827 175.243 74.7714 171.451 74.7714 171.451L117.979 186.228Z" fill="#2E2E2D"/>
<path d="M217.725 25.3639L232.992 21.8565L243.888 15C243.888 15 264.813 18.0313 265.261 21.8565C265.708 25.6816 266.676 26.7516 265.261 33.8827C263.846 41.0139 262.615 43.6565 260.18 44.6102C257.745 45.564 245.468 41.1523 243.884 42.2437C242.3 43.3352 242.623 42.8597 243.221 44.6102C243.819 46.3608 258.713 60.215 276.07 83.716C293.426 107.217 298.922 113.167 299.896 118.118C300.87 123.069 276.775 167.272 272.986 171.964C269.197 176.657 262.859 195.491 250.562 200.431C238.265 205.371 227.019 209.252 198.859 206.362C170.699 203.472 95.9388 179.684 78.3526 173.035C60.7665 166.386 34.776 154.935 24.9336 147.17C15.0912 139.405 18.9004 123.986 19.2504 114.182C19.6004 104.377 30.7215 99.6442 37.5394 97.3766C44.3573 95.1091 68.341 97.8069 78.349 102.36C88.3571 106.913 171.293 118.121 171.293 118.121C171.293 118.121 165.511 136.645 167.22 143.651C168.929 150.656 174.648 156.827 186.943 159.492C199.239 162.157 225.427 166.256 232.989 163.304C240.55 160.351 249.386 139.703 250.561 127.598C251.735 115.493 237.307 75.3686 232.989 66.2468C228.67 57.1249 219.382 43.8429 217.722 35.9409C216.062 28.0388 217.725 25.3639 217.725 25.3639Z" fill="#2E2E2D"/>
<path d="M171.939 117.964C171.939 117.964 179.719 122.28 181.649 109.799C183.579 97.3184 183.921 83.414 168.313 81.8026C152.706 80.1912 131.253 85.0167 123.6 81.8026C115.947 78.5884 95.2649 71.2887 83.1145 71.5827C70.9641 71.8768 55.8302 70.0459 50.068 74.8249C44.3059 79.6038 43.4819 88.2818 45.219 91.0729C46.9561 93.864 84.5554 104.125 84.5554 104.125L123.6 111.277L171.939 117.964Z" fill="#2E2E2D"/>
<path d="M428.296 5.61551C428.296 5.61551 420.654 -0.262329 415.437 1.2482C410.22 2.75872 401.122 5.99618 399.501 10.3821C397.88 14.7679 393.07 50.5199 395.196 68.1899C397.322 85.8598 401.338 110.947 409.535 115.245C417.732 119.542 430.168 114.081 431.583 109.134C432.999 104.187 430.159 65.9802 430.047 57.4262C429.935 48.8723 431.261 19.6452 430.047 15.1758C429.247 12.0326 428.661 8.8384 428.296 5.61551V5.61551Z" fill="#2E2E2D" stroke="#666766"/>
<path d="M431.978 13.9814L447.067 16.3319V94.6371H431.978V13.9814Z" fill="#2E2E2D" stroke="#666766"/>
<path d="M439.522 72.9215L437.439 76.1061L437.766 79.3064C437.766 79.3064 435.886 79.3621 435.916 82.1311C435.947 84.9 435.78 88.1925 437.439 89.4366C439.098 90.6807 441.556 91.5078 443.724 92.3262C445.891 93.1447 448.295 91.6235 450.784 92.7848C453.274 93.946 458.046 98.3255 459.11 100.554C460.174 102.782 459.078 103.033 461.226 104.783C463.374 106.532 464.787 107.829 465.882 106.405C466.977 104.98 468.56 102.209 467.801 99.9682C467.042 97.7277 463.961 92.0241 461.226 89.4345C458.491 86.8448 455.892 84.5715 455.861 84.4072C455.83 84.243 458.633 83.3452 457.09 82.1289C455.547 80.9127 452.506 80.1449 452.688 79.6521C452.87 79.1593 455.464 79.3129 455.084 77.2153C454.704 75.1177 455.485 74.0492 452.688 73.5779C449.89 73.1065 446.703 71.9816 445.204 72.4444C443.706 72.9072 439.522 72.9215 439.522 72.9215Z" fill="#2E2E2D" stroke="#666766"/>
<path d="M437.747 78.9634C439.606 79.4815 441.507 79.8377 443.427 80.0282C446.679 80.1806 449.937 80.0086 453.155 79.5147" fill="#2E2E2D"/>
<path d="M437.747 78.9634C439.606 79.4815 441.507 79.8377 443.427 80.0282C446.679 80.1806 449.937 80.0086 453.155 79.5147" stroke="#666766"/>
<path d="M464.885 105.709C464.885 110.639 465.144 115.361 464.885 120.203C464.717 123.346 463.106 126.525 461.961 129.426C460.764 132.454 458.763 135.593 456.83 138.209C453.145 143.198 447.9 146.607 444.018 151.385C442.52 153.228 440.457 153.917 438.565 155.24C435.895 157.108 432.756 158.819 429.742 160.071C422.914 162.907 416.329 165 408.925 165C401.379 165 394.11 164.341 386.818 162.267C383.328 161.275 379.595 160.322 376.459 158.51C374.069 157.129 372.106 155.358 369.841 153.825C361.998 148.516 354.619 141.981 348.454 134.794C343.697 129.248 338.454 124.072 333.732 118.544C329.996 114.17 324.119 111.272 319.234 108.345C312.893 104.544 306.942 100.831 299.383 100.439C294.902 100.207 290.472 100 286 100" stroke="#2E2E2D" stroke-width="3" stroke-linecap="round"/>
</svg>
