<svg width="244" height="40" viewBox="0 0 244 40" fill="none" xmlns="http://www.w3.org/2000/svg">
<path d="M23.8497 11.112C23.2804 11.112 22.7391 11.098 22.2257 11.07C21.7217 11.042 21.3204 11.0093 21.0217 10.972V1.228C21.3484 1.19067 21.7544 1.158 22.2397 1.13C22.7251 1.102 23.2804 1.088 23.9057 1.088C25.1004 1.088 26.0197 1.31667 26.6637 1.774C27.3077 2.222 27.6297 2.83333 27.6297 3.608C27.6297 4.12133 27.4897 4.56 27.2097 4.924C26.9391 5.27867 26.5424 5.57267 26.0197 5.806C26.6544 6.03 27.1351 6.34267 27.4617 6.744C27.7884 7.136 27.9517 7.62133 27.9517 8.2C27.9517 9.08667 27.6017 9.796 26.9017 10.328C26.2017 10.8507 25.1844 11.112 23.8497 11.112ZM22.3517 5.428H23.8917C24.6291 5.428 25.2124 5.274 25.6417 4.966C26.0804 4.658 26.2997 4.26133 26.2997 3.776C26.2997 3.25333 26.0851 2.85667 25.6557 2.586C25.2264 2.306 24.6384 2.166 23.8917 2.166C23.5837 2.166 23.3037 2.17533 23.0517 2.194C22.7997 2.20333 22.5664 2.21733 22.3517 2.236V5.428ZM23.9477 10.006C24.7784 10.006 25.4271 9.85667 25.8937 9.558C26.3604 9.25933 26.5937 8.82533 26.5937 8.256C26.5937 7.696 26.3651 7.25733 25.9077 6.94C25.4504 6.62267 24.7971 6.464 23.9477 6.464H22.3517V9.922C22.8464 9.978 23.3784 10.006 23.9477 10.006ZM29.8821 14.248C29.6021 14.248 29.3547 14.22 29.1401 14.164C28.9347 14.108 28.7714 14.0427 28.6501 13.968L28.9301 12.918C29.0421 12.9833 29.1821 13.0393 29.3501 13.086C29.5181 13.1327 29.7047 13.156 29.9101 13.156C30.3021 13.156 30.6521 13.03 30.9601 12.778C31.2681 12.526 31.5621 12.0313 31.8421 11.294L32.1641 10.454H31.4921L28.6501 4.056L29.7701 3.552L32.4861 9.614L34.6001 3.608L35.7621 4.056L33.0881 11.364C32.8174 12.1107 32.5234 12.694 32.2061 13.114C31.8887 13.534 31.5387 13.828 31.1561 13.996C30.7734 14.164 30.3487 14.248 29.8821 14.248ZM45.1315 11.168C44.2821 11.168 43.5308 10.9673 42.8775 10.566C42.2241 10.1553 41.7155 9.57667 41.3515 8.83C40.9875 8.074 40.8055 7.178 40.8055 6.142C40.8055 5.14333 40.9875 4.26133 41.3515 3.496C41.7248 2.72133 42.2475 2.11933 42.9195 1.69C43.6008 1.25133 44.3941 1.032 45.2995 1.032C45.7661 1.032 46.1908 1.07867 46.5735 1.172C46.9561 1.256 47.3155 1.37733 47.6515 1.536L47.2455 2.656C46.9561 2.516 46.6575 2.404 46.3495 2.32C46.0508 2.236 45.6961 2.194 45.2855 2.194C44.6881 2.194 44.1515 2.348 43.6755 2.656C43.2088 2.964 42.8401 3.40733 42.5695 3.986C42.2988 4.56467 42.1635 5.26467 42.1635 6.086C42.1635 6.87 42.2941 7.556 42.5555 8.144C42.8261 8.732 43.1948 9.18933 43.6615 9.516C44.1375 9.84267 44.6788 10.006 45.2855 10.006C45.7428 10.006 46.1395 9.95 46.4755 9.838C46.8115 9.726 47.1381 9.58133 47.4555 9.404L47.8615 10.51C47.5161 10.6967 47.1195 10.8553 46.6715 10.986C46.2328 11.1073 45.7195 11.168 45.1315 11.168ZM52.1801 11.168C51.4895 11.168 50.8688 11.0093 50.3181 10.692C49.7675 10.3653 49.3335 9.91733 49.0161 9.348C48.7081 8.76933 48.5541 8.10667 48.5541 7.36C48.5541 6.576 48.7128 5.89933 49.0301 5.33C49.3475 4.76067 49.7815 4.322 50.3321 4.014C50.8828 3.706 51.4988 3.552 52.1801 3.552C52.8615 3.552 53.4728 3.706 54.0141 4.014C54.5648 4.322 54.9988 4.76067 55.3161 5.33C55.6428 5.89 55.8061 6.55733 55.8061 7.332C55.8061 8.10667 55.6475 8.78333 55.3301 9.362C55.0128 9.93133 54.5788 10.3747 54.0281 10.692C53.4868 11.0093 52.8708 11.168 52.1801 11.168ZM52.1801 10.048C52.9175 10.048 53.4915 9.80067 53.9021 9.306C54.3128 8.802 54.5181 8.15333 54.5181 7.36C54.5181 6.87467 54.4155 6.43133 54.2101 6.03C54.0048 5.61933 53.7248 5.29267 53.3701 5.05C53.0248 4.798 52.6281 4.672 52.1801 4.672C51.4428 4.672 50.8688 4.91467 50.4581 5.4C50.0475 5.88533 49.8421 6.52933 49.8421 7.332C49.8421 7.81733 49.9448 8.27 50.1501 8.69C50.3555 9.10067 50.6308 9.432 50.9761 9.684C51.3308 9.92667 51.7321 10.048 52.1801 10.048ZM57.4813 11V3.72H58.6993V4.938C58.9607 4.546 59.292 4.21933 59.6933 3.958C60.104 3.68733 60.5893 3.552 61.1493 3.552C61.9707 3.552 62.582 3.79933 62.9833 4.294C63.394 4.78867 63.5993 5.442 63.5993 6.254V11H62.3393V6.394C62.3393 5.87133 62.2133 5.45133 61.9613 5.134C61.7187 4.81667 61.378 4.658 60.9393 4.658C60.51 4.658 60.104 4.812 59.7213 5.12C59.3387 5.41867 59.012 5.77333 58.7413 6.184V11H57.4813ZM68.3145 11.168C67.6145 11.168 67.0592 10.9393 66.6485 10.482C66.2472 10.0153 66.0465 9.35267 66.0465 8.494V5.078H64.7865V3.986H66.0745L66.3405 1.69H67.3065V3.986H69.3225V5.078H67.3065V8.592C67.3065 9.13333 67.4185 9.51133 67.6425 9.726C67.8758 9.94067 68.1512 10.048 68.4685 10.048C68.7018 10.048 68.9212 10.0107 69.1265 9.936C69.3412 9.86133 69.5372 9.77267 69.7145 9.67L70.0645 10.678C69.8778 10.79 69.6258 10.8973 69.3085 11C68.9912 11.112 68.6598 11.168 68.3145 11.168ZM71.3309 11V3.72H72.5909V11H71.3309ZM71.9609 2.474C71.7183 2.474 71.5083 2.38533 71.3309 2.208C71.1629 2.03067 71.0789 1.82533 71.0789 1.592C71.0789 1.32133 71.1583 1.10667 71.3169 0.947999C71.4756 0.789333 71.6903 0.71 71.9609 0.71C72.2036 0.71 72.4089 0.798666 72.5769 0.976C72.7543 1.144 72.8429 1.34933 72.8429 1.592C72.8429 1.85333 72.7636 2.068 72.6049 2.236C72.4463 2.39467 72.2316 2.474 71.9609 2.474ZM74.8309 11V3.72H76.0489V4.938C76.3103 4.546 76.6416 4.21933 77.0429 3.958C77.4536 3.68733 77.9389 3.552 78.4989 3.552C79.3203 3.552 79.9316 3.79933 80.3329 4.294C80.7436 4.78867 80.9489 5.442 80.9489 6.254V11H79.6889V6.394C79.6889 5.87133 79.5629 5.45133 79.3109 5.134C79.0683 4.81667 78.7276 4.658 78.2889 4.658C77.8596 4.658 77.4536 4.812 77.0709 5.12C76.6883 5.41867 76.3616 5.77333 76.0909 6.184V11H74.8309ZM85.4961 11.168C85.0761 11.168 84.6794 11.0793 84.3061 10.902C83.9328 10.7247 83.6294 10.44 83.3961 10.048C83.1628 9.64667 83.0461 9.11467 83.0461 8.452V3.72H84.3061V8.284C84.3061 8.85333 84.4274 9.292 84.6701 9.6C84.9128 9.89867 85.2674 10.048 85.7341 10.048C86.1168 10.048 86.4854 9.97333 86.8401 9.824C87.2041 9.66533 87.5261 9.45533 87.8061 9.194V3.72H89.0661V9.11C89.0661 9.51133 89.1501 9.77733 89.3181 9.908C89.4954 10.0293 89.6868 10.09 89.8921 10.09L89.6261 11.07C88.7581 11.07 88.2214 10.7247 88.0161 10.034C87.6894 10.37 87.3114 10.6453 86.8821 10.86C86.4528 11.0653 85.9908 11.168 85.4961 11.168ZM91.5653 11V3.72H92.8253V11H91.5653ZM92.1953 2.474C91.9526 2.474 91.7426 2.38533 91.5653 2.208C91.3973 2.03067 91.3133 1.82533 91.3133 1.592C91.3133 1.32133 91.3926 1.10667 91.5513 0.947999C91.71 0.789333 91.9246 0.71 92.1953 0.71C92.438 0.71 92.6433 0.798666 92.8113 0.976C92.9886 1.144 93.0773 1.34933 93.0773 1.592C93.0773 1.85333 92.998 2.068 92.8393 2.236C92.6806 2.39467 92.466 2.474 92.1953 2.474ZM95.0653 11V3.72H96.2833V4.938C96.5446 4.546 96.876 4.21933 97.2773 3.958C97.688 3.68733 98.1733 3.552 98.7333 3.552C99.5546 3.552 100.166 3.79933 100.567 4.294C100.978 4.78867 101.183 5.442 101.183 6.254V11H99.9233V6.394C99.9233 5.87133 99.7973 5.45133 99.5453 5.134C99.3026 4.81667 98.962 4.658 98.5233 4.658C98.094 4.658 97.688 4.812 97.3053 5.12C96.9226 5.41867 96.596 5.77333 96.3253 6.184V11H95.0653ZM106.024 14.248C105.595 14.248 105.175 14.1967 104.764 14.094C104.363 13.9913 104.004 13.8373 103.686 13.632L104.148 12.54C104.372 12.7173 104.634 12.862 104.932 12.974C105.231 13.0953 105.595 13.156 106.024 13.156C106.687 13.156 107.205 12.9787 107.578 12.624C107.961 12.2787 108.152 11.7233 108.152 10.958V10.062C107.966 10.286 107.695 10.5007 107.34 10.706C106.995 10.902 106.58 11 106.094 11C105.544 11 105.021 10.86 104.526 10.58C104.032 10.2907 103.63 9.87067 103.322 9.32C103.014 8.76933 102.86 8.10667 102.86 7.332C102.86 6.604 103.01 5.95533 103.308 5.386C103.616 4.81667 104.027 4.36867 104.54 4.042C105.054 3.71533 105.618 3.552 106.234 3.552C106.645 3.552 107.018 3.622 107.354 3.762C107.69 3.902 107.98 4.07467 108.222 4.28V3.72H109.37V10.832C109.37 11.6347 109.23 12.288 108.95 12.792C108.67 13.296 108.278 13.6647 107.774 13.898C107.28 14.1313 106.696 14.248 106.024 14.248ZM106.374 9.88C106.748 9.88 107.084 9.796 107.382 9.628C107.681 9.46 107.924 9.264 108.11 9.04V5.232C107.905 5.08267 107.658 4.94733 107.368 4.826C107.079 4.70467 106.743 4.644 106.36 4.644C105.978 4.644 105.618 4.74667 105.282 4.952C104.946 5.15733 104.671 5.456 104.456 5.848C104.251 6.23067 104.148 6.702 104.148 7.262C104.148 7.794 104.251 8.256 104.456 8.648C104.671 9.04 104.946 9.34333 105.282 9.558C105.618 9.77267 105.982 9.88 106.374 9.88ZM115.919 14.248C115.639 14.248 115.392 14.22 115.177 14.164C114.972 14.108 114.809 14.0427 114.687 13.968L114.967 12.918C115.079 12.9833 115.219 13.0393 115.387 13.086C115.555 13.1327 115.742 13.156 115.947 13.156C116.339 13.156 116.689 13.03 116.997 12.778C117.305 12.526 117.599 12.0313 117.879 11.294L118.201 10.454H117.529L114.687 4.056L115.807 3.552L118.523 9.614L120.637 3.608L121.799 4.056L119.125 11.364C118.855 12.1107 118.561 12.694 118.243 13.114C117.926 13.534 117.576 13.828 117.193 13.996C116.811 14.164 116.386 14.248 115.919 14.248ZM125.858 11.168C125.167 11.168 124.547 11.0093 123.996 10.692C123.445 10.3653 123.011 9.91733 122.694 9.348C122.386 8.76933 122.232 8.10667 122.232 7.36C122.232 6.576 122.391 5.89933 122.708 5.33C123.025 4.76067 123.459 4.322 124.01 4.014C124.561 3.706 125.177 3.552 125.858 3.552C126.539 3.552 127.151 3.706 127.692 4.014C128.243 4.322 128.677 4.76067 128.994 5.33C129.321 5.89 129.484 6.55733 129.484 7.332C129.484 8.10667 129.325 8.78333 129.008 9.362C128.691 9.93133 128.257 10.3747 127.706 10.692C127.165 11.0093 126.549 11.168 125.858 11.168ZM125.858 10.048C126.595 10.048 127.169 9.80067 127.58 9.306C127.991 8.802 128.196 8.15333 128.196 7.36C128.196 6.87467 128.093 6.43133 127.888 6.03C127.683 5.61933 127.403 5.29267 127.048 5.05C126.703 4.798 126.306 4.672 125.858 4.672C125.121 4.672 124.547 4.91467 124.136 5.4C123.725 5.88533 123.52 6.52933 123.52 7.332C123.52 7.81733 123.623 8.27 123.828 8.69C124.033 9.10067 124.309 9.432 124.654 9.684C125.009 9.92667 125.41 10.048 125.858 10.048ZM133.539 11.168C133.119 11.168 132.722 11.0793 132.349 10.902C131.976 10.7247 131.672 10.44 131.439 10.048C131.206 9.64667 131.089 9.11467 131.089 8.452V3.72H132.349V8.284C132.349 8.85333 132.47 9.292 132.713 9.6C132.956 9.89867 133.31 10.048 133.777 10.048C134.16 10.048 134.528 9.97333 134.883 9.824C135.247 9.66533 135.569 9.45533 135.849 9.194V3.72H137.109V9.11C137.109 9.51133 137.193 9.77733 137.361 9.908C137.538 10.0293 137.73 10.09 137.935 10.09L137.669 11.07C136.801 11.07 136.264 10.7247 136.059 10.034C135.732 10.37 135.354 10.6453 134.925 10.86C134.496 11.0653 134.034 11.168 133.539 11.168ZM146.592 11.168C145.985 11.168 145.434 11.014 144.94 10.706C144.445 10.398 144.048 9.964 143.75 9.404C143.46 8.83467 143.316 8.16733 143.316 7.402C143.316 6.674 143.46 6.02067 143.75 5.442C144.048 4.86333 144.454 4.406 144.968 4.07C145.49 3.72467 146.088 3.552 146.76 3.552C147.18 3.552 147.558 3.62667 147.894 3.776C148.239 3.916 148.538 4.09333 148.79 4.308V3.72H149.938V9.236C149.938 9.59067 150.022 9.824 150.19 9.936C150.367 10.0387 150.558 10.09 150.764 10.09L150.498 11.07C149.602 11.07 149.06 10.706 148.874 9.978C148.659 10.2767 148.365 10.552 147.992 10.804C147.628 11.0467 147.161 11.168 146.592 11.168ZM146.872 10.048C147.226 10.048 147.562 9.964 147.88 9.796C148.197 9.61867 148.463 9.39933 148.678 9.138V5.232C148.426 5.05467 148.146 4.91467 147.838 4.812C147.539 4.7 147.222 4.644 146.886 4.644C146.438 4.644 146.041 4.76067 145.696 4.994C145.36 5.218 145.094 5.53533 144.898 5.946C144.702 6.34733 144.604 6.81867 144.604 7.36C144.604 7.88267 144.702 8.34933 144.898 8.76C145.094 9.16133 145.364 9.47867 145.71 9.712C146.055 9.936 146.442 10.048 146.872 10.048ZM154.983 14.248C154.554 14.248 154.134 14.1967 153.723 14.094C153.322 13.9913 152.963 13.8373 152.645 13.632L153.107 12.54C153.331 12.7173 153.593 12.862 153.891 12.974C154.19 13.0953 154.554 13.156 154.983 13.156C155.646 13.156 156.164 12.9787 156.537 12.624C156.92 12.2787 157.111 11.7233 157.111 10.958V10.062C156.925 10.286 156.654 10.5007 156.299 10.706C155.954 10.902 155.539 11 155.053 11C154.503 11 153.98 10.86 153.485 10.58C152.991 10.2907 152.589 9.87067 152.281 9.32C151.973 8.76933 151.819 8.10667 151.819 7.332C151.819 6.604 151.969 5.95533 152.267 5.386C152.575 4.81667 152.986 4.36867 153.499 4.042C154.013 3.71533 154.577 3.552 155.193 3.552C155.604 3.552 155.977 3.622 156.313 3.762C156.649 3.902 156.939 4.07467 157.181 4.28V3.72H158.329V10.832C158.329 11.6347 158.189 12.288 157.909 12.792C157.629 13.296 157.237 13.6647 156.733 13.898C156.239 14.1313 155.655 14.248 154.983 14.248ZM155.333 9.88C155.707 9.88 156.043 9.796 156.341 9.628C156.64 9.46 156.883 9.264 157.069 9.04V5.232C156.864 5.08267 156.617 4.94733 156.327 4.826C156.038 4.70467 155.702 4.644 155.319 4.644C154.937 4.644 154.577 4.74667 154.241 4.952C153.905 5.15733 153.63 5.456 153.415 5.848C153.21 6.23067 153.107 6.702 153.107 7.262C153.107 7.794 153.21 8.256 153.415 8.648C153.63 9.04 153.905 9.34333 154.241 9.558C154.577 9.77267 154.941 9.88 155.333 9.88ZM160.499 11V3.72H161.717V5.302C161.838 4.994 162.002 4.70933 162.207 4.448C162.412 4.17733 162.669 3.96267 162.977 3.804C163.285 3.636 163.644 3.552 164.055 3.552C164.195 3.552 164.335 3.56133 164.475 3.58C164.615 3.58933 164.732 3.608 164.825 3.636L164.447 4.938C164.27 4.86333 164.06 4.826 163.817 4.826C163.472 4.826 163.14 4.924 162.823 5.12C162.515 5.316 162.258 5.61933 162.053 6.03C161.857 6.44067 161.759 6.96333 161.759 7.598V11H160.499ZM168.579 11.168C167.534 11.168 166.703 10.8367 166.087 10.174C165.48 9.502 165.177 8.564 165.177 7.36C165.177 6.632 165.312 5.98333 165.583 5.414C165.863 4.83533 166.25 4.38267 166.745 4.056C167.24 3.72 167.814 3.552 168.467 3.552C169.167 3.552 169.746 3.706 170.203 4.014C170.67 4.31267 171.02 4.71867 171.253 5.232C171.486 5.74533 171.603 6.31 171.603 6.926C171.603 7.25267 171.589 7.57 171.561 7.878H166.465C166.549 8.55933 166.787 9.09133 167.179 9.474C167.571 9.85667 168.089 10.048 168.733 10.048C169.153 10.048 169.531 10.006 169.867 9.922C170.203 9.82867 170.525 9.712 170.833 9.572L171.127 10.65C170.791 10.7993 170.413 10.9207 169.993 11.014C169.573 11.1167 169.102 11.168 168.579 11.168ZM166.451 6.856H170.441C170.441 6.14667 170.264 5.60067 169.909 5.218C169.554 4.83533 169.064 4.644 168.439 4.644C167.898 4.644 167.45 4.83533 167.095 5.218C166.74 5.59133 166.526 6.13733 166.451 6.856ZM176.194 11.168C175.149 11.168 174.318 10.8367 173.702 10.174C173.095 9.502 172.792 8.564 172.792 7.36C172.792 6.632 172.927 5.98333 173.198 5.414C173.478 4.83533 173.865 4.38267 174.36 4.056C174.855 3.72 175.429 3.552 176.082 3.552C176.782 3.552 177.361 3.706 177.818 4.014C178.285 4.31267 178.635 4.71867 178.868 5.232C179.101 5.74533 179.218 6.31 179.218 6.926C179.218 7.25267 179.204 7.57 179.176 7.878H174.08C174.164 8.55933 174.402 9.09133 174.794 9.474C175.186 9.85667 175.704 10.048 176.348 10.048C176.768 10.048 177.146 10.006 177.482 9.922C177.818 9.82867 178.14 9.712 178.448 9.572L178.742 10.65C178.406 10.7993 178.028 10.9207 177.608 11.014C177.188 11.1167 176.717 11.168 176.194 11.168ZM174.066 6.856H178.056C178.056 6.14667 177.879 5.60067 177.524 5.218C177.169 4.83533 176.679 4.644 176.054 4.644C175.513 4.644 175.065 4.83533 174.71 5.218C174.355 5.59133 174.141 6.13733 174.066 6.856ZM187.643 11.168C186.943 11.168 186.387 10.9393 185.977 10.482C185.575 10.0153 185.375 9.35267 185.375 8.494V5.078H184.115V3.986H185.403L185.669 1.69H186.635V3.986H188.651V5.078H186.635V8.592C186.635 9.13333 186.747 9.51133 186.971 9.726C187.204 9.94067 187.479 10.048 187.797 10.048C188.03 10.048 188.249 10.0107 188.455 9.936C188.669 9.86133 188.865 9.77267 189.043 9.67L189.393 10.678C189.206 10.79 188.954 10.8973 188.637 11C188.319 11.112 187.988 11.168 187.643 11.168ZM193.452 11.168C192.761 11.168 192.14 11.0093 191.59 10.692C191.039 10.3653 190.605 9.91733 190.288 9.348C189.98 8.76933 189.826 8.10667 189.826 7.36C189.826 6.576 189.984 5.89933 190.302 5.33C190.619 4.76067 191.053 4.322 191.604 4.014C192.154 3.706 192.77 3.552 193.452 3.552C194.133 3.552 194.744 3.706 195.286 4.014C195.836 4.322 196.27 4.76067 196.588 5.33C196.914 5.89 197.078 6.55733 197.078 7.332C197.078 8.10667 196.919 8.78333 196.602 9.362C196.284 9.93133 195.85 10.3747 195.3 10.692C194.758 11.0093 194.142 11.168 193.452 11.168ZM193.452 10.048C194.189 10.048 194.763 9.80067 195.174 9.306C195.584 8.802 195.79 8.15333 195.79 7.36C195.79 6.87467 195.687 6.43133 195.482 6.03C195.276 5.61933 194.996 5.29267 194.642 5.05C194.296 4.798 193.9 4.672 193.452 4.672C192.714 4.672 192.14 4.91467 191.73 5.4C191.319 5.88533 191.114 6.52933 191.114 7.332C191.114 7.81733 191.216 8.27 191.422 8.69C191.627 9.10067 191.902 9.432 192.248 9.684C192.602 9.92667 193.004 10.048 193.452 10.048ZM206.016 11.168C205.325 11.168 204.705 11.0093 204.154 10.692C203.603 10.3653 203.169 9.91733 202.852 9.348C202.544 8.76933 202.39 8.10667 202.39 7.36C202.39 6.576 202.549 5.89933 202.866 5.33C203.183 4.76067 203.617 4.322 204.168 4.014C204.719 3.706 205.335 3.552 206.016 3.552C206.697 3.552 207.309 3.706 207.85 4.014C208.401 4.322 208.835 4.76067 209.152 5.33C209.479 5.89 209.642 6.55733 209.642 7.332C209.642 8.10667 209.483 8.78333 209.166 9.362C208.849 9.93133 208.415 10.3747 207.864 10.692C207.323 11.0093 206.707 11.168 206.016 11.168ZM206.016 10.048C206.753 10.048 207.327 9.80067 207.738 9.306C208.149 8.802 208.354 8.15333 208.354 7.36C208.354 6.87467 208.251 6.43133 208.046 6.03C207.841 5.61933 207.561 5.29267 207.206 5.05C206.861 4.798 206.464 4.672 206.016 4.672C205.279 4.672 204.705 4.91467 204.294 5.4C203.883 5.88533 203.678 6.52933 203.678 7.332C203.678 7.81733 203.781 8.27 203.986 8.69C204.191 9.10067 204.467 9.432 204.812 9.684C205.167 9.92667 205.568 10.048 206.016 10.048ZM213.697 11.168C213.277 11.168 212.881 11.0793 212.507 10.902C212.134 10.7247 211.831 10.44 211.597 10.048C211.364 9.64667 211.247 9.11467 211.247 8.452V3.72H212.507V8.284C212.507 8.85333 212.629 9.292 212.871 9.6C213.114 9.89867 213.469 10.048 213.935 10.048C214.318 10.048 214.687 9.97333 215.041 9.824C215.405 9.66533 215.727 9.45533 216.007 9.194V3.72H217.267V9.11C217.267 9.51133 217.351 9.77733 217.519 9.908C217.697 10.0293 217.888 10.09 218.093 10.09L217.827 11.07C216.959 11.07 216.423 10.7247 216.217 10.034C215.891 10.37 215.513 10.6453 215.083 10.86C214.654 11.0653 214.192 11.168 213.697 11.168ZM219.766 11V3.72H220.984V5.302C221.106 4.994 221.269 4.70933 221.474 4.448C221.68 4.17733 221.936 3.96267 222.244 3.804C222.552 3.636 222.912 3.552 223.322 3.552C223.462 3.552 223.602 3.56133 223.742 3.58C223.882 3.58933 223.999 3.608 224.092 3.636L223.714 4.938C223.537 4.86333 223.327 4.826 223.084 4.826C222.739 4.826 222.408 4.924 222.09 5.12C221.782 5.316 221.526 5.61933 221.32 6.03C221.124 6.44067 221.026 6.96333 221.026 7.598V11H219.766ZM128.374 36.168C127.767 36.168 127.216 36.014 126.722 35.706C126.227 35.398 125.83 34.964 125.532 34.404C125.242 33.8347 125.098 33.1673 125.098 32.402C125.098 31.674 125.242 31.0207 125.532 30.442C125.83 29.8633 126.236 29.406 126.75 29.07C127.272 28.7247 127.87 28.552 128.542 28.552C128.962 28.552 129.34 28.6267 129.676 28.776C130.021 28.916 130.32 29.0933 130.572 29.308V28.72H131.72V34.236C131.72 34.5907 131.804 34.824 131.972 34.936C132.149 35.0387 132.34 35.09 132.546 35.09L132.28 36.07C131.384 36.07 130.842 35.706 130.656 34.978C130.441 35.2767 130.147 35.552 129.774 35.804C129.41 36.0467 128.943 36.168 128.374 36.168ZM128.654 35.048C129.008 35.048 129.344 34.964 129.662 34.796C129.979 34.6187 130.245 34.3993 130.46 34.138V30.232C130.208 30.0547 129.928 29.9147 129.62 29.812C129.321 29.7 129.004 29.644 128.668 29.644C128.22 29.644 127.823 29.7607 127.478 29.994C127.142 30.218 126.876 30.5353 126.68 30.946C126.484 31.3473 126.386 31.8187 126.386 32.36C126.386 32.8827 126.484 33.3493 126.68 33.76C126.876 34.1613 127.146 34.4787 127.492 34.712C127.837 34.936 128.224 35.048 128.654 35.048ZM134.228 36V28.72H135.446V29.938C135.708 29.546 136.039 29.2193 136.44 28.958C136.851 28.6873 137.336 28.552 137.896 28.552C138.718 28.552 139.329 28.7993 139.73 29.294C140.141 29.7887 140.346 30.442 140.346 31.254V36H139.086V31.394C139.086 30.8713 138.96 30.4513 138.708 30.134C138.466 29.8167 138.125 29.658 137.686 29.658C137.257 29.658 136.851 29.812 136.468 30.12C136.086 30.4187 135.759 30.7733 135.488 31.184V36H134.228ZM145.272 36.168C144.674 36.168 144.128 36.014 143.634 35.706C143.139 35.398 142.747 34.964 142.458 34.404C142.168 33.8347 142.024 33.1673 142.024 32.402C142.024 31.6647 142.168 31.0067 142.458 30.428C142.756 29.8493 143.148 29.392 143.634 29.056C144.128 28.72 144.67 28.552 145.258 28.552C145.743 28.552 146.158 28.65 146.504 28.846C146.858 29.042 147.134 29.2427 147.33 29.448V25.64H148.59V34.236C148.59 34.5907 148.674 34.824 148.842 34.936C149.019 35.0387 149.21 35.09 149.416 35.09L149.15 36.07C148.263 36.07 147.722 35.7153 147.526 35.006C147.32 35.2953 147.031 35.5613 146.658 35.804C146.294 36.0467 145.832 36.168 145.272 36.168ZM145.552 35.048C145.897 35.048 146.224 34.9687 146.532 34.81C146.849 34.642 147.115 34.4273 147.33 34.166V30.554C147.152 30.33 146.905 30.1247 146.588 29.938C146.27 29.742 145.92 29.644 145.538 29.644C145.09 29.644 144.698 29.7653 144.362 30.008C144.026 30.2507 143.764 30.5773 143.578 30.988C143.4 31.3893 143.312 31.8467 143.312 32.36C143.312 32.8733 143.41 33.3353 143.606 33.746C143.802 34.1473 144.068 34.4647 144.404 34.698C144.749 34.9313 145.132 35.048 145.552 35.048Z" fill="#2E2E2D"/>
<path d="M3.3541 36V27.376H0.344102V26.2H7.6941V27.376H4.6841V36H3.3541ZM10.6756 36.168C9.63022 36.168 8.79955 35.8367 8.18355 35.174C7.57689 34.502 7.27355 33.564 7.27355 32.36C7.27355 31.632 7.40889 30.9833 7.67955 30.414C7.95955 29.8353 8.34689 29.3827 8.84155 29.056C9.33622 28.72 9.91022 28.552 10.5636 28.552C11.2636 28.552 11.8422 28.706 12.2996 29.014C12.7662 29.3127 13.1162 29.7187 13.3496 30.232C13.5829 30.7453 13.6996 31.31 13.6996 31.926C13.6996 32.2527 13.6856 32.57 13.6576 32.878H8.56155C8.64555 33.5593 8.88355 34.0913 9.27555 34.474C9.66755 34.8567 10.1856 35.048 10.8296 35.048C11.2496 35.048 11.6276 35.006 11.9636 34.922C12.2996 34.8287 12.6216 34.712 12.9296 34.572L13.2236 35.65C12.8876 35.7993 12.5096 35.9207 12.0896 36.014C11.6696 36.1167 11.1982 36.168 10.6756 36.168ZM8.54755 31.856H12.5376C12.5376 31.1467 12.3602 30.6007 12.0056 30.218C11.6509 29.8353 11.1609 29.644 10.5356 29.644C9.99422 29.644 9.54622 29.8353 9.19155 30.218C8.83689 30.5913 8.62222 31.1373 8.54755 31.856ZM15.3788 36V28.72H16.5968V30.302C16.7181 29.994 16.8815 29.7093 17.0868 29.448C17.2921 29.1773 17.5488 28.9627 17.8568 28.804C18.1648 28.636 18.5241 28.552 18.9348 28.552C19.0748 28.552 19.2148 28.5613 19.3548 28.58C19.4948 28.5893 19.6115 28.608 19.7048 28.636L19.3268 29.938C19.1495 29.8633 18.9395 29.826 18.6968 29.826C18.3515 29.826 18.0201 29.924 17.7028 30.12C17.3948 30.316 17.1381 30.6193 16.9328 31.03C16.7368 31.4407 16.6388 31.9633 16.6388 32.598V36H15.3788ZM20.9706 36V28.72H22.1886V29.938C22.4499 29.546 22.7813 29.2193 23.1826 28.958C23.5839 28.6873 24.0413 28.552 24.5546 28.552C25.1333 28.552 25.6046 28.692 25.9686 28.972C26.3419 29.252 26.6033 29.6253 26.7526 30.092C27.0419 29.6627 27.3826 29.2987 27.7746 29C28.1759 28.7013 28.6706 28.552 29.2586 28.552C30.0519 28.552 30.6399 28.804 31.0226 29.308C31.4146 29.8027 31.6106 30.4513 31.6106 31.254V36H30.3506V31.352C30.3506 30.848 30.2339 30.442 30.0006 30.134C29.7673 29.8167 29.4453 29.658 29.0346 29.658C28.6146 29.658 28.2226 29.8167 27.8586 30.134C27.5039 30.442 27.1913 30.806 26.9206 31.226V36H25.6606V31.352C25.6606 30.848 25.5439 30.442 25.3106 30.134C25.0773 29.8167 24.7553 29.658 24.3446 29.658C23.9339 29.658 23.5466 29.812 23.1826 30.12C22.8186 30.4187 22.5013 30.7733 22.2306 31.184V36H20.9706ZM35.7411 36.168C35.1905 36.168 34.6911 36.098 34.2431 35.958C33.8045 35.818 33.4405 35.636 33.1511 35.412L33.6831 34.362C33.9258 34.5673 34.2291 34.74 34.5931 34.88C34.9665 35.0107 35.3631 35.076 35.7831 35.076C36.3058 35.076 36.6978 34.992 36.9591 34.824C37.2298 34.6467 37.3651 34.4227 37.3651 34.152C37.3651 33.956 37.3138 33.7833 37.2111 33.634C37.1178 33.4847 36.9405 33.34 36.6791 33.2C36.4178 33.0507 36.0398 32.892 35.5451 32.724C34.8638 32.4907 34.3505 32.2153 34.0051 31.898C33.6691 31.5713 33.5011 31.1233 33.5011 30.554C33.5011 29.994 33.7438 29.5227 34.2291 29.14C34.7238 28.748 35.4051 28.552 36.2731 28.552C36.7398 28.552 37.1551 28.6033 37.5191 28.706C37.8831 28.7993 38.2098 28.9207 38.4991 29.07L38.1491 30.106C37.8971 29.9567 37.6078 29.8353 37.2811 29.742C36.9638 29.6487 36.6091 29.602 36.2171 29.602C35.7318 29.602 35.3631 29.7 35.1111 29.896C34.8591 30.092 34.7331 30.3067 34.7331 30.54C34.7331 30.764 34.8311 30.9553 35.0271 31.114C35.2231 31.2727 35.6058 31.4453 36.1751 31.632C37.0991 31.94 37.7431 32.2807 38.1071 32.654C38.4711 33.0273 38.6531 33.494 38.6531 34.054C38.6531 34.7073 38.3871 35.2253 37.8551 35.608C37.3325 35.9813 36.6278 36.168 35.7411 36.168ZM47.7472 36.168C47.1872 36.168 46.6739 36.0607 46.2072 35.846C45.7406 35.622 45.3672 35.314 45.0872 34.922C44.8072 34.5207 44.6672 34.0493 44.6672 33.508C44.6672 32.92 44.8166 32.388 45.1152 31.912C45.4139 31.436 45.9086 31.0067 46.5992 30.624C46.2539 30.2413 45.9926 29.882 45.8152 29.546C45.6472 29.21 45.5632 28.8227 45.5632 28.384C45.5632 27.936 45.6612 27.5347 45.8572 27.18C46.0626 26.8253 46.3519 26.5453 46.7252 26.34C47.0986 26.1347 47.5372 26.032 48.0412 26.032C48.5452 26.032 48.9699 26.13 49.3152 26.326C49.6699 26.5127 49.9406 26.7647 50.1272 27.082C50.3139 27.3993 50.4072 27.7493 50.4072 28.132C50.4072 28.7293 50.2346 29.238 49.8892 29.658C49.5439 30.078 48.9979 30.47 48.2512 30.834L50.5612 33.032C50.6826 32.8173 50.7712 32.5887 50.8272 32.346C50.8832 32.094 50.9346 31.8467 50.9812 31.604C51.0372 31.352 51.1166 31.128 51.2192 30.932C51.3219 30.7267 51.4759 30.5633 51.6812 30.442C51.8866 30.3207 52.1666 30.26 52.5212 30.26L52.8292 31.254C52.5399 31.254 52.3299 31.338 52.1992 31.506C52.0686 31.674 51.9706 31.8887 51.9052 32.15C51.8492 32.4113 51.7839 32.6867 51.7092 32.976C51.6439 33.256 51.5319 33.5173 51.3732 33.76L53.0252 35.272L52.2412 36.112L50.7572 34.712C50.3839 35.1413 49.9592 35.4913 49.4832 35.762C49.0166 36.0327 48.4379 36.168 47.7472 36.168ZM47.6352 30.176C48.2139 29.8773 48.6246 29.5787 48.8672 29.28C49.1192 28.9813 49.2452 28.6407 49.2452 28.258C49.2452 27.922 49.1332 27.6373 48.9092 27.404C48.6852 27.1613 48.3866 27.04 48.0132 27.04C47.6399 27.04 47.3319 27.166 47.0892 27.418C46.8466 27.67 46.7252 27.9873 46.7252 28.37C46.7252 28.9767 47.0286 29.5787 47.6352 30.176ZM47.9432 35.02C48.3446 35.02 48.7179 34.9267 49.0632 34.74C49.4179 34.544 49.7259 34.278 49.9872 33.942L47.2292 31.296C46.8186 31.5853 46.5106 31.8887 46.3052 32.206C46.0999 32.514 45.9972 32.8873 45.9972 33.326C45.9972 33.8113 46.1792 34.2173 46.5432 34.544C46.9072 34.8613 47.3739 35.02 47.9432 35.02ZM62.9528 36.168C62.1034 36.168 61.3521 35.9673 60.6988 35.566C60.0454 35.1553 59.5368 34.5767 59.1728 33.83C58.8088 33.074 58.6268 32.178 58.6268 31.142C58.6268 30.1433 58.8088 29.2613 59.1728 28.496C59.5461 27.7213 60.0688 27.1193 60.7408 26.69C61.4221 26.2513 62.2154 26.032 63.1208 26.032C63.5874 26.032 64.0121 26.0787 64.3948 26.172C64.7774 26.256 65.1368 26.3773 65.4728 26.536L65.0668 27.656C64.7774 27.516 64.4788 27.404 64.1708 27.32C63.8721 27.236 63.5174 27.194 63.1068 27.194C62.5094 27.194 61.9728 27.348 61.4968 27.656C61.0301 27.964 60.6614 28.4073 60.3908 28.986C60.1201 29.5647 59.9848 30.2647 59.9848 31.086C59.9848 31.87 60.1154 32.556 60.3768 33.144C60.6474 33.732 61.0161 34.1893 61.4828 34.516C61.9588 34.8427 62.5001 35.006 63.1068 35.006C63.5641 35.006 63.9608 34.95 64.2968 34.838C64.6328 34.726 64.9594 34.5813 65.2768 34.404L65.6828 35.51C65.3374 35.6967 64.9408 35.8553 64.4928 35.986C64.0541 36.1073 63.5408 36.168 62.9528 36.168ZM70.0014 36.168C69.3108 36.168 68.6901 36.0093 68.1394 35.692C67.5888 35.3653 67.1548 34.9173 66.8374 34.348C66.5294 33.7693 66.3754 33.1067 66.3754 32.36C66.3754 31.576 66.5341 30.8993 66.8514 30.33C67.1688 29.7607 67.6028 29.322 68.1534 29.014C68.7041 28.706 69.3201 28.552 70.0014 28.552C70.6828 28.552 71.2941 28.706 71.8354 29.014C72.3861 29.322 72.8201 29.7607 73.1374 30.33C73.4641 30.89 73.6274 31.5573 73.6274 32.332C73.6274 33.1067 73.4688 33.7833 73.1514 34.362C72.8341 34.9313 72.4001 35.3747 71.8494 35.692C71.3081 36.0093 70.6921 36.168 70.0014 36.168ZM70.0014 35.048C70.7388 35.048 71.3128 34.8007 71.7234 34.306C72.1341 33.802 72.3394 33.1533 72.3394 32.36C72.3394 31.8747 72.2368 31.4313 72.0314 31.03C71.8261 30.6193 71.5461 30.2927 71.1914 30.05C70.8461 29.798 70.4494 29.672 70.0014 29.672C69.2641 29.672 68.6901 29.9147 68.2794 30.4C67.8688 30.8853 67.6634 31.5293 67.6634 32.332C67.6634 32.8173 67.7661 33.27 67.9714 33.69C68.1768 34.1007 68.4521 34.432 68.7974 34.684C69.1521 34.9267 69.5534 35.048 70.0014 35.048ZM75.3026 36V28.72H76.5206V29.938C76.782 29.546 77.1133 29.2193 77.5146 28.958C77.9253 28.6873 78.4106 28.552 78.9706 28.552C79.792 28.552 80.4033 28.7993 80.8046 29.294C81.2153 29.7887 81.4206 30.442 81.4206 31.254V36H80.1606V31.394C80.1606 30.8713 80.0346 30.4513 79.7826 30.134C79.54 29.8167 79.1993 29.658 78.7606 29.658C78.3313 29.658 77.9253 29.812 77.5426 30.12C77.16 30.4187 76.8333 30.7733 76.5626 31.184V36H75.3026ZM86.3458 36.168C85.7484 36.168 85.2024 36.014 84.7078 35.706C84.2131 35.398 83.8211 34.964 83.5318 34.404C83.2424 33.8347 83.0978 33.1673 83.0978 32.402C83.0978 31.6647 83.2424 31.0067 83.5318 30.428C83.8304 29.8493 84.2224 29.392 84.7078 29.056C85.2024 28.72 85.7438 28.552 86.3318 28.552C86.8171 28.552 87.2324 28.65 87.5778 28.846C87.9324 29.042 88.2078 29.2427 88.4038 29.448V25.64H89.6638V34.236C89.6638 34.5907 89.7478 34.824 89.9158 34.936C90.0931 35.0387 90.2844 35.09 90.4898 35.09L90.2238 36.07C89.3371 36.07 88.7958 35.7153 88.5998 35.006C88.3944 35.2953 88.1051 35.5613 87.7318 35.804C87.3678 36.0467 86.9058 36.168 86.3458 36.168ZM86.6258 35.048C86.9711 35.048 87.2978 34.9687 87.6058 34.81C87.9231 34.642 88.1891 34.4273 88.4038 34.166V30.554C88.2264 30.33 87.9791 30.1247 87.6618 29.938C87.3444 29.742 86.9944 29.644 86.6118 29.644C86.1638 29.644 85.7718 29.7653 85.4358 30.008C85.0998 30.2507 84.8384 30.5773 84.6518 30.988C84.4744 31.3893 84.3858 31.8467 84.3858 32.36C84.3858 32.8733 84.4838 33.3353 84.6798 33.746C84.8758 34.1473 85.1418 34.4647 85.4778 34.698C85.8231 34.9313 86.2058 35.048 86.6258 35.048ZM92.1737 36V28.72H93.4337V36H92.1737ZM92.8037 27.474C92.561 27.474 92.351 27.3853 92.1737 27.208C92.0057 27.0307 91.9217 26.8253 91.9217 26.592C91.9217 26.3213 92.001 26.1067 92.1597 25.948C92.3184 25.7893 92.533 25.71 92.8037 25.71C93.0464 25.71 93.2517 25.7987 93.4197 25.976C93.597 26.144 93.6857 26.3493 93.6857 26.592C93.6857 26.8533 93.6064 27.068 93.4477 27.236C93.289 27.3947 93.0744 27.474 92.8037 27.474ZM98.2217 36.168C97.5217 36.168 96.9664 35.9393 96.5557 35.482C96.1544 35.0153 95.9537 34.3527 95.9537 33.494V30.078H94.6937V28.986H95.9817L96.2477 26.69H97.2137V28.986H99.2297V30.078H97.2137V33.592C97.2137 34.1333 97.3257 34.5113 97.5497 34.726C97.783 34.9407 98.0584 35.048 98.3757 35.048C98.609 35.048 98.8284 35.0107 99.0337 34.936C99.2484 34.8613 99.4444 34.7727 99.6217 34.67L99.9717 35.678C99.785 35.79 99.533 35.8973 99.2157 36C98.8984 36.112 98.567 36.168 98.2217 36.168ZM101.238 36V28.72H102.498V36H101.238ZM101.868 27.474C101.625 27.474 101.415 27.3853 101.238 27.208C101.07 27.0307 100.986 26.8253 100.986 26.592C100.986 26.3213 101.065 26.1067 101.224 25.948C101.383 25.7893 101.597 25.71 101.868 25.71C102.111 25.71 102.316 25.7987 102.484 25.976C102.661 26.144 102.75 26.3493 102.75 26.592C102.75 26.8533 102.671 27.068 102.512 27.236C102.353 27.3947 102.139 27.474 101.868 27.474ZM107.804 36.168C107.113 36.168 106.493 36.0093 105.942 35.692C105.391 35.3653 104.957 34.9173 104.64 34.348C104.332 33.7693 104.178 33.1067 104.178 32.36C104.178 31.576 104.337 30.8993 104.654 30.33C104.971 29.7607 105.405 29.322 105.956 29.014C106.507 28.706 107.123 28.552 107.804 28.552C108.485 28.552 109.097 28.706 109.638 29.014C110.189 29.322 110.623 29.7607 110.94 30.33C111.267 30.89 111.43 31.5573 111.43 32.332C111.43 33.1067 111.271 33.7833 110.954 34.362C110.637 34.9313 110.203 35.3747 109.652 35.692C109.111 36.0093 108.495 36.168 107.804 36.168ZM107.804 35.048C108.541 35.048 109.115 34.8007 109.526 34.306C109.937 33.802 110.142 33.1533 110.142 32.36C110.142 31.8747 110.039 31.4313 109.834 31.03C109.629 30.6193 109.349 30.2927 108.994 30.05C108.649 29.798 108.252 29.672 107.804 29.672C107.067 29.672 106.493 29.9147 106.082 30.4C105.671 30.8853 105.466 31.5293 105.466 32.332C105.466 32.8173 105.569 33.27 105.774 33.69C105.979 34.1007 106.255 34.432 106.6 34.684C106.955 34.9267 107.356 35.048 107.804 35.048ZM113.105 36V28.72H114.323V29.938C114.585 29.546 114.916 29.2193 115.317 28.958C115.728 28.6873 116.213 28.552 116.773 28.552C117.595 28.552 118.206 28.7993 118.607 29.294C119.018 29.7887 119.223 30.442 119.223 31.254V36H117.963V31.394C117.963 30.8713 117.837 30.4513 117.585 30.134C117.343 29.8167 117.002 29.658 116.563 29.658C116.134 29.658 115.728 29.812 115.345 30.12C114.963 30.4187 114.636 30.7733 114.365 31.184V36H113.105ZM155.437 36V26.228C155.819 26.1813 156.239 26.1487 156.697 26.13C157.163 26.102 157.644 26.088 158.139 26.088C158.951 26.088 159.641 26.2187 160.211 26.48C160.78 26.732 161.214 27.082 161.513 27.53C161.811 27.978 161.961 28.4913 161.961 29.07C161.961 29.77 161.788 30.3627 161.443 30.848C161.097 31.3333 160.617 31.7067 160.001 31.968C159.385 32.22 158.671 32.346 157.859 32.346C157.467 32.346 157.103 32.332 156.767 32.304V36H155.437ZM158.027 31.24C158.857 31.24 159.501 31.0533 159.959 30.68C160.416 30.3067 160.645 29.8073 160.645 29.182C160.645 28.5753 160.425 28.0947 159.987 27.74C159.548 27.3853 158.923 27.208 158.111 27.208C157.859 27.208 157.621 27.2127 157.397 27.222C157.173 27.2313 156.963 27.2453 156.767 27.264V31.17C156.916 31.1887 157.098 31.2073 157.313 31.226C157.527 31.2353 157.765 31.24 158.027 31.24ZM163.432 36V28.72H164.65V30.302C164.771 29.994 164.934 29.7093 165.14 29.448C165.345 29.1773 165.602 28.9627 165.91 28.804C166.218 28.636 166.577 28.552 166.988 28.552C167.128 28.552 167.268 28.5613 167.408 28.58C167.548 28.5893 167.664 28.608 167.758 28.636L167.38 29.938C167.202 29.8633 166.992 29.826 166.75 29.826C166.404 29.826 166.073 29.924 165.756 30.12C165.448 30.316 165.191 30.6193 164.986 31.03C164.79 31.4407 164.692 31.9633 164.692 32.598V36H163.432ZM169.023 36V28.72H170.283V36H169.023ZM169.653 27.474C169.411 27.474 169.201 27.3853 169.023 27.208C168.855 27.0307 168.771 26.8253 168.771 26.592C168.771 26.3213 168.851 26.1067 169.009 25.948C169.168 25.7893 169.383 25.71 169.653 25.71C169.896 25.71 170.101 25.7987 170.269 25.976C170.447 26.144 170.535 26.3493 170.535 26.592C170.535 26.8533 170.456 27.068 170.297 27.236C170.139 27.3947 169.924 27.474 169.653 27.474ZM174.469 36L171.543 29.056L172.691 28.58L175.169 34.572L177.647 28.58L178.725 29.056L175.785 36H174.469ZM182.501 36.168C181.894 36.168 181.343 36.014 180.849 35.706C180.354 35.398 179.957 34.964 179.659 34.404C179.369 33.8347 179.225 33.1673 179.225 32.402C179.225 31.674 179.369 31.0207 179.659 30.442C179.957 29.8633 180.363 29.406 180.877 29.07C181.399 28.7247 181.997 28.552 182.669 28.552C183.089 28.552 183.467 28.6267 183.803 28.776C184.148 28.916 184.447 29.0933 184.699 29.308V28.72H185.847V34.236C185.847 34.5907 185.931 34.824 186.099 34.936C186.276 35.0387 186.467 35.09 186.673 35.09L186.407 36.07C185.511 36.07 184.969 35.706 184.783 34.978C184.568 35.2767 184.274 35.552 183.901 35.804C183.537 36.0467 183.07 36.168 182.501 36.168ZM182.781 35.048C183.135 35.048 183.471 34.964 183.789 34.796C184.106 34.6187 184.372 34.3993 184.587 34.138V30.232C184.335 30.0547 184.055 29.9147 183.747 29.812C183.448 29.7 183.131 29.644 182.795 29.644C182.347 29.644 181.95 29.7607 181.605 29.994C181.269 30.218 181.003 30.5353 180.807 30.946C180.611 31.3473 180.513 31.8187 180.513 32.36C180.513 32.8827 180.611 33.3493 180.807 33.76C181.003 34.1613 181.273 34.4787 181.619 34.712C181.964 34.936 182.351 35.048 182.781 35.048ZM191.159 36.168C190.468 36.168 189.861 36.0093 189.339 35.692C188.825 35.3653 188.429 34.9173 188.149 34.348C187.869 33.7693 187.729 33.1067 187.729 32.36C187.729 31.66 187.869 31.0207 188.149 30.442C188.438 29.8633 188.849 29.406 189.381 29.07C189.913 28.7247 190.538 28.552 191.257 28.552C191.667 28.552 192.027 28.5893 192.335 28.664C192.652 28.7387 192.955 28.846 193.245 28.986L192.867 30.05C192.605 29.9193 192.353 29.826 192.111 29.77C191.877 29.7047 191.616 29.672 191.327 29.672C190.673 29.672 190.123 29.91 189.675 30.386C189.236 30.8527 189.017 31.5013 189.017 32.332C189.017 32.836 189.11 33.2933 189.297 33.704C189.483 34.1147 189.74 34.4413 190.067 34.684C190.403 34.9267 190.795 35.048 191.243 35.048C191.597 35.048 191.901 35.0107 192.153 34.936C192.405 34.852 192.675 34.7353 192.965 34.586L193.357 35.65C193.067 35.8087 192.741 35.9347 192.377 36.028C192.022 36.1213 191.616 36.168 191.159 36.168ZM195.004 39.248C194.724 39.248 194.477 39.22 194.262 39.164C194.057 39.108 193.893 39.0427 193.772 38.968L194.052 37.918C194.164 37.9833 194.304 38.0393 194.472 38.086C194.64 38.1327 194.827 38.156 195.032 38.156C195.424 38.156 195.774 38.03 196.082 37.778C196.39 37.526 196.684 37.0313 196.964 36.294L197.286 35.454H196.614L193.772 29.056L194.892 28.552L197.608 34.614L199.722 28.608L200.884 29.056L198.21 36.364C197.939 37.1107 197.645 37.694 197.328 38.114C197.011 38.534 196.661 38.828 196.278 38.996C195.895 39.164 195.471 39.248 195.004 39.248ZM206.488 36V26.228C206.87 26.1813 207.29 26.1487 207.748 26.13C208.214 26.102 208.695 26.088 209.19 26.088C210.002 26.088 210.692 26.2187 211.262 26.48C211.831 26.732 212.265 27.082 212.564 27.53C212.862 27.978 213.012 28.4913 213.012 29.07C213.012 29.77 212.839 30.3627 212.494 30.848C212.148 31.3333 211.668 31.7067 211.052 31.968C210.436 32.22 209.722 32.346 208.91 32.346C208.518 32.346 208.154 32.332 207.818 32.304V36H206.488ZM209.078 31.24C209.908 31.24 210.552 31.0533 211.01 30.68C211.467 30.3067 211.696 29.8073 211.696 29.182C211.696 28.5753 211.476 28.0947 211.038 27.74C210.599 27.3853 209.974 27.208 209.162 27.208C208.91 27.208 208.672 27.2127 208.448 27.222C208.224 27.2313 208.014 27.2453 207.818 27.264V31.17C207.967 31.1887 208.149 31.2073 208.364 31.226C208.578 31.2353 208.816 31.24 209.078 31.24ZM217.343 36.168C216.653 36.168 216.032 36.0093 215.481 35.692C214.931 35.3653 214.497 34.9173 214.179 34.348C213.871 33.7693 213.717 33.1067 213.717 32.36C213.717 31.576 213.876 30.8993 214.193 30.33C214.511 29.7607 214.945 29.322 215.495 29.014C216.046 28.706 216.662 28.552 217.343 28.552C218.025 28.552 218.636 28.706 219.177 29.014C219.728 29.322 220.162 29.7607 220.479 30.33C220.806 30.89 220.969 31.5573 220.969 32.332C220.969 33.1067 220.811 33.7833 220.493 34.362C220.176 34.9313 219.742 35.3747 219.191 35.692C218.65 36.0093 218.034 36.168 217.343 36.168ZM217.343 35.048C218.081 35.048 218.655 34.8007 219.065 34.306C219.476 33.802 219.681 33.1533 219.681 32.36C219.681 31.8747 219.579 31.4313 219.373 31.03C219.168 30.6193 218.888 30.2927 218.533 30.05C218.188 29.798 217.791 29.672 217.343 29.672C216.606 29.672 216.032 29.9147 215.621 30.4C215.211 30.8853 215.005 31.5293 215.005 32.332C215.005 32.8173 215.108 33.27 215.313 33.69C215.519 34.1007 215.794 34.432 216.139 34.684C216.494 34.9267 216.895 35.048 217.343 35.048ZM224.856 36.168C224.427 36.168 224.04 36.0887 223.694 35.93C223.349 35.762 223.074 35.496 222.868 35.132C222.672 34.768 222.574 34.2967 222.574 33.718V25.64H223.834V33.592C223.834 34.096 223.937 34.4693 224.142 34.712C224.357 34.9547 224.651 35.076 225.024 35.076C225.202 35.076 225.374 35.0573 225.542 35.02C225.72 34.9733 225.869 34.922 225.99 34.866L226.298 35.888C226.13 35.9627 225.92 36.028 225.668 36.084C225.426 36.14 225.155 36.168 224.856 36.168ZM227.484 36V28.72H228.744V36H227.484ZM228.114 27.474C227.872 27.474 227.662 27.3853 227.484 27.208C227.316 27.0307 227.232 26.8253 227.232 26.592C227.232 26.3213 227.312 26.1067 227.47 25.948C227.629 25.7893 227.844 25.71 228.114 25.71C228.357 25.71 228.562 25.7987 228.73 25.976C228.908 26.144 228.996 26.3493 228.996 26.592C228.996 26.8533 228.917 27.068 228.758 27.236C228.6 27.3947 228.385 27.474 228.114 27.474ZM233.924 36.168C233.234 36.168 232.627 36.0093 232.104 35.692C231.591 35.3653 231.194 34.9173 230.914 34.348C230.634 33.7693 230.494 33.1067 230.494 32.36C230.494 31.66 230.634 31.0207 230.914 30.442C231.204 29.8633 231.614 29.406 232.146 29.07C232.678 28.7247 233.304 28.552 234.022 28.552C234.433 28.552 234.792 28.5893 235.1 28.664C235.418 28.7387 235.721 28.846 236.01 28.986L235.632 30.05C235.371 29.9193 235.119 29.826 234.876 29.77C234.643 29.7047 234.382 29.672 234.092 29.672C233.439 29.672 232.888 29.91 232.44 30.386C232.002 30.8527 231.782 31.5013 231.782 32.332C231.782 32.836 231.876 33.2933 232.062 33.704C232.249 34.1147 232.506 34.4413 232.832 34.684C233.168 34.9267 233.56 35.048 234.008 35.048C234.363 35.048 234.666 35.0107 234.918 34.936C235.17 34.852 235.441 34.7353 235.73 34.586L236.122 35.65C235.833 35.8087 235.506 35.9347 235.142 36.028C234.788 36.1213 234.382 36.168 233.924 36.168ZM237.77 39.248C237.49 39.248 237.242 39.22 237.028 39.164C236.822 39.108 236.659 39.0427 236.538 38.968L236.818 37.918C236.93 37.9833 237.07 38.0393 237.238 38.086C237.406 38.1327 237.592 38.156 237.798 38.156C238.19 38.156 238.54 38.03 238.848 37.778C239.156 37.526 239.45 37.0313 239.73 36.294L240.052 35.454H239.38L236.538 29.056L237.658 28.552L240.374 34.614L242.488 28.608L243.65 29.056L240.976 36.364C240.705 37.1107 240.411 37.694 240.094 38.114C239.776 38.534 239.426 38.828 239.044 38.996C238.661 39.164 238.236 39.248 237.77 39.248Z" fill="#E6740C"/>
</svg>
