<svg width="19" height="21" viewBox="0 0 19 21" fill="none" xmlns="http://www.w3.org/2000/svg">
<path fill-rule="evenodd" clip-rule="evenodd" d="M5.43967 0.843784L7.26851 6.68043L6.16101 7.42503C6.38214 7.94382 6.73196 8.63376 7.11573 9.31996C7.61017 10.204 8.12273 11.0135 8.4341 11.3897C8.76574 11.7902 9.42744 12.5191 10.1847 13.2241C10.8442 13.838 11.5358 14.3953 12.124 14.7181L13.2727 13.8566L18.798 17.31L14.6218 20.1593L14.4436 20.157C13.1777 20.1404 11.5387 19.5849 9.92547 18.6813C8.2994 17.7706 6.63848 16.4723 5.33281 14.9004C3.89831 13.1735 2.68434 10.8822 1.89845 8.80729C1.50474 7.76781 1.21275 6.76767 1.05531 5.90493C0.90236 5.06684 0.859786 4.27442 1.04433 3.7004L1.10828 3.50149L5.43967 0.843784ZM2.07625 4.2313C2.02688 4.55022 2.04511 5.04396 2.16526 5.70237C2.30745 6.48152 2.57737 7.41434 2.95359 8.40766C3.70756 10.3983 4.86549 12.572 6.20073 14.1795C7.40662 15.6312 8.95506 16.8446 10.4768 17.6969C11.9255 18.5083 13.2963 18.963 14.2862 19.0224L16.7354 17.3514L13.3308 15.2234L12.2614 16.0255L11.9604 15.8945C11.1299 15.5331 10.1974 14.7774 9.41589 14.0499C8.62154 13.3104 7.92649 12.5458 7.56501 12.1092C7.18328 11.6481 6.62882 10.7608 6.13099 9.8707C5.6324 8.9792 5.15236 8.01641 4.93788 7.3922L4.79709 6.98245L5.93999 6.21404L4.79585 2.56258L2.07625 4.2313Z" fill="black"/>
</svg>
