<svg width="134" height="11" viewBox="0 0 134 11" fill="none" xmlns="http://www.w3.org/2000/svg">
<path d="M0.37293 4.51C0.37293 6.6 1.96293 8.06 3.92293 8.06C5.37293 8.06 6.62293 7.34 7.15293 5.98H5.78293C5.41293 6.72 4.75293 7.07 3.92293 7.07C2.54293 7.07 1.54293 6.08 1.54293 4.51C1.54293 2.94 2.54293 1.96 3.92293 1.96C4.75293 1.96 5.41293 2.31 5.78293 3.05H7.15293C6.62293 1.69 5.37293 0.959999 3.92293 0.959999C1.96293 0.959999 0.37293 2.43 0.37293 4.51ZM13.7373 5.24C13.7373 3.51 12.4973 2.4 10.9273 2.4C9.3573 2.4 8.1173 3.51 8.1173 5.24C8.1173 6.97 9.3073 8.09 10.8773 8.09C12.4573 8.09 13.7373 6.97 13.7373 5.24ZM9.2773 5.24C9.2773 3.99 10.0473 3.39 10.9073 3.39C11.7573 3.39 12.5673 3.99 12.5673 5.24C12.5673 6.49 11.7273 7.1 10.8773 7.1C10.0173 7.1 9.2773 6.49 9.2773 5.24ZM18.7743 8H19.9043V4.75C19.9043 3.21 18.9343 2.4 17.6443 2.4C16.9843 2.4 16.3743 2.67 16.0043 3.12V2.49H14.8643V8H16.0043V4.92C16.0043 3.91 16.5543 3.39 17.3943 3.39C18.2243 3.39 18.7743 3.91 18.7743 4.92V8ZM25.2684 8H26.3984V4.75C26.3984 3.21 25.4284 2.4 24.1384 2.4C23.4784 2.4 22.8684 2.67 22.4984 3.12V2.49H21.3584V8H22.4984V4.92C22.4984 3.91 23.0484 3.39 23.8884 3.39C24.7184 3.39 25.2684 3.91 25.2684 4.92V8ZM30.1725 3.36C31.0225 3.36 31.6925 3.9 31.7125 4.75H28.6625C28.7825 3.88 29.4025 3.36 30.1725 3.36ZM32.7525 6.36H31.5225C31.3125 6.79 30.9225 7.13 30.2225 7.13C29.3825 7.13 28.7325 6.58 28.6525 5.67H32.8625C32.8925 5.48 32.9025 5.3 32.9025 5.11C32.9025 3.49 31.7925 2.4 30.2225 2.4C28.5925 2.4 27.4725 3.51 27.4725 5.24C27.4725 6.97 28.6425 8.09 30.2225 8.09C31.5725 8.09 32.4425 7.32 32.7525 6.36ZM33.6444 5.24C33.6444 6.97 34.7644 8.09 36.3444 8.09C37.6944 8.09 38.5744 7.34 38.8844 6.26H37.6544C37.4444 6.83 37.0244 7.13 36.3444 7.13C35.4244 7.13 34.8144 6.45 34.8144 5.24C34.8144 4.04 35.4244 3.36 36.3444 3.36C37.0244 3.36 37.4644 3.7 37.6544 4.23H38.8844C38.5744 3.07 37.6944 2.4 36.3444 2.4C34.7644 2.4 33.6444 3.52 33.6444 5.24ZM40.2005 6.47C40.2005 7.59 40.8105 8 41.7905 8H42.6905V7.05H41.9905C41.5105 7.05 41.3505 6.88 41.3505 6.47V3.42H42.6905V2.49H41.3505V1.12H40.2005V2.49H39.5505V3.42H40.2005V6.47ZM43.7412 8H44.8812V2.49H43.7412V8ZM44.3212 1.76C44.7212 1.76 45.0412 1.44 45.0412 1.03C45.0412 0.62 44.7212 0.3 44.3212 0.3C43.9112 0.3 43.5912 0.62 43.5912 1.03C43.5912 1.44 43.9112 1.76 44.3212 1.76ZM50.2879 8H51.4179V4.75C51.4179 3.21 50.4479 2.4 49.1579 2.4C48.4979 2.4 47.8879 2.67 47.5179 3.12V2.49H46.3779V8H47.5179V4.92C47.5179 3.91 48.0679 3.39 48.9079 3.39C49.7379 3.39 50.2879 3.91 50.2879 4.92V8ZM52.4921 5.22C52.4921 6.92 53.6421 8.09 55.0921 8.09C55.9921 8.09 56.6521 7.64 57.0021 7.17V8.09C57.0021 9.19 56.3421 9.73 55.4621 9.73C54.6721 9.73 54.0621 9.34 53.8921 8.77H52.7621C52.9021 9.99 53.9921 10.72 55.4621 10.72C57.1821 10.72 58.1521 9.59 58.1521 8.09V2.49H57.0021V3.29C56.6621 2.82 55.9921 2.4 55.0921 2.4C53.6421 2.4 52.4921 3.52 52.4921 5.22ZM57.0021 5.24C57.0021 6.43 56.1921 7.1 55.3321 7.1C54.4821 7.1 53.6621 6.41 53.6621 5.22C53.6621 4.03 54.4821 3.39 55.3321 3.39C56.1921 3.39 57.0021 4.06 57.0021 5.24ZM62.4271 6.47C62.4271 7.59 63.0371 8 64.0171 8H64.9171V7.05H64.2171C63.7371 7.05 63.5771 6.88 63.5771 6.47V3.42H64.9171V2.49H63.5771V1.12H62.4271V2.49H61.7771V3.42H62.4271V6.47ZM71.2178 5.24C71.2178 3.51 69.9778 2.4 68.4078 2.4C66.8378 2.4 65.5978 3.51 65.5978 5.24C65.5978 6.97 66.7878 8.09 68.3578 8.09C69.9378 8.09 71.2178 6.97 71.2178 5.24ZM66.7578 5.24C66.7578 3.99 67.5278 3.39 68.3878 3.39C69.2378 3.39 70.0478 3.99 70.0478 5.24C70.0478 6.49 69.2078 7.1 68.3578 7.1C67.4978 7.1 66.7578 6.49 66.7578 5.24ZM74.5624 5.24C74.5624 6.97 75.6824 8.09 77.2624 8.09C78.6124 8.09 79.4924 7.34 79.8024 6.26H78.5724C78.3624 6.83 77.9424 7.13 77.2624 7.13C76.3424 7.13 75.7324 6.45 75.7324 5.24C75.7324 4.04 76.3424 3.36 77.2624 3.36C77.9424 3.36 78.3824 3.7 78.5724 4.23H79.8024C79.4924 3.07 78.6124 2.4 77.2624 2.4C75.6824 2.4 74.5624 3.52 74.5624 5.24ZM80.9385 8H82.0785V4.92C82.0785 3.91 82.6285 3.39 83.4685 3.39C84.2985 3.39 84.8485 3.91 84.8485 4.92V8H85.9785V4.75C85.9785 3.21 85.0185 2.4 83.7885 2.4C83.0785 2.4 82.4585 2.67 82.0785 3.13V0.6H80.9385V8ZM87.0526 5.22C87.0526 6.92 88.2026 8.09 89.6326 8.09C90.5526 8.09 91.2126 7.65 91.5626 7.18V8H92.7126V2.49H91.5626V3.29C91.2226 2.84 90.5826 2.4 89.6526 2.4C88.2026 2.4 87.0526 3.52 87.0526 5.22ZM91.5626 5.24C91.5626 6.43 90.7526 7.1 89.8926 7.1C89.0426 7.1 88.2226 6.41 88.2226 5.22C88.2226 4.03 89.0426 3.39 89.8926 3.39C90.7526 3.39 91.5626 4.06 91.5626 5.24ZM95.35 5.1C95.35 3.93 95.87 3.58 96.71 3.58H97V2.4C96.22 2.4 95.67 2.74 95.35 3.29V2.49H94.21V8H95.35V5.1ZM97.6679 5.22C97.6679 6.92 98.8179 8.09 100.268 8.09C101.168 8.09 101.828 7.64 102.178 7.17V8.09C102.178 9.19 101.518 9.73 100.638 9.73C99.8479 9.73 99.2379 9.34 99.0679 8.77H97.9379C98.0779 9.99 99.1679 10.72 100.638 10.72C102.358 10.72 103.328 9.59 103.328 8.09V2.49H102.178V3.29C101.838 2.82 101.168 2.4 100.268 2.4C98.8179 2.4 97.6679 3.52 97.6679 5.22ZM102.178 5.24C102.178 6.43 101.368 7.1 100.508 7.1C99.6579 7.1 98.8379 6.41 98.8379 5.22C98.8379 4.03 99.6579 3.39 100.508 3.39C101.368 3.39 102.178 4.06 102.178 5.24ZM107.145 3.36C107.995 3.36 108.665 3.9 108.685 4.75H105.635C105.755 3.88 106.375 3.36 107.145 3.36ZM109.725 6.36H108.495C108.285 6.79 107.895 7.13 107.195 7.13C106.355 7.13 105.705 6.58 105.625 5.67H109.835C109.865 5.48 109.875 5.3 109.875 5.11C109.875 3.49 108.765 2.4 107.195 2.4C105.565 2.4 104.445 3.51 104.445 5.24C104.445 6.97 105.615 8.09 107.195 8.09C108.545 8.09 109.415 7.32 109.725 6.36ZM110.997 8H112.137V3.24L114.267 8H115.057L117.177 3.24V8H118.317V1.05H117.097L114.667 6.5L112.227 1.05H110.997V8ZM126.535 4.51C126.535 2.43 124.965 0.959999 122.985 0.959999C121.025 0.959999 119.435 2.43 119.435 4.51C119.435 6.6 121.025 8.07 122.985 8.07C124.965 8.07 126.535 6.6 126.535 4.51ZM120.605 4.51C120.605 2.94 121.605 1.96 122.985 1.96C124.365 1.96 125.365 2.94 125.365 4.51C125.365 6.08 124.365 7.08 122.985 7.08C121.605 7.08 120.605 6.08 120.605 4.51ZM129.927 1.05H127.657V8H129.927C132.157 8 133.617 6.69 133.617 4.55C133.617 2.4 132.157 1.05 129.927 1.05ZM128.797 7.07V1.98H129.927C131.567 1.98 132.447 2.96 132.447 4.55C132.447 6.13 131.567 7.07 129.927 7.07H128.797Z" fill="#666766"/>
</svg>
