<svg width="220" height="59" viewBox="0 0 220 59" fill="none" xmlns="http://www.w3.org/2000/svg">
<path d="M31.8804 1.425C28.9404 1.425 26.6304 3.63 26.6304 6.765C26.6304 9.9 28.9404 12.09 31.8804 12.09C34.7154 12.09 36.7704 10.005 37.0104 7.41V6.36H31.3854V7.47H35.5554C35.3454 9.54 33.9354 10.86 31.8804 10.86C29.6754 10.86 28.0254 9.27 28.0254 6.765C28.0254 4.245 29.6754 2.655 31.8804 2.655C33.3504 2.655 34.4904 3.36 35.0604 4.575H36.6954C35.9154 2.565 34.0854 1.425 31.8804 1.425ZM40.1802 7.53C40.1802 5.625 41.1702 5.04 42.4752 5.04H42.8352V3.63C41.5302 3.63 40.6452 4.2 40.1802 5.115V3.78H38.8152V12H40.1802V7.53ZM43.9009 7.86C43.9009 10.41 45.5959 12.135 47.7859 12.135C49.3009 12.135 50.3659 11.355 50.8609 10.47V12H52.2409V3.78H50.8609V5.28C50.3809 4.425 49.3309 3.645 47.8009 3.645C45.5959 3.645 43.9009 5.295 43.9009 7.86ZM50.8609 7.875C50.8609 9.81 49.5709 10.935 48.0709 10.935C46.5709 10.935 45.2959 9.795 45.2959 7.86C45.2959 5.925 46.5709 4.83 48.0709 4.83C49.5709 4.83 50.8609 5.97 50.8609 7.875ZM55.9126 5.31V0.9H54.5476V12H55.9126V10.485C56.4226 11.385 57.4876 12.135 58.9876 12.135C61.1926 12.135 62.8876 10.41 62.8876 7.86C62.8876 5.295 61.2076 3.645 58.9876 3.645C57.5326 3.645 56.4376 4.395 55.9126 5.31ZM61.4926 7.86C61.4926 9.795 60.2176 10.935 58.7026 10.935C57.2176 10.935 55.9126 9.81 55.9126 7.875C55.9126 5.97 57.2176 4.83 58.7026 4.83C60.2176 4.83 61.4926 5.925 61.4926 7.86ZM68.0383 2.655H70.9033V12H72.2683V2.655H75.1183V1.545H68.0383V2.655ZM76.7986 12H78.1636V7.455C78.1636 5.685 79.1236 4.815 80.5186 4.815C81.8986 4.815 82.8136 5.67 82.8136 7.35V12H84.1636V7.155C84.1636 4.8 82.7086 3.63 80.8786 3.63C79.7236 3.63 78.7036 4.095 78.1636 4.965V0.9H76.7986V12ZM89.8883 4.8C91.2983 4.8 92.4983 5.685 92.4833 7.29H87.2933C87.4433 5.685 88.5533 4.8 89.8883 4.8ZM93.7283 9.465H92.2583C91.9583 10.35 91.1783 10.98 89.9483 10.98C88.5533 10.98 87.3833 10.065 87.2783 8.4H93.8483C93.8783 8.115 93.8933 7.875 93.8933 7.575C93.8933 5.325 92.3333 3.645 89.9483 3.645C87.5483 3.645 85.8833 5.28 85.8833 7.875C85.8833 10.485 87.6083 12.135 89.9483 12.135C91.9883 12.135 93.3083 10.965 93.7283 9.465ZM105.634 9.06C105.634 10.2 104.824 10.875 103.474 10.875H101.059V7.185H103.429C104.764 7.185 105.634 7.905 105.634 9.06ZM105.364 4.365C105.364 5.43 104.629 6.06 103.354 6.06H101.059V2.67H103.324C104.659 2.67 105.364 3.33 105.364 4.365ZM106.999 9.195C106.999 7.905 106.069 6.81 104.929 6.615C105.934 6.285 106.759 5.52 106.759 4.2C106.759 2.745 105.649 1.545 103.444 1.545H99.6941V12H103.594C105.754 12 106.999 10.77 106.999 9.195ZM112.388 4.8C113.798 4.8 114.998 5.685 114.983 7.29H109.793C109.943 5.685 111.053 4.8 112.388 4.8ZM116.228 9.465H114.758C114.458 10.35 113.678 10.98 112.448 10.98C111.053 10.98 109.883 10.065 109.778 8.4H116.348C116.378 8.115 116.393 7.875 116.393 7.575C116.393 5.325 114.833 3.645 112.448 3.645C110.048 3.645 108.383 5.28 108.383 7.875C108.383 10.485 110.108 12.135 112.448 12.135C114.488 12.135 115.808 10.965 116.228 9.465ZM124.105 9.765C124.045 6.825 119.275 7.89 119.275 5.94C119.275 5.28 119.875 4.8 120.88 4.8C121.975 4.8 122.605 5.4 122.665 6.225H124.03C123.94 4.62 122.74 3.645 120.925 3.645C119.095 3.645 117.91 4.68 117.91 5.94C117.91 9 122.77 7.935 122.77 9.765C122.77 10.44 122.17 10.98 121.09 10.98C119.935 10.98 119.23 10.38 119.155 9.585H117.745C117.835 11.085 119.185 12.135 121.105 12.135C122.92 12.135 124.105 11.115 124.105 9.765ZM126.332 9.75C126.332 11.4 127.157 12 128.612 12H129.842V10.845H128.837C127.997 10.845 127.697 10.56 127.697 9.75V4.905H129.842V3.78H127.697V1.71H126.332V3.78H125.267V4.905H126.332V9.75ZM135.495 12H136.86V1.545H135.495V12ZM145.201 12H146.551V7.155C146.551 4.8 145.096 3.63 143.191 3.63C142.081 3.63 141.091 4.095 140.551 4.95V3.78H139.186V12H140.551V7.455C140.551 5.685 141.511 4.815 142.906 4.815C144.286 4.815 145.201 5.67 145.201 7.35V12ZM152.27 6.765C152.27 9.9 154.565 12.09 157.49 12.09C159.755 12.09 161.555 10.965 162.335 8.955H160.7C160.13 10.2 159.02 10.905 157.49 10.905C155.3 10.905 153.665 9.315 153.665 6.765C153.665 4.2 155.3 2.61 157.49 2.61C159.02 2.61 160.13 3.315 160.7 4.575H162.335C161.555 2.55 159.755 1.41 157.49 1.41C154.565 1.41 152.27 3.63 152.27 6.765ZM164.367 12H165.732V0.9H164.367V12ZM167.548 7.86C167.548 10.41 169.243 12.135 171.433 12.135C172.948 12.135 174.013 11.355 174.508 10.47V12H175.888V3.78H174.508V5.28C174.028 4.425 172.978 3.645 171.448 3.645C169.243 3.645 167.548 5.295 167.548 7.86ZM174.508 7.875C174.508 9.81 173.218 10.935 171.718 10.935C170.218 10.935 168.943 9.795 168.943 7.86C168.943 5.925 170.218 4.83 171.718 4.83C173.218 4.83 174.508 5.97 174.508 7.875ZM184.105 9.765C184.045 6.825 179.275 7.89 179.275 5.94C179.275 5.28 179.875 4.8 180.88 4.8C181.975 4.8 182.605 5.4 182.665 6.225H184.03C183.94 4.62 182.74 3.645 180.925 3.645C179.095 3.645 177.91 4.68 177.91 5.94C177.91 9 182.77 7.935 182.77 9.765C182.77 10.44 182.17 10.98 181.09 10.98C179.935 10.98 179.23 10.38 179.155 9.585H177.745C177.835 11.085 179.185 12.135 181.105 12.135C182.92 12.135 184.105 11.115 184.105 9.765ZM191.942 9.765C191.882 6.825 187.112 7.89 187.112 5.94C187.112 5.28 187.712 4.8 188.717 4.8C189.812 4.8 190.442 5.4 190.502 6.225H191.867C191.777 4.62 190.577 3.645 188.762 3.645C186.932 3.645 185.747 4.68 185.747 5.94C185.747 9 190.607 7.935 190.607 9.765C190.607 10.44 190.007 10.98 188.927 10.98C187.772 10.98 187.067 10.38 186.992 9.585H185.582C185.672 11.085 187.022 12.135 188.942 12.135C190.757 12.135 191.942 11.115 191.942 9.765ZM3.6473 24.545H0.392305V35H3.6473C7.0823 35 9.19731 33.035 9.19731 29.795C9.19731 26.555 7.0823 24.545 3.6473 24.545ZM1.7573 33.875V25.655H3.6473C6.3773 25.655 7.80231 27.245 7.80231 29.795C7.80231 32.345 6.3773 33.875 3.6473 33.875H1.7573ZM10.9978 35H12.3628V26.78H10.9978V35ZM11.7028 25.445C12.1978 25.445 12.6028 25.04 12.6028 24.515C12.6028 23.99 12.1978 23.585 11.7028 23.585C11.1778 23.585 10.7728 23.99 10.7728 24.515C10.7728 25.04 11.1778 25.445 11.7028 25.445ZM14.1792 30.86C14.1792 33.41 15.8742 35.135 18.0792 35.135C19.5792 35.135 20.6442 34.34 21.1392 33.455V35.18C21.1392 36.935 20.0442 37.865 18.5892 37.865C17.2392 37.865 16.2642 37.19 15.9642 36.2H14.6142C14.8842 37.955 16.4292 39.05 18.5892 39.05C21.0042 39.05 22.5192 37.445 22.5192 35.18V26.78H21.1392V28.28C20.6592 27.395 19.5792 26.645 18.0792 26.645C15.8742 26.645 14.1792 28.295 14.1792 30.86ZM21.1392 30.875C21.1392 32.81 19.8492 33.935 18.3492 33.935C16.8492 33.935 15.5742 32.795 15.5742 30.86C15.5742 28.925 16.8492 27.83 18.3492 27.83C19.8492 27.83 21.1392 28.97 21.1392 30.875ZM24.8259 35H26.1909V26.78H24.8259V35ZM25.5309 25.445C26.0259 25.445 26.4309 25.04 26.4309 24.515C26.4309 23.99 26.0259 23.585 25.5309 23.585C25.0059 23.585 24.6009 23.99 24.6009 24.515C24.6009 25.04 25.0059 25.445 25.5309 25.445ZM28.8173 32.75C28.8173 34.4 29.6423 35 31.0973 35H32.3273V33.845H31.3223C30.4823 33.845 30.1823 33.56 30.1823 32.75V27.905H32.3273V26.78H30.1823V24.71H28.8173V26.78H27.7523V27.905H28.8173V32.75ZM33.4712 30.86C33.4712 33.41 35.1662 35.135 37.3562 35.135C38.8712 35.135 39.9362 34.355 40.4312 33.47V35H41.8112V26.78H40.4312V28.28C39.9512 27.425 38.9012 26.645 37.3712 26.645C35.1662 26.645 33.4712 28.295 33.4712 30.86ZM40.4312 30.875C40.4312 32.81 39.1412 33.935 37.6412 33.935C36.1412 33.935 34.8662 32.795 34.8662 30.86C34.8662 28.925 36.1412 27.83 37.6412 27.83C39.1412 27.83 40.4312 28.97 40.4312 30.875ZM44.1179 35H45.4829V23.9H44.1179V35ZM57.4333 24.53H51.8083V35H57.4333V33.875H53.1733V30.275H56.9833V29.15H53.1733V25.655H57.4333V24.53ZM63.7888 35H65.3338L62.6788 30.845L65.3188 26.78H63.8938L62.0338 29.825L60.0838 26.78H58.5388L61.1938 30.92L58.5388 35H59.9638L61.8388 31.94L63.7888 35ZM68.0415 28.295V26.78H66.6765V38.9H68.0415V33.485C68.5515 34.325 69.6165 35.135 71.1165 35.135C73.3215 35.135 75.0165 33.41 75.0165 30.86C75.0165 28.295 73.3215 26.645 71.1165 26.645C69.6165 26.645 68.5365 27.425 68.0415 28.295ZM73.6215 30.86C73.6215 32.795 72.3465 33.935 70.8315 33.935C69.3465 33.935 68.0415 32.81 68.0415 30.875C68.0415 28.97 69.3465 27.83 70.8315 27.83C72.3465 27.83 73.6215 28.925 73.6215 30.86ZM80.3082 27.8C81.7182 27.8 82.9182 28.685 82.9032 30.29H77.7132C77.8632 28.685 78.9732 27.8 80.3082 27.8ZM84.1482 32.465H82.6782C82.3782 33.35 81.5982 33.98 80.3682 33.98C78.9732 33.98 77.8032 33.065 77.6982 31.4H84.2682C84.2982 31.115 84.3132 30.875 84.3132 30.575C84.3132 28.325 82.7532 26.645 80.3682 26.645C77.9682 26.645 76.3032 28.28 76.3032 30.875C76.3032 33.485 78.0282 35.135 80.3682 35.135C82.4082 35.135 83.7282 33.965 84.1482 32.465ZM87.48 30.53C87.48 28.625 88.47 28.04 89.775 28.04H90.135V26.63C88.83 26.63 87.945 27.2 87.48 28.115V26.78H86.115V35H87.48V30.53ZM91.7107 35H93.0757V26.78H91.7107V35ZM92.4157 25.445C92.9107 25.445 93.3157 25.04 93.3157 24.515C93.3157 23.99 92.9107 23.585 92.4157 23.585C91.8907 23.585 91.4857 23.99 91.4857 24.515C91.4857 25.04 91.8907 25.445 92.4157 25.445ZM98.8971 27.8C100.307 27.8 101.507 28.685 101.492 30.29H96.3021C96.4521 28.685 97.5621 27.8 98.8971 27.8ZM102.737 32.465H101.267C100.967 33.35 100.187 33.98 98.9571 33.98C97.5621 33.98 96.3921 33.065 96.2871 31.4H102.857C102.887 31.115 102.902 30.875 102.902 30.575C102.902 28.325 101.342 26.645 98.9571 26.645C96.5571 26.645 94.8921 28.28 94.8921 30.875C94.8921 33.485 96.6171 35.135 98.9571 35.135C100.997 35.135 102.317 33.965 102.737 32.465ZM110.719 35H112.069V30.155C112.069 27.8 110.614 26.63 108.709 26.63C107.599 26.63 106.609 27.095 106.069 27.95V26.78H104.704V35H106.069V30.455C106.069 28.685 107.029 27.815 108.424 27.815C109.804 27.815 110.719 28.67 110.719 30.35V35ZM113.789 30.875C113.789 33.485 115.454 35.135 117.794 35.135C119.834 35.135 121.169 33.995 121.589 32.36H120.119C119.819 33.395 119.009 33.98 117.794 33.98C116.294 33.98 115.184 32.915 115.184 30.875C115.184 28.865 116.294 27.8 117.794 27.8C119.009 27.8 119.834 28.43 120.119 29.42H121.589C121.169 27.695 119.834 26.645 117.794 26.645C115.454 26.645 113.789 28.295 113.789 30.875ZM126.905 27.8C128.315 27.8 129.515 28.685 129.5 30.29H124.31C124.46 28.685 125.57 27.8 126.905 27.8ZM130.745 32.465H129.275C128.975 33.35 128.195 33.98 126.965 33.98C125.57 33.98 124.4 33.065 124.295 31.4H130.865C130.895 31.115 130.91 30.875 130.91 30.575C130.91 28.325 129.35 26.645 126.965 26.645C124.565 26.645 122.9 28.28 122.9 30.875C122.9 33.485 124.625 35.135 126.965 35.135C129.005 35.135 130.325 33.965 130.745 32.465ZM136.201 29.765C136.201 32.9 138.496 35.09 141.421 35.09C143.686 35.09 145.486 33.965 146.266 31.955H144.631C144.061 33.2 142.951 33.905 141.421 33.905C139.231 33.905 137.596 32.315 137.596 29.765C137.596 27.2 139.231 25.61 141.421 25.61C142.951 25.61 144.061 26.315 144.631 27.575H146.266C145.486 25.55 143.686 24.41 141.421 24.41C138.496 24.41 136.201 26.63 136.201 29.765ZM149.663 30.53C149.663 28.625 150.653 28.04 151.958 28.04H152.318V26.63C151.013 26.63 150.128 27.2 149.663 28.115V26.78H148.298V35H149.663V30.53ZM153.383 30.86C153.383 33.41 155.078 35.135 157.268 35.135C158.783 35.135 159.848 34.355 160.343 33.47V35H161.723V26.78H160.343V28.28C159.863 27.425 158.813 26.645 157.283 26.645C155.078 26.645 153.383 28.295 153.383 30.86ZM160.343 30.875C160.343 32.81 159.053 33.935 157.553 33.935C156.053 33.935 154.778 32.795 154.778 30.86C154.778 28.925 156.053 27.83 157.553 27.83C159.053 27.83 160.343 28.97 160.343 30.875ZM164.285 35H165.65V27.905H167.375V26.78H165.65V26.195C165.65 25.13 166.055 24.68 167.285 24.68V23.54C165.185 23.54 164.285 24.365 164.285 26.195V26.78H163.22V27.905H164.285V35ZM169.267 32.75C169.267 34.4 170.092 35 171.547 35H172.777V33.845H171.772C170.932 33.845 170.632 33.56 170.632 32.75V27.905H172.777V26.78H170.632V24.71H169.267V26.78H168.202V27.905H169.267V32.75ZM177.925 27.8C179.335 27.8 180.535 28.685 180.52 30.29H175.33C175.48 28.685 176.59 27.8 177.925 27.8ZM181.765 32.465H180.295C179.995 33.35 179.215 33.98 177.985 33.98C176.59 33.98 175.42 33.065 175.315 31.4H181.885C181.915 31.115 181.93 30.875 181.93 30.575C181.93 28.325 180.37 26.645 177.985 26.645C175.585 26.645 173.92 28.28 173.92 30.875C173.92 33.485 175.645 35.135 177.985 35.135C180.025 35.135 181.345 33.965 181.765 32.465ZM183.222 30.86C183.222 33.41 184.917 35.135 187.122 35.135C188.622 35.135 189.687 34.37 190.182 33.455V35H191.562V23.9H190.182V28.25C189.612 27.305 188.427 26.645 187.137 26.645C184.917 26.645 183.222 28.295 183.222 30.86ZM190.182 30.875C190.182 32.81 188.892 33.935 187.392 33.935C185.892 33.935 184.617 32.795 184.617 30.86C184.617 28.925 185.892 27.83 187.392 27.83C188.892 27.83 190.182 28.97 190.182 30.875ZM197.868 35H199.233V30.29H202.923V29.18H199.233V25.655H203.778V24.545H197.868V35ZM213.226 30.875C213.226 28.28 211.411 26.645 209.071 26.645C206.746 26.645 204.916 28.28 204.916 30.875C204.916 33.485 206.686 35.135 209.011 35.135C211.351 35.135 213.226 33.485 213.226 30.875ZM206.311 30.875C206.311 28.805 207.616 27.83 209.056 27.83C210.466 27.83 211.831 28.805 211.831 30.875C211.831 32.96 210.436 33.935 209.011 33.935C207.586 33.935 206.311 32.96 206.311 30.875ZM216.386 30.53C216.386 28.625 217.376 28.04 218.681 28.04H219.041V26.63C217.736 26.63 216.851 27.2 216.386 28.115V26.78H215.021V35H216.386V30.53ZM79.6989 47.53H74.0739V58H79.6989V56.875H75.4389V53.275H79.2489V52.15H75.4389V48.655H79.6989V47.53ZM85.6794 56.56L82.3944 47.545H80.9394L84.8844 58H86.4594L90.4044 47.545H88.9644L85.6794 56.56ZM99.1551 47.545H95.9001V58H99.1551C102.59 58 104.705 56.035 104.705 52.795C104.705 49.555 102.59 47.545 99.1551 47.545ZM97.2651 56.875V48.655H99.1551C101.885 48.655 103.31 50.245 103.31 52.795C103.31 55.345 101.885 56.875 99.1551 56.875H97.2651ZM107.871 53.53C107.871 51.625 108.861 51.04 110.166 51.04H110.526V49.63C109.221 49.63 108.336 50.2 107.871 51.115V49.78H106.506V58H107.871V53.53ZM112.101 58H113.466V49.78H112.101V58ZM112.806 48.445C113.301 48.445 113.706 48.04 113.706 47.515C113.706 46.99 113.301 46.585 112.806 46.585C112.281 46.585 111.876 46.99 111.876 47.515C111.876 48.04 112.281 48.445 112.806 48.445ZM114.818 49.78L118.043 58H119.633L122.858 49.78H121.403L118.853 56.74L116.288 49.78H114.818ZM127.696 50.8C129.106 50.8 130.306 51.685 130.291 53.29H125.101C125.251 51.685 126.361 50.8 127.696 50.8ZM131.536 55.465H130.066C129.766 56.35 128.986 56.98 127.756 56.98C126.361 56.98 125.191 56.065 125.086 54.4H131.656C131.686 54.115 131.701 53.875 131.701 53.575C131.701 51.325 130.141 49.645 127.756 49.645C125.356 49.645 123.691 51.28 123.691 53.875C123.691 56.485 125.416 58.135 127.756 58.135C129.796 58.135 131.116 56.965 131.536 55.465ZM134.868 53.53C134.868 51.625 135.858 51.04 137.163 51.04H137.523V49.63C136.218 49.63 135.333 50.2 134.868 51.115V49.78H133.503V58H134.868V53.53ZM145.008 55.765C144.948 52.825 140.178 53.89 140.178 51.94C140.178 51.28 140.778 50.8 141.783 50.8C142.878 50.8 143.508 51.4 143.568 52.225H144.933C144.843 50.62 143.643 49.645 141.828 49.645C139.998 49.645 138.813 50.68 138.813 51.94C138.813 55 143.673 53.935 143.673 55.765C143.673 56.44 143.073 56.98 141.993 56.98C140.838 56.98 140.133 56.38 140.058 55.585H138.648C138.738 57.085 140.088 58.135 142.008 58.135C143.823 58.135 145.008 57.115 145.008 55.765Z" fill="white"/>
</svg>
