<svg width="235" height="122" viewBox="0 0 235 122" fill="none" xmlns="http://www.w3.org/2000/svg">
<path d="M21.3167 18H23.1407V6.88H21.3167V18ZM32.7914 18H34.5995V12.8C34.5995 10.336 33.0474 9.04 30.9834 9.04C29.9274 9.04 28.9514 9.472 28.3594 10.192V9.184H26.5354V18H28.3594V13.072C28.3594 11.456 29.2394 10.624 30.5834 10.624C31.9114 10.624 32.7914 11.456 32.7914 13.072V18ZM38.2141 15.552C38.2141 17.344 39.1901 18 40.7581 18H42.1981V16.48H41.0781C40.3101 16.48 40.0541 16.208 40.0541 15.552V10.672H42.1981V9.184H40.0541V6.992H38.2141V9.184H37.1741V10.672H38.2141V15.552ZM48.5912 10.576C49.9512 10.576 51.0232 11.44 51.0552 12.8H46.1752C46.3672 11.408 47.3592 10.576 48.5912 10.576ZM52.7192 15.376H50.7512C50.4152 16.064 49.7912 16.608 48.6712 16.608C47.3272 16.608 46.2872 15.728 46.1592 14.272H52.8952C52.9432 13.968 52.9592 13.68 52.9592 13.376C52.9592 10.784 51.1832 9.04 48.6712 9.04C46.0632 9.04 44.2712 10.816 44.2712 13.584C44.2712 16.352 46.1432 18.144 48.6712 18.144C50.8312 18.144 52.2232 16.912 52.7192 15.376ZM57.5782 13.36C57.5782 11.488 58.4102 10.928 59.7542 10.928H60.2182V9.04C58.9702 9.04 58.0902 9.584 57.5782 10.464V9.184H55.7542V18H57.5782V13.36ZM62.2868 13.552C62.2868 16.272 64.1268 18.144 66.4148 18.144C67.8868 18.144 68.9428 17.44 69.5028 16.688V18H71.3428V9.184H69.5028V10.464C68.9588 9.744 67.9348 9.04 66.4468 9.04C64.1268 9.04 62.2868 10.832 62.2868 13.552ZM69.5028 13.584C69.5028 15.488 68.2068 16.56 66.8308 16.56C65.4708 16.56 64.1588 15.456 64.1588 13.552C64.1588 11.648 65.4708 10.624 66.8308 10.624C68.2068 10.624 69.5028 11.696 69.5028 13.584ZM74.1306 13.584C74.1306 16.352 75.9226 18.144 78.4506 18.144C80.6106 18.144 82.0186 16.944 82.5146 15.216H80.5466C80.2106 16.128 79.5386 16.608 78.4506 16.608C76.9786 16.608 76.0026 15.52 76.0026 13.584C76.0026 11.664 76.9786 10.576 78.4506 10.576C79.5386 10.576 80.2426 11.12 80.5466 11.968H82.5146C82.0186 10.112 80.6106 9.04 78.4506 9.04C75.9226 9.04 74.1306 10.832 74.1306 13.584ZM85.6203 15.552C85.6203 17.344 86.5963 18 88.1643 18H89.6043V16.48H88.4843C87.7163 16.48 87.4603 16.208 87.4603 15.552V10.672H89.6043V9.184H87.4603V6.992H85.6203V9.184H84.5803V10.672H85.6203V15.552ZM92.2854 18H94.1094V9.184H92.2854V18ZM93.2134 8.016C93.8534 8.016 94.3654 7.504 94.3654 6.848C94.3654 6.192 93.8534 5.68 93.2134 5.68C92.5574 5.68 92.0454 6.192 92.0454 6.848C92.0454 7.504 92.5574 8.016 93.2134 8.016ZM105.904 13.584C105.904 10.816 103.92 9.04 101.408 9.04C98.8962 9.04 96.9122 10.816 96.9122 13.584C96.9122 16.352 98.8162 18.144 101.328 18.144C103.856 18.144 105.904 16.352 105.904 13.584ZM98.7682 13.584C98.7682 11.584 100 10.624 101.376 10.624C102.736 10.624 104.032 11.584 104.032 13.584C104.032 15.584 102.688 16.56 101.328 16.56C99.9522 16.56 98.7682 15.584 98.7682 13.584ZM114.963 18H116.771V12.8C116.771 10.336 115.219 9.04 113.155 9.04C112.099 9.04 111.123 9.472 110.531 10.192V9.184H108.707V18H110.531V13.072C110.531 11.456 111.411 10.624 112.755 10.624C114.083 10.624 114.963 11.456 114.963 13.072V18ZM126.674 15.536C126.578 12.352 121.602 13.344 121.602 11.568C121.602 10.976 122.114 10.576 123.09 10.576C124.082 10.576 124.674 11.104 124.738 11.872H126.562C126.466 10.112 125.154 9.04 123.154 9.04C121.074 9.04 119.762 10.176 119.762 11.584C119.762 14.816 124.882 13.824 124.882 15.552C124.882 16.16 124.322 16.608 123.266 16.608C122.258 16.608 121.57 16.016 121.506 15.296H119.618C119.698 16.896 121.186 18.144 123.298 18.144C125.378 18.144 126.674 17.024 126.674 15.536ZM137.057 18.016L139.105 18L141.585 9.584L143.921 18H145.985L149.281 6.88H147.329L145.009 15.888L142.689 6.88H140.641L138.145 15.936L135.841 6.88H133.905L137.057 18.016ZM151.785 18H153.609V9.184H151.785V18ZM152.713 8.016C153.353 8.016 153.865 7.504 153.865 6.848C153.865 6.192 153.353 5.68 152.713 5.68C152.057 5.68 151.545 6.192 151.545 6.848C151.545 7.504 152.057 8.016 152.713 8.016ZM157.292 15.552C157.292 17.344 158.268 18 159.836 18H161.276V16.48H160.156C159.388 16.48 159.132 16.208 159.132 15.552V10.672H161.276V9.184H159.132V6.992H157.292V9.184H156.252V10.672H157.292V15.552ZM163.957 18H165.781V13.072C165.781 11.456 166.661 10.624 168.005 10.624C169.333 10.624 170.213 11.456 170.213 13.072V18H172.021V12.8C172.021 10.336 170.485 9.04 168.517 9.04C167.381 9.04 166.389 9.472 165.781 10.208V6.16H163.957V18ZM185.576 6.736C182.44 6.736 179.896 9.088 179.896 12.416C179.896 15.76 182.44 18.096 185.576 18.096C188.568 18.096 190.744 15.904 191.08 13.328V11.904H184.952V13.36H189.128C188.856 15.232 187.592 16.448 185.576 16.448C183.368 16.448 181.768 14.864 181.768 12.416C181.768 9.968 183.368 8.4 185.576 8.4C186.904 8.4 187.96 8.96 188.552 10.08H190.744C189.896 7.904 187.896 6.736 185.576 6.736ZM195.703 13.36C195.703 11.488 196.535 10.928 197.879 10.928H198.343V9.04C197.095 9.04 196.215 9.584 195.703 10.464V9.184H193.879V18H195.703V13.36ZM201.02 18H202.844V9.184H201.02V18ZM201.948 8.016C202.588 8.016 203.1 7.504 203.1 6.848C203.1 6.192 202.588 5.68 201.948 5.68C201.292 5.68 200.78 6.192 200.78 6.848C200.78 7.504 201.292 8.016 201.948 8.016ZM205.631 13.552C205.631 16.272 207.471 18.144 209.791 18.144C211.231 18.144 212.287 17.472 212.847 16.672V18H214.687V6.16H212.847V10.416C212.175 9.584 210.959 9.04 209.807 9.04C207.471 9.04 205.631 10.832 205.631 13.552ZM212.847 13.584C212.847 15.488 211.551 16.56 210.175 16.56C208.815 16.56 207.503 15.456 207.503 13.552C207.503 11.648 208.815 10.624 210.175 10.624C211.551 10.624 212.847 11.696 212.847 13.584Z" fill="white"/>
<path d="M34.7653 43.04C34.7653 45.24 33.5653 46.56 31.0053 46.56H26.7653V39.6H31.0053C33.5653 39.6 34.7653 40.96 34.7653 43.04ZM19.9253 33.92V62H26.7653V51.4H28.4053L34.2453 62H41.9653L35.4853 50.88C39.8053 49.6 41.7253 46.28 41.7253 42.76C41.7253 37.88 38.2853 33.92 31.4053 33.92H19.9253ZM56.8591 44.84C59.1391 44.84 61.0591 46.24 61.0591 48.68H52.4991C52.8991 46.2 54.6191 44.84 56.8591 44.84ZM67.5391 54.6H60.2591C59.6991 55.8 58.6191 56.76 56.6991 56.76C54.4991 56.76 52.6991 55.4 52.4591 52.48H67.9391C68.0191 51.8 68.0591 51.12 68.0591 50.48C68.0591 43.68 63.4591 39.36 56.9391 39.36C50.2991 39.36 45.6591 43.76 45.6591 50.84C45.6591 57.92 50.3791 62.32 56.9391 62.32C62.4991 62.32 66.4591 58.96 67.5391 54.6ZM71.3075 50.8C71.3075 57.84 75.6675 62.32 81.1075 62.32C84.4275 62.32 86.7875 60.8 88.0275 58.84V62H94.8675V39.68H88.0275V42.84C86.8275 40.88 84.4675 39.36 81.1475 39.36C75.6675 39.36 71.3075 43.76 71.3075 50.8ZM88.0275 50.84C88.0275 54.4 85.7475 56.36 83.1475 56.36C80.5875 56.36 78.2675 54.36 78.2675 50.8C78.2675 47.24 80.5875 45.32 83.1475 45.32C85.7475 45.32 88.0275 47.28 88.0275 50.84ZM100.816 62H107.656V32.4H100.816V62ZM112.093 39.4H119.533V62H126.373V39.4H133.813V33.92H112.093V39.4ZM138.246 62H145.086V39.68H138.246V62ZM141.686 37.36C144.086 37.36 145.726 35.72 145.726 33.68C145.726 31.6 144.086 29.96 141.686 29.96C139.246 29.96 137.606 31.6 137.606 33.68C137.606 35.72 139.246 37.36 141.686 37.36ZM181.803 62H188.603V48.96C188.603 42.96 185.043 39.44 179.523 39.44C176.283 39.44 173.483 41.24 172.003 43.6C170.483 40.92 167.763 39.44 164.403 39.44C161.483 39.44 159.203 40.68 157.883 42.48V39.68H151.043V62H157.883V49.88C157.883 46.96 159.563 45.36 162.163 45.36C164.763 45.36 166.443 46.96 166.443 49.88V62H173.243V49.88C173.243 46.96 174.923 45.36 177.523 45.36C180.123 45.36 181.803 46.96 181.803 49.88V62ZM204.226 44.84C206.506 44.84 208.426 46.24 208.426 48.68H199.866C200.266 46.2 201.986 44.84 204.226 44.84ZM214.906 54.6H207.626C207.066 55.8 205.986 56.76 204.066 56.76C201.866 56.76 200.066 55.4 199.826 52.48H215.306C215.386 51.8 215.426 51.12 215.426 50.48C215.426 43.68 210.826 39.36 204.306 39.36C197.666 39.36 193.026 43.76 193.026 50.84C193.026 57.92 197.746 62.32 204.306 62.32C209.866 62.32 213.826 58.96 214.906 54.6Z" fill="white"/>
<path d="M2.64797 106H9.48797V89.12L15.808 106H21.328L27.608 89.16V106H34.448V77.92H26.408L18.608 97.36L10.728 77.92H2.64797V106ZM62.2067 94.84C62.2067 87.76 57.1667 83.36 50.6067 83.36C44.0867 83.36 39.0067 87.76 39.0067 94.84C39.0067 101.92 43.9667 106.32 50.5267 106.32C57.0867 106.32 62.2067 101.92 62.2067 94.84ZM45.9667 94.84C45.9667 91.04 48.1267 89.28 50.6067 89.28C53.0067 89.28 55.2467 91.04 55.2467 94.84C55.2467 98.6 52.9667 100.4 50.5267 100.4C48.0467 100.4 45.9667 98.6 45.9667 94.84ZM82.2355 106H89.0355V92.96C89.0355 86.96 85.5955 83.44 80.4355 83.44C77.4355 83.44 75.0355 84.76 73.6755 86.64V83.68H66.8355V106H73.6755V93.88C73.6755 90.84 75.3555 89.16 77.9555 89.16C80.5555 89.16 82.2355 90.84 82.2355 93.88V106ZM94.7886 106H101.629V83.68H94.7886V106ZM98.2286 81.36C100.629 81.36 102.269 79.72 102.269 77.68C102.269 75.6 100.629 73.96 98.2286 73.96C95.7886 73.96 94.1486 75.6 94.1486 77.68C94.1486 79.72 95.7886 81.36 98.2286 81.36ZM108.665 98.24C108.665 104.04 111.905 106 116.545 106H120.025V100.2H117.585C116.065 100.2 115.505 99.64 115.505 98.32V89.36H119.985V83.68H115.505V78.24H108.665V83.68H105.945V89.36H108.665V98.24ZM146.675 94.84C146.675 87.76 141.635 83.36 135.075 83.36C128.555 83.36 123.475 87.76 123.475 94.84C123.475 101.92 128.435 106.32 134.995 106.32C141.555 106.32 146.675 101.92 146.675 94.84ZM130.435 94.84C130.435 91.04 132.595 89.28 135.075 89.28C137.475 89.28 139.715 91.04 139.715 94.84C139.715 98.6 137.435 100.4 134.995 100.4C132.515 100.4 130.435 98.6 130.435 94.84ZM158.144 95.64C158.144 91.8 160.024 90.68 163.264 90.68H165.144V83.44C162.144 83.44 159.704 85.04 158.144 87.4V83.68H151.304V106H158.144V95.64ZM169.414 106H176.254V83.68H169.414V106ZM172.854 81.36C175.254 81.36 176.894 79.72 176.894 77.68C176.894 75.6 175.254 73.96 172.854 73.96C170.414 73.96 168.774 75.6 168.774 77.68C168.774 79.72 170.414 81.36 172.854 81.36ZM197.61 106H204.41V92.96C204.41 86.96 200.97 83.44 195.81 83.44C192.81 83.44 190.41 84.76 189.05 86.64V83.68H182.21V106H189.05V93.88C189.05 90.84 190.73 89.16 193.33 89.16C195.93 89.16 197.61 90.84 197.61 93.88V106ZM208.804 94.8C208.804 101.84 213.164 106.32 218.644 106.32C221.924 106.32 224.284 104.76 225.524 102.8V105.96C225.524 109.72 223.484 111.08 220.884 111.08C218.524 111.08 216.844 110 216.404 108.32H209.644C210.244 113.64 214.564 117 221.204 117C228.924 117 232.364 111.92 232.364 105.96V83.68H225.524V86.84C224.324 84.84 221.924 83.36 218.644 83.36C213.164 83.36 208.804 87.76 208.804 94.8ZM225.524 94.84C225.524 98.4 223.244 100.36 220.644 100.36C218.084 100.36 215.764 98.36 215.764 94.8C215.764 91.24 218.084 89.32 220.644 89.32C223.244 89.32 225.524 91.28 225.524 94.84Z" fill="#E6740C"/>
</svg>
