<svg width="217" height="122" viewBox="0 0 217 122" fill="none" xmlns="http://www.w3.org/2000/svg">
<path d="M40.7404 12.416C40.7404 15.76 43.2844 18.096 46.4204 18.096C48.7404 18.096 50.7404 16.944 51.5884 14.768H49.3964C48.8044 15.952 47.7484 16.512 46.4204 16.512C44.2124 16.512 42.6124 14.928 42.6124 12.416C42.6124 9.904 44.2124 8.336 46.4204 8.336C47.7484 8.336 48.8044 8.896 49.3964 10.08H51.5884C50.7404 7.904 48.7404 6.736 46.4204 6.736C43.2844 6.736 40.7404 9.088 40.7404 12.416ZM54.7234 18H56.5474V13.072C56.5474 11.456 57.4274 10.624 58.7714 10.624C60.0994 10.624 60.9794 11.456 60.9794 13.072V18H62.7874V12.8C62.7874 10.336 61.2514 9.04 59.2834 9.04C58.1474 9.04 57.1554 9.472 56.5474 10.208V6.16H54.7234V18ZM65.5061 13.552C65.5061 16.272 67.3461 18.144 69.6341 18.144C71.1061 18.144 72.1621 17.44 72.7221 16.688V18H74.5621V9.184H72.7221V10.464C72.1781 9.744 71.1541 9.04 69.6661 9.04C67.3461 9.04 65.5061 10.832 65.5061 13.552ZM72.7221 13.584C72.7221 15.488 71.4261 16.56 70.0501 16.56C68.6901 16.56 67.3781 15.456 67.3781 13.552C67.3781 11.648 68.6901 10.624 70.0501 10.624C71.4261 10.624 72.7221 11.696 72.7221 13.584ZM79.7818 13.36C79.7818 11.488 80.6138 10.928 81.9578 10.928H82.4218V9.04C81.1738 9.04 80.2938 9.584 79.7818 10.464V9.184H77.9578V18H79.7818V13.36ZM84.4904 13.552C84.4904 16.272 86.3304 18.144 88.6504 18.144C90.0904 18.144 91.1464 17.424 91.7064 16.672V18.144C91.7064 19.904 90.6504 20.768 89.2424 20.768C87.9784 20.768 87.0024 20.144 86.7304 19.232H84.9224C85.1464 21.184 86.8904 22.352 89.2424 22.352C91.9944 22.352 93.5464 20.544 93.5464 18.144V9.184H91.7064V10.464C91.1624 9.712 90.0904 9.04 88.6504 9.04C86.3304 9.04 84.4904 10.832 84.4904 13.552ZM91.7064 13.584C91.7064 15.488 90.4104 16.56 89.0344 16.56C87.6744 16.56 86.3624 15.456 86.3624 13.552C86.3624 11.648 87.6744 10.624 89.0344 10.624C90.4104 10.624 91.7064 11.696 91.7064 13.584ZM100.654 10.576C102.014 10.576 103.086 11.44 103.118 12.8H98.2382C98.4302 11.408 99.4222 10.576 100.654 10.576ZM104.782 15.376H102.814C102.478 16.064 101.854 16.608 100.734 16.608C99.3902 16.608 98.3502 15.728 98.2222 14.272H104.958C105.006 13.968 105.022 13.68 105.022 13.376C105.022 10.784 103.246 9.04 100.734 9.04C98.1262 9.04 96.3342 10.816 96.3342 13.584C96.3342 16.352 98.2062 18.144 100.734 18.144C102.894 18.144 104.286 16.912 104.782 15.376ZM115.709 13.968V18H117.533V13.968L121.213 6.88H119.197L116.621 12.336L114.045 6.88H112.013L115.709 13.968ZM132.061 13.584C132.061 10.816 130.077 9.04 127.565 9.04C125.053 9.04 123.069 10.816 123.069 13.584C123.069 16.352 124.973 18.144 127.485 18.144C130.013 18.144 132.061 16.352 132.061 13.584ZM124.925 13.584C124.925 11.584 126.157 10.624 127.533 10.624C128.893 10.624 130.189 11.584 130.189 13.584C130.189 15.584 128.845 16.56 127.485 16.56C126.109 16.56 124.925 15.584 124.925 13.584ZM142.848 9.184H141.024V14.096C141.024 15.712 140.144 16.544 138.8 16.544C137.472 16.544 136.592 15.712 136.592 14.096V9.184H134.784V14.368C134.784 16.832 136.352 18.128 138.416 18.128C139.456 18.128 140.448 17.696 141.024 16.944V18H142.848V9.184ZM148.079 13.36C148.079 11.488 148.911 10.928 150.255 10.928H150.719V9.04C149.471 9.04 148.591 9.584 148.079 10.464V9.184H146.255V18H148.079V13.36ZM164.696 6.864H158.552V18H164.696V16.512H160.376V13.104H164.216V11.616H160.376V8.352H164.696V6.864ZM172.294 16.128L168.998 6.88H167.046L171.238 18H173.35L177.526 6.88H175.606L172.294 16.128Z" fill="white"/>
<path d="M51.8475 62H59.0875L48.9275 33.92H41.0075L30.8475 62H38.0075L39.6875 57.04H50.1675L51.8475 62ZM48.4075 51.76H41.4875L44.9275 41.48L48.4075 51.76ZM64.2597 54.24C64.2597 60.04 67.4997 62 72.1397 62H75.6197V56.2H73.1797C71.6597 56.2 71.0997 55.64 71.0997 54.32V45.36H75.5797V39.68H71.0997V34.24H64.2597V39.68H61.5397V45.36H64.2597V54.24ZM97.4263 52.72V62H104.266V52.72L113.986 33.92H106.306L100.906 45.68L95.4663 33.92H87.7063L97.4263 52.72ZM139.582 50.84C139.582 43.76 134.542 39.36 127.982 39.36C121.462 39.36 116.382 43.76 116.382 50.84C116.382 57.92 121.342 62.32 127.902 62.32C134.462 62.32 139.582 57.92 139.582 50.84ZM123.342 50.84C123.342 47.04 125.502 45.28 127.982 45.28C130.382 45.28 132.622 47.04 132.622 50.84C132.622 54.6 130.342 56.4 127.902 56.4C125.422 56.4 123.342 54.6 123.342 50.84ZM166.251 39.68H159.411V51.8C159.411 54.84 157.731 56.52 155.091 56.52C152.531 56.52 150.811 54.84 150.811 51.8V39.68H144.011V52.72C144.011 58.68 147.491 62.24 152.651 62.24C155.651 62.24 158.051 60.88 159.411 58.96V62H166.251V39.68ZM179.004 51.64C179.004 47.8 180.884 46.68 184.124 46.68H186.004V39.44C183.004 39.44 180.564 41.04 179.004 43.4V39.68H172.164V62H179.004V51.64Z" fill="white"/>
<path d="M2.96486 106H9.80486V94.64H18.3649V89.32H9.80486V83.4H21.2449V77.92H2.96486V106ZM25.8399 106H32.6799V83.68H25.8399V106ZM29.2799 81.36C31.6799 81.36 33.3199 79.72 33.3199 77.68C33.3199 75.6 31.6799 73.96 29.2799 73.96C26.8399 73.96 25.1999 75.6 25.1999 77.68C25.1999 79.72 26.8399 81.36 29.2799 81.36ZM54.0367 106H60.8367V92.96C60.8367 86.96 57.3967 83.44 52.2367 83.44C49.2367 83.44 46.8367 84.76 45.4767 86.64V83.68H38.6367V106H45.4767V93.88C45.4767 90.84 47.1567 89.16 49.7567 89.16C52.3567 89.16 54.0367 90.84 54.0367 93.88V106ZM65.2299 94.8C65.2299 101.84 69.5899 106.32 75.0699 106.32C78.3499 106.32 80.7099 104.76 81.9499 102.8V105.96C81.9499 109.72 79.9099 111.08 77.3099 111.08C74.9499 111.08 73.2699 110 72.8299 108.32H66.0699C66.6699 113.64 70.9899 117 77.6299 117C85.3499 117 88.7899 111.92 88.7899 105.96V83.68H81.9499V86.84C80.7499 84.84 78.3499 83.36 75.0699 83.36C69.5899 83.36 65.2299 87.76 65.2299 94.8ZM81.9499 94.84C81.9499 98.4 79.6699 100.36 77.0699 100.36C74.5099 100.36 72.1899 98.36 72.1899 94.8C72.1899 91.24 74.5099 89.32 77.0699 89.32C79.6699 89.32 81.9499 91.28 81.9499 94.84ZM104.578 88.84C106.858 88.84 108.778 90.24 108.778 92.68H100.218C100.618 90.2 102.338 88.84 104.578 88.84ZM115.258 98.6H107.978C107.418 99.8 106.338 100.76 104.418 100.76C102.218 100.76 100.418 99.4 100.178 96.48H115.658C115.738 95.8 115.778 95.12 115.778 94.48C115.778 87.68 111.178 83.36 104.658 83.36C98.0183 83.36 93.3783 87.76 93.3783 94.84C93.3783 101.92 98.0983 106.32 104.658 106.32C110.218 106.32 114.178 102.96 115.258 98.6ZM127.227 95.64C127.227 91.8 129.107 90.68 132.347 90.68H134.227V83.44C131.227 83.44 128.787 85.04 127.227 87.4V83.68H120.387V106H127.227V95.64ZM139.576 98.24C139.576 104.04 142.816 106 147.456 106H150.936V100.2H148.496C146.976 100.2 146.416 99.64 146.416 98.32V89.36H150.896V83.68H146.416V78.24H139.576V83.68H136.856V89.36H139.576V98.24ZM155.746 106H162.586V83.68H155.746V106ZM159.186 81.36C161.586 81.36 163.226 79.72 163.226 77.68C163.226 75.6 161.586 73.96 159.186 73.96C156.746 73.96 155.106 75.6 155.106 77.68C155.106 79.72 156.746 81.36 159.186 81.36ZM175.383 86.84V83.68H168.543V116.64H175.383V102.88C176.623 104.76 178.983 106.32 182.263 106.32C187.743 106.32 192.103 101.84 192.103 94.8C192.103 87.76 187.743 83.36 182.263 83.36C178.983 83.36 176.623 84.88 175.383 86.84ZM185.143 94.8C185.143 98.36 182.823 100.36 180.223 100.36C177.663 100.36 175.343 98.4 175.343 94.84C175.343 91.28 177.663 89.32 180.223 89.32C182.823 89.32 185.143 91.24 185.143 94.8ZM214.811 99.52C214.691 91.2 202.611 93.72 202.611 90.16C202.611 89.08 203.491 88.44 205.091 88.44C207.011 88.44 208.171 89.44 208.371 90.96H214.691C214.251 86.56 211.051 83.36 205.291 83.36C199.451 83.36 196.211 86.48 196.211 90.28C196.211 98.48 208.371 95.88 208.371 99.48C208.371 100.48 207.451 101.28 205.691 101.28C203.811 101.28 202.411 100.24 202.251 98.68H195.491C195.811 103 199.811 106.32 205.771 106.32C211.371 106.32 214.811 103.4 214.811 99.52Z" fill="#E6740C"/>
</svg>
