<svg width="270" height="122" viewBox="0 0 270 122" fill="none" xmlns="http://www.w3.org/2000/svg">
<path d="M58.6072 6.864H52.4632V18H58.6072V16.512H54.2872V13.104H58.1272V11.616H54.2872V8.352H58.6072V6.864ZM61.2458 13.552C61.2458 16.272 63.0858 18.144 65.3738 18.144C66.8458 18.144 67.9018 17.44 68.4618 16.688V18H70.3018V9.184H68.4618V10.464C67.9178 9.744 66.8938 9.04 65.4058 9.04C63.0858 9.04 61.2458 10.832 61.2458 13.552ZM68.4618 13.584C68.4618 15.488 67.1658 16.56 65.7898 16.56C64.4298 16.56 63.1178 15.456 63.1178 13.552C63.1178 11.648 64.4298 10.624 65.7898 10.624C67.1658 10.624 68.4618 11.696 68.4618 13.584ZM80.2736 15.536C80.1776 12.352 75.2016 13.344 75.2016 11.568C75.2016 10.976 75.7136 10.576 76.6896 10.576C77.6816 10.576 78.2736 11.104 78.3376 11.872H80.1616C80.0656 10.112 78.7536 9.04 76.7536 9.04C74.6736 9.04 73.3616 10.176 73.3616 11.584C73.3616 14.816 78.4816 13.824 78.4816 15.552C78.4816 16.16 77.9216 16.608 76.8656 16.608C75.8576 16.608 75.1696 16.016 75.1056 15.296H73.2176C73.2976 16.896 74.7856 18.144 76.8976 18.144C78.9776 18.144 80.2736 17.024 80.2736 15.536ZM86.7164 15.904L84.2364 9.184H82.2044L85.6764 17.856L83.8844 22.144H85.7724L91.1804 9.184H89.2924L86.7164 15.904ZM104.857 6.864H98.7132V18H104.857V16.512H100.537V13.104H104.377V11.616H100.537V8.352H104.857V6.864ZM112.456 16.128L109.16 6.88H107.208L111.4 18H113.512L117.688 6.88H115.768L112.456 16.128ZM132.681 6.864V15.152L127.193 6.864H125.369V18H127.193V9.696L132.681 18H134.505V6.864H132.681ZM137.293 13.552C137.293 16.272 139.133 18.144 141.421 18.144C142.893 18.144 143.949 17.44 144.509 16.688V18H146.349V9.184H144.509V10.464C143.965 9.744 142.941 9.04 141.453 9.04C139.133 9.04 137.293 10.832 137.293 13.552ZM144.509 13.584C144.509 15.488 143.213 16.56 141.837 16.56C140.477 16.56 139.165 15.456 139.165 13.552C139.165 11.648 140.477 10.624 141.837 10.624C143.213 10.624 144.509 11.696 144.509 13.584ZM148.704 9.184L152.048 18H154.224L157.584 9.184H155.648L153.152 16.368L150.656 9.184H148.704ZM159.963 18H161.787V9.184H159.963V18ZM160.891 8.016C161.531 8.016 162.043 7.504 162.043 6.848C162.043 6.192 161.531 5.68 160.891 5.68C160.235 5.68 159.723 6.192 159.723 6.848C159.723 7.504 160.235 8.016 160.891 8.016ZM164.574 13.552C164.574 16.272 166.414 18.144 168.734 18.144C170.174 18.144 171.23 17.424 171.79 16.672V18.144C171.79 19.904 170.734 20.768 169.326 20.768C168.062 20.768 167.086 20.144 166.814 19.232H165.006C165.23 21.184 166.974 22.352 169.326 22.352C172.078 22.352 173.63 20.544 173.63 18.144V9.184H171.79V10.464C171.246 9.712 170.174 9.04 168.734 9.04C166.414 9.04 164.574 10.832 164.574 13.552ZM171.79 13.584C171.79 15.488 170.494 16.56 169.118 16.56C167.758 16.56 166.446 15.456 166.446 13.552C166.446 11.648 167.758 10.624 169.118 10.624C170.494 10.624 171.79 11.696 171.79 13.584ZM176.418 13.552C176.418 16.272 178.258 18.144 180.546 18.144C182.018 18.144 183.074 17.44 183.634 16.688V18H185.474V9.184H183.634V10.464C183.09 9.744 182.066 9.04 180.578 9.04C178.258 9.04 176.418 10.832 176.418 13.552ZM183.634 13.584C183.634 15.488 182.338 16.56 180.962 16.56C179.602 16.56 178.29 15.456 178.29 13.552C178.29 11.648 179.602 10.624 180.962 10.624C182.338 10.624 183.634 11.696 183.634 13.584ZM189.157 15.552C189.157 17.344 190.133 18 191.701 18H193.141V16.48H192.021C191.253 16.48 190.997 16.208 190.997 15.552V10.672H193.141V9.184H190.997V6.992H189.157V9.184H188.117V10.672H189.157V15.552ZM195.823 18H197.647V9.184H195.823V18ZM196.751 8.016C197.391 8.016 197.903 7.504 197.903 6.848C197.903 6.192 197.391 5.68 196.751 5.68C196.095 5.68 195.583 6.192 195.583 6.848C195.583 7.504 196.095 8.016 196.751 8.016ZM209.441 13.584C209.441 10.816 207.457 9.04 204.945 9.04C202.433 9.04 200.449 10.816 200.449 13.584C200.449 16.352 202.353 18.144 204.865 18.144C207.393 18.144 209.441 16.352 209.441 13.584ZM202.305 13.584C202.305 11.584 203.537 10.624 204.913 10.624C206.273 10.624 207.569 11.584 207.569 13.584C207.569 15.584 206.225 16.56 204.865 16.56C203.489 16.56 202.305 15.584 202.305 13.584ZM218.5 18H220.308V12.8C220.308 10.336 218.756 9.04 216.692 9.04C215.636 9.04 214.66 9.472 214.068 10.192V9.184H212.244V18H214.068V13.072C214.068 11.456 214.948 10.624 216.292 10.624C217.62 10.624 218.5 11.456 218.5 13.072V18Z" fill="white"/>
<path d="M2.1768 39.4H9.6168V62H16.4568V39.4H23.8968V33.92H2.1768V39.4ZM35.1696 51.64C35.1696 47.8 37.0496 46.68 40.2896 46.68H42.1696V39.44C39.1696 39.44 36.7296 41.04 35.1696 43.4V39.68H28.3296V62H35.1696V51.64ZM45.079 50.8C45.079 57.84 49.439 62.32 54.879 62.32C58.199 62.32 60.559 60.8 61.799 58.84V62H68.639V39.68H61.799V42.84C60.599 40.88 58.239 39.36 54.919 39.36C49.439 39.36 45.079 43.76 45.079 50.8ZM61.799 50.84C61.799 54.4 59.519 56.36 56.919 56.36C54.359 56.36 52.039 54.36 52.039 50.8C52.039 47.24 54.359 45.32 56.919 45.32C59.519 45.32 61.799 47.28 61.799 50.84ZM72.4674 39.68L80.3874 62H88.8274L96.7474 39.68H89.4674L84.6274 55.6L79.7874 39.68H72.4674ZM110.466 44.84C112.746 44.84 114.666 46.24 114.666 48.68H106.106C106.506 46.2 108.226 44.84 110.466 44.84ZM121.146 54.6H113.866C113.306 55.8 112.226 56.76 110.306 56.76C108.106 56.76 106.306 55.4 106.066 52.48H121.546C121.626 51.8 121.666 51.12 121.666 50.48C121.666 43.68 117.066 39.36 110.546 39.36C103.906 39.36 99.2665 43.76 99.2665 50.84C99.2665 57.92 103.986 62.32 110.546 62.32C116.106 62.32 120.066 58.96 121.146 54.6ZM126.275 62H133.115V32.4H126.275V62ZM163.388 43.04C163.388 45.24 162.188 46.56 159.628 46.56H155.388V39.6H159.628C162.188 39.6 163.388 40.96 163.388 43.04ZM148.548 33.92V62H155.388V51.4H157.028L162.868 62H170.588L164.108 50.88C168.428 49.6 170.348 46.28 170.348 42.76C170.348 37.88 166.908 33.92 160.028 33.92H148.548ZM197.482 50.84C197.482 43.76 192.442 39.36 185.882 39.36C179.362 39.36 174.282 43.76 174.282 50.84C174.282 57.92 179.242 62.32 185.802 62.32C192.362 62.32 197.482 57.92 197.482 50.84ZM181.242 50.84C181.242 47.04 183.402 45.28 185.882 45.28C188.282 45.28 190.522 47.04 190.522 50.84C190.522 54.6 188.242 56.4 185.802 56.4C183.322 56.4 181.242 54.6 181.242 50.84ZM224.151 39.68H217.311V51.8C217.311 54.84 215.631 56.52 212.991 56.52C210.431 56.52 208.711 54.84 208.711 51.8V39.68H201.911V52.72C201.911 58.68 205.391 62.24 210.551 62.24C213.551 62.24 215.951 60.88 217.311 58.96V62H224.151V39.68ZM231.144 54.24C231.144 60.04 234.384 62 239.024 62H242.504V56.2H240.064C238.544 56.2 237.984 55.64 237.984 54.32V45.36H242.464V39.68H237.984V34.24H231.144V39.68H228.424V45.36H231.144V54.24ZM257.154 44.84C259.434 44.84 261.354 46.24 261.354 48.68H252.794C253.194 46.2 254.914 44.84 257.154 44.84ZM267.834 54.6H260.554C259.994 55.8 258.914 56.76 256.994 56.76C254.794 56.76 252.994 55.4 252.754 52.48H268.234C268.314 51.8 268.354 51.12 268.354 50.48C268.354 43.68 263.754 39.36 257.234 39.36C250.594 39.36 245.954 43.76 245.954 50.84C245.954 57.92 250.674 62.32 257.234 62.32C262.794 62.32 266.754 58.96 267.834 54.6Z" fill="white"/>
<path d="M8.37258 106H15.2126V94.64H23.7726V89.32H15.2126V83.4H26.6526V77.92H8.37258V106ZM53.0876 94.84C53.0876 87.76 48.0476 83.36 41.4876 83.36C34.9676 83.36 29.8876 87.76 29.8876 94.84C29.8876 101.92 34.8476 106.32 41.4076 106.32C47.9676 106.32 53.0876 101.92 53.0876 94.84ZM36.8476 94.84C36.8476 91.04 39.0076 89.28 41.4876 89.28C43.8876 89.28 46.1276 91.04 46.1276 94.84C46.1276 98.6 43.8476 100.4 41.4076 100.4C38.9276 100.4 36.8476 98.6 36.8476 94.84ZM64.5563 95.64C64.5563 91.8 66.4363 90.68 69.6763 90.68H71.5563V83.44C68.5563 83.44 66.1163 85.04 64.5563 87.4V83.68H57.7163V106H64.5563V95.64ZM102.502 77.92H85.3023V106H102.502V100.52H92.1423V94.36H101.302V89.08H92.1423V83.4H102.502V77.92ZM107.943 106H114.783V76.4H107.943V106ZM130.58 88.84C132.86 88.84 134.78 90.24 134.78 92.68H126.22C126.62 90.2 128.34 88.84 130.58 88.84ZM141.26 98.6H133.98C133.42 99.8 132.34 100.76 130.42 100.76C128.22 100.76 126.42 99.4 126.18 96.48H141.66C141.74 95.8 141.78 95.12 141.78 94.48C141.78 87.68 137.18 83.36 130.66 83.36C124.02 83.36 119.38 87.76 119.38 94.84C119.38 101.92 124.1 106.32 130.66 106.32C136.22 106.32 140.18 102.96 141.26 98.6ZM145.028 94.84C145.028 101.92 149.668 106.32 156.228 106.32C161.828 106.32 165.788 103.08 166.948 97.92H159.668C159.068 99.56 157.988 100.48 156.108 100.48C153.668 100.48 151.988 98.56 151.988 94.84C151.988 91.12 153.668 89.2 156.108 89.2C157.988 89.2 159.108 90.2 159.668 91.76H166.948C165.788 86.44 161.828 83.36 156.228 83.36C149.668 83.36 145.028 87.8 145.028 94.84ZM172.687 98.24C172.687 104.04 175.927 106 180.567 106H184.047V100.2H181.607C180.087 100.2 179.527 99.64 179.527 98.32V89.36H184.007V83.68H179.527V78.24H172.687V83.68H169.967V89.36H172.687V98.24ZM195.697 95.64C195.697 91.8 197.577 90.68 200.817 90.68H202.697V83.44C199.697 83.44 197.257 85.04 195.697 87.4V83.68H188.857V106H195.697V95.64ZM206.966 106H213.806V83.68H206.966V106ZM210.406 81.36C212.806 81.36 214.446 79.72 214.446 77.68C214.446 75.6 212.806 73.96 210.406 73.96C207.966 73.96 206.326 75.6 206.326 77.68C206.326 79.72 207.966 81.36 210.406 81.36ZM218.403 94.84C218.403 101.92 223.043 106.32 229.603 106.32C235.203 106.32 239.163 103.08 240.323 97.92H233.043C232.443 99.56 231.363 100.48 229.483 100.48C227.043 100.48 225.363 98.56 225.363 94.84C225.363 91.12 227.043 89.2 229.483 89.2C231.363 89.2 232.483 90.2 233.043 91.76H240.323C239.163 86.44 235.203 83.36 229.603 83.36C223.043 83.36 218.403 87.8 218.403 94.84ZM263.102 99.52C262.982 91.2 250.902 93.72 250.902 90.16C250.902 89.08 251.782 88.44 253.382 88.44C255.302 88.44 256.462 89.44 256.662 90.96H262.982C262.542 86.56 259.342 83.36 253.582 83.36C247.742 83.36 244.502 86.48 244.502 90.28C244.502 98.48 256.662 95.88 256.662 99.48C256.662 100.48 255.742 101.28 253.982 101.28C252.102 101.28 250.702 100.24 250.542 98.68H243.782C244.102 103 248.102 106.32 254.062 106.32C259.662 106.32 263.102 103.4 263.102 99.52Z" fill="#E6740C"/>
</svg>
