<svg width="247" height="238" viewBox="0 0 247 238" fill="none" xmlns="http://www.w3.org/2000/svg">
<path fill-rule="evenodd" clip-rule="evenodd" d="M151.607 28.2446L205.787 1.90021L204.912 0.101562L150.092 26.7572L127.483 75.4932L85.8496 133.178V172.263L111.902 179.415L127.535 191.14L144.93 231.893L146.769 231.108L129.164 189.862L112.798 177.587L87.8496 170.738V133.824L129.216 76.5085L151.607 28.2446Z" fill="white"/>
<path d="M82.6416 180.584C87.4973 180.584 91.4336 176.648 91.4336 171.792C91.4336 166.936 87.4973 163 82.6416 163C77.7859 163 73.8496 166.936 73.8496 171.792C73.8496 176.648 77.7859 180.584 82.6416 180.584Z" fill="#4EAD2B"/>
<path d="M85.6629 166.936L80.3495 172.356H82.8028L79.0583 177.47L85.5038 171.363L82.9115 171.349L85.6629 166.936Z" fill="white"/>
<path d="M130.642 85.584C135.497 85.584 139.434 81.6477 139.434 76.792C139.434 71.9363 135.497 68 130.642 68C125.786 68 121.85 71.9363 121.85 76.792C121.85 81.6477 125.786 85.584 130.642 85.584Z" fill="#4EAD2B"/>
<path d="M133.663 71.9355L128.349 77.3558H130.803L127.058 82.4698L133.504 76.3628L130.912 76.3487L133.663 71.9355Z" fill="white"/>
<path fill-rule="evenodd" clip-rule="evenodd" d="M205.758 0.582031L219.817 31.2098L226.825 77.2629L246.901 136.988L234.695 176.147L146.885 231.844L145.814 230.155L233.004 174.851L244.799 137.011L224.874 77.7355L217.882 31.7886L203.941 1.41637L205.758 0.582031Z" fill="#EBEBEB" fill-opacity="0.5"/>
<g filter="url(#filter0_d_32_6247)">
<path d="M4.84961 123C4.84961 121.895 5.74504 121 6.84961 121H172.614C173.719 121 174.614 121.895 174.614 123V151.118C174.614 152.222 173.719 153.118 172.614 153.118H6.84961C5.74504 153.118 4.84961 152.222 4.84961 151.118V123Z" fill="white"/>
</g>
<path d="M75.9673 155.411C73.2144 153.576 67.1732 153.117 64.4967 153.117H98.9085C96.9967 153.5 92.4849 154.494 89.732 155.411C86.9791 156.329 83.9967 158.852 82.8496 160L75.9673 155.411Z" fill="white"/>
<path d="M34.2939 141.177H35.2139V133.947H33.3339V134.777H34.2939V141.177Z" fill="#534B4A"/>
<path d="M36.667 141.097H41.477V140.337H38.037C39.327 139.287 41.267 137.757 41.267 135.957C41.267 134.617 40.387 133.817 39.027 133.817C37.727 133.817 36.757 134.617 36.697 136.157H37.577C37.617 135.247 38.097 134.597 39.037 134.597C40.017 134.597 40.367 135.197 40.367 135.997C40.367 137.477 38.567 138.917 36.667 140.447V141.097Z" fill="#534B4A"/>
<path d="M45.515 141.177H46.425V136.447H47.575V135.697H46.425V135.307C46.425 134.597 46.695 134.297 47.515 134.297V133.537C46.115 133.537 45.515 134.087 45.515 135.307V135.697H44.805V136.447H45.515V141.177Z" fill="#534B4A"/>
<path d="M53.496 135.697H52.586V138.707C52.586 139.887 51.956 140.467 51.016 140.467C50.096 140.467 49.486 139.897 49.486 138.787V135.697H48.586V138.907C48.586 140.477 49.576 141.257 50.836 141.257C51.566 141.257 52.236 140.937 52.586 140.367V141.177H53.496V135.697Z" fill="#534B4A"/>
<path d="M59.0425 141.177H59.9425V137.947C59.9425 136.377 58.9725 135.597 57.7025 135.597C56.9625 135.597 56.3025 135.907 55.9425 136.477V135.697H55.0325V141.177H55.9425V138.147C55.9425 136.967 56.5825 136.387 57.5125 136.387C58.4325 136.387 59.0425 136.957 59.0425 138.077V141.177Z" fill="#534B4A"/>
<path d="M68.775 141.177H69.735L67.225 134.247H66.175L63.655 141.177H64.615L65.175 139.627H68.215L68.775 141.177ZM67.955 138.887H65.435L66.695 135.367L67.955 138.887Z" fill="#534B4A"/>
<path d="M78.7432 141.177H79.6432V137.947C79.6432 136.377 78.6732 135.597 77.4232 135.597C76.5832 135.597 75.8032 136.027 75.4832 136.817C75.1232 135.997 74.3732 135.597 73.4732 135.597C72.7532 135.597 72.1032 135.907 71.7432 136.487V135.697H70.8332V141.177H71.7432V138.157C71.7432 136.977 72.3732 136.387 73.2932 136.387C74.1932 136.387 74.7932 136.957 74.7932 138.077V141.177H75.6932V138.157C75.6932 136.977 76.3232 136.387 77.2432 136.387C78.1432 136.387 78.7432 136.957 78.7432 138.077V141.177Z" fill="#534B4A"/>
<path d="M83.466 136.377C84.406 136.377 85.206 136.967 85.196 138.037H81.736C81.836 136.967 82.576 136.377 83.466 136.377ZM86.026 139.487H85.046C84.846 140.077 84.326 140.497 83.506 140.497C82.576 140.497 81.796 139.887 81.726 138.777H86.106C86.126 138.587 86.136 138.427 86.136 138.227C86.136 136.727 85.096 135.607 83.506 135.607C81.906 135.607 80.796 136.697 80.796 138.427C80.796 140.167 81.946 141.267 83.506 141.267C84.866 141.267 85.746 140.487 86.026 139.487Z" fill="#534B4A"/>
<path d="M91.3471 141.177H92.2471V137.947C92.2471 136.377 91.2771 135.597 90.0071 135.597C89.2671 135.597 88.6071 135.907 88.2471 136.477V135.697H87.3371V141.177H88.2471V138.147C88.2471 136.967 88.8871 136.387 89.8171 136.387C90.7371 136.387 91.3471 136.957 91.3471 138.077V141.177Z" fill="#534B4A"/>
<path d="M93.7336 141.177H94.6436V135.697H93.7336V141.177ZM94.2036 134.807C94.5336 134.807 94.8036 134.537 94.8036 134.187C94.8036 133.837 94.5336 133.567 94.2036 133.567C93.8536 133.567 93.5836 133.837 93.5836 134.187C93.5836 134.537 93.8536 134.807 94.2036 134.807Z" fill="#534B4A"/>
<path d="M96.3946 139.677C96.3946 140.777 96.9446 141.177 97.9146 141.177H98.7346V140.407H98.0646C97.5046 140.407 97.3046 140.217 97.3046 139.677V136.447H98.7346V135.697H97.3046V134.317H96.3946V135.697H95.6846V136.447H96.3946V139.677Z" fill="#534B4A"/>
<path d="M99.8371 141.177H100.747V135.697H99.8371V141.177ZM100.307 134.807C100.637 134.807 100.907 134.537 100.907 134.187C100.907 133.837 100.637 133.567 100.307 133.567C99.9571 133.567 99.6871 133.837 99.6871 134.187C99.6871 134.537 99.9571 134.807 100.307 134.807Z" fill="#534B4A"/>
<path d="M104.628 136.377C105.568 136.377 106.368 136.967 106.358 138.037H102.898C102.998 136.967 103.738 136.377 104.628 136.377ZM107.188 139.487H106.208C106.008 140.077 105.488 140.497 104.668 140.497C103.738 140.497 102.958 139.887 102.888 138.777H107.268C107.288 138.587 107.298 138.427 107.298 138.227C107.298 136.727 106.258 135.607 104.668 135.607C103.068 135.607 101.958 136.697 101.958 138.427C101.958 140.167 103.108 141.267 104.668 141.267C106.028 141.267 106.908 140.487 107.188 139.487Z" fill="#534B4A"/>
<path d="M112.439 139.687C112.399 137.727 109.219 138.437 109.219 137.137C109.219 136.697 109.619 136.377 110.289 136.377C111.019 136.377 111.439 136.777 111.479 137.327H112.389C112.329 136.257 111.529 135.607 110.319 135.607C109.099 135.607 108.309 136.297 108.309 137.137C108.309 139.177 111.549 138.467 111.549 139.687C111.549 140.137 111.149 140.497 110.429 140.497C109.659 140.497 109.189 140.097 109.139 139.567H108.199C108.259 140.567 109.159 141.267 110.439 141.267C111.649 141.267 112.439 140.587 112.439 139.687Z" fill="#534B4A"/>
<path d="M120.4 141.177H121.3V137.947C121.3 136.377 120.33 135.597 119.06 135.597C118.32 135.597 117.66 135.907 117.3 136.477V135.697H116.39V141.177H117.3V138.147C117.3 136.967 117.94 136.387 118.87 136.387C119.79 136.387 120.4 136.957 120.4 138.077V141.177Z" fill="#534B4A"/>
<path d="M125.116 136.377C126.056 136.377 126.856 136.967 126.846 138.037H123.386C123.486 136.967 124.226 136.377 125.116 136.377ZM127.676 139.487H126.696C126.496 140.077 125.976 140.497 125.156 140.497C124.226 140.497 123.446 139.887 123.376 138.777H127.756C127.776 138.587 127.786 138.427 127.786 138.227C127.786 136.727 126.746 135.607 125.156 135.607C123.556 135.607 122.446 136.697 122.446 138.427C122.446 140.167 123.596 141.267 125.156 141.267C126.516 141.267 127.396 140.487 127.676 139.487Z" fill="#534B4A"/>
<path d="M128.648 138.417C128.648 140.117 129.778 141.267 131.238 141.267C132.248 141.267 132.958 140.747 133.288 140.157V141.177H134.208V135.697H133.288V136.697C132.968 136.127 132.268 135.607 131.248 135.607C129.778 135.607 128.648 136.707 128.648 138.417ZM133.288 138.427C133.288 139.717 132.428 140.467 131.428 140.467C130.428 140.467 129.578 139.707 129.578 138.417C129.578 137.127 130.428 136.397 131.428 136.397C132.428 136.397 133.288 137.157 133.288 138.427Z" fill="#534B4A"/>
<path d="M136.655 138.197C136.655 136.927 137.315 136.537 138.185 136.537H138.425V135.597C137.555 135.597 136.965 135.977 136.655 136.587V135.697H135.745V141.177H136.655V138.197Z" fill="#534B4A"/>
<path d="M140.386 136.717V133.777H139.476V141.177H140.386V140.167C140.726 140.767 141.436 141.267 142.436 141.267C143.906 141.267 145.036 140.117 145.036 138.417C145.036 136.707 143.916 135.607 142.436 135.607C141.466 135.607 140.736 136.107 140.386 136.717ZM144.106 138.417C144.106 139.707 143.256 140.467 142.246 140.467C141.256 140.467 140.386 139.717 140.386 138.427C140.386 137.157 141.256 136.397 142.246 136.397C143.256 136.397 144.106 137.127 144.106 138.417Z" fill="#534B4A"/>
<path d="M148.314 140.137L146.594 135.697H145.584L147.794 141.117L146.714 143.757H147.654L150.954 135.697H150.014L148.314 140.137Z" fill="#534B4A"/>
<path d="M153.85 231C153.85 234.866 150.716 238 146.85 238C142.984 238 139.85 234.866 139.85 231C139.85 227.134 142.984 224 146.85 224C150.716 224 153.85 227.134 153.85 231Z" fill="#6A8AFE"/>
<defs>
<filter id="filter0_d_32_6247" x="0.849609" y="121" width="177.765" height="40.1172" filterUnits="userSpaceOnUse" color-interpolation-filters="sRGB">
<feFlood flood-opacity="0" result="BackgroundImageFix"/>
<feColorMatrix in="SourceAlpha" type="matrix" values="0 0 0 0 0 0 0 0 0 0 0 0 0 0 0 0 0 0 127 0" result="hardAlpha"/>
<feOffset dy="4"/>
<feGaussianBlur stdDeviation="2"/>
<feComposite in2="hardAlpha" operator="out"/>
<feColorMatrix type="matrix" values="0 0 0 0 0 0 0 0 0 0 0 0 0 0 0 0 0 0 0.1 0"/>
<feBlend mode="normal" in2="BackgroundImageFix" result="effect1_dropShadow_32_6247"/>
<feBlend mode="normal" in="SourceGraphic" in2="effect1_dropShadow_32_6247" result="shape"/>
</filter>
</defs>
</svg>
