<svg width="201" height="40" viewBox="0 0 201 40" fill="none" xmlns="http://www.w3.org/2000/svg">
<path d="M0.536836 12H1.90184V1.545H0.536836V12ZM10.2432 12H11.5932V7.155C11.5932 4.8 10.1382 3.63 8.23324 3.63C7.12324 3.63 6.13324 4.095 5.59324 4.95V3.78H4.22824V12H5.59324V7.455C5.59324 5.685 6.55324 4.815 7.94824 4.815C9.32824 4.815 10.2432 5.67 10.2432 7.35V12ZM14.123 9.75C14.123 11.4 14.948 12 16.403 12H17.633V10.845H16.628C15.788 10.845 15.488 10.56 15.488 9.75V4.905H17.633V3.78H15.488V1.71H14.123V3.78H13.058V4.905H14.123V9.75ZM22.7818 4.8C24.1918 4.8 25.3918 5.685 25.3768 7.29H20.1868C20.3368 5.685 21.4468 4.8 22.7818 4.8ZM26.6218 9.465H25.1518C24.8518 10.35 24.0718 10.98 22.8418 10.98C21.4468 10.98 20.2768 10.065 20.1718 8.4H26.7418C26.7718 8.115 26.7868 7.875 26.7868 7.575C26.7868 5.325 25.2268 3.645 22.8418 3.645C20.4418 3.645 18.7768 5.28 18.7768 7.875C18.7768 10.485 20.5018 12.135 22.8418 12.135C24.8818 12.135 26.2018 10.965 26.6218 9.465ZM28.5886 12H29.9536V0.9H28.5886V12ZM32.28 12H33.645V0.9H32.28V12ZM35.9714 12H37.3364V3.78H35.9714V12ZM36.6764 2.445C37.1714 2.445 37.5764 2.04 37.5764 1.515C37.5764 0.99 37.1714 0.584999 36.6764 0.584999C36.1514 0.584999 35.7464 0.99 35.7464 1.515C35.7464 2.04 36.1514 2.445 36.6764 2.445ZM39.1528 7.86C39.1528 10.41 40.8478 12.135 43.0528 12.135C44.5528 12.135 45.6178 11.34 46.1128 10.455V12.18C46.1128 13.935 45.0178 14.865 43.5628 14.865C42.2128 14.865 41.2378 14.19 40.9378 13.2H39.5878C39.8578 14.955 41.4028 16.05 43.5628 16.05C45.9778 16.05 47.4928 14.445 47.4928 12.18V3.78H46.1128V5.28C45.6328 4.395 44.5528 3.645 43.0528 3.645C40.8478 3.645 39.1528 5.295 39.1528 7.86ZM46.1128 7.875C46.1128 9.81 44.8228 10.935 43.3228 10.935C41.8228 10.935 40.5478 9.795 40.5478 7.86C40.5478 5.925 41.8228 4.83 43.3228 4.83C44.8228 4.83 46.1128 5.97 46.1128 7.875ZM53.2945 4.8C54.7045 4.8 55.9045 5.685 55.8895 7.29H50.6995C50.8495 5.685 51.9595 4.8 53.2945 4.8ZM57.1345 9.465H55.6645C55.3645 10.35 54.5845 10.98 53.3545 10.98C51.9595 10.98 50.7895 10.065 50.6845 8.4H57.2545C57.2845 8.115 57.2995 7.875 57.2995 7.575C57.2995 5.325 55.7395 3.645 53.3545 3.645C50.9545 3.645 49.2895 5.28 49.2895 7.875C49.2895 10.485 51.0145 12.135 53.3545 12.135C55.3945 12.135 56.7145 10.965 57.1345 9.465ZM65.1163 12H66.4663V7.155C66.4663 4.8 65.0113 3.63 63.1063 3.63C61.9963 3.63 61.0063 4.095 60.4663 4.95V3.78H59.1013V12H60.4663V7.455C60.4663 5.685 61.4263 4.815 62.8213 4.815C64.2013 4.815 65.1163 5.67 65.1163 7.35V12ZM68.996 9.75C68.996 11.4 69.821 12 71.276 12H72.506V10.845H71.501C70.661 10.845 70.361 10.56 70.361 9.75V4.905H72.506V3.78H70.361V1.71H68.996V3.78H67.931V4.905H68.996V9.75ZM84.9539 9.15C84.9539 5.28 79.3139 6.96 79.3139 4.26C79.3139 3.135 80.1989 2.55 81.3239 2.58C82.5989 2.595 83.2589 3.39 83.3489 4.095H84.8489C84.6839 2.505 83.3789 1.41 81.3839 1.41C79.3139 1.41 77.9189 2.58 77.9189 4.305C77.9189 8.19 83.5739 6.39 83.5739 9.21C83.5739 10.2 82.7939 10.95 81.4739 10.95C80.0189 10.95 79.4039 10.08 79.3139 9.21H77.8589C77.8889 10.935 79.3739 12.105 81.4739 12.105C83.7389 12.105 84.9539 10.635 84.9539 9.15ZM90.4576 4.8C91.8676 4.8 93.0676 5.685 93.0526 7.29H87.8626C88.0126 5.685 89.1226 4.8 90.4576 4.8ZM94.2976 9.465H92.8276C92.5276 10.35 91.7476 10.98 90.5176 10.98C89.1226 10.98 87.9526 10.065 87.8476 8.4H94.4176C94.4476 8.115 94.4626 7.875 94.4626 7.575C94.4626 5.325 92.9026 3.645 90.5176 3.645C88.1176 3.645 86.4526 5.28 86.4526 7.875C86.4526 10.485 88.1776 12.135 90.5176 12.135C92.5576 12.135 93.8776 10.965 94.2976 9.465ZM102.279 12H103.629V7.155C103.629 4.8 102.174 3.63 100.269 3.63C99.1594 3.63 98.1694 4.095 97.6294 4.95V3.78H96.2644V12H97.6294V7.455C97.6294 5.685 98.5894 4.815 99.9844 4.815C101.364 4.815 102.279 5.67 102.279 7.35V12ZM111.769 9.765C111.709 6.825 106.939 7.89 106.939 5.94C106.939 5.28 107.539 4.8 108.544 4.8C109.639 4.8 110.269 5.4 110.329 6.225H111.694C111.604 4.62 110.404 3.645 108.589 3.645C106.759 3.645 105.574 4.68 105.574 5.94C105.574 9 110.434 7.935 110.434 9.765C110.434 10.44 109.834 10.98 108.754 10.98C107.599 10.98 106.894 10.38 106.819 9.585H105.409C105.499 11.085 106.849 12.135 108.769 12.135C110.584 12.135 111.769 11.115 111.769 9.765ZM113.696 12H115.061V3.78H113.696V12ZM114.401 2.445C114.896 2.445 115.301 2.04 115.301 1.515C115.301 0.99 114.896 0.584999 114.401 0.584999C113.876 0.584999 113.471 0.99 113.471 1.515C113.471 2.04 113.876 2.445 114.401 2.445ZM118.752 5.31V0.9H117.387V12H118.752V10.485C119.262 11.385 120.327 12.135 121.827 12.135C124.032 12.135 125.727 10.41 125.727 7.86C125.727 5.295 124.047 3.645 121.827 3.645C120.372 3.645 119.277 4.395 118.752 5.31ZM124.332 7.86C124.332 9.795 123.057 10.935 121.542 10.935C120.057 10.935 118.752 9.81 118.752 7.875C118.752 5.97 120.057 4.83 121.542 4.83C123.057 4.83 124.332 5.925 124.332 7.86ZM127.524 12H128.889V0.9H127.524V12ZM134.711 4.8C136.121 4.8 137.321 5.685 137.306 7.29H132.116C132.266 5.685 133.376 4.8 134.711 4.8ZM138.551 9.465H137.081C136.781 10.35 136.001 10.98 134.771 10.98C133.376 10.98 132.206 10.065 132.101 8.4H138.671C138.701 8.115 138.716 7.875 138.716 7.575C138.716 5.325 137.156 3.645 134.771 3.645C132.371 3.645 130.706 5.28 130.706 7.875C130.706 10.485 132.431 12.135 134.771 12.135C136.811 12.135 138.131 10.965 138.551 9.465ZM147.771 1.545H144.516V12H147.771C151.206 12 153.321 10.035 153.321 6.795C153.321 3.555 151.206 1.545 147.771 1.545ZM145.881 10.875V2.655H147.771C150.501 2.655 151.926 4.245 151.926 6.795C151.926 9.345 150.501 10.875 147.771 10.875H145.881ZM158.617 4.8C160.027 4.8 161.227 5.685 161.212 7.29H156.022C156.172 5.685 157.282 4.8 158.617 4.8ZM162.457 9.465H160.987C160.687 10.35 159.907 10.98 158.677 10.98C157.282 10.98 156.112 10.065 156.007 8.4H162.577C162.607 8.115 162.622 7.875 162.622 7.575C162.622 5.325 161.062 3.645 158.677 3.645C156.277 3.645 154.612 5.28 154.612 7.875C154.612 10.485 156.337 12.135 158.677 12.135C160.717 12.135 162.037 10.965 162.457 9.465ZM163.449 3.78L166.674 12H168.264L171.489 3.78H170.034L167.484 10.74L164.919 3.78H163.449ZM172.832 12H174.197V3.78H172.832V12ZM173.537 2.445C174.032 2.445 174.437 2.04 174.437 1.515C174.437 0.99 174.032 0.584999 173.537 0.584999C173.012 0.584999 172.607 0.99 172.607 1.515C172.607 2.04 173.012 2.445 173.537 2.445ZM176.013 7.875C176.013 10.485 177.678 12.135 180.018 12.135C182.058 12.135 183.393 10.995 183.813 9.36H182.343C182.043 10.395 181.233 10.98 180.018 10.98C178.518 10.98 177.408 9.915 177.408 7.875C177.408 5.865 178.518 4.8 180.018 4.8C181.233 4.8 182.058 5.43 182.343 6.42H183.813C183.393 4.695 182.058 3.645 180.018 3.645C177.678 3.645 176.013 5.295 176.013 7.875ZM189.129 4.8C190.539 4.8 191.739 5.685 191.724 7.29H186.534C186.684 5.685 187.794 4.8 189.129 4.8ZM192.969 9.465H191.499C191.199 10.35 190.419 10.98 189.189 10.98C187.794 10.98 186.624 10.065 186.519 8.4H193.089C193.119 8.115 193.134 7.875 193.134 7.575C193.134 5.325 191.574 3.645 189.189 3.645C186.789 3.645 185.124 5.28 185.124 7.875C185.124 10.485 186.849 12.135 189.189 12.135C191.229 12.135 192.549 10.965 192.969 9.465ZM200.846 9.765C200.786 6.825 196.016 7.89 196.016 5.94C196.016 5.28 196.616 4.8 197.621 4.8C198.716 4.8 199.346 5.4 199.406 6.225H200.771C200.681 4.62 199.481 3.645 197.666 3.645C195.836 3.645 194.651 4.68 194.651 5.94C194.651 9 199.511 7.935 199.511 9.765C199.511 10.44 198.911 10.98 197.831 10.98C196.676 10.98 195.971 10.38 195.896 9.585H194.486C194.576 11.085 195.926 12.135 197.846 12.135C199.661 12.135 200.846 11.115 200.846 9.765ZM37.7766 35H39.2166L35.4516 24.605H33.8766L30.0966 35H31.5366L32.3766 32.675H36.9366L37.7766 35ZM36.5466 31.565H32.7666L34.6566 26.285L36.5466 31.565ZM52.729 35H54.079V30.155C54.079 27.8 52.624 26.63 50.749 26.63C49.489 26.63 48.319 27.275 47.839 28.46C47.299 27.23 46.174 26.63 44.824 26.63C43.744 26.63 42.769 27.095 42.229 27.965V26.78H40.864V35H42.229V30.47C42.229 28.7 43.174 27.815 44.554 27.815C45.904 27.815 46.804 28.67 46.804 30.35V35H48.154V30.47C48.154 28.7 49.099 27.815 50.479 27.815C51.829 27.815 52.729 28.67 52.729 30.35V35ZM57.6831 28.31V23.9H56.3181V35H57.6831V33.485C58.1931 34.385 59.2581 35.135 60.7581 35.135C62.9631 35.135 64.6581 33.41 64.6581 30.86C64.6581 28.295 62.9781 26.645 60.7581 26.645C59.3031 26.645 58.2081 27.395 57.6831 28.31ZM63.2631 30.86C63.2631 32.795 61.9881 33.935 60.4731 33.935C58.9881 33.935 57.6831 32.81 57.6831 30.875C57.6831 28.97 58.9881 27.83 60.4731 27.83C61.9881 27.83 63.2631 28.925 63.2631 30.86ZM66.4548 35H67.8198V26.78H66.4548V35ZM67.1598 25.445C67.6548 25.445 68.0598 25.04 68.0598 24.515C68.0598 23.99 67.6548 23.585 67.1598 23.585C66.6348 23.585 66.2298 23.99 66.2298 24.515C66.2298 25.04 66.6348 25.445 67.1598 25.445ZM69.6362 30.875C69.6362 33.485 71.3012 35.135 73.6412 35.135C75.6812 35.135 77.0162 33.995 77.4362 32.36H75.9662C75.6662 33.395 74.8562 33.98 73.6412 33.98C72.1412 33.98 71.0312 32.915 71.0312 30.875C71.0312 28.865 72.1412 27.8 73.6412 27.8C74.8562 27.8 75.6812 28.43 75.9662 29.42H77.4362C77.0162 27.695 75.6812 26.645 73.6412 26.645C71.3012 26.645 69.6362 28.295 69.6362 30.875ZM79.2575 35H80.6225V30.455C80.6225 28.685 81.5825 27.815 82.9775 27.815C84.3575 27.815 85.2725 28.67 85.2725 30.35V35H86.6225V30.155C86.6225 27.8 85.1675 26.63 83.3375 26.63C82.1825 26.63 81.1625 27.095 80.6225 27.965V23.9H79.2575V35ZM88.3423 30.86C88.3423 33.41 90.0373 35.135 92.2273 35.135C93.7423 35.135 94.8073 34.355 95.3023 33.47V35H96.6823V26.78H95.3023V28.28C94.8223 27.425 93.7723 26.645 92.2423 26.645C90.0373 26.645 88.3423 28.295 88.3423 30.86ZM95.3023 30.875C95.3023 32.81 94.0123 33.935 92.5123 33.935C91.0123 33.935 89.7373 32.795 89.7373 30.86C89.7373 28.925 91.0123 27.83 92.5123 27.83C94.0123 27.83 95.3023 28.97 95.3023 30.875ZM100.354 30.53C100.354 28.625 101.344 28.04 102.649 28.04H103.009V26.63C101.704 26.63 100.819 27.2 100.354 28.115V26.78H98.989V35H100.354V30.53ZM104.075 30.86C104.075 33.41 105.77 35.135 107.975 35.135C109.475 35.135 110.54 34.34 111.035 33.455V35.18C111.035 36.935 109.94 37.865 108.485 37.865C107.135 37.865 106.16 37.19 105.86 36.2H104.51C104.78 37.955 106.325 39.05 108.485 39.05C110.9 39.05 112.415 37.445 112.415 35.18V26.78H111.035V28.28C110.555 27.395 109.475 26.645 107.975 26.645C105.77 26.645 104.075 28.295 104.075 30.86ZM111.035 30.875C111.035 32.81 109.745 33.935 108.245 33.935C106.745 33.935 105.47 32.795 105.47 30.86C105.47 28.925 106.745 27.83 108.245 27.83C109.745 27.83 111.035 28.97 111.035 30.875ZM118.216 27.8C119.626 27.8 120.826 28.685 120.811 30.29H115.621C115.771 28.685 116.881 27.8 118.216 27.8ZM122.056 32.465H120.586C120.286 33.35 119.506 33.98 118.276 33.98C116.881 33.98 115.711 33.065 115.606 31.4H122.176C122.206 31.115 122.221 30.875 122.221 30.575C122.221 28.325 120.661 26.645 118.276 26.645C115.876 26.645 114.211 28.28 114.211 30.875C114.211 33.485 115.936 35.135 118.276 35.135C120.316 35.135 121.636 33.965 122.056 32.465ZM134.817 32.15C134.817 28.28 129.177 29.96 129.177 27.26C129.177 26.135 130.062 25.55 131.187 25.58C132.462 25.595 133.122 26.39 133.212 27.095H134.712C134.547 25.505 133.242 24.41 131.247 24.41C129.177 24.41 127.782 25.58 127.782 27.305C127.782 31.19 133.437 29.39 133.437 32.21C133.437 33.2 132.657 33.95 131.337 33.95C129.882 33.95 129.267 33.08 129.177 32.21H127.722C127.752 33.935 129.237 35.105 131.337 35.105C133.602 35.105 134.817 33.635 134.817 32.15ZM140.321 27.8C141.731 27.8 142.931 28.685 142.916 30.29H137.726C137.876 28.685 138.986 27.8 140.321 27.8ZM144.161 32.465H142.691C142.391 33.35 141.611 33.98 140.381 33.98C138.986 33.98 137.816 33.065 137.711 31.4H144.281C144.311 31.115 144.326 30.875 144.326 30.575C144.326 28.325 142.766 26.645 140.381 26.645C137.981 26.645 136.316 28.28 136.316 30.875C136.316 33.485 138.041 35.135 140.381 35.135C142.421 35.135 143.741 33.965 144.161 32.465ZM147.493 30.53C147.493 28.625 148.483 28.04 149.788 28.04H150.148V26.63C148.843 26.63 147.958 27.2 147.493 28.115V26.78H146.128V35H147.493V30.53ZM151.723 35H153.088V26.78H151.723V35ZM152.428 25.445C152.923 25.445 153.328 25.04 153.328 24.515C153.328 23.99 152.923 23.585 152.428 23.585C151.903 23.585 151.498 23.99 151.498 24.515C151.498 25.04 151.903 25.445 152.428 25.445ZM158.91 27.8C160.32 27.8 161.52 28.685 161.505 30.29H156.315C156.465 28.685 157.575 27.8 158.91 27.8ZM162.75 32.465H161.28C160.98 33.35 160.2 33.98 158.97 33.98C157.575 33.98 156.405 33.065 156.3 31.4H162.87C162.9 31.115 162.915 30.875 162.915 30.575C162.915 28.325 161.355 26.645 158.97 26.645C156.57 26.645 154.905 28.28 154.905 30.875C154.905 33.485 156.63 35.135 158.97 35.135C161.01 35.135 162.33 33.965 162.75 32.465ZM170.627 32.765C170.567 29.825 165.797 30.89 165.797 28.94C165.797 28.28 166.397 27.8 167.402 27.8C168.497 27.8 169.127 28.4 169.187 29.225H170.552C170.462 27.62 169.262 26.645 167.447 26.645C165.617 26.645 164.432 27.68 164.432 28.94C164.432 32 169.292 30.935 169.292 32.765C169.292 33.44 168.692 33.98 167.612 33.98C166.457 33.98 165.752 33.38 165.677 32.585H164.267C164.357 34.085 165.707 35.135 167.627 35.135C169.442 35.135 170.627 34.115 170.627 32.765Z" fill="white"/>
</svg>
