<svg width="214" height="40" viewBox="0 0 214 40" fill="none" xmlns="http://www.w3.org/2000/svg">
<path d="M35.8831 9.15C35.8831 5.28 30.2431 6.96 30.2431 4.26C30.2431 3.135 31.1281 2.55 32.2531 2.58C33.5281 2.595 34.1881 3.39 34.2781 4.095H35.7781C35.6131 2.505 34.3081 1.41 32.3131 1.41C30.2431 1.41 28.8481 2.58 28.8481 4.305C28.8481 8.19 34.5031 6.39 34.5031 9.21C34.5031 10.2 33.7231 10.95 32.4031 10.95C30.9481 10.95 30.3331 10.08 30.2431 9.21H28.7881C28.8181 10.935 30.3031 12.105 32.4031 12.105C34.6681 12.105 35.8831 10.635 35.8831 9.15ZM37.3818 7.875C37.3818 10.485 39.0468 12.135 41.3868 12.135C43.4268 12.135 44.7618 10.995 45.1818 9.36H43.7118C43.4118 10.395 42.6018 10.98 41.3868 10.98C39.8868 10.98 38.7768 9.915 38.7768 7.875C38.7768 5.865 39.8868 4.8 41.3868 4.8C42.6018 4.8 43.4268 5.43 43.7118 6.42H45.1818C44.7618 4.695 43.4268 3.645 41.3868 3.645C39.0468 3.645 37.3818 5.295 37.3818 7.875ZM46.4931 7.86C46.4931 10.41 48.1881 12.135 50.3781 12.135C51.8931 12.135 52.9581 11.355 53.4531 10.47V12H54.8331V3.78H53.4531V5.28C52.9731 4.425 51.9231 3.645 50.3931 3.645C48.1881 3.645 46.4931 5.295 46.4931 7.86ZM53.4531 7.875C53.4531 9.81 52.1631 10.935 50.6631 10.935C49.1631 10.935 47.8881 9.795 47.8881 7.86C47.8881 5.925 49.1631 4.83 50.6631 4.83C52.1631 4.83 53.4531 5.97 53.4531 7.875ZM63.1549 12H64.5049V7.155C64.5049 4.8 63.0499 3.63 61.1449 3.63C60.0349 3.63 59.0449 4.095 58.5049 4.95V3.78H57.1399V12H58.5049V7.455C58.5049 5.685 59.4649 4.815 60.8599 4.815C62.2399 4.815 63.1549 5.67 63.1549 7.35V12ZM70.2236 6.765C70.2236 9.9 72.5186 12.09 75.4436 12.09C77.7086 12.09 79.5086 10.965 80.2886 8.955H78.6536C78.0836 10.2 76.9736 10.905 75.4436 10.905C73.2536 10.905 71.6186 9.315 71.6186 6.765C71.6186 4.2 73.2536 2.61 75.4436 2.61C76.9736 2.61 78.0836 3.315 78.6536 4.575H80.2886C79.5086 2.55 77.7086 1.41 75.4436 1.41C72.5186 1.41 70.2236 3.63 70.2236 6.765ZM82.3205 12H83.6855V7.455C83.6855 5.685 84.6455 4.815 86.0405 4.815C87.4205 4.815 88.3355 5.67 88.3355 7.35V12H89.6855V7.155C89.6855 4.8 88.2305 3.63 86.4005 3.63C85.2455 3.63 84.2255 4.095 83.6855 4.965V0.9H82.3205V12ZM91.4053 7.86C91.4053 10.41 93.1003 12.135 95.2903 12.135C96.8053 12.135 97.8703 11.355 98.3653 10.47V12H99.7453V3.78H98.3653V5.28C97.8853 4.425 96.8353 3.645 95.3053 3.645C93.1003 3.645 91.4053 5.295 91.4053 7.86ZM98.3653 7.875C98.3653 9.81 97.0753 10.935 95.5753 10.935C94.0753 10.935 92.8003 9.795 92.8003 7.86C92.8003 5.925 94.0753 4.83 95.5753 4.83C97.0753 4.83 98.3653 5.97 98.3653 7.875ZM103.417 7.53C103.417 5.625 104.407 5.04 105.712 5.04H106.072V3.63C104.767 3.63 103.882 4.2 103.417 5.115V3.78H102.052V12H103.417V7.53ZM107.138 7.86C107.138 10.41 108.833 12.135 111.038 12.135C112.538 12.135 113.603 11.34 114.098 10.455V12.18C114.098 13.935 113.003 14.865 111.548 14.865C110.198 14.865 109.223 14.19 108.923 13.2H107.573C107.843 14.955 109.388 16.05 111.548 16.05C113.963 16.05 115.478 14.445 115.478 12.18V3.78H114.098V5.28C113.618 4.395 112.538 3.645 111.038 3.645C108.833 3.645 107.138 5.295 107.138 7.86ZM114.098 7.875C114.098 9.81 112.808 10.935 111.308 10.935C109.808 10.935 108.533 9.795 108.533 7.86C108.533 5.925 109.808 4.83 111.308 4.83C112.808 4.83 114.098 5.97 114.098 7.875ZM121.279 4.8C122.689 4.8 123.889 5.685 123.874 7.29H118.684C118.834 5.685 119.944 4.8 121.279 4.8ZM125.119 9.465H123.649C123.349 10.35 122.569 10.98 121.339 10.98C119.944 10.98 118.774 10.065 118.669 8.4H125.239C125.269 8.115 125.284 7.875 125.284 7.575C125.284 5.325 123.724 3.645 121.339 3.645C118.939 3.645 117.274 5.28 117.274 7.875C117.274 10.485 118.999 12.135 121.339 12.135C123.379 12.135 124.699 10.965 125.119 9.465ZM130.575 7.86C130.575 10.41 132.27 12.135 134.46 12.135C135.975 12.135 137.04 11.355 137.535 10.47V12H138.915V3.78H137.535V5.28C137.055 4.425 136.005 3.645 134.475 3.645C132.27 3.645 130.575 5.295 130.575 7.86ZM137.535 7.875C137.535 9.81 136.245 10.935 134.745 10.935C133.245 10.935 131.97 9.795 131.97 7.86C131.97 5.925 133.245 4.83 134.745 4.83C136.245 4.83 137.535 5.97 137.535 7.875ZM147.237 12H148.587V7.155C148.587 4.8 147.132 3.63 145.227 3.63C144.117 3.63 143.127 4.095 142.587 4.95V3.78H141.222V12H142.587V7.455C142.587 5.685 143.547 4.815 144.942 4.815C146.322 4.815 147.237 5.67 147.237 7.35V12ZM150.307 7.86C150.307 10.41 152.002 12.135 154.207 12.135C155.707 12.135 156.772 11.37 157.267 10.455V12H158.647V0.9H157.267V5.25C156.697 4.305 155.512 3.645 154.222 3.645C152.002 3.645 150.307 5.295 150.307 7.86ZM157.267 7.875C157.267 9.81 155.977 10.935 154.477 10.935C152.977 10.935 151.702 9.795 151.702 7.86C151.702 5.925 152.977 4.83 154.477 4.83C155.977 4.83 157.267 5.97 157.267 7.875ZM169.692 1.425C166.752 1.425 164.442 3.63 164.442 6.765C164.442 9.9 166.752 12.09 169.692 12.09C172.527 12.09 174.582 10.005 174.822 7.41V6.36H169.197V7.47H173.367C173.157 9.54 171.747 10.86 169.692 10.86C167.487 10.86 165.837 9.27 165.837 6.765C165.837 4.245 167.487 2.655 169.692 2.655C171.162 2.655 172.302 3.36 172.872 4.575H174.507C173.727 2.565 171.897 1.425 169.692 1.425ZM184.427 7.875C184.427 5.28 182.612 3.645 180.272 3.645C177.947 3.645 176.117 5.28 176.117 7.875C176.117 10.485 177.887 12.135 180.212 12.135C182.552 12.135 184.427 10.485 184.427 7.875ZM177.512 7.875C177.512 5.805 178.817 4.83 180.257 4.83C181.667 4.83 183.032 5.805 183.032 7.875C183.032 9.96 181.637 10.935 180.212 10.935C178.787 10.935 177.512 9.96 177.512 7.875ZM5.96555 24.53H0.340547V35H5.96555V33.875H1.70555V30.275H5.51555V29.15H1.70555V25.655H5.96555V24.53ZM8.28598 35H9.65098V27.905H11.376V26.78H9.65098V26.195C9.65098 25.13 10.056 24.68 11.286 24.68V23.54C9.18598 23.54 8.28598 24.365 8.28598 26.195V26.78H7.22098V27.905H8.28598V35ZM13.2225 35H14.5875V27.905H16.3125V26.78H14.5875V26.195C14.5875 25.13 14.9925 24.68 16.2225 24.68V23.54C14.1225 23.54 13.2225 24.365 13.2225 26.195V26.78H12.1575V27.905H13.2225V35ZM25.704 30.875C25.704 28.28 23.889 26.645 21.549 26.645C19.224 26.645 17.394 28.28 17.394 30.875C17.394 33.485 19.164 35.135 21.489 35.135C23.829 35.135 25.704 33.485 25.704 30.875ZM18.789 30.875C18.789 28.805 20.094 27.83 21.534 27.83C22.944 27.83 24.309 28.805 24.309 30.875C24.309 32.96 22.914 33.935 21.489 33.935C20.064 33.935 18.789 32.96 18.789 30.875ZM28.8638 30.53C28.8638 28.625 29.8538 28.04 31.1588 28.04H31.5188V26.63C30.2138 26.63 29.3288 27.2 28.8638 28.115V26.78H27.4988V35H28.8638V30.53ZM33.3945 32.75C33.3945 34.4 34.2195 35 35.6745 35H36.9045V33.845H35.8995C35.0595 33.845 34.7595 33.56 34.7595 32.75V27.905H36.9045V26.78H34.7595V24.71H33.3945V26.78H32.3295V27.905H33.3945V32.75ZM38.5583 35H39.9233V23.9H38.5583V35ZM45.7447 27.8C47.1547 27.8 48.3547 28.685 48.3397 30.29H43.1497C43.2997 28.685 44.4097 27.8 45.7447 27.8ZM49.5847 32.465H48.1147C47.8147 33.35 47.0347 33.98 45.8047 33.98C44.4097 33.98 43.2397 33.065 43.1347 31.4H49.7047C49.7347 31.115 49.7497 30.875 49.7497 30.575C49.7497 28.325 48.1897 26.645 45.8047 26.645C43.4047 26.645 41.7397 28.28 41.7397 30.875C41.7397 33.485 43.4647 35.135 45.8047 35.135C47.8447 35.135 49.1647 33.965 49.5847 32.465ZM57.4615 32.765C57.4015 29.825 52.6315 30.89 52.6315 28.94C52.6315 28.28 53.2315 27.8 54.2365 27.8C55.3315 27.8 55.9615 28.4 56.0215 29.225H57.3865C57.2965 27.62 56.0965 26.645 54.2815 26.645C52.4515 26.645 51.2665 27.68 51.2665 28.94C51.2665 32 56.1265 30.935 56.1265 32.765C56.1265 33.44 55.5265 33.98 54.4465 33.98C53.2915 33.98 52.5865 33.38 52.5115 32.585H51.1015C51.1915 34.085 52.5415 35.135 54.4615 35.135C56.2765 35.135 57.4615 34.115 57.4615 32.765ZM65.2984 32.765C65.2384 29.825 60.4684 30.89 60.4684 28.94C60.4684 28.28 61.0684 27.8 62.0734 27.8C63.1684 27.8 63.7984 28.4 63.8584 29.225H65.2234C65.1334 27.62 63.9334 26.645 62.1184 26.645C60.2884 26.645 59.1034 27.68 59.1034 28.94C59.1034 32 63.9634 30.935 63.9634 32.765C63.9634 33.44 63.3634 33.98 62.2834 33.98C61.1284 33.98 60.4234 33.38 60.3484 32.585H58.9384C59.0284 34.085 60.3784 35.135 62.2984 35.135C64.1134 35.135 65.2984 34.115 65.2984 32.765ZM70.7143 29.765C70.7143 32.9 73.0093 35.09 75.9343 35.09C78.1993 35.09 79.9993 33.965 80.7793 31.955H79.1443C78.5743 33.2 77.4643 33.905 75.9343 33.905C73.7443 33.905 72.1093 32.315 72.1093 29.765C72.1093 27.2 73.7443 25.61 75.9343 25.61C77.4643 25.61 78.5743 26.315 79.1443 27.575H80.7793C79.9993 25.55 78.1993 24.41 75.9343 24.41C73.0093 24.41 70.7143 26.63 70.7143 29.765ZM82.8113 35H84.1763V30.455C84.1763 28.685 85.1363 27.815 86.5313 27.815C87.9113 27.815 88.8263 28.67 88.8263 30.35V35H90.1763V30.155C90.1763 27.8 88.7213 26.63 86.8913 26.63C85.7363 26.63 84.7163 27.095 84.1763 27.965V23.9H82.8113V35ZM91.896 30.86C91.896 33.41 93.591 35.135 95.781 35.135C97.296 35.135 98.361 34.355 98.856 33.47V35H100.236V26.78H98.856V28.28C98.376 27.425 97.326 26.645 95.796 26.645C93.591 26.645 91.896 28.295 91.896 30.86ZM98.856 30.875C98.856 32.81 97.566 33.935 96.066 33.935C94.566 33.935 93.291 32.795 93.291 30.86C93.291 28.925 94.566 27.83 96.066 27.83C97.566 27.83 98.856 28.97 98.856 30.875ZM103.908 30.53C103.908 28.625 104.898 28.04 106.203 28.04H106.563V26.63C105.258 26.63 104.373 27.2 103.908 28.115V26.78H102.543V35H103.908V30.53ZM107.628 30.86C107.628 33.41 109.323 35.135 111.528 35.135C113.028 35.135 114.093 34.34 114.588 33.455V35.18C114.588 36.935 113.493 37.865 112.038 37.865C110.688 37.865 109.713 37.19 109.413 36.2H108.063C108.333 37.955 109.878 39.05 112.038 39.05C114.453 39.05 115.968 37.445 115.968 35.18V26.78H114.588V28.28C114.108 27.395 113.028 26.645 111.528 26.645C109.323 26.645 107.628 28.295 107.628 30.86ZM114.588 30.875C114.588 32.81 113.298 33.935 111.798 33.935C110.298 33.935 109.023 32.795 109.023 30.86C109.023 28.925 110.298 27.83 111.798 27.83C113.298 27.83 114.588 28.97 114.588 30.875ZM118.275 35H119.64V26.78H118.275V35ZM118.98 25.445C119.475 25.445 119.88 25.04 119.88 24.515C119.88 23.99 119.475 23.585 118.98 23.585C118.455 23.585 118.05 23.99 118.05 24.515C118.05 25.04 118.455 25.445 118.98 25.445ZM127.982 35H129.332V30.155C129.332 27.8 127.877 26.63 125.972 26.63C124.862 26.63 123.872 27.095 123.332 27.95V26.78H121.967V35H123.332V30.455C123.332 28.685 124.292 27.815 125.687 27.815C127.067 27.815 127.982 28.67 127.982 30.35V35ZM131.051 30.86C131.051 33.41 132.746 35.135 134.951 35.135C136.451 35.135 137.516 34.34 138.011 33.455V35.18C138.011 36.935 136.916 37.865 135.461 37.865C134.111 37.865 133.136 37.19 132.836 36.2H131.486C131.756 37.955 133.301 39.05 135.461 39.05C137.876 39.05 139.391 37.445 139.391 35.18V26.78H138.011V28.28C137.531 27.395 136.451 26.645 134.951 26.645C132.746 26.645 131.051 28.295 131.051 30.86ZM138.011 30.875C138.011 32.81 136.721 33.935 135.221 33.935C133.721 33.935 132.446 32.795 132.446 30.86C132.446 28.925 133.721 27.83 135.221 27.83C136.721 27.83 138.011 28.97 138.011 30.875ZM151.607 32.765C151.547 29.825 146.777 30.89 146.777 28.94C146.777 28.28 147.377 27.8 148.382 27.8C149.477 27.8 150.107 28.4 150.167 29.225H151.532C151.442 27.62 150.242 26.645 148.427 26.645C146.597 26.645 145.412 27.68 145.412 28.94C145.412 32 150.272 30.935 150.272 32.765C150.272 33.44 149.672 33.98 148.592 33.98C147.437 33.98 146.732 33.38 146.657 32.585H145.247C145.337 34.085 146.687 35.135 148.607 35.135C150.422 35.135 151.607 34.115 151.607 32.765ZM153.024 30.875C153.024 33.485 154.689 35.135 157.029 35.135C159.069 35.135 160.404 33.995 160.824 32.36H159.354C159.054 33.395 158.244 33.98 157.029 33.98C155.529 33.98 154.419 32.915 154.419 30.875C154.419 28.865 155.529 27.8 157.029 27.8C158.244 27.8 159.069 28.43 159.354 29.42H160.824C160.404 27.695 159.069 26.645 157.029 26.645C154.689 26.645 153.024 28.295 153.024 30.875ZM162.645 35H164.01V30.455C164.01 28.685 164.97 27.815 166.365 27.815C167.745 27.815 168.66 28.67 168.66 30.35V35H170.01V30.155C170.01 27.8 168.555 26.63 166.725 26.63C165.57 26.63 164.55 27.095 164.01 27.965V23.9H162.645V35ZM175.735 27.8C177.145 27.8 178.345 28.685 178.33 30.29H173.14C173.29 28.685 174.4 27.8 175.735 27.8ZM179.575 32.465H178.105C177.805 33.35 177.025 33.98 175.795 33.98C174.4 33.98 173.23 33.065 173.125 31.4H179.695C179.725 31.115 179.74 30.875 179.74 30.575C179.74 28.325 178.18 26.645 175.795 26.645C173.395 26.645 171.73 28.28 171.73 30.875C171.73 33.485 173.455 35.135 175.795 35.135C177.835 35.135 179.155 33.965 179.575 32.465ZM193.407 35H194.757V30.155C194.757 27.8 193.302 26.63 191.427 26.63C190.167 26.63 188.997 27.275 188.517 28.46C187.977 27.23 186.852 26.63 185.502 26.63C184.422 26.63 183.447 27.095 182.907 27.965V26.78H181.542V35H182.907V30.47C182.907 28.7 183.852 27.815 185.232 27.815C186.582 27.815 187.482 28.67 187.482 30.35V35H188.832V30.47C188.832 28.7 189.777 27.815 191.157 27.815C192.507 27.815 193.407 28.67 193.407 30.35V35ZM196.486 30.86C196.486 33.41 198.181 35.135 200.371 35.135C201.886 35.135 202.951 34.355 203.446 33.47V35H204.826V26.78H203.446V28.28C202.966 27.425 201.916 26.645 200.386 26.645C198.181 26.645 196.486 28.295 196.486 30.86ZM203.446 30.875C203.446 32.81 202.156 33.935 200.656 33.935C199.156 33.935 197.881 32.795 197.881 30.86C197.881 28.925 199.156 27.83 200.656 27.83C202.156 27.83 203.446 28.97 203.446 30.875ZM213.043 32.765C212.983 29.825 208.213 30.89 208.213 28.94C208.213 28.28 208.813 27.8 209.818 27.8C210.913 27.8 211.543 28.4 211.603 29.225H212.968C212.878 27.62 211.678 26.645 209.863 26.645C208.033 26.645 206.848 27.68 206.848 28.94C206.848 32 211.708 30.935 211.708 32.765C211.708 33.44 211.108 33.98 210.028 33.98C208.873 33.98 208.168 33.38 208.093 32.585H206.683C206.773 34.085 208.123 35.135 210.043 35.135C211.858 35.135 213.043 34.115 213.043 32.765Z" fill="white"/>
</svg>
