<svg width="39" height="39" viewBox="0 0 39 39" fill="none" xmlns="http://www.w3.org/2000/svg">
<circle cx="19.4476" cy="19.4476" r="19.4476" fill="#EBEBEB"/>
<path d="M13.3748 25.8267C15.2386 25.8267 16.7496 24.3158 16.7496 22.4519C16.7496 20.5881 15.2386 19.0771 13.3748 19.0771C11.5109 19.0771 10 20.5881 10 22.4519C10 24.3158 11.5109 25.8267 13.3748 25.8267Z" fill="white"/>
<path fill-rule="evenodd" clip-rule="evenodd" d="M13.3748 20.075C12.0621 20.075 10.9979 21.1392 10.9979 22.4519C10.9979 23.7647 12.0621 24.8289 13.3748 24.8289C14.6875 24.8289 15.7517 23.7647 15.7517 22.4519C15.7517 21.1392 14.6875 20.075 13.3748 20.075ZM10 22.4519C10 20.5881 11.5109 19.0771 13.3748 19.0771C15.2386 19.0771 16.7496 20.5881 16.7496 22.4519C16.7496 24.3158 15.2386 25.8267 13.3748 25.8267C11.5109 25.8267 10 24.3158 10 22.4519Z" fill="#2E2E2D"/>
<path d="M24.6254 25.8267C26.4893 25.8267 28.0002 24.3158 28.0002 22.4519C28.0002 20.5881 26.4893 19.0771 24.6254 19.0771C22.7616 19.0771 21.2506 20.5881 21.2506 22.4519C21.2506 24.3158 22.7616 25.8267 24.6254 25.8267Z" fill="white"/>
<path fill-rule="evenodd" clip-rule="evenodd" d="M24.6254 20.075C23.3127 20.075 22.2485 21.1392 22.2485 22.4519C22.2485 23.7647 23.3127 24.8289 24.6254 24.8289C25.9381 24.8289 27.0023 23.7647 27.0023 22.4519C27.0023 21.1392 25.9381 20.075 24.6254 20.075ZM21.2506 22.4519C21.2506 20.5881 22.7616 19.0771 24.6254 19.0771C26.4893 19.0771 28.0002 20.5881 28.0002 22.4519C28.0002 24.3158 26.4893 25.8267 24.6254 25.8267C22.7616 25.8267 21.2506 24.3158 21.2506 22.4519Z" fill="#2E2E2D"/>
<path d="M20.1886 21.2639H17.8436C17.7108 20.2021 17.2577 19.206 16.5446 18.4081C15.8316 17.6102 14.8924 17.0483 13.8521 16.7975C13.8521 16.7975 10.3715 15.3585 12.5788 15.3705C14.7861 15.3825 18.3146 16.135 18.7377 17.3983C19.1608 18.6616 20.5159 16.6119 21.402 16.2966C22.2881 15.9813 18.7377 12.4009 18.7377 12.4009C18.7377 12.4009 23.9725 16.2726 23.2899 17.0729C20.6995 18.4021 20.3043 19.5815 20.1886 21.2639Z" fill="white"/>
<path fill-rule="evenodd" clip-rule="evenodd" d="M19.0345 12L18.7379 12.4011C19.0345 12 19.0345 11.9999 19.0345 12L19.0388 12.0032L19.0506 12.0119L19.0953 12.0453C19.1342 12.0744 19.191 12.117 19.2627 12.1714C19.4063 12.2801 19.6101 12.436 19.8525 12.6256C20.3365 13.0042 20.9772 13.5192 21.598 14.0612C22.2145 14.5993 22.8295 15.1795 23.2506 15.6868C23.4581 15.9367 23.6431 16.1977 23.7494 16.4469C23.845 16.6711 23.9495 17.0688 23.6697 17.3969L23.6057 17.472L23.5179 17.5171C22.2611 18.1619 21.6 18.7394 21.2295 19.3084C20.8624 19.8723 20.7425 20.4847 20.6865 21.2984L20.6545 21.7631H17.4033L17.3487 21.3261C17.2285 20.3649 16.8183 19.4631 16.1727 18.7408C15.5272 18.0185 14.677 17.5099 13.7353 17.2828L13.5098 17.2284L13.488 17.1848C13.3961 17.1449 13.2732 17.0905 13.1338 17.0261C12.8368 16.889 12.4511 16.7004 12.1303 16.5071C11.9716 16.4114 11.8121 16.3046 11.6842 16.1933C11.6203 16.1376 11.5522 16.0705 11.4948 15.9927C11.4409 15.9197 11.3697 15.8016 11.3513 15.6478C11.3299 15.4685 11.3871 15.2932 11.5099 15.1599C11.6156 15.0452 11.7457 14.987 11.844 14.9547C12.0399 14.8902 12.2938 14.8703 12.5817 14.8718C13.73 14.8781 15.2094 15.0754 16.4651 15.4358C17.0925 15.6159 17.6854 15.8426 18.1593 16.1197C18.6172 16.3875 19.0469 16.7503 19.211 17.2401C19.2167 17.2571 19.2221 17.2717 19.2272 17.2841C19.2456 17.2759 19.2671 17.2653 19.2917 17.2517C19.3743 17.2059 19.4728 17.1378 19.5885 17.047C19.7359 16.9315 19.8751 16.8097 20.0247 16.6787C20.1265 16.5896 20.2332 16.4962 20.3508 16.3975C20.5398 16.2389 20.7617 16.0627 20.9934 15.9365C20.9747 15.8951 20.9512 15.8479 20.9221 15.7949C20.7383 15.4595 20.4038 15.0131 20.0186 14.5497C19.6389 14.0929 19.23 13.6433 18.9146 13.3066C18.7573 13.1386 18.6239 12.9995 18.5302 12.9026C18.4833 12.8542 18.4463 12.8163 18.4212 12.7907L18.3928 12.7618L18.3857 12.7546L18.384 12.7529C18.384 12.7529 18.3838 12.7531 18.384 12.7529L19.0345 12ZM14.009 16.3225C15.132 16.6017 16.1453 17.2126 16.9168 18.0759C17.5987 18.839 18.0635 19.7676 18.267 20.7652H19.7324C19.8116 20.0676 19.9776 19.4025 20.3933 18.764C20.8627 18.0429 21.6172 17.4059 22.7977 16.7685C22.7383 16.6571 22.6356 16.5083 22.4829 16.3242C22.3472 16.1608 22.1847 15.9846 22.0032 15.8007C22.0203 15.8641 22.0327 15.928 22.0387 15.9913C22.0505 16.1141 22.0426 16.2745 21.9608 16.4316C21.8727 16.6009 21.7278 16.7106 21.5694 16.7669C21.4431 16.8119 21.2548 16.9415 20.9923 17.1619C20.9095 17.2313 20.816 17.3129 20.7181 17.3983C20.5484 17.5463 20.3658 17.7056 20.2042 17.8323C20.0687 17.9386 19.9232 18.0427 19.7746 18.1249C19.6299 18.2049 19.452 18.2813 19.2562 18.3003C19.0437 18.3209 18.8177 18.2719 18.6233 18.1145C18.4434 17.9687 18.3344 17.7651 18.2647 17.557C18.2172 17.4151 18.0472 17.2101 17.6556 16.9811C17.2799 16.7614 16.7734 16.5624 16.1899 16.395C15.1959 16.1097 14.0405 15.9333 13.0652 15.8838C13.2311 15.969 13.4 16.0499 13.5521 16.1201C13.6936 16.1855 13.8172 16.24 13.9052 16.2781L14.009 16.3225ZM12.1523 15.9039C12.1522 15.9039 12.1532 15.9035 12.1554 15.9027Z" fill="#2E2E2D"/>
</svg>
