<svg width="39" height="39" viewBox="0 0 39 39" fill="none" xmlns="http://www.w3.org/2000/svg">
<circle cx="19.4476" cy="19.4476" r="19.4476" fill="#EBEBEB"/>
<path fill-rule="evenodd" clip-rule="evenodd" d="M26.5141 12.9714H18.7427V23.6571H26.5141V12.9714ZM17.7712 12V24.6286H27.4855V12H17.7712Z" fill="black"/>
<path fill-rule="evenodd" clip-rule="evenodd" d="M10.9714 17.8286V18.646H12.6327V17.8286H13.6041V19.6175H12.1681V25.9081C12.1681 26.0424 12.1929 26.678 12.5899 27.2735C12.7704 27.5442 13.0356 27.7363 13.304 27.8619C13.5809 27.9914 13.8139 28.0286 13.8857 28.0286H22.1551C22.837 27.8632 23.5406 27.6764 24.1744 26.7773C24.3969 26.4617 24.4866 26.2317 24.531 25.8932C24.5736 25.5676 24.5729 25.1599 24.5718 24.5035C24.5716 24.3909 24.5714 24.271 24.5714 24.1429H25.5429C25.5429 24.2647 25.5431 24.3813 25.5434 24.4931C25.5448 25.139 25.5459 25.6245 25.4942 26.0194C25.4279 26.5255 25.2747 26.9026 24.9684 27.337C24.1095 28.5555 23.0871 28.8027 22.3522 28.9804L22.271 29H13.8857C13.6385 29 13.2643 28.9158 12.8923 28.7418C12.5119 28.5638 12.0868 28.2701 11.7816 27.8123C11.2292 26.9838 11.1967 26.1212 11.1967 25.9081V19.6175H10V17.8286H10.9714Z" fill="black"/>
</svg>
