<svg width="180" height="99" viewBox="0 0 180 99" fill="none" xmlns="http://www.w3.org/2000/svg">
<path d="M84.6853 12.8494C84.4651 12.7098 84.3693 12.2228 83.9691 12.5961C83.9163 12.6077 83.8672 12.6322 83.8262 12.6673C83.7851 12.7024 83.7533 12.7472 83.7337 12.7975L83.7113 12.8154L83.6451 12.8817L83.6272 12.904C83.4483 13.0101 83.2969 13.1567 83.185 13.3319L83.1742 13.3391L83.0901 13.4179L83.0847 13.4241C82.8537 13.5844 82.5897 13.7267 82.5834 14.0552C82.5592 15.3622 82.4939 16.6691 82.5512 17.9761C82.5512 18.9596 82.5491 19.9443 82.5449 20.9302C82.5449 21.2793 82.3659 21.6508 82.8135 21.9149C83.2825 22.1915 83.3506 22.7742 83.0113 23.1851C82.9352 23.2787 82.8405 23.3554 82.7331 23.4104C82.6258 23.4654 82.5082 23.4975 82.3878 23.5045C82.2674 23.5116 82.1468 23.4936 82.0338 23.4515C81.9208 23.4095 81.8177 23.3444 81.7312 23.2603C81.6391 23.1781 81.5667 23.0763 81.5194 22.9623C81.472 22.8483 81.451 22.7251 81.4578 22.6019C81.4646 22.4787 81.499 22.3585 81.5586 22.2505C81.6182 22.1424 81.7013 22.0491 81.8019 21.9775C82.1358 21.7421 82.1877 21.4664 82.1815 21.1056C82.1466 18.874 82.1278 16.636 82.0893 14.407C82.083 14.0624 82.1394 13.767 82.3793 13.5172C82.8537 13.1395 83.2369 12.6731 83.6469 12.2327C83.774 12.0975 83.8161 11.9731 83.6513 11.8227C83.4249 11.615 83.2154 11.3885 82.9988 11.1701C82.9466 11.0478 82.8509 10.9493 82.7302 10.8935V10.8997C82.6989 10.8666 82.6675 10.8326 82.6353 10.7995L82.6452 10.8075L82.5485 10.7064L82.5539 10.7109C82.4643 10.5524 82.3515 10.3868 82.1645 10.3886C81.4188 10.3966 80.6704 10.3071 79.9265 10.4369H79.9194C79.7027 10.5488 79.7913 10.7529 79.7913 10.9159C79.7833 12.6901 79.7913 14.4634 79.7788 16.2377C79.7788 16.5751 79.8307 16.8016 80.1646 16.9959C80.4032 17.1417 80.5767 17.3736 80.649 17.6438C80.7213 17.9139 80.687 18.2014 80.5531 18.447C80.2989 18.9107 79.6499 19.1443 79.1611 18.9277C78.9806 18.8523 78.8241 18.7291 78.7085 18.5714C78.5929 18.4136 78.5225 18.2273 78.505 18.0325C78.4387 17.5375 78.684 17.1991 79.0582 16.9422C79.2229 16.8294 79.3787 16.7578 79.3778 16.5134C79.3682 14.5905 79.3652 12.6677 79.3688 10.7449C79.3688 10.4763 79.2587 10.3698 78.9946 10.3743C78.4432 10.385 77.8909 10.3966 77.3404 10.3743C77.0253 10.3635 76.797 10.3823 76.6054 10.7091C76.3512 11.1423 75.6547 11.2301 75.2976 10.9454C74.9225 10.6473 74.8321 10.026 75.1105 9.66887C75.5097 9.15683 75.9582 9.10133 76.4488 9.51132C76.5848 9.62501 76.6985 9.76644 76.8301 9.88729C76.8419 9.90186 76.8564 9.91389 76.873 9.92267C76.8895 9.93145 76.9076 9.9368 76.9263 9.93839C76.9449 9.93998 76.9637 9.93778 76.9815 9.93192C76.9993 9.92606 77.0157 9.91667 77.0297 9.9043C77.0808 9.85596 77.0476 9.79867 77.0297 9.74138C76.8507 9.1631 76.0397 8.78533 75.4408 9.00376C74.7945 9.24008 74.4391 9.99919 74.6915 10.6034C75.0944 11.5684 76.1829 11.666 76.9295 10.7986C77.0879 10.6133 77.2929 10.4047 77.5113 10.5094C77.7656 10.6312 77.5033 10.8774 77.5069 11.0707L77.5131 11.0609L77.4344 11.1755C76.5454 12.1924 75.465 12.3284 74.5993 11.5335C74.2433 11.2097 74.029 10.7587 74.0027 10.2782C73.9764 9.79764 74.1403 9.32604 74.4588 8.96526C75.0809 8.24912 76.2545 8.14707 77.0047 8.73968C77.121 8.8292 77.2285 8.93483 77.3395 9.0324C77.4406 9.2544 77.5973 9.45313 77.5937 9.71721C77.5937 9.90162 77.6922 9.98576 77.8793 9.92937H79.043H79.3115C79.4876 9.97548 79.6726 9.97548 79.8486 9.92937H81.9075C82.1976 9.96249 82.1707 9.75033 82.1716 9.57577C82.1761 8.66717 82.1716 7.75767 82.1716 6.84907C82.1716 6.67003 82.1609 6.48563 81.9451 6.41222C81.5235 6.26989 81.3185 5.95121 81.1108 5.56628C80.8423 5.0802 81.0455 4.30588 81.5092 3.97824C82.023 3.61391 82.7705 3.62017 83.21 4.01315C83.7471 4.49655 84.0533 5.57255 83.031 6.20007C82.7096 6.39701 82.5556 6.61632 82.5709 7.01736C82.6085 7.717 82.5924 8.41849 82.5225 9.11565C82.4187 10.001 82.8806 10.5363 83.5072 11.0143C83.6746 11.2122 83.8366 11.4136 84.0112 11.6051C84.141 11.7475 84.261 11.7296 84.3451 11.5487C84.8509 11.1012 85.3567 10.6455 85.7568 10.0914C85.8463 10.0099 85.8212 9.89983 85.8212 9.79957C85.8212 7.31187 85.8212 4.82418 85.8212 2.33649C85.8199 2.11382 85.7327 1.90027 85.5778 1.7403C85.3146 1.43057 85.3352 1.05639 85.6091 0.823645C85.8624 0.607908 86.139 0.559568 86.421 0.781572C86.4906 0.832165 86.5486 0.897069 86.5911 0.971926C86.6336 1.04678 86.6596 1.12986 86.6673 1.21558C86.675 1.3013 86.6643 1.38768 86.6358 1.46892C86.6074 1.55016 86.5619 1.62438 86.5025 1.68659C86.2491 1.97932 86.2339 2.28994 86.2339 2.63727C86.2339 5.18434 86.2274 7.73141 86.2142 10.2785L86.1175 10.3904L86.0531 10.4593L85.9385 10.5694L85.8624 10.6392C85.4829 10.9875 85.1051 11.3375 84.7238 11.6839C84.491 11.8943 84.4731 12.0814 84.7479 12.2801C84.9076 12.41 85.0598 12.549 85.2036 12.6964L85.3056 12.8002H85.3003C85.3501 12.9236 85.4466 13.0224 85.5688 13.075V13.0687L85.6682 13.1645L85.6583 13.1574L85.7577 13.2549L85.7505 13.246L85.8454 13.3454H85.84C86.1384 13.6766 86.4368 14.0075 86.7352 14.3381C86.9626 14.5914 87.1891 14.7427 87.5847 14.6425C88.0914 14.5145 88.5292 14.7553 88.7556 15.1796C88.8525 15.3406 88.8978 15.5275 88.8853 15.7151C88.8728 15.9027 88.8032 16.0819 88.6858 16.2287C88.3349 16.7023 87.9079 16.8303 87.3959 16.6092C86.8838 16.3881 86.6672 15.9351 86.7934 15.3631C86.8426 15.1429 86.9205 14.9441 86.7084 14.7499C86.0952 14.1895 85.4936 13.6148 84.8876 13.0491V13.0544L84.7891 12.9586L84.799 12.9658L84.6853 12.8494Z" fill="#DC751A"/>
<path d="M80.657 7.24658C79.3912 6.12403 79.4405 4.63356 79.9498 3.73033C80.6821 2.42964 81.912 2.10022 83.3363 2.52363C84.5412 2.8817 85.2394 4.22447 85.0255 5.5726C84.8965 6.38273 84.3854 6.92342 83.7883 7.41129C83.6236 7.47664 83.4535 7.53303 83.2942 7.60912C82.9665 7.76667 82.8564 7.63956 82.7947 7.30834C82.7052 6.82226 83.1053 6.75244 83.3658 6.56982C84.0497 6.0918 84.3281 5.34433 84.1052 4.5324C83.9056 3.81 83.21 3.27289 82.4124 3.22993C81.6148 3.18696 80.9103 3.66677 80.6122 4.4402C80.3437 5.12949 80.5711 5.95663 81.1726 6.45703C81.332 6.58862 81.5217 6.68351 81.6856 6.8151C81.9443 7.01562 81.9129 7.29492 81.818 7.55004C81.7169 7.81859 81.4895 7.64403 81.3141 7.63956L80.657 7.24658Z" fill="#DC751A"/>
<path d="M86.668 13.6881C87.2051 13.4375 87.7717 13.4715 88.3348 13.5163C89.0035 13.57 89.7796 14.2897 89.9282 15.0309C90.1072 15.9118 89.9774 16.7425 89.2335 17.3431C88.5085 17.9286 87.6858 17.9698 86.8336 17.6394C86.3135 17.4353 86.0387 16.9878 85.7665 16.5411C85.5525 15.9785 85.5579 15.356 85.7817 14.7973C85.8265 14.6791 85.8507 14.5108 86.0172 14.5072C86.164 14.5072 86.2383 14.6415 86.3251 14.7418C86.4388 14.8716 86.4048 15.0103 86.3717 15.1625C86.2902 15.5295 86.2553 15.8992 86.4084 16.2573C86.5497 16.5723 86.7926 16.8307 87.0982 16.9914C87.4038 17.1521 87.7544 17.2056 88.094 17.1435C88.4267 17.0843 88.729 16.9127 88.9504 16.6574C89.1718 16.4021 89.299 16.0785 89.3105 15.7408C89.3356 14.9727 88.8862 14.3712 88.1737 14.1814C87.872 14.1008 87.5846 14.1671 87.2892 14.1903C86.8694 14.2243 86.6474 14.0346 86.668 13.6881Z" fill="#DC751A"/>
<path d="M81.8101 17.6344C81.8052 17.6468 81.8039 17.6604 81.8065 17.6736C81.809 17.6868 81.8152 17.6989 81.8244 17.7087L81.8361 17.9772C81.8298 18.0372 81.8226 18.0972 81.8164 18.1563C81.7746 18.3281 81.7331 18.5 81.6919 18.6719L81.6991 18.662C81.683 18.7023 81.6678 18.7417 81.6516 18.7811C81.1002 19.977 79.7431 20.3298 78.8963 20.0048C78.0906 19.6969 77.5813 19.1222 77.4381 18.287C77.2886 17.4124 77.5813 16.6631 78.3144 16.1385C78.5776 15.9497 78.8184 15.6525 79.2159 15.7626C79.2839 16.1609 79.172 16.4322 78.8095 16.69C78.13 17.1734 77.9734 17.954 78.3252 18.6164C78.4586 18.8759 78.6689 19.088 78.9273 19.2235C79.1857 19.3591 79.4797 19.4115 79.7691 19.3737C80.3143 19.3164 80.9042 18.8321 81.0465 18.3246C81.2112 17.7346 80.948 17.0597 80.3868 16.6533C80.1361 16.4742 79.8497 16.2674 80.0484 15.9371C80.2274 15.6381 80.496 15.9273 80.7242 15.9622L80.7117 15.9506L80.8308 16.0222L81.4574 16.6416L81.521 16.7625L81.5084 16.7499L81.6418 16.9943C81.6973 17.2074 81.7537 17.4204 81.8101 17.6344Z" fill="#DC751A"/>
<path d="M82.7312 20.933C83.2325 20.8704 83.8108 21.3242 84.0552 21.9732C84.4249 22.9525 84.0095 23.9363 83.057 24.3383C82.613 24.5238 82.1143 24.5293 81.6663 24.3535C81.2183 24.1778 80.8564 23.8345 80.6571 23.3965C80.1943 22.3922 80.7466 21.189 81.8208 20.8569C82.135 21.1658 81.9255 21.335 81.6615 21.5131C81.4144 21.6809 81.2285 21.9243 81.1317 22.2068C81.0348 22.4893 81.0322 22.7956 81.1244 23.0797C81.3034 23.632 81.7286 23.9247 82.3463 23.9193C82.946 23.914 83.4044 23.5935 83.5664 23.0653C83.7571 22.4468 83.561 21.8703 83.0096 21.5158C82.7849 21.3699 82.6578 21.2087 82.7312 20.933Z" fill="#DC751A"/>
<path d="M85.2159 2.3464C84.9303 2.04741 84.7218 1.70635 84.7173 1.28204C84.7195 1.01138 84.8079 0.74847 84.9697 0.531477C85.1314 0.314483 85.3582 0.154704 85.6169 0.075341C86.2203 -0.111751 86.7699 0.0547522 87.0823 0.517558C87.2447 0.752671 87.3267 1.03393 87.3162 1.31944C87.3057 1.60496 87.2033 1.87944 87.0242 2.10202C86.8827 2.27389 86.735 2.44398 86.5032 2.50395L86.4065 2.38221V2.37684C86.4351 2.10828 86.6356 1.93641 86.7592 1.72157C86.983 1.33038 86.9302 0.998266 86.5963 0.688536C86.4589 0.551021 86.2773 0.466586 86.0836 0.4502C85.8899 0.433815 85.6967 0.486536 85.5382 0.599018C85.1604 0.878313 85.0548 1.24086 85.2499 1.64548C85.3197 1.7905 85.429 1.91403 85.514 2.05368C85.599 2.19333 85.6832 2.34193 85.5552 2.45919C85.4272 2.57646 85.3412 2.36251 85.2159 2.3464Z" fill="#DC751A"/>
<path d="M84.6855 12.8496L84.7948 12.957L84.6855 12.8496Z" fill="#DC751A"/>
<path d="M84.7817 12.9497L84.8802 13.0455L84.7817 12.9497Z" fill="#DC751A"/>
<path d="M85.6593 13.1617L85.5599 13.0659L85.6593 13.1617Z" fill="#DC751A"/>
<path d="M83.6398 12.8817L83.706 12.8154L83.6398 12.8817Z" fill="#DC751A"/>
<path d="M85.8365 13.3425L85.7416 13.2432L85.8365 13.3425Z" fill="#DC751A"/>
<path d="M83.0848 13.4181L83.169 13.3394L83.0848 13.4181Z" fill="#DC751A"/>
<path d="M77.4341 11.1755L77.5075 11.0654L77.4341 11.1755Z" fill="#DC751A"/>
<path d="M86.4067 2.38037L86.5034 2.50211L86.4067 2.38037Z" fill="#DC751A"/>
<path d="M82.6361 10.7993C82.6683 10.8324 82.6997 10.8665 82.731 10.8996C82.6997 10.8665 82.6683 10.8324 82.6361 10.7993Z" fill="#DC751A"/>
<path d="M80.8305 16.0184L80.7114 15.9468L80.8305 16.0184Z" fill="#DC751A"/>
<path d="M82.5493 10.7065L82.646 10.8077L82.5493 10.7065Z" fill="#DC751A"/>
<path d="M81.522 16.7598L81.4629 16.6362L81.522 16.7598Z" fill="#DC751A"/>
<path d="M85.8607 10.6382L85.9368 10.5684L85.8607 10.6382Z" fill="#DC751A"/>
<path d="M81.6515 18.7846C81.6676 18.7452 81.6828 18.7058 81.6989 18.6655C81.6828 18.7022 81.6676 18.7416 81.6515 18.7846Z" fill="#DC751A"/>
<path d="M86.0513 10.4596L86.1157 10.3906L86.0513 10.4596Z" fill="#DC751A"/>
<path d="M85.7487 13.2524L85.6493 13.1548L85.7487 13.2524Z" fill="#DC751A"/>
<path d="M57.38 49.04L55.19 43.03H54.22L56.85 50H57.9L60.53 43.03H59.57L57.38 49.04ZM64.7638 50H65.6838V42.77H63.8038V43.6H64.7638V50ZM68.287 49.44C68.287 49.09 68.017 48.82 67.687 48.82C67.337 48.82 67.067 49.09 67.067 49.44C67.067 49.79 67.337 50.06 67.687 50.06C68.017 50.06 68.287 49.79 68.287 49.44ZM69.3466 46.31C69.3466 48.41 69.8666 50 71.8666 50C73.8566 50 74.3766 48.41 74.3766 46.31C74.3766 44.24 73.8566 42.66 71.8666 42.66C69.8666 42.66 69.3466 44.24 69.3466 46.31ZM73.4766 46.31C73.4766 47.87 73.2866 49.17 71.8666 49.17C70.4366 49.17 70.2466 47.87 70.2466 46.31C70.2466 44.81 70.4366 43.49 71.8666 43.49C73.2866 43.49 73.4766 44.81 73.4766 46.31ZM76.6659 49.44C76.6659 49.09 76.3959 48.82 76.0659 48.82C75.7159 48.82 75.4459 49.09 75.4459 49.44C75.4459 49.79 75.7159 50.06 76.0659 50.06C76.3959 50.06 76.6659 49.79 76.6659 49.44ZM77.7255 46.31C77.7255 48.41 78.2455 50 80.2455 50C82.2355 50 82.7555 48.41 82.7555 46.31C82.7555 44.24 82.2355 42.66 80.2455 42.66C78.2455 42.66 77.7255 44.24 77.7255 46.31ZM81.8555 46.31C81.8555 47.87 81.6655 49.17 80.2455 49.17C78.8155 49.17 78.6255 47.87 78.6255 46.31C78.6255 44.81 78.8155 43.49 80.2455 43.49C81.6655 43.49 81.8555 44.81 81.8555 46.31ZM90.1108 51.86V51.77C88.7208 50.34 88.0108 48.37 88.0108 46.34C88.0108 44.3 88.7208 42.2 90.2608 40.75V40.66H89.3108C87.8908 41.97 87.1308 44.08 87.1308 46.34C87.1308 48.59 87.8908 50.61 89.1608 51.86H90.1108ZM91.2118 46.31C91.2118 48.41 91.7318 50 93.7318 50C95.7218 50 96.2418 48.41 96.2418 46.31C96.2418 44.24 95.7218 42.66 93.7318 42.66C91.7318 42.66 91.2118 44.24 91.2118 46.31ZM95.3418 46.31C95.3418 47.87 95.1518 49.17 93.7318 49.17C92.3018 49.17 92.1118 47.87 92.1118 46.31C92.1118 44.81 92.3018 43.49 93.7318 43.49C95.1518 43.49 95.3418 44.81 95.3418 46.31ZM97.4911 46.31C97.4911 48.41 98.0111 50 100.011 50C102.001 50 102.521 48.41 102.521 46.31C102.521 44.24 102.001 42.66 100.011 42.66C98.0111 42.66 97.4911 44.24 97.4911 46.31ZM101.621 46.31C101.621 47.87 101.431 49.17 100.011 49.17C98.5811 49.17 98.3911 47.87 98.3911 46.31C98.3911 44.81 98.5811 43.49 100.011 43.49C101.431 43.49 101.621 44.81 101.621 46.31ZM104.49 50H105.41V42.77H103.53V43.6H104.49V50ZM106.834 51.86V51.77C108.224 50.34 108.934 48.37 108.934 46.34C108.934 44.3 108.224 42.2 106.684 40.75V40.66H107.634C109.054 41.97 109.814 44.08 109.814 46.34C109.814 48.59 109.054 50.61 107.784 51.86H106.834Z" fill="#666766"/>
<path d="M0.596016 76.51C0.596016 78.6 2.12602 80.06 4.07602 80.06C5.58602 80.06 6.78602 79.31 7.30602 77.97H6.21602C5.83602 78.8 5.09602 79.27 4.07602 79.27C2.61602 79.27 1.52602 78.21 1.52602 76.51C1.52602 74.8 2.61602 73.74 4.07602 73.74C5.09602 73.74 5.83602 74.21 6.21602 75.05H7.30602C6.78602 73.7 5.58602 72.94 4.07602 72.94C2.12602 72.94 0.596016 74.42 0.596016 76.51ZM13.8606 77.25C13.8606 75.52 12.6506 74.43 11.0906 74.43C9.54063 74.43 8.32063 75.52 8.32063 77.25C8.32063 78.99 9.50063 80.09 11.0506 80.09C12.6106 80.09 13.8606 78.99 13.8606 77.25ZM9.25063 77.25C9.25063 75.87 10.1206 75.22 11.0806 75.22C12.0206 75.22 12.9306 75.87 12.9306 77.25C12.9306 78.64 12.0006 79.29 11.0506 79.29C10.1006 79.29 9.25063 78.64 9.25063 77.25ZM15.9671 75.53V74.52H15.0571V82.6H15.9671V78.99C16.3071 79.55 17.0171 80.09 18.0171 80.09C19.4871 80.09 20.6171 78.94 20.6171 77.24C20.6171 75.53 19.4871 74.43 18.0171 74.43C17.0171 74.43 16.2971 74.95 15.9671 75.53ZM19.6871 77.24C19.6871 78.53 18.8371 79.29 17.8271 79.29C16.8371 79.29 15.9671 78.54 15.9671 77.25C15.9671 75.98 16.8371 75.22 17.8271 75.22C18.8371 75.22 19.6871 75.95 19.6871 77.24ZM23.8949 78.96L22.1749 74.52H21.1649L23.3749 79.94L22.2949 82.58H23.2349L26.5349 74.52H25.5949L23.8949 78.96ZM28.3597 77.02C28.3597 75.75 29.0197 75.36 29.8897 75.36H30.1297V74.42C29.2597 74.42 28.6697 74.8 28.3597 75.41V74.52H27.4497V80H28.3597V77.02ZM31.1802 80H32.0902V74.52H31.1802V80ZM31.6502 73.63C31.9802 73.63 32.2502 73.36 32.2502 73.01C32.2502 72.66 31.9802 72.39 31.6502 72.39C31.3002 72.39 31.0302 72.66 31.0302 73.01C31.0302 73.36 31.3002 73.63 31.6502 73.63ZM33.3011 77.24C33.3011 78.94 34.4311 80.09 35.9011 80.09C36.9011 80.09 37.6111 79.56 37.9411 78.97V80.12C37.9411 81.29 37.2111 81.91 36.2411 81.91C35.3411 81.91 34.6911 81.46 34.4911 80.8H33.5911C33.7711 81.97 34.8011 82.7 36.2411 82.7C37.8511 82.7 38.8611 81.63 38.8611 80.12V74.52H37.9411V75.52C37.6211 74.93 36.9011 74.43 35.9011 74.43C34.4311 74.43 33.3011 75.53 33.3011 77.24ZM37.9411 77.25C37.9411 78.54 37.0811 79.29 36.0811 79.29C35.0811 79.29 34.2311 78.53 34.2311 77.24C34.2311 75.95 35.0811 75.22 36.0811 75.22C37.0811 75.22 37.9411 75.98 37.9411 77.25ZM40.3989 80H41.3089V76.97C41.3089 75.79 41.9489 75.21 42.8789 75.21C43.7989 75.21 44.4089 75.78 44.4089 76.9V80H45.3089V76.77C45.3089 75.2 44.3389 74.42 43.1189 74.42C42.3489 74.42 41.6689 74.73 41.3089 75.31V72.6H40.3989V80ZM46.9954 78.5C46.9954 79.6 47.5454 80 48.5154 80H49.3354V79.23H48.6654C48.1054 79.23 47.9054 79.04 47.9054 78.5V75.27H49.3354V74.52H47.9054V73.14H46.9954V74.52H46.2854V75.27H46.9954V78.5ZM52.824 76.51C52.824 78.59 54.244 80.06 56.304 80.06C58.354 80.06 59.764 78.59 59.764 76.51C59.764 74.43 58.354 72.96 56.304 72.96C54.244 72.96 52.824 74.43 52.824 76.51ZM59.334 76.51C59.334 78.38 58.164 79.67 56.304 79.67C54.424 79.67 53.254 78.38 53.254 76.51C53.254 74.63 54.424 73.36 56.304 73.36C58.164 73.36 59.334 74.63 59.334 76.51ZM58.334 75.68H57.494C57.324 75.14 56.854 74.85 56.284 74.85C55.524 74.85 54.924 75.41 54.924 76.51C54.924 77.6 55.524 78.16 56.284 78.16C56.904 78.16 57.304 77.86 57.494 77.33H58.334C58.074 78.23 57.294 78.82 56.284 78.82C55.084 78.82 54.114 77.94 54.114 76.5C54.114 75.06 55.084 74.19 56.284 74.19C57.294 74.19 58.074 74.73 58.334 75.68ZM63.4299 79.92H68.2399V79.16H64.7999C66.0899 78.11 68.0299 76.58 68.0299 74.78C68.0299 73.44 67.1499 72.64 65.7899 72.64C64.4899 72.64 63.5199 73.44 63.4599 74.98H64.3399C64.3799 74.07 64.8599 73.42 65.7999 73.42C66.7799 73.42 67.1299 74.02 67.1299 74.82C67.1299 76.3 65.3299 77.74 63.4299 79.27V79.92ZM69.2919 76.31C69.2919 78.41 69.8119 80 71.8119 80C73.8019 80 74.3219 78.41 74.3219 76.31C74.3219 74.24 73.8019 72.66 71.8119 72.66C69.8119 72.66 69.2919 74.24 69.2919 76.31ZM73.4219 76.31C73.4219 77.87 73.2319 79.17 71.8119 79.17C70.3819 79.17 70.1919 77.87 70.1919 76.31C70.1919 74.81 70.3819 73.49 71.8119 73.49C73.2319 73.49 73.4219 74.81 73.4219 76.31ZM75.4612 79.92H80.2712V79.16H76.8312C78.1212 78.11 80.0612 76.58 80.0612 74.78C80.0612 73.44 79.1812 72.64 77.8212 72.64C76.5212 72.64 75.5512 73.44 75.4912 74.98H76.3712C76.4112 74.07 76.8912 73.42 77.8312 73.42C78.8112 73.42 79.1612 74.02 79.1612 74.82C79.1612 76.3 77.3612 77.74 75.4612 79.27V79.92ZM81.2131 79.92H86.0231V79.16H82.5831C83.8731 78.11 85.8131 76.58 85.8131 74.78C85.8131 73.44 84.9331 72.64 83.5731 72.64C82.2731 72.64 81.3031 73.44 81.2431 74.98H82.1231C82.1631 74.07 82.6431 73.42 83.5831 73.42C84.5631 73.42 84.9131 74.02 84.9131 74.82C84.9131 76.3 83.1131 77.74 81.2131 79.27V79.92ZM93.8511 78.04C93.8511 78.8 93.3111 79.25 92.4111 79.25H90.8011V76.79H92.3811C93.2711 76.79 93.8511 77.27 93.8511 78.04ZM93.6711 74.91C93.6711 75.62 93.1811 76.04 92.3311 76.04H90.8011V73.78H92.3111C93.2011 73.78 93.6711 74.22 93.6711 74.91ZM94.7611 78.13C94.7611 77.27 94.1411 76.54 93.3811 76.41C94.0511 76.19 94.6011 75.68 94.6011 74.8C94.6011 73.83 93.8611 73.03 92.3911 73.03H89.8911V80H92.4911C93.9311 80 94.7611 79.18 94.7611 78.13ZM96.9339 76.34V73.78H98.2739C99.3139 73.78 99.7539 74.26 99.7539 75.07C99.7539 75.85 99.3139 76.34 98.2739 76.34H96.9339ZM100.684 75.07C100.684 73.93 99.9139 73.03 98.2739 73.03H96.0239V80H96.9339V77.09H98.2739C100.004 77.09 100.684 76.13 100.684 75.07ZM101.815 80H102.725V74.83L105.035 80H105.675L107.975 74.84V80H108.885V73.08H107.915L105.355 78.8L102.795 73.08H101.815V80ZM114.004 76.34V73.78H115.344C116.384 73.78 116.824 74.26 116.824 75.07C116.824 75.85 116.384 76.34 115.344 76.34H114.004ZM117.754 75.07C117.754 73.93 116.984 73.03 115.344 73.03H113.094V80H114.004V77.09H115.344C117.074 77.09 117.754 76.13 117.754 75.07ZM124.085 77.25C124.085 75.52 122.875 74.43 121.315 74.43C119.765 74.43 118.545 75.52 118.545 77.25C118.545 78.99 119.725 80.09 121.275 80.09C122.835 80.09 124.085 78.99 124.085 77.25ZM119.475 77.25C119.475 75.87 120.345 75.22 121.305 75.22C122.245 75.22 123.155 75.87 123.155 77.25C123.155 78.64 122.225 79.29 121.275 79.29C120.325 79.29 119.475 78.64 119.475 77.25ZM126.352 80H127.292L128.612 75.65L129.932 80H130.872L132.582 74.52H131.682L130.442 79.13L129.112 74.52H128.182L126.822 79.12L125.562 74.52H124.632L126.352 80ZM135.815 75.2C136.755 75.2 137.555 75.79 137.545 76.86H134.085C134.185 75.79 134.925 75.2 135.815 75.2ZM138.375 78.31H137.395C137.195 78.9 136.675 79.32 135.855 79.32C134.925 79.32 134.145 78.71 134.075 77.6H138.455C138.475 77.41 138.485 77.25 138.485 77.05C138.485 75.55 137.445 74.43 135.855 74.43C134.255 74.43 133.145 75.52 133.145 77.25C133.145 78.99 134.295 80.09 135.855 80.09C137.215 80.09 138.095 79.31 138.375 78.31ZM140.596 77.02C140.596 75.75 141.256 75.36 142.126 75.36H142.366V74.42C141.496 74.42 140.906 74.8 140.596 75.41V74.52H139.686V80H140.596V77.02ZM146.993 76.34V73.78H148.333C149.373 73.78 149.813 74.26 149.813 75.07C149.813 75.85 149.373 76.34 148.333 76.34H146.993ZM150.743 75.07C150.743 73.93 149.973 73.03 148.333 73.03H146.083V80H146.993V77.09H148.333C150.063 77.09 150.743 76.13 150.743 75.07ZM151.224 74.52L153.374 80H154.434L156.584 74.52H155.614L153.914 79.16L152.204 74.52H151.224ZM157.679 78.5C157.679 79.6 158.229 80 159.199 80H160.019V79.23H159.349C158.789 79.23 158.589 79.04 158.589 78.5V75.27H160.019V74.52H158.589V73.14H157.679V74.52H156.969V75.27H157.679V78.5ZM163.788 73.03V80H167.138V79.26H164.698V73.03H163.788ZM168.304 78.5C168.304 79.6 168.854 80 169.824 80H170.644V79.23H169.974C169.414 79.23 169.214 79.04 169.214 78.5V75.27H170.644V74.52H169.214V73.14H168.304V74.52H167.594V75.27H168.304V78.5ZM171.407 77.24C171.407 78.94 172.537 80.09 174.007 80.09C175.007 80.09 175.717 79.58 176.047 78.97V80H176.967V72.6H176.047V75.5C175.667 74.87 174.877 74.43 174.017 74.43C172.537 74.43 171.407 75.53 171.407 77.24ZM176.047 77.25C176.047 78.54 175.187 79.29 174.187 79.29C173.187 79.29 172.337 78.53 172.337 77.24C172.337 75.95 173.187 75.22 174.187 75.22C175.187 75.22 176.047 75.98 176.047 77.25ZM179.394 79.44C179.394 79.09 179.124 78.82 178.794 78.82C178.444 78.82 178.174 79.09 178.174 79.44C178.174 79.79 178.444 80.06 178.794 80.06C179.124 80.06 179.394 79.79 179.394 79.44ZM49.9715 95H50.9315L48.4215 88.07H47.3715L44.8515 95H45.8115L46.3715 93.45H49.4115L49.9715 95ZM49.1515 92.71H46.6315L47.8915 89.19L49.1515 92.71ZM52.0298 95H52.9398V87.6H52.0298V95ZM54.4907 95H55.4007V87.6H54.4907V95ZM60.5277 92.02C60.5277 90.75 61.1877 90.36 62.0577 90.36H62.2977V89.42C61.4277 89.42 60.8377 89.8 60.5277 90.41V89.52H59.6177V95H60.5277V92.02ZM63.3481 95H64.2581V89.52H63.3481V95ZM63.8181 88.63C64.1481 88.63 64.4181 88.36 64.4181 88.01C64.4181 87.66 64.1481 87.39 63.8181 87.39C63.4681 87.39 63.1981 87.66 63.1981 88.01C63.1981 88.36 63.4681 88.63 63.8181 88.63ZM65.4691 92.24C65.4691 93.94 66.5991 95.09 68.0691 95.09C69.0691 95.09 69.7791 94.56 70.1091 93.97V95.12C70.1091 96.29 69.3791 96.91 68.4091 96.91C67.5091 96.91 66.8591 96.46 66.6591 95.8H65.7591C65.9391 96.97 66.9691 97.7 68.4091 97.7C70.0191 97.7 71.0291 96.63 71.0291 95.12V89.52H70.1091V90.52C69.7891 89.93 69.0691 89.43 68.0691 89.43C66.5991 89.43 65.4691 90.53 65.4691 92.24ZM70.1091 92.25C70.1091 93.54 69.2491 94.29 68.2491 94.29C67.2491 94.29 66.3991 93.53 66.3991 92.24C66.3991 90.95 67.2491 90.22 68.2491 90.22C69.2491 90.22 70.1091 90.98 70.1091 92.25ZM72.5669 95H73.4769V91.97C73.4769 90.79 74.1169 90.21 75.0469 90.21C75.9669 90.21 76.5769 90.78 76.5769 91.9V95H77.4769V91.77C77.4769 90.2 76.5069 89.42 75.2869 89.42C74.5169 89.42 73.8369 89.73 73.4769 90.31V87.6H72.5669V95ZM79.1634 93.5C79.1634 94.6 79.7134 95 80.6834 95H81.5034V94.23H80.8334C80.2734 94.23 80.0734 94.04 80.0734 93.5V90.27H81.5034V89.52H80.0734V88.14H79.1634V89.52H78.4534V90.27H79.1634V93.5ZM86.5459 93.51C86.5059 91.55 83.3259 92.26 83.3259 90.96C83.3259 90.52 83.7259 90.2 84.3959 90.2C85.1259 90.2 85.5459 90.6 85.5859 91.15H86.4959C86.4359 90.08 85.6359 89.43 84.4259 89.43C83.2059 89.43 82.4159 90.12 82.4159 90.96C82.4159 93 85.6559 92.29 85.6559 93.51C85.6559 93.96 85.2559 94.32 84.5359 94.32C83.7659 94.32 83.2959 93.92 83.2459 93.39H82.3059C82.3659 94.39 83.2659 95.09 84.5459 95.09C85.7559 95.09 86.5459 94.41 86.5459 93.51ZM91.4066 92.02C91.4066 90.75 92.0666 90.36 92.9366 90.36H93.1766V89.42C92.3066 89.42 91.7166 89.8 91.4066 90.41V89.52H90.4966V95H91.4066V92.02ZM96.557 90.2C97.497 90.2 98.297 90.79 98.287 91.86H94.827C94.927 90.79 95.667 90.2 96.557 90.2ZM99.117 93.31H98.137C97.937 93.9 97.417 94.32 96.597 94.32C95.667 94.32 94.887 93.71 94.817 92.6H99.197C99.217 92.41 99.227 92.25 99.227 92.05C99.227 90.55 98.187 89.43 96.597 89.43C94.997 89.43 93.887 90.52 93.887 92.25C93.887 93.99 95.037 95.09 96.597 95.09C97.957 95.09 98.837 94.31 99.117 93.31ZM104.368 93.51C104.328 91.55 101.148 92.26 101.148 90.96C101.148 90.52 101.548 90.2 102.218 90.2C102.948 90.2 103.368 90.6 103.408 91.15H104.318C104.258 90.08 103.458 89.43 102.248 89.43C101.028 89.43 100.238 90.12 100.238 90.96C100.238 93 103.478 92.29 103.478 93.51C103.478 93.96 103.078 94.32 102.358 94.32C101.588 94.32 101.118 93.92 101.068 93.39H100.128C100.188 94.39 101.088 95.09 102.368 95.09C103.578 95.09 104.368 94.41 104.368 93.51ZM107.983 90.2C108.923 90.2 109.723 90.79 109.713 91.86H106.253C106.353 90.79 107.093 90.2 107.983 90.2ZM110.543 93.31H109.563C109.363 93.9 108.843 94.32 108.023 94.32C107.093 94.32 106.313 93.71 106.243 92.6H110.623C110.643 92.41 110.653 92.25 110.653 92.05C110.653 90.55 109.613 89.43 108.023 89.43C106.423 89.43 105.313 90.52 105.313 92.25C105.313 93.99 106.463 95.09 108.023 95.09C109.383 95.09 110.263 94.31 110.543 93.31ZM112.764 92.02C112.764 90.75 113.424 90.36 114.294 90.36H114.534V89.42C113.664 89.42 113.074 89.8 112.764 90.41V89.52H111.854V95H112.764V92.02ZM114.934 89.52L117.084 95H118.144L120.294 89.52H119.324L117.624 94.16L115.914 89.52H114.934ZM123.52 90.2C124.46 90.2 125.26 90.79 125.25 91.86H121.79C121.89 90.79 122.63 90.2 123.52 90.2ZM126.08 93.31H125.1C124.9 93.9 124.38 94.32 123.56 94.32C122.63 94.32 121.85 93.71 121.78 92.6H126.16C126.18 92.41 126.19 92.25 126.19 92.05C126.19 90.55 125.15 89.43 123.56 89.43C121.96 89.43 120.85 90.52 120.85 92.25C120.85 93.99 122 95.09 123.56 95.09C124.92 95.09 125.8 94.31 126.08 93.31ZM127.051 92.24C127.051 93.94 128.181 95.09 129.651 95.09C130.651 95.09 131.361 94.58 131.691 93.97V95H132.611V87.6H131.691V90.5C131.311 89.87 130.521 89.43 129.661 89.43C128.181 89.43 127.051 90.53 127.051 92.24ZM131.691 92.25C131.691 93.54 130.831 94.29 129.831 94.29C128.831 94.29 127.981 93.53 127.981 92.24C127.981 90.95 128.831 90.22 129.831 90.22C130.831 90.22 131.691 90.98 131.691 92.25ZM135.039 94.44C135.039 94.09 134.769 93.82 134.439 93.82C134.089 93.82 133.819 94.09 133.819 94.44C133.819 94.79 134.089 95.06 134.439 95.06C134.769 95.06 135.039 94.79 135.039 94.44Z" fill="#666766"/>
</svg>
