<svg width="358" height="50" viewBox="0 0 358 50" fill="none" xmlns="http://www.w3.org/2000/svg">
<path d="M109.239 8.812C109.239 7.996 109.423 7.264 109.791 6.616C110.159 5.96 110.659 5.448 111.291 5.08C111.931 4.712 112.639 4.528 113.415 4.528C114.327 4.528 115.123 4.748 115.803 5.188C116.483 5.628 116.979 6.252 117.291 7.06H115.983C115.751 6.556 115.415 6.168 114.975 5.896C114.543 5.624 114.023 5.488 113.415 5.488C112.831 5.488 112.307 5.624 111.843 5.896C111.379 6.168 111.015 6.556 110.751 7.06C110.487 7.556 110.355 8.14 110.355 8.812C110.355 9.476 110.487 10.06 110.751 10.564C111.015 11.06 111.379 11.444 111.843 11.716C112.307 11.988 112.831 12.124 113.415 12.124C114.023 12.124 114.543 11.992 114.975 11.728C115.415 11.456 115.751 11.068 115.983 10.564H117.291C116.979 11.364 116.483 11.984 115.803 12.424C115.123 12.856 114.327 13.072 113.415 13.072C112.639 13.072 111.931 12.892 111.291 12.532C110.659 12.164 110.159 11.656 109.791 11.008C109.423 10.36 109.239 9.628 109.239 8.812ZM121.784 13.108C121.168 13.108 120.608 12.968 120.104 12.688C119.608 12.408 119.216 12.012 118.928 11.5C118.648 10.98 118.508 10.38 118.508 9.7C118.508 9.028 118.652 8.436 118.94 7.924C119.236 7.404 119.636 7.008 120.14 6.736C120.644 6.456 121.208 6.316 121.832 6.316C122.456 6.316 123.02 6.456 123.524 6.736C124.028 7.008 124.424 7.4 124.712 7.912C125.008 8.424 125.156 9.02 125.156 9.7C125.156 10.38 125.004 10.98 124.7 11.5C124.404 12.012 124 12.408 123.488 12.688C122.976 12.968 122.408 13.108 121.784 13.108ZM121.784 12.148C122.176 12.148 122.544 12.056 122.888 11.872C123.232 11.688 123.508 11.412 123.716 11.044C123.932 10.676 124.04 10.228 124.04 9.7C124.04 9.172 123.936 8.724 123.728 8.356C123.52 7.988 123.248 7.716 122.912 7.54C122.576 7.356 122.212 7.264 121.82 7.264C121.42 7.264 121.052 7.356 120.716 7.54C120.388 7.716 120.124 7.988 119.924 8.356C119.724 8.724 119.624 9.172 119.624 9.7C119.624 10.236 119.72 10.688 119.912 11.056C120.112 11.424 120.376 11.7 120.704 11.884C121.032 12.06 121.392 12.148 121.784 12.148ZM134.5 6.304C135.012 6.304 135.468 6.412 135.868 6.628C136.268 6.836 136.584 7.152 136.816 7.576C137.048 8 137.164 8.516 137.164 9.124V13H136.084V9.28C136.084 8.624 135.92 8.124 135.592 7.78C135.272 7.428 134.836 7.252 134.284 7.252C133.716 7.252 133.264 7.436 132.928 7.804C132.592 8.164 132.424 8.688 132.424 9.376V13H131.344V9.28C131.344 8.624 131.18 8.124 130.852 7.78C130.532 7.428 130.096 7.252 129.544 7.252C128.976 7.252 128.524 7.436 128.188 7.804C127.852 8.164 127.684 8.688 127.684 9.376V13H126.592V6.424H127.684V7.372C127.9 7.028 128.188 6.764 128.548 6.58C128.916 6.396 129.32 6.304 129.76 6.304C130.312 6.304 130.8 6.428 131.224 6.676C131.648 6.924 131.964 7.288 132.172 7.768C132.356 7.304 132.66 6.944 133.084 6.688C133.508 6.432 133.98 6.304 134.5 6.304ZM140.047 7.636C140.263 7.26 140.583 6.948 141.007 6.7C141.439 6.444 141.939 6.316 142.507 6.316C143.091 6.316 143.619 6.456 144.091 6.736C144.571 7.016 144.947 7.412 145.219 7.924C145.491 8.428 145.627 9.016 145.627 9.688C145.627 10.352 145.491 10.944 145.219 11.464C144.947 11.984 144.571 12.388 144.091 12.676C143.619 12.964 143.091 13.108 142.507 13.108C141.947 13.108 141.451 12.984 141.019 12.736C140.595 12.48 140.271 12.164 140.047 11.788V16.12H138.955V6.424H140.047V7.636ZM144.511 9.688C144.511 9.192 144.411 8.76 144.211 8.392C144.011 8.024 143.739 7.744 143.395 7.552C143.059 7.36 142.687 7.264 142.279 7.264C141.879 7.264 141.507 7.364 141.163 7.564C140.827 7.756 140.555 8.04 140.347 8.416C140.147 8.784 140.047 9.212 140.047 9.7C140.047 10.196 140.147 10.632 140.347 11.008C140.555 11.376 140.827 11.66 141.163 11.86C141.507 12.052 141.879 12.148 142.279 12.148C142.687 12.148 143.059 12.052 143.395 11.86C143.739 11.66 144.011 11.376 144.211 11.008C144.411 10.632 144.511 10.192 144.511 9.688ZM148.157 4.12V13H147.065V4.12H148.157ZM156.018 9.46C156.018 9.668 156.006 9.888 155.982 10.12H150.726C150.766 10.768 150.986 11.276 151.386 11.644C151.794 12.004 152.286 12.184 152.862 12.184C153.334 12.184 153.726 12.076 154.038 11.86C154.358 11.636 154.582 11.34 154.71 10.972H155.886C155.71 11.604 155.358 12.12 154.83 12.52C154.302 12.912 153.646 13.108 152.862 13.108C152.238 13.108 151.678 12.968 151.182 12.688C150.694 12.408 150.31 12.012 150.03 11.5C149.75 10.98 149.61 10.38 149.61 9.7C149.61 9.02 149.746 8.424 150.018 7.912C150.29 7.4 150.67 7.008 151.158 6.736C151.654 6.456 152.222 6.316 152.862 6.316C153.486 6.316 154.038 6.452 154.518 6.724C154.998 6.996 155.366 7.372 155.622 7.852C155.886 8.324 156.018 8.86 156.018 9.46ZM154.89 9.232C154.89 8.816 154.798 8.46 154.614 8.164C154.43 7.86 154.178 7.632 153.858 7.48C153.546 7.32 153.198 7.24 152.814 7.24C152.262 7.24 151.79 7.416 151.398 7.768C151.014 8.12 150.794 8.608 150.738 9.232H154.89ZM158.791 7.324V11.2C158.791 11.52 158.859 11.748 158.995 11.884C159.131 12.012 159.367 12.076 159.703 12.076H160.507V13H159.523C158.915 13 158.459 12.86 158.155 12.58C157.851 12.3 157.699 11.84 157.699 11.2V7.324H156.847V6.424H157.699V4.768H158.791V6.424H160.507V7.324H158.791ZM162.394 5.356C162.186 5.356 162.01 5.284 161.866 5.14C161.722 4.996 161.65 4.82 161.65 4.612C161.65 4.404 161.722 4.228 161.866 4.084C162.01 3.94 162.186 3.868 162.394 3.868C162.594 3.868 162.762 3.94 162.898 4.084C163.042 4.228 163.114 4.404 163.114 4.612C163.114 4.82 163.042 4.996 162.898 5.14C162.762 5.284 162.594 5.356 162.394 5.356ZM162.922 6.424V13H161.83V6.424H162.922ZM167.987 6.304C168.787 6.304 169.435 6.548 169.931 7.036C170.427 7.516 170.675 8.212 170.675 9.124V13H169.595V9.28C169.595 8.624 169.431 8.124 169.103 7.78C168.775 7.428 168.327 7.252 167.759 7.252C167.183 7.252 166.723 7.432 166.379 7.792C166.043 8.152 165.875 8.676 165.875 9.364V13H164.783V6.424H165.875V7.36C166.091 7.024 166.383 6.764 166.751 6.58C167.127 6.396 167.539 6.304 167.987 6.304ZM175.171 6.316C175.739 6.316 176.235 6.44 176.659 6.688C177.091 6.936 177.411 7.248 177.619 7.624V6.424H178.723V13.144C178.723 13.744 178.595 14.276 178.339 14.74C178.083 15.212 177.715 15.58 177.235 15.844C176.763 16.108 176.211 16.24 175.579 16.24C174.715 16.24 173.995 16.036 173.419 15.628C172.843 15.22 172.503 14.664 172.399 13.96H173.479C173.599 14.36 173.847 14.68 174.223 14.92C174.599 15.168 175.051 15.292 175.579 15.292C176.179 15.292 176.667 15.104 177.043 14.728C177.427 14.352 177.619 13.824 177.619 13.144V11.764C177.403 12.148 177.083 12.468 176.659 12.724C176.235 12.98 175.739 13.108 175.171 13.108C174.587 13.108 174.055 12.964 173.575 12.676C173.103 12.388 172.731 11.984 172.459 11.464C172.187 10.944 172.051 10.352 172.051 9.688C172.051 9.016 172.187 8.428 172.459 7.924C172.731 7.412 173.103 7.016 173.575 6.736C174.055 6.456 174.587 6.316 175.171 6.316ZM177.619 9.7C177.619 9.204 177.519 8.772 177.319 8.404C177.119 8.036 176.847 7.756 176.503 7.564C176.167 7.364 175.795 7.264 175.387 7.264C174.979 7.264 174.607 7.36 174.271 7.552C173.935 7.744 173.667 8.024 173.467 8.392C173.267 8.76 173.167 9.192 173.167 9.688C173.167 10.192 173.267 10.632 173.467 11.008C173.667 11.376 173.935 11.66 174.271 11.86C174.607 12.052 174.979 12.148 175.387 12.148C175.795 12.148 176.167 12.052 176.503 11.86C176.847 11.66 177.119 11.376 177.319 11.008C177.519 10.632 177.619 10.196 177.619 9.7ZM189.624 4.636L186.9 9.844V13H185.808V9.844L183.072 4.636H184.284L186.348 8.872L188.412 4.636H189.624ZM193.644 13.108C193.028 13.108 192.468 12.968 191.964 12.688C191.468 12.408 191.076 12.012 190.788 11.5C190.508 10.98 190.368 10.38 190.368 9.7C190.368 9.028 190.512 8.436 190.8 7.924C191.096 7.404 191.496 7.008 192 6.736C192.504 6.456 193.068 6.316 193.692 6.316C194.316 6.316 194.88 6.456 195.384 6.736C195.888 7.008 196.284 7.4 196.572 7.912C196.868 8.424 197.016 9.02 197.016 9.7C197.016 10.38 196.864 10.98 196.56 11.5C196.264 12.012 195.86 12.408 195.348 12.688C194.836 12.968 194.268 13.108 193.644 13.108ZM193.644 12.148C194.036 12.148 194.404 12.056 194.748 11.872C195.092 11.688 195.368 11.412 195.576 11.044C195.792 10.676 195.9 10.228 195.9 9.7C195.9 9.172 195.796 8.724 195.588 8.356C195.38 7.988 195.108 7.716 194.772 7.54C194.436 7.356 194.072 7.264 193.68 7.264C193.28 7.264 192.912 7.356 192.576 7.54C192.248 7.716 191.984 7.988 191.784 8.356C191.584 8.724 191.484 9.172 191.484 9.7C191.484 10.236 191.58 10.688 191.772 11.056C191.972 11.424 192.236 11.7 192.564 11.884C192.892 12.06 193.252 12.148 193.644 12.148ZM204.283 6.424V13H203.191V12.028C202.983 12.364 202.691 12.628 202.315 12.82C201.947 13.004 201.539 13.096 201.091 13.096C200.579 13.096 200.119 12.992 199.711 12.784C199.303 12.568 198.979 12.248 198.739 11.824C198.507 11.4 198.391 10.884 198.391 10.276V6.424H199.471V10.132C199.471 10.78 199.635 11.28 199.963 11.632C200.291 11.976 200.739 12.148 201.307 12.148C201.891 12.148 202.351 11.968 202.687 11.608C203.023 11.248 203.191 10.724 203.191 10.036V6.424H204.283ZM207.219 7.492C207.411 7.116 207.683 6.824 208.035 6.616C208.395 6.408 208.831 6.304 209.343 6.304V7.432H209.055C207.831 7.432 207.219 8.096 207.219 9.424V13H206.127V6.424H207.219V7.492ZM219.395 7.084C219.395 7.78 219.155 8.36 218.675 8.824C218.203 9.28 217.479 9.508 216.503 9.508H214.895V13H213.803V4.636H216.503C217.447 4.636 218.163 4.864 218.651 5.32C219.147 5.776 219.395 6.364 219.395 7.084ZM216.503 8.608C217.111 8.608 217.559 8.476 217.847 8.212C218.135 7.948 218.279 7.572 218.279 7.084C218.279 6.052 217.687 5.536 216.503 5.536H214.895V8.608H216.503ZM221.844 7.492C222.036 7.116 222.308 6.824 222.66 6.616C223.02 6.408 223.456 6.304 223.968 6.304V7.432H223.68C222.456 7.432 221.844 8.096 221.844 9.424V13H220.752V6.424H221.844V7.492ZM228.097 13.108C227.481 13.108 226.921 12.968 226.417 12.688C225.921 12.408 225.529 12.012 225.241 11.5C224.961 10.98 224.821 10.38 224.821 9.7C224.821 9.028 224.965 8.436 225.253 7.924C225.549 7.404 225.949 7.008 226.453 6.736C226.957 6.456 227.521 6.316 228.145 6.316C228.769 6.316 229.333 6.456 229.837 6.736C230.341 7.008 230.737 7.4 231.025 7.912C231.321 8.424 231.469 9.02 231.469 9.7C231.469 10.38 231.317 10.98 231.013 11.5C230.717 12.012 230.313 12.408 229.801 12.688C229.289 12.968 228.721 13.108 228.097 13.108ZM228.097 12.148C228.489 12.148 228.857 12.056 229.201 11.872C229.545 11.688 229.821 11.412 230.029 11.044C230.245 10.676 230.353 10.228 230.353 9.7C230.353 9.172 230.249 8.724 230.041 8.356C229.833 7.988 229.561 7.716 229.225 7.54C228.889 7.356 228.525 7.264 228.133 7.264C227.733 7.264 227.365 7.356 227.029 7.54C226.701 7.716 226.437 7.988 226.237 8.356C226.037 8.724 225.937 9.172 225.937 9.7C225.937 10.236 226.033 10.688 226.225 11.056C226.425 11.424 226.689 11.7 227.017 11.884C227.345 12.06 227.705 12.148 228.097 12.148ZM235.58 7.324H234.2V13H233.108V7.324H232.256V6.424H233.108V5.956C233.108 5.22 233.296 4.684 233.672 4.348C234.056 4.004 234.668 3.832 235.508 3.832V4.744C235.028 4.744 234.688 4.84 234.488 5.032C234.296 5.216 234.2 5.524 234.2 5.956V6.424H235.58V7.324ZM237.418 5.356C237.21 5.356 237.034 5.284 236.89 5.14C236.746 4.996 236.674 4.82 236.674 4.612C236.674 4.404 236.746 4.228 236.89 4.084C237.034 3.94 237.21 3.868 237.418 3.868C237.618 3.868 237.786 3.94 237.922 4.084C238.066 4.228 238.138 4.404 238.138 4.612C238.138 4.82 238.066 4.996 237.922 5.14C237.786 5.284 237.618 5.356 237.418 5.356ZM237.946 6.424V13H236.854V6.424H237.946ZM240.899 4.12V13H239.807V4.12H240.899ZM248.76 9.46C248.76 9.668 248.748 9.888 248.724 10.12H243.468C243.508 10.768 243.728 11.276 244.128 11.644C244.536 12.004 245.028 12.184 245.604 12.184C246.076 12.184 246.468 12.076 246.78 11.86C247.1 11.636 247.324 11.34 247.452 10.972H248.628C248.452 11.604 248.1 12.12 247.572 12.52C247.044 12.912 246.388 13.108 245.604 13.108C244.98 13.108 244.42 12.968 243.924 12.688C243.436 12.408 243.052 12.012 242.772 11.5C242.492 10.98 242.352 10.38 242.352 9.7C242.352 9.02 242.488 8.424 242.76 7.912C243.032 7.4 243.412 7.008 243.9 6.736C244.396 6.456 244.964 6.316 245.604 6.316C246.228 6.316 246.78 6.452 247.26 6.724C247.74 6.996 248.108 7.372 248.364 7.852C248.628 8.324 248.76 8.86 248.76 9.46ZM247.632 9.232C247.632 8.816 247.54 8.46 247.356 8.164C247.172 7.86 246.92 7.632 246.6 7.48C246.288 7.32 245.94 7.24 245.556 7.24C245.004 7.24 244.532 7.416 244.14 7.768C243.756 8.12 243.536 8.608 243.48 9.232H247.632Z" fill="#2E2E2D"/>
<path d="M26.048 26.424V27.016H24.528V32H23.8V27.016H22.272V26.424H26.048ZM29.1201 27.536C29.4508 27.536 29.7495 27.608 30.0161 27.752C30.2828 27.8907 30.4908 28.1013 30.6401 28.384C30.7948 28.6667 30.8721 29.0107 30.8721 29.416V32H30.1521V29.52C30.1521 29.0827 30.0428 28.7493 29.8241 28.52C29.6055 28.2853 29.3068 28.168 28.9281 28.168C28.5441 28.168 28.2375 28.288 28.0081 28.528C27.7841 28.768 27.6721 29.1173 27.6721 29.576V32H26.9441V26.08H27.6721V28.24C27.8161 28.016 28.0135 27.8427 28.2641 27.72C28.5201 27.5973 28.8055 27.536 29.1201 27.536ZM32.4373 26.904C32.2986 26.904 32.1813 26.856 32.0853 26.76C31.9893 26.664 31.9413 26.5467 31.9413 26.408C31.9413 26.2693 31.9893 26.152 32.0853 26.056C32.1813 25.96 32.2986 25.912 32.4373 25.912C32.5706 25.912 32.6826 25.96 32.7733 26.056C32.8693 26.152 32.9173 26.2693 32.9173 26.408C32.9173 26.5467 32.8693 26.664 32.7733 26.76C32.6826 26.856 32.5706 26.904 32.4373 26.904ZM32.7893 27.616V32H32.0613V27.616H32.7893ZM35.5821 32.072C35.2461 32.072 34.9447 32.016 34.6781 31.904C34.4114 31.7867 34.2007 31.6267 34.0461 31.424C33.8914 31.216 33.8061 30.9787 33.7901 30.712H34.5421C34.5634 30.9307 34.6647 31.1093 34.8461 31.248C35.0327 31.3867 35.2754 31.456 35.5741 31.456C35.8514 31.456 36.0701 31.3947 36.2301 31.272C36.3901 31.1493 36.4701 30.9947 36.4701 30.808C36.4701 30.616 36.3847 30.4747 36.2141 30.384C36.0434 30.288 35.7794 30.1947 35.4221 30.104C35.0967 30.0187 34.8301 29.9333 34.6221 29.848C34.4194 29.7573 34.2434 29.6267 34.0941 29.456C33.9501 29.28 33.8781 29.0507 33.8781 28.768C33.8781 28.544 33.9447 28.3387 34.0781 28.152C34.2114 27.9653 34.4007 27.8187 34.6461 27.712C34.8914 27.6 35.1714 27.544 35.4861 27.544C35.9714 27.544 36.3634 27.6667 36.6621 27.912C36.9607 28.1573 37.1207 28.4933 37.1421 28.92H36.4141C36.3981 28.6907 36.3047 28.5067 36.1341 28.368C35.9687 28.2293 35.7447 28.16 35.4621 28.16C35.2007 28.16 34.9927 28.216 34.8381 28.328C34.6834 28.44 34.6061 28.5867 34.6061 28.768C34.6061 28.912 34.6514 29.032 34.7421 29.128C34.8381 29.2187 34.9554 29.2933 35.0941 29.352C35.2381 29.4053 35.4354 29.4667 35.6861 29.536C36.0007 29.6213 36.2567 29.7067 36.4541 29.792C36.6514 29.872 36.8194 29.9947 36.9581 30.16C37.1021 30.3253 37.1767 30.5413 37.1821 30.808C37.1821 31.048 37.1154 31.264 36.9821 31.456C36.8487 31.648 36.6594 31.8 36.4141 31.912C36.1741 32.0187 35.8967 32.072 35.5821 32.072ZM41.0881 29.792C41.0881 29.344 41.1788 28.952 41.3601 28.616C41.5415 28.2747 41.7895 28.0107 42.1041 27.824C42.4241 27.6373 42.7788 27.544 43.1681 27.544C43.5521 27.544 43.8855 27.6267 44.1681 27.792C44.4508 27.9573 44.6615 28.1653 44.8001 28.416V27.616H45.5361V32H44.8001V31.184C44.6561 31.44 44.4401 31.6533 44.1521 31.824C43.8695 31.9893 43.5388 32.072 43.1601 32.072C42.7708 32.072 42.4188 31.976 42.1041 31.784C41.7895 31.592 41.5415 31.3227 41.3601 30.976C41.1788 30.6293 41.0881 30.2347 41.0881 29.792ZM44.8001 29.8C44.8001 29.4693 44.7335 29.1813 44.6001 28.936C44.4668 28.6907 44.2855 28.504 44.0561 28.376C43.8321 28.2427 43.5841 28.176 43.3121 28.176C43.0401 28.176 42.7921 28.24 42.5681 28.368C42.3441 28.496 42.1655 28.6827 42.0321 28.928C41.8988 29.1733 41.8321 29.4613 41.8321 29.792C41.8321 30.128 41.8988 30.4213 42.0321 30.672C42.1655 30.9173 42.3441 31.1067 42.5681 31.24C42.7921 31.368 43.0401 31.432 43.3121 31.432C43.5841 31.432 43.8321 31.368 44.0561 31.24C44.2855 31.1067 44.4668 30.9173 44.6001 30.672C44.7335 30.4213 44.8001 30.1307 44.8001 29.8ZM46.4944 29.8C46.4944 29.3467 46.5851 28.952 46.7664 28.616C46.9477 28.2747 47.1984 28.0107 47.5184 27.824C47.8437 27.6373 48.2144 27.544 48.6304 27.544C49.1691 27.544 49.6117 27.6747 49.9584 27.936C50.3104 28.1973 50.5424 28.56 50.6544 29.024H49.8704C49.7957 28.7573 49.6491 28.5467 49.4304 28.392C49.2171 28.2373 48.9504 28.16 48.6304 28.16C48.2144 28.16 47.8784 28.304 47.6224 28.592C47.3664 28.8747 47.2384 29.2773 47.2384 29.8C47.2384 30.328 47.3664 30.736 47.6224 31.024C47.8784 31.312 48.2144 31.456 48.6304 31.456C48.9504 31.456 49.2171 31.3813 49.4304 31.232C49.6437 31.0827 49.7904 30.8693 49.8704 30.592H50.6544C50.5371 31.04 50.3024 31.4 49.9504 31.672C49.5984 31.9387 49.1584 32.072 48.6304 32.072C48.2144 32.072 47.8437 31.9787 47.5184 31.792C47.1984 31.6053 46.9477 31.3413 46.7664 31C46.5851 30.6587 46.4944 30.2587 46.4944 29.8ZM52.5138 28.216V30.8C52.5138 31.0133 52.5591 31.1653 52.6498 31.256C52.7404 31.3413 52.8978 31.384 53.1218 31.384H53.6578V32H53.0018C52.5964 32 52.2924 31.9067 52.0898 31.72C51.8871 31.5333 51.7858 31.2267 51.7858 30.8V28.216H51.2178V27.616H51.7858V26.512H52.5138V27.616H53.6578V28.216H52.5138ZM54.9158 26.904C54.7772 26.904 54.6598 26.856 54.5638 26.76C54.4678 26.664 54.4198 26.5467 54.4198 26.408C54.4198 26.2693 54.4678 26.152 54.5638 26.056C54.6598 25.96 54.7772 25.912 54.9158 25.912C55.0492 25.912 55.1612 25.96 55.2518 26.056C55.3478 26.152 55.3958 26.2693 55.3958 26.408C55.3958 26.5467 55.3478 26.664 55.2518 26.76C55.1612 26.856 55.0492 26.904 54.9158 26.904ZM55.2678 27.616V32H54.5398V27.616H55.2678ZM58.4206 32.072C58.0099 32.072 57.6366 31.9787 57.3006 31.792C56.9699 31.6053 56.7086 31.3413 56.5166 31C56.3299 30.6533 56.2366 30.2533 56.2366 29.8C56.2366 29.352 56.3326 28.9573 56.5246 28.616C56.7219 28.2693 56.9886 28.0053 57.3246 27.824C57.6606 27.6373 58.0366 27.544 58.4526 27.544C58.8686 27.544 59.2446 27.6373 59.5806 27.824C59.9166 28.0053 60.1806 28.2667 60.3726 28.608C60.5699 28.9493 60.6686 29.3467 60.6686 29.8C60.6686 30.2533 60.5672 30.6533 60.3646 31C60.1672 31.3413 59.8979 31.6053 59.5566 31.792C59.2152 31.9787 58.8366 32.072 58.4206 32.072ZM58.4206 31.432C58.6819 31.432 58.9272 31.3707 59.1566 31.248C59.3859 31.1253 59.5699 30.9413 59.7086 30.696C59.8526 30.4507 59.9246 30.152 59.9246 29.8C59.9246 29.448 59.8552 29.1493 59.7166 28.904C59.5779 28.6587 59.3966 28.4773 59.1726 28.36C58.9486 28.2373 58.7059 28.176 58.4446 28.176C58.1779 28.176 57.9326 28.2373 57.7086 28.36C57.4899 28.4773 57.3139 28.6587 57.1806 28.904C57.0472 29.1493 56.9806 29.448 56.9806 29.8C56.9806 30.1573 57.0446 30.4587 57.1726 30.704C57.3059 30.9493 57.4819 31.1333 57.7006 31.256C57.9192 31.3733 58.1592 31.432 58.4206 31.432ZM63.7618 27.536C64.2951 27.536 64.7271 27.6987 65.0578 28.024C65.3884 28.344 65.5538 28.808 65.5538 29.416V32H64.8338V29.52C64.8338 29.0827 64.7244 28.7493 64.5058 28.52C64.2871 28.2853 63.9884 28.168 63.6098 28.168C63.2258 28.168 62.9191 28.288 62.6898 28.528C62.4658 28.768 62.3538 29.1173 62.3538 29.576V32H61.6258V27.616H62.3538V28.24C62.4978 28.016 62.6924 27.8427 62.9378 27.72C63.1884 27.5973 63.4631 27.536 63.7618 27.536ZM75.7333 27.616L74.3653 32H73.6133L72.5573 28.52L71.5013 32H70.7493L69.3733 27.616H70.1173L71.1253 31.296L72.2133 27.616H72.9573L74.0213 31.304L75.0133 27.616H75.7333ZM76.8318 26.904C76.6932 26.904 76.5758 26.856 76.4798 26.76C76.3838 26.664 76.3358 26.5467 76.3358 26.408C76.3358 26.2693 76.3838 26.152 76.4798 26.056C76.5758 25.96 76.6932 25.912 76.8318 25.912C76.9652 25.912 77.0772 25.96 77.1678 26.056C77.2638 26.152 77.3118 26.2693 77.3118 26.408C77.3118 26.5467 77.2638 26.664 77.1678 26.76C77.0772 26.856 76.9652 26.904 76.8318 26.904ZM77.1838 27.616V32H76.4558V27.616H77.1838ZM79.1526 26.08V32H78.4246V26.08H79.1526ZM81.1213 26.08V32H80.3933V26.08H81.1213ZM86.2405 28.328C86.3685 28.0773 86.5498 27.8827 86.7845 27.744C87.0245 27.6053 87.3152 27.536 87.6565 27.536V28.288H87.4645C86.6485 28.288 86.2405 28.7307 86.2405 29.616V32H85.5125V27.616H86.2405V28.328ZM92.4969 29.64C92.4969 29.7787 92.4889 29.9253 92.4729 30.08H88.9689C88.9955 30.512 89.1422 30.8507 89.4089 31.096C89.6809 31.336 90.0089 31.456 90.3929 31.456C90.7075 31.456 90.9689 31.384 91.1769 31.24C91.3902 31.0907 91.5395 30.8933 91.6249 30.648H92.4089C92.2915 31.0693 92.0569 31.4133 91.7049 31.68C91.3529 31.9413 90.9155 32.072 90.3929 32.072C89.9769 32.072 89.6035 31.9787 89.2729 31.792C88.9475 31.6053 88.6915 31.3413 88.5049 31C88.3182 30.6533 88.2249 30.2533 88.2249 29.8C88.2249 29.3467 88.3155 28.9493 88.4969 28.608C88.6782 28.2667 88.9315 28.0053 89.2569 27.824C89.5875 27.6373 89.9662 27.544 90.3929 27.544C90.8089 27.544 91.1769 27.6347 91.4969 27.816C91.8169 27.9973 92.0622 28.248 92.2329 28.568C92.4089 28.8827 92.4969 29.24 92.4969 29.64ZM91.7449 29.488C91.7449 29.2107 91.6835 28.9733 91.5609 28.776C91.4382 28.5733 91.2702 28.4213 91.0569 28.32C90.8489 28.2133 90.6169 28.16 90.3609 28.16C89.9929 28.16 89.6782 28.2773 89.4169 28.512C89.1609 28.7467 89.0142 29.072 88.9769 29.488H91.7449ZM95.2418 28.216H94.3218V32H93.5938V28.216H93.0258V27.616H93.5938V27.304C93.5938 26.8133 93.7191 26.456 93.9698 26.232C94.2258 26.0027 94.6338 25.888 95.1938 25.888V26.496C94.8738 26.496 94.6471 26.56 94.5138 26.688C94.3858 26.8107 94.3218 27.016 94.3218 27.304V27.616H95.2418V28.216ZM96.8186 26.08V32H96.0906V26.08H96.8186ZM102.059 29.64C102.059 29.7787 102.051 29.9253 102.035 30.08H98.5314C98.558 30.512 98.7047 30.8507 98.9714 31.096C99.2434 31.336 99.5714 31.456 99.9554 31.456C100.27 31.456 100.531 31.384 100.739 31.24C100.953 31.0907 101.102 30.8933 101.187 30.648H101.971C101.854 31.0693 101.619 31.4133 101.267 31.68C100.915 31.9413 100.478 32.072 99.9554 32.072C99.5394 32.072 99.166 31.9787 98.8354 31.792C98.51 31.6053 98.254 31.3413 98.0674 31C97.8807 30.6533 97.7874 30.2533 97.7874 29.8C97.7874 29.3467 97.878 28.9493 98.0594 28.608C98.2407 28.2667 98.494 28.0053 98.8194 27.824C99.15 27.6373 99.5287 27.544 99.9554 27.544C100.371 27.544 100.739 27.6347 101.059 27.816C101.379 27.9973 101.625 28.248 101.795 28.568C101.971 28.8827 102.059 29.24 102.059 29.64ZM101.307 29.488C101.307 29.2107 101.246 28.9733 101.123 28.776C101.001 28.5733 100.833 28.4213 100.619 28.32C100.411 28.2133 100.179 28.16 99.9234 28.16C99.5554 28.16 99.2407 28.2773 98.9794 28.512C98.7234 28.7467 98.5767 29.072 98.5394 29.488H101.307ZM102.748 29.8C102.748 29.3467 102.839 28.952 103.02 28.616C103.202 28.2747 103.452 28.0107 103.772 27.824C104.098 27.6373 104.468 27.544 104.884 27.544C105.423 27.544 105.866 27.6747 106.212 27.936C106.564 28.1973 106.796 28.56 106.908 29.024H106.124C106.05 28.7573 105.903 28.5467 105.684 28.392C105.471 28.2373 105.204 28.16 104.884 28.16C104.468 28.16 104.132 28.304 103.876 28.592C103.62 28.8747 103.492 29.2773 103.492 29.8C103.492 30.328 103.62 30.736 103.876 31.024C104.132 31.312 104.468 31.456 104.884 31.456C105.204 31.456 105.471 31.3813 105.684 31.232C105.898 31.0827 106.044 30.8693 106.124 30.592H106.908C106.791 31.04 106.556 31.4 106.204 31.672C105.852 31.9387 105.412 32.072 104.884 32.072C104.468 32.072 104.098 31.9787 103.772 31.792C103.452 31.6053 103.202 31.3413 103.02 31C102.839 30.6587 102.748 30.2587 102.748 29.8ZM108.768 28.216V30.8C108.768 31.0133 108.813 31.1653 108.904 31.256C108.994 31.3413 109.152 31.384 109.376 31.384H109.912V32H109.256C108.85 32 108.546 31.9067 108.344 31.72C108.141 31.5333 108.04 31.2267 108.04 30.8V28.216H107.472V27.616H108.04V26.512H108.768V27.616H109.912V28.216H108.768ZM114.32 26.904C114.181 26.904 114.064 26.856 113.968 26.76C113.872 26.664 113.824 26.5467 113.824 26.408C113.824 26.2693 113.872 26.152 113.968 26.056C114.064 25.96 114.181 25.912 114.32 25.912C114.453 25.912 114.565 25.96 114.656 26.056C114.752 26.152 114.8 26.2693 114.8 26.408C114.8 26.5467 114.752 26.664 114.656 26.76C114.565 26.856 114.453 26.904 114.32 26.904ZM114.672 27.616V32H113.944V27.616H114.672ZM118.049 27.536C118.582 27.536 119.014 27.6987 119.345 28.024C119.676 28.344 119.841 28.808 119.841 29.416V32H119.121V29.52C119.121 29.0827 119.012 28.7493 118.793 28.52C118.574 28.2853 118.276 28.168 117.897 28.168C117.513 28.168 117.206 28.288 116.977 28.528C116.753 28.768 116.641 29.1173 116.641 29.576V32H115.913V27.616H116.641V28.24C116.785 28.016 116.98 27.8427 117.225 27.72C117.476 27.5973 117.75 27.536 118.049 27.536ZM127.956 27.616L125.316 34.064H124.564L125.428 31.952L123.66 27.616H124.468L125.844 31.168L127.204 27.616H127.956ZM130.6 32.072C130.19 32.072 129.816 31.9787 129.48 31.792C129.15 31.6053 128.888 31.3413 128.696 31C128.51 30.6533 128.416 30.2533 128.416 29.8C128.416 29.352 128.512 28.9573 128.704 28.616C128.902 28.2693 129.168 28.0053 129.504 27.824C129.84 27.6373 130.216 27.544 130.632 27.544C131.048 27.544 131.424 27.6373 131.76 27.824C132.096 28.0053 132.36 28.2667 132.552 28.608C132.75 28.9493 132.848 29.3467 132.848 29.8C132.848 30.2533 132.747 30.6533 132.544 31C132.347 31.3413 132.078 31.6053 131.736 31.792C131.395 31.9787 131.016 32.072 130.6 32.072ZM130.6 31.432C130.862 31.432 131.107 31.3707 131.336 31.248C131.566 31.1253 131.75 30.9413 131.888 30.696C132.032 30.4507 132.104 30.152 132.104 29.8C132.104 29.448 132.035 29.1493 131.896 28.904C131.758 28.6587 131.576 28.4773 131.352 28.36C131.128 28.2373 130.886 28.176 130.624 28.176C130.358 28.176 130.112 28.2373 129.888 28.36C129.67 28.4773 129.494 28.6587 129.36 28.904C129.227 29.1493 129.16 29.448 129.16 29.8C129.16 30.1573 129.224 30.4587 129.352 30.704C129.486 30.9493 129.662 31.1333 129.88 31.256C130.099 31.3733 130.339 31.432 130.6 31.432ZM137.693 27.616V32H136.965V31.352C136.827 31.576 136.632 31.752 136.381 31.88C136.136 32.0027 135.864 32.064 135.565 32.064C135.224 32.064 134.917 31.9947 134.645 31.856C134.373 31.712 134.157 31.4987 133.997 31.216C133.843 30.9333 133.765 30.5893 133.765 30.184V27.616H134.485V30.088C134.485 30.52 134.595 30.8533 134.813 31.088C135.032 31.3173 135.331 31.432 135.709 31.432C136.099 31.432 136.405 31.312 136.629 31.072C136.853 30.832 136.965 30.4827 136.965 30.024V27.616H137.693ZM139.651 28.328C139.779 28.0773 139.96 27.8827 140.195 27.744C140.435 27.6053 140.725 27.536 141.067 27.536V28.288H140.875C140.059 28.288 139.651 28.7307 139.651 29.616V32H138.923V27.616H139.651V28.328ZM144.785 29.792C144.785 29.344 144.876 28.952 145.057 28.616C145.239 28.2747 145.487 28.0107 145.801 27.824C146.121 27.6373 146.476 27.544 146.865 27.544C147.249 27.544 147.583 27.6267 147.865 27.792C148.148 27.9573 148.359 28.1653 148.497 28.416V27.616H149.233V32H148.497V31.184C148.353 31.44 148.137 31.6533 147.849 31.824C147.567 31.9893 147.236 32.072 146.857 32.072C146.468 32.072 146.116 31.976 145.801 31.784C145.487 31.592 145.239 31.3227 145.057 30.976C144.876 30.6293 144.785 30.2347 144.785 29.792ZM148.497 29.8C148.497 29.4693 148.431 29.1813 148.297 28.936C148.164 28.6907 147.983 28.504 147.753 28.376C147.529 28.2427 147.281 28.176 147.009 28.176C146.737 28.176 146.489 28.24 146.265 28.368C146.041 28.496 145.863 28.6827 145.729 28.928C145.596 29.1733 145.529 29.4613 145.529 29.792C145.529 30.128 145.596 30.4213 145.729 30.672C145.863 30.9173 146.041 31.1067 146.265 31.24C146.489 31.368 146.737 31.432 147.009 31.432C147.281 31.432 147.529 31.368 147.753 31.24C147.983 31.1067 148.164 30.9173 148.297 30.672C148.431 30.4213 148.497 30.1307 148.497 29.8ZM150.192 29.8C150.192 29.3467 150.282 28.952 150.464 28.616C150.645 28.2747 150.896 28.0107 151.216 27.824C151.541 27.6373 151.912 27.544 152.328 27.544C152.866 27.544 153.309 27.6747 153.656 27.936C154.008 28.1973 154.24 28.56 154.352 29.024H153.568C153.493 28.7573 153.346 28.5467 153.128 28.392C152.914 28.2373 152.648 28.16 152.328 28.16C151.912 28.16 151.576 28.304 151.32 28.592C151.064 28.8747 150.936 29.2773 150.936 29.8C150.936 30.328 151.064 30.736 151.32 31.024C151.576 31.312 151.912 31.456 152.328 31.456C152.648 31.456 152.914 31.3813 153.128 31.232C153.341 31.0827 153.488 30.8693 153.568 30.592H154.352C154.234 31.04 154 31.4 153.648 31.672C153.296 31.9387 152.856 32.072 152.328 32.072C151.912 32.072 151.541 31.9787 151.216 31.792C150.896 31.6053 150.645 31.3413 150.464 31C150.282 30.6587 150.192 30.2587 150.192 29.8ZM156.211 28.216V30.8C156.211 31.0133 156.256 31.1653 156.347 31.256C156.438 31.3413 156.595 31.384 156.819 31.384H157.355V32H156.699C156.294 32 155.99 31.9067 155.787 31.72C155.584 31.5333 155.483 31.2267 155.483 30.8V28.216H154.915V27.616H155.483V26.512H156.211V27.616H157.355V28.216H156.211ZM158.613 26.904C158.474 26.904 158.357 26.856 158.261 26.76C158.165 26.664 158.117 26.5467 158.117 26.408C158.117 26.2693 158.165 26.152 158.261 26.056C158.357 25.96 158.474 25.912 158.613 25.912C158.746 25.912 158.858 25.96 158.949 26.056C159.045 26.152 159.093 26.2693 159.093 26.408C159.093 26.5467 159.045 26.664 158.949 26.76C158.858 26.856 158.746 26.904 158.613 26.904ZM158.965 27.616V32H158.237V27.616H158.965ZM161.838 31.328L163.198 27.616H163.974L162.254 32H161.406L159.686 27.616H160.47L161.838 31.328ZM165.066 26.904C164.928 26.904 164.81 26.856 164.714 26.76C164.618 26.664 164.57 26.5467 164.57 26.408C164.57 26.2693 164.618 26.152 164.714 26.056C164.81 25.96 164.928 25.912 165.066 25.912C165.2 25.912 165.312 25.96 165.402 26.056C165.498 26.152 165.546 26.2693 165.546 26.408C165.546 26.5467 165.498 26.664 165.402 26.76C165.312 26.856 165.2 26.904 165.066 26.904ZM165.418 27.616V32H164.69V27.616H165.418ZM167.547 28.216V30.8C167.547 31.0133 167.592 31.1653 167.683 31.256C167.774 31.3413 167.931 31.384 168.155 31.384H168.691V32H168.035C167.63 32 167.326 31.9067 167.123 31.72C166.92 31.5333 166.819 31.2267 166.819 30.8V28.216H166.251V27.616H166.819V26.512H167.547V27.616H168.691V28.216H167.547ZM169.949 26.904C169.81 26.904 169.693 26.856 169.597 26.76C169.501 26.664 169.453 26.5467 169.453 26.408C169.453 26.2693 169.501 26.152 169.597 26.056C169.693 25.96 169.81 25.912 169.949 25.912C170.082 25.912 170.194 25.96 170.285 26.056C170.381 26.152 170.429 26.2693 170.429 26.408C170.429 26.5467 170.381 26.664 170.285 26.76C170.194 26.856 170.082 26.904 169.949 26.904ZM170.301 27.616V32H169.573V27.616H170.301ZM175.542 29.64C175.542 29.7787 175.534 29.9253 175.518 30.08H172.014C172.04 30.512 172.187 30.8507 172.454 31.096C172.726 31.336 173.054 31.456 173.438 31.456C173.752 31.456 174.014 31.384 174.222 31.24C174.435 31.0907 174.584 30.8933 174.67 30.648H175.454C175.336 31.0693 175.102 31.4133 174.75 31.68C174.398 31.9413 173.96 32.072 173.438 32.072C173.022 32.072 172.648 31.9787 172.318 31.792C171.992 31.6053 171.736 31.3413 171.55 31C171.363 30.6533 171.27 30.2533 171.27 29.8C171.27 29.3467 171.36 28.9493 171.542 28.608C171.723 28.2667 171.976 28.0053 172.302 27.824C172.632 27.6373 173.011 27.544 173.438 27.544C173.854 27.544 174.222 27.6347 174.542 27.816C174.862 27.9973 175.107 28.248 175.278 28.568C175.454 28.8827 175.542 29.24 175.542 29.64ZM174.79 29.488C174.79 29.2107 174.728 28.9733 174.606 28.776C174.483 28.5733 174.315 28.4213 174.102 28.32C173.894 28.2133 173.662 28.16 173.406 28.16C173.038 28.16 172.723 28.2773 172.462 28.512C172.206 28.7467 172.059 29.072 172.022 29.488H174.79ZM178.055 32.072C177.719 32.072 177.417 32.016 177.151 31.904C176.884 31.7867 176.673 31.6267 176.519 31.424C176.364 31.216 176.279 30.9787 176.263 30.712H177.015C177.036 30.9307 177.137 31.1093 177.319 31.248C177.505 31.3867 177.748 31.456 178.047 31.456C178.324 31.456 178.543 31.3947 178.703 31.272C178.863 31.1493 178.943 30.9947 178.943 30.808C178.943 30.616 178.857 30.4747 178.687 30.384C178.516 30.288 178.252 30.1947 177.895 30.104C177.569 30.0187 177.303 29.9333 177.095 29.848C176.892 29.7573 176.716 29.6267 176.567 29.456C176.423 29.28 176.351 29.0507 176.351 28.768C176.351 28.544 176.417 28.3387 176.551 28.152C176.684 27.9653 176.873 27.8187 177.119 27.712C177.364 27.6 177.644 27.544 177.959 27.544C178.444 27.544 178.836 27.6667 179.135 27.912C179.433 28.1573 179.593 28.4933 179.615 28.92H178.887C178.871 28.6907 178.777 28.5067 178.607 28.368C178.441 28.2293 178.217 28.16 177.935 28.16C177.673 28.16 177.465 28.216 177.311 28.328C177.156 28.44 177.079 28.5867 177.079 28.768C177.079 28.912 177.124 29.032 177.215 29.128C177.311 29.2187 177.428 29.2933 177.567 29.352C177.711 29.4053 177.908 29.4667 178.159 29.536C178.473 29.6213 178.729 29.7067 178.927 29.792C179.124 29.872 179.292 29.9947 179.431 30.16C179.575 30.3253 179.649 30.5413 179.655 30.808C179.655 31.048 179.588 31.264 179.455 31.456C179.321 31.648 179.132 31.8 178.887 31.912C178.647 32.0187 178.369 32.072 178.055 32.072ZM183.561 29.792C183.561 29.344 183.651 28.952 183.833 28.616C184.014 28.2747 184.262 28.0107 184.577 27.824C184.897 27.6373 185.251 27.544 185.641 27.544C186.025 27.544 186.358 27.6267 186.641 27.792C186.923 27.9573 187.134 28.1653 187.273 28.416V27.616H188.009V32H187.273V31.184C187.129 31.44 186.913 31.6533 186.625 31.824C186.342 31.9893 186.011 32.072 185.633 32.072C185.243 32.072 184.891 31.976 184.577 31.784C184.262 31.592 184.014 31.3227 183.833 30.976C183.651 30.6293 183.561 30.2347 183.561 29.792ZM187.273 29.8C187.273 29.4693 187.206 29.1813 187.073 28.936C186.939 28.6907 186.758 28.504 186.529 28.376C186.305 28.2427 186.057 28.176 185.785 28.176C185.513 28.176 185.265 28.24 185.041 28.368C184.817 28.496 184.638 28.6827 184.505 28.928C184.371 29.1733 184.305 29.4613 184.305 29.792C184.305 30.128 184.371 30.4213 184.505 30.672C184.638 30.9173 184.817 31.1067 185.041 31.24C185.265 31.368 185.513 31.432 185.785 31.432C186.057 31.432 186.305 31.368 186.529 31.24C186.758 31.1067 186.939 30.9173 187.073 30.672C187.206 30.4213 187.273 30.1307 187.273 29.8ZM191.375 27.536C191.908 27.536 192.34 27.6987 192.671 28.024C193.002 28.344 193.167 28.808 193.167 29.416V32H192.447V29.52C192.447 29.0827 192.338 28.7493 192.119 28.52C191.9 28.2853 191.602 28.168 191.223 28.168C190.839 28.168 190.532 28.288 190.303 28.528C190.079 28.768 189.967 29.1173 189.967 29.576V32H189.239V27.616H189.967V28.24C190.111 28.016 190.306 27.8427 190.551 27.72C190.802 27.5973 191.076 27.536 191.375 27.536ZM194.084 29.792C194.084 29.344 194.175 28.952 194.356 28.616C194.538 28.2747 194.786 28.0107 195.1 27.824C195.42 27.6373 195.778 27.544 196.172 27.544C196.514 27.544 196.831 27.624 197.124 27.784C197.418 27.9387 197.642 28.144 197.796 28.4V26.08H198.532V32H197.796V31.176C197.652 31.4373 197.439 31.6533 197.156 31.824C196.874 31.9893 196.543 32.072 196.164 32.072C195.775 32.072 195.42 31.976 195.1 31.784C194.786 31.592 194.538 31.3227 194.356 30.976C194.175 30.6293 194.084 30.2347 194.084 29.792ZM197.796 29.8C197.796 29.4693 197.73 29.1813 197.596 28.936C197.463 28.6907 197.282 28.504 197.052 28.376C196.828 28.2427 196.58 28.176 196.308 28.176C196.036 28.176 195.788 28.24 195.564 28.368C195.34 28.496 195.162 28.6827 195.028 28.928C194.895 29.1733 194.828 29.4613 194.828 29.792C194.828 30.128 194.895 30.4213 195.028 30.672C195.162 30.9173 195.34 31.1067 195.564 31.24C195.788 31.368 196.036 31.432 196.308 31.432C196.58 31.432 196.828 31.368 197.052 31.24C197.282 31.1067 197.463 30.9173 197.596 30.672C197.73 30.4213 197.796 30.1307 197.796 29.8ZM203.641 28.424C203.785 28.1733 203.998 27.9653 204.281 27.8C204.569 27.6293 204.902 27.544 205.281 27.544C205.67 27.544 206.022 27.6373 206.337 27.824C206.657 28.0107 206.908 28.2747 207.089 28.616C207.27 28.952 207.361 29.344 207.361 29.792C207.361 30.2347 207.27 30.6293 207.089 30.976C206.908 31.3227 206.657 31.592 206.337 31.784C206.022 31.976 205.67 32.072 205.281 32.072C204.908 32.072 204.577 31.9893 204.289 31.824C204.006 31.6533 203.79 31.4427 203.641 31.192V34.08H202.913V27.616H203.641V28.424ZM206.617 29.792C206.617 29.4613 206.55 29.1733 206.417 28.928C206.284 28.6827 206.102 28.496 205.873 28.368C205.649 28.24 205.401 28.176 205.129 28.176C204.862 28.176 204.614 28.2427 204.385 28.376C204.161 28.504 203.98 28.6933 203.841 28.944C203.708 29.1893 203.641 29.4747 203.641 29.8C203.641 30.1307 203.708 30.4213 203.841 30.672C203.98 30.9173 204.161 31.1067 204.385 31.24C204.614 31.368 204.862 31.432 205.129 31.432C205.401 31.432 205.649 31.368 205.873 31.24C206.102 31.1067 206.284 30.9173 206.417 30.672C206.55 30.4213 206.617 30.128 206.617 29.792ZM208.047 29.792C208.047 29.344 208.138 28.952 208.319 28.616C208.5 28.2747 208.748 28.0107 209.063 27.824C209.383 27.6373 209.738 27.544 210.127 27.544C210.511 27.544 210.844 27.6267 211.127 27.792C211.41 27.9573 211.62 28.1653 211.759 28.416V27.616H212.495V32H211.759V31.184C211.615 31.44 211.399 31.6533 211.111 31.824C210.828 31.9893 210.498 32.072 210.119 32.072C209.73 32.072 209.378 31.976 209.063 31.784C208.748 31.592 208.5 31.3227 208.319 30.976C208.138 30.6293 208.047 30.2347 208.047 29.792ZM211.759 29.8C211.759 29.4693 211.692 29.1813 211.559 28.936C211.426 28.6907 211.244 28.504 211.015 28.376C210.791 28.2427 210.543 28.176 210.271 28.176C209.999 28.176 209.751 28.24 209.527 28.368C209.303 28.496 209.124 28.6827 208.991 28.928C208.858 29.1733 208.791 29.4613 208.791 29.792C208.791 30.128 208.858 30.4213 208.991 30.672C209.124 30.9173 209.303 31.1067 209.527 31.24C209.751 31.368 209.999 31.432 210.271 31.432C210.543 31.432 210.791 31.368 211.015 31.24C211.244 31.1067 211.426 30.9173 211.559 30.672C211.692 30.4213 211.759 30.1307 211.759 29.8ZM217.501 27.616L214.861 34.064H214.109L214.973 31.952L213.205 27.616H214.013L215.389 31.168L216.749 27.616H217.501ZM223.505 27.536C223.847 27.536 224.151 27.608 224.417 27.752C224.684 27.8907 224.895 28.1013 225.049 28.384C225.204 28.6667 225.281 29.0107 225.281 29.416V32H224.561V29.52C224.561 29.0827 224.452 28.7493 224.233 28.52C224.02 28.2853 223.729 28.168 223.361 28.168C222.983 28.168 222.681 28.2907 222.457 28.536C222.233 28.776 222.121 29.1253 222.121 29.584V32H221.401V29.52C221.401 29.0827 221.292 28.7493 221.073 28.52C220.86 28.2853 220.569 28.168 220.201 28.168C219.823 28.168 219.521 28.2907 219.297 28.536C219.073 28.776 218.961 29.1253 218.961 29.584V32H218.233V27.616H218.961V28.248C219.105 28.0187 219.297 27.8427 219.537 27.72C219.783 27.5973 220.052 27.536 220.345 27.536C220.713 27.536 221.039 27.6187 221.321 27.784C221.604 27.9493 221.815 28.192 221.953 28.512C222.076 28.2027 222.279 27.9627 222.561 27.792C222.844 27.6213 223.159 27.536 223.505 27.536ZM230.475 29.64C230.475 29.7787 230.467 29.9253 230.451 30.08H226.947C226.974 30.512 227.121 30.8507 227.387 31.096C227.659 31.336 227.987 31.456 228.371 31.456C228.686 31.456 228.947 31.384 229.155 31.24C229.369 31.0907 229.518 30.8933 229.603 30.648H230.387C230.27 31.0693 230.035 31.4133 229.683 31.68C229.331 31.9413 228.894 32.072 228.371 32.072C227.955 32.072 227.582 31.9787 227.251 31.792C226.926 31.6053 226.67 31.3413 226.483 31C226.297 30.6533 226.203 30.2533 226.203 29.8C226.203 29.3467 226.294 28.9493 226.475 28.608C226.657 28.2667 226.91 28.0053 227.235 27.824C227.566 27.6373 227.945 27.544 228.371 27.544C228.787 27.544 229.155 27.6347 229.475 27.816C229.795 27.9973 230.041 28.248 230.211 28.568C230.387 28.8827 230.475 29.24 230.475 29.64ZM229.723 29.488C229.723 29.2107 229.662 28.9733 229.539 28.776C229.417 28.5733 229.249 28.4213 229.035 28.32C228.827 28.2133 228.595 28.16 228.339 28.16C227.971 28.16 227.657 28.2773 227.395 28.512C227.139 28.7467 226.993 29.072 226.955 29.488H229.723ZM233.572 27.536C234.106 27.536 234.538 27.6987 234.868 28.024C235.199 28.344 235.364 28.808 235.364 29.416V32H234.644V29.52C234.644 29.0827 234.535 28.7493 234.316 28.52C234.098 28.2853 233.799 28.168 233.42 28.168C233.036 28.168 232.73 28.288 232.5 28.528C232.276 28.768 232.164 29.1173 232.164 29.576V32H231.436V27.616H232.164V28.24C232.308 28.016 232.503 27.8427 232.748 27.72C232.999 27.5973 233.274 27.536 233.572 27.536ZM237.442 28.216V30.8C237.442 31.0133 237.487 31.1653 237.578 31.256C237.668 31.3413 237.826 31.384 238.049 31.384H238.586V32H237.93C237.524 32 237.22 31.9067 237.018 31.72C236.815 31.5333 236.714 31.2267 236.714 30.8V28.216H236.146V27.616H236.714V26.512H237.442V27.616H238.586V28.216H237.442ZM241.02 32.072C240.684 32.072 240.382 32.016 240.116 31.904C239.849 31.7867 239.638 31.6267 239.484 31.424C239.329 31.216 239.244 30.9787 239.228 30.712H239.98C240.001 30.9307 240.102 31.1093 240.284 31.248C240.47 31.3867 240.713 31.456 241.012 31.456C241.289 31.456 241.508 31.3947 241.668 31.272C241.828 31.1493 241.908 30.9947 241.908 30.808C241.908 30.616 241.822 30.4747 241.652 30.384C241.481 30.288 241.217 30.1947 240.86 30.104C240.534 30.0187 240.268 29.9333 240.06 29.848C239.857 29.7573 239.681 29.6267 239.532 29.456C239.388 29.28 239.316 29.0507 239.316 28.768C239.316 28.544 239.382 28.3387 239.516 28.152C239.649 27.9653 239.838 27.8187 240.084 27.712C240.329 27.6 240.609 27.544 240.924 27.544C241.409 27.544 241.801 27.6667 242.1 27.912C242.398 28.1573 242.558 28.4933 242.58 28.92H241.852C241.836 28.6907 241.742 28.5067 241.572 28.368C241.406 28.2293 241.182 28.16 240.9 28.16C240.638 28.16 240.43 28.216 240.276 28.328C240.121 28.44 240.044 28.5867 240.044 28.768C240.044 28.912 240.089 29.032 240.18 29.128C240.276 29.2187 240.393 29.2933 240.532 29.352C240.676 29.4053 240.873 29.4667 241.124 29.536C241.438 29.6213 241.694 29.7067 241.892 29.792C242.089 29.872 242.257 29.9947 242.396 30.16C242.54 30.3253 242.614 30.5413 242.62 30.808C242.62 31.048 242.553 31.264 242.42 31.456C242.286 31.648 242.097 31.8 241.852 31.912C241.612 32.0187 241.334 32.072 241.02 32.072ZM246.526 29.792C246.526 29.344 246.616 28.952 246.798 28.616C246.979 28.2747 247.227 28.0107 247.542 27.824C247.862 27.6373 248.216 27.544 248.606 27.544C248.99 27.544 249.323 27.6267 249.606 27.792C249.888 27.9573 250.099 28.1653 250.238 28.416V27.616H250.974V32H250.238V31.184C250.094 31.44 249.878 31.6533 249.59 31.824C249.307 31.9893 248.976 32.072 248.598 32.072C248.208 32.072 247.856 31.976 247.542 31.784C247.227 31.592 246.979 31.3227 246.798 30.976C246.616 30.6293 246.526 30.2347 246.526 29.792ZM250.238 29.8C250.238 29.4693 250.171 29.1813 250.038 28.936C249.904 28.6907 249.723 28.504 249.494 28.376C249.27 28.2427 249.022 28.176 248.75 28.176C248.478 28.176 248.23 28.24 248.006 28.368C247.782 28.496 247.603 28.6827 247.47 28.928C247.336 29.1733 247.27 29.4613 247.27 29.792C247.27 30.128 247.336 30.4213 247.47 30.672C247.603 30.9173 247.782 31.1067 248.006 31.24C248.23 31.368 248.478 31.432 248.75 31.432C249.022 31.432 249.27 31.368 249.494 31.24C249.723 31.1067 249.904 30.9173 250.038 30.672C250.171 30.4213 250.238 30.1307 250.238 29.8ZM253.988 28.216H253.068V32H252.34V28.216H251.772V27.616H252.34V27.304C252.34 26.8133 252.465 26.456 252.716 26.232C252.972 26.0027 253.38 25.888 253.94 25.888V26.496C253.62 26.496 253.393 26.56 253.26 26.688C253.132 26.8107 253.068 27.016 253.068 27.304V27.616H253.988V28.216ZM255.725 28.216V30.8C255.725 31.0133 255.77 31.1653 255.861 31.256C255.951 31.3413 256.109 31.384 256.333 31.384H256.869V32H256.213C255.807 32 255.503 31.9067 255.301 31.72C255.098 31.5333 254.997 31.2267 254.997 30.8V28.216H254.429V27.616H254.997V26.512H255.725V27.616H256.869V28.216H255.725ZM261.751 29.64C261.751 29.7787 261.743 29.9253 261.727 30.08H258.223C258.249 30.512 258.396 30.8507 258.663 31.096C258.935 31.336 259.263 31.456 259.647 31.456C259.961 31.456 260.223 31.384 260.431 31.24C260.644 31.0907 260.793 30.8933 260.879 30.648H261.663C261.545 31.0693 261.311 31.4133 260.959 31.68C260.607 31.9413 260.169 32.072 259.647 32.072C259.231 32.072 258.857 31.9787 258.527 31.792C258.201 31.6053 257.945 31.3413 257.759 31C257.572 30.6533 257.479 30.2533 257.479 29.8C257.479 29.3467 257.569 28.9493 257.751 28.608C257.932 28.2667 258.185 28.0053 258.511 27.824C258.841 27.6373 259.22 27.544 259.647 27.544C260.063 27.544 260.431 27.6347 260.751 27.816C261.071 27.9973 261.316 28.248 261.487 28.568C261.663 28.8827 261.751 29.24 261.751 29.64ZM260.999 29.488C260.999 29.2107 260.937 28.9733 260.815 28.776C260.692 28.5733 260.524 28.4213 260.311 28.32C260.103 28.2133 259.871 28.16 259.615 28.16C259.247 28.16 258.932 28.2773 258.671 28.512C258.415 28.7467 258.268 29.072 258.231 29.488H260.999ZM263.44 28.328C263.568 28.0773 263.749 27.8827 263.984 27.744C264.224 27.6053 264.514 27.536 264.856 27.536V28.288H264.664C263.848 28.288 263.44 28.7307 263.44 29.616V32H262.712V27.616H263.44V28.328ZM270.398 32.072C270.062 32.072 269.761 32.016 269.494 31.904C269.228 31.7867 269.017 31.6267 268.862 31.424C268.708 31.216 268.622 30.9787 268.606 30.712H269.358C269.38 30.9307 269.481 31.1093 269.662 31.248C269.849 31.3867 270.092 31.456 270.39 31.456C270.668 31.456 270.886 31.3947 271.046 31.272C271.206 31.1493 271.286 30.9947 271.286 30.808C271.286 30.616 271.201 30.4747 271.03 30.384C270.86 30.288 270.596 30.1947 270.238 30.104C269.913 30.0187 269.646 29.9333 269.438 29.848C269.236 29.7573 269.06 29.6267 268.91 29.456C268.766 29.28 268.694 29.0507 268.694 28.768C268.694 28.544 268.761 28.3387 268.894 28.152C269.028 27.9653 269.217 27.8187 269.462 27.712C269.708 27.6 269.988 27.544 270.302 27.544C270.788 27.544 271.18 27.6667 271.478 27.912C271.777 28.1573 271.937 28.4933 271.958 28.92H271.23C271.214 28.6907 271.121 28.5067 270.95 28.368C270.785 28.2293 270.561 28.16 270.278 28.16C270.017 28.16 269.809 28.216 269.654 28.328C269.5 28.44 269.422 28.5867 269.422 28.768C269.422 28.912 269.468 29.032 269.558 29.128C269.654 29.2187 269.772 29.2933 269.91 29.352C270.054 29.4053 270.252 29.4667 270.502 29.536C270.817 29.6213 271.073 29.7067 271.27 29.792C271.468 29.872 271.636 29.9947 271.774 30.16C271.918 30.3253 271.993 30.5413 271.998 30.808C271.998 31.048 271.932 31.264 271.798 31.456C271.665 31.648 271.476 31.8 271.23 31.912C270.99 32.0187 270.713 32.072 270.398 32.072ZM272.754 29.792C272.754 29.344 272.845 28.952 273.026 28.616C273.207 28.2747 273.455 28.0107 273.77 27.824C274.09 27.6373 274.445 27.544 274.834 27.544C275.218 27.544 275.551 27.6267 275.834 27.792C276.117 27.9573 276.327 28.1653 276.466 28.416V27.616H277.202V32H276.466V31.184C276.322 31.44 276.106 31.6533 275.818 31.824C275.535 31.9893 275.205 32.072 274.826 32.072C274.437 32.072 274.085 31.976 273.77 31.784C273.455 31.592 273.207 31.3227 273.026 30.976C272.845 30.6293 272.754 30.2347 272.754 29.792ZM276.466 29.8C276.466 29.4693 276.399 29.1813 276.266 28.936C276.133 28.6907 275.951 28.504 275.722 28.376C275.498 28.2427 275.25 28.176 274.978 28.176C274.706 28.176 274.458 28.24 274.234 28.368C274.01 28.496 273.831 28.6827 273.698 28.928C273.565 29.1733 273.498 29.4613 273.498 29.792C273.498 30.128 273.565 30.4213 273.698 30.672C273.831 30.9173 274.01 31.1067 274.234 31.24C274.458 31.368 274.706 31.432 274.978 31.432C275.25 31.432 275.498 31.368 275.722 31.24C275.951 31.1067 276.133 30.9173 276.266 30.672C276.399 30.4213 276.466 30.1307 276.466 29.8ZM280.064 31.328L281.424 27.616H282.2L280.48 32H279.632L277.912 27.616H278.696L280.064 31.328ZM283.293 26.904C283.154 26.904 283.037 26.856 282.941 26.76C282.845 26.664 282.797 26.5467 282.797 26.408C282.797 26.2693 282.845 26.152 282.941 26.056C283.037 25.96 283.154 25.912 283.293 25.912C283.426 25.912 283.538 25.96 283.629 26.056C283.725 26.152 283.773 26.2693 283.773 26.408C283.773 26.5467 283.725 26.664 283.629 26.76C283.538 26.856 283.426 26.904 283.293 26.904ZM283.645 27.616V32H282.917V27.616H283.645ZM287.022 27.536C287.555 27.536 287.987 27.6987 288.318 28.024C288.648 28.344 288.814 28.808 288.814 29.416V32H288.094V29.52C288.094 29.0827 287.984 28.7493 287.766 28.52C287.547 28.2853 287.248 28.168 286.87 28.168C286.486 28.168 286.179 28.288 285.95 28.528C285.726 28.768 285.614 29.1173 285.614 29.576V32H284.886V27.616H285.614V28.24C285.758 28.016 285.952 27.8427 286.198 27.72C286.448 27.5973 286.723 27.536 287.022 27.536ZM291.811 27.544C292.189 27.544 292.52 27.6267 292.803 27.792C293.091 27.9573 293.304 28.1653 293.443 28.416V27.616H294.179V32.096C294.179 32.496 294.093 32.8507 293.923 33.16C293.752 33.4747 293.507 33.72 293.187 33.896C292.872 34.072 292.504 34.16 292.083 34.16C291.507 34.16 291.027 34.024 290.643 33.752C290.259 33.48 290.032 33.1093 289.963 32.64H290.683C290.763 32.9067 290.928 33.12 291.179 33.28C291.429 33.4453 291.731 33.528 292.083 33.528C292.483 33.528 292.808 33.4027 293.059 33.152C293.315 32.9013 293.443 32.5493 293.443 32.096V31.176C293.299 31.432 293.085 31.6453 292.803 31.816C292.52 31.9867 292.189 32.072 291.811 32.072C291.421 32.072 291.067 31.976 290.747 31.784C290.432 31.592 290.184 31.3227 290.003 30.976C289.821 30.6293 289.731 30.2347 289.731 29.792C289.731 29.344 289.821 28.952 290.003 28.616C290.184 28.2747 290.432 28.0107 290.747 27.824C291.067 27.6373 291.421 27.544 291.811 27.544ZM293.443 29.8C293.443 29.4693 293.376 29.1813 293.243 28.936C293.109 28.6907 292.928 28.504 292.699 28.376C292.475 28.2427 292.227 28.176 291.955 28.176C291.683 28.176 291.435 28.24 291.211 28.368C290.987 28.496 290.808 28.6827 290.675 28.928C290.541 29.1733 290.475 29.4613 290.475 29.792C290.475 30.128 290.541 30.4213 290.675 30.672C290.808 30.9173 290.987 31.1067 291.211 31.24C291.435 31.368 291.683 31.432 291.955 31.432C292.227 31.432 292.475 31.368 292.699 31.24C292.928 31.1067 293.109 30.9173 293.243 30.672C293.376 30.4213 293.443 30.1307 293.443 29.8ZM295.641 32.048C295.502 32.048 295.385 32 295.289 31.904C295.193 31.808 295.145 31.6907 295.145 31.552C295.145 31.4133 295.193 31.296 295.289 31.2C295.385 31.104 295.502 31.056 295.641 31.056C295.774 31.056 295.886 31.104 295.977 31.2C296.073 31.296 296.121 31.4133 296.121 31.552C296.121 31.6907 296.073 31.808 295.977 31.904C295.886 32 295.774 32.048 295.641 32.048ZM306.079 27.616L304.711 32H303.959L302.903 28.52L301.847 32H301.095L299.719 27.616H300.463L301.471 31.296L302.559 27.616H303.303L304.367 31.304L305.359 27.616H306.079ZM310.802 29.64C310.802 29.7787 310.794 29.9253 310.778 30.08H307.274C307.3 30.512 307.447 30.8507 307.714 31.096C307.986 31.336 308.314 31.456 308.698 31.456C309.012 31.456 309.274 31.384 309.482 31.24C309.695 31.0907 309.844 30.8933 309.93 30.648H310.714C310.596 31.0693 310.362 31.4133 310.01 31.68C309.658 31.9413 309.22 32.072 308.698 32.072C308.282 32.072 307.908 31.9787 307.578 31.792C307.252 31.6053 306.996 31.3413 306.81 31C306.623 30.6533 306.53 30.2533 306.53 29.8C306.53 29.3467 306.62 28.9493 306.802 28.608C306.983 28.2667 307.236 28.0053 307.562 27.824C307.892 27.6373 308.271 27.544 308.698 27.544C309.114 27.544 309.482 27.6347 309.802 27.816C310.122 27.9973 310.367 28.248 310.538 28.568C310.714 28.8827 310.802 29.24 310.802 29.64ZM310.05 29.488C310.05 29.2107 309.988 28.9733 309.866 28.776C309.743 28.5733 309.575 28.4213 309.362 28.32C309.154 28.2133 308.922 28.16 308.666 28.16C308.298 28.16 307.983 28.2773 307.722 28.512C307.466 28.7467 307.319 29.072 307.282 29.488H310.05ZM314.641 29.792C314.641 29.344 314.732 28.952 314.913 28.616C315.094 28.2747 315.342 28.0107 315.657 27.824C315.977 27.6373 316.332 27.544 316.721 27.544C317.105 27.544 317.438 27.6267 317.721 27.792C318.004 27.9573 318.214 28.1653 318.353 28.416V27.616H319.089V32H318.353V31.184C318.209 31.44 317.993 31.6533 317.705 31.824C317.422 31.9893 317.092 32.072 316.713 32.072C316.324 32.072 315.972 31.976 315.657 31.784C315.342 31.592 315.094 31.3227 314.913 30.976C314.732 30.6293 314.641 30.2347 314.641 29.792ZM318.353 29.8C318.353 29.4693 318.286 29.1813 318.153 28.936C318.02 28.6907 317.838 28.504 317.609 28.376C317.385 28.2427 317.137 28.176 316.865 28.176C316.593 28.176 316.345 28.24 316.121 28.368C315.897 28.496 315.718 28.6827 315.585 28.928C315.452 29.1733 315.385 29.4613 315.385 29.792C315.385 30.128 315.452 30.4213 315.585 30.672C315.718 30.9173 315.897 31.1067 316.121 31.24C316.345 31.368 316.593 31.432 316.865 31.432C317.137 31.432 317.385 31.368 317.609 31.24C317.838 31.1067 318.02 30.9173 318.153 30.672C318.286 30.4213 318.353 30.1307 318.353 29.8ZM321.871 32.072C321.535 32.072 321.234 32.016 320.967 31.904C320.7 31.7867 320.49 31.6267 320.335 31.424C320.18 31.216 320.095 30.9787 320.079 30.712H320.831C320.852 30.9307 320.954 31.1093 321.135 31.248C321.322 31.3867 321.564 31.456 321.863 31.456C322.14 31.456 322.359 31.3947 322.519 31.272C322.679 31.1493 322.759 30.9947 322.759 30.808C322.759 30.616 322.674 30.4747 322.503 30.384C322.332 30.288 322.068 30.1947 321.711 30.104C321.386 30.0187 321.119 29.9333 320.911 29.848C320.708 29.7573 320.532 29.6267 320.383 29.456C320.239 29.28 320.167 29.0507 320.167 28.768C320.167 28.544 320.234 28.3387 320.367 28.152C320.5 27.9653 320.69 27.8187 320.935 27.712C321.18 27.6 321.46 27.544 321.775 27.544C322.26 27.544 322.652 27.6667 322.951 27.912C323.25 28.1573 323.41 28.4933 323.431 28.92H322.703C322.687 28.6907 322.594 28.5067 322.423 28.368C322.258 28.2293 322.034 28.16 321.751 28.16C321.49 28.16 321.282 28.216 321.127 28.328C320.972 28.44 320.895 28.5867 320.895 28.768C320.895 28.912 320.94 29.032 321.031 29.128C321.127 29.2187 321.244 29.2933 321.383 29.352C321.527 29.4053 321.724 29.4667 321.975 29.536C322.29 29.6213 322.546 29.7067 322.743 29.792C322.94 29.872 323.108 29.9947 323.247 30.16C323.391 30.3253 323.466 30.5413 323.471 30.808C323.471 31.048 323.404 31.264 323.271 31.456C323.138 31.648 322.948 31.8 322.703 31.912C322.463 32.0187 322.186 32.072 321.871 32.072ZM326.947 32L325.227 30.064V32H324.499V26.08H325.227V29.56L326.915 27.616H327.931L325.867 29.8L327.939 32H326.947ZM24.4 40.216H23.48V44H22.752V40.216H22.184V39.616H22.752V39.304C22.752 38.8133 22.8773 38.456 23.128 38.232C23.384 38.0027 23.792 37.888 24.352 37.888V38.496C24.032 38.496 23.8053 38.56 23.672 38.688C23.544 38.8107 23.48 39.016 23.48 39.304V39.616H24.4V40.216ZM27.1608 44.072C26.7501 44.072 26.3768 43.9787 26.0408 43.792C25.7101 43.6053 25.4488 43.3413 25.2568 43C25.0701 42.6533 24.9768 42.2533 24.9768 41.8C24.9768 41.352 25.0728 40.9573 25.2648 40.616C25.4621 40.2693 25.7288 40.0053 26.0648 39.824C26.4008 39.6373 26.7768 39.544 27.1928 39.544C27.6088 39.544 27.9848 39.6373 28.3208 39.824C28.6568 40.0053 28.9208 40.2667 29.1128 40.608C29.3101 40.9493 29.4088 41.3467 29.4088 41.8C29.4088 42.2533 29.3075 42.6533 29.1048 43C28.9075 43.3413 28.6381 43.6053 28.2968 43.792C27.9555 43.9787 27.5768 44.072 27.1608 44.072ZM27.1608 43.432C27.4221 43.432 27.6675 43.3707 27.8968 43.248C28.1261 43.1253 28.3101 42.9413 28.4488 42.696C28.5928 42.4507 28.6648 42.152 28.6648 41.8C28.6648 41.448 28.5955 41.1493 28.4568 40.904C28.3181 40.6587 28.1368 40.4773 27.9128 40.36C27.6888 40.2373 27.4461 40.176 27.1848 40.176C26.9181 40.176 26.6728 40.2373 26.4488 40.36C26.2301 40.4773 26.0541 40.6587 25.9208 40.904C25.7875 41.1493 25.7208 41.448 25.7208 41.8C25.7208 42.1573 25.7848 42.4587 25.9128 42.704C26.0461 42.9493 26.2221 43.1333 26.4408 43.256C26.6595 43.3733 26.8995 43.432 27.1608 43.432ZM31.094 40.328C31.222 40.0773 31.4033 39.8827 31.638 39.744C31.878 39.6053 32.1687 39.536 32.51 39.536V40.288H32.318C31.502 40.288 31.094 40.7307 31.094 41.616V44H30.366V39.616H31.094V40.328ZM39.4832 41.64C39.4832 41.7787 39.4752 41.9253 39.4592 42.08H35.9552C35.9819 42.512 36.1285 42.8507 36.3952 43.096C36.6672 43.336 36.9952 43.456 37.3792 43.456C37.6939 43.456 37.9552 43.384 38.1632 43.24C38.3765 43.0907 38.5259 42.8933 38.6112 42.648H39.3952C39.2779 43.0693 39.0432 43.4133 38.6912 43.68C38.3392 43.9413 37.9019 44.072 37.3792 44.072C36.9632 44.072 36.5899 43.9787 36.2592 43.792C35.9339 43.6053 35.6779 43.3413 35.4912 43C35.3045 42.6533 35.2112 42.2533 35.2112 41.8C35.2112 41.3467 35.3019 40.9493 35.4832 40.608C35.6645 40.2667 35.9179 40.0053 36.2432 39.824C36.5739 39.6373 36.9525 39.544 37.3792 39.544C37.7952 39.544 38.1632 39.6347 38.4832 39.816C38.8032 39.9973 39.0485 40.248 39.2192 40.568C39.3952 40.8827 39.4832 41.24 39.4832 41.64ZM38.7312 41.488C38.7312 41.2107 38.6699 40.9733 38.5472 40.776C38.4245 40.5733 38.2565 40.4213 38.0432 40.32C37.8352 40.2133 37.6032 40.16 37.3472 40.16C36.9792 40.16 36.6645 40.2773 36.4032 40.512C36.1472 40.7467 36.0005 41.072 35.9632 41.488H38.7312ZM45.7161 39.536C46.0575 39.536 46.3615 39.608 46.6281 39.752C46.8948 39.8907 47.1055 40.1013 47.2601 40.384C47.4148 40.6667 47.4921 41.0107 47.4921 41.416V44H46.7721V41.52C46.7721 41.0827 46.6628 40.7493 46.4441 40.52C46.2308 40.2853 45.9401 40.168 45.5721 40.168C45.1935 40.168 44.8921 40.2907 44.6681 40.536C44.4441 40.776 44.3321 41.1253 44.3321 41.584V44H43.6121V41.52C43.6121 41.0827 43.5028 40.7493 43.2841 40.52C43.0708 40.2853 42.7801 40.168 42.4121 40.168C42.0335 40.168 41.7321 40.2907 41.5081 40.536C41.2841 40.776 41.1721 41.1253 41.1721 41.584V44H40.4441V39.616H41.1721V40.248C41.3161 40.0187 41.5081 39.8427 41.7481 39.72C41.9935 39.5973 42.2628 39.536 42.5561 39.536C42.9241 39.536 43.2495 39.6187 43.5321 39.784C43.8148 39.9493 44.0255 40.192 44.1641 40.512C44.2868 40.2027 44.4895 39.9627 44.7721 39.792C45.0548 39.6213 45.3695 39.536 45.7161 39.536ZM48.4143 41.792C48.4143 41.344 48.505 40.952 48.6863 40.616C48.8676 40.2747 49.1156 40.0107 49.4303 39.824C49.7503 39.6373 50.105 39.544 50.4943 39.544C50.8783 39.544 51.2116 39.6267 51.4943 39.792C51.777 39.9573 51.9876 40.1653 52.1263 40.416V39.616H52.8623V44H52.1263V43.184C51.9823 43.44 51.7663 43.6533 51.4783 43.824C51.1956 43.9893 50.865 44.072 50.4863 44.072C50.097 44.072 49.745 43.976 49.4303 43.784C49.1156 43.592 48.8676 43.3227 48.6863 42.976C48.505 42.6293 48.4143 42.2347 48.4143 41.792ZM52.1263 41.8C52.1263 41.4693 52.0596 41.1813 51.9263 40.936C51.793 40.6907 51.6116 40.504 51.3823 40.376C51.1583 40.2427 50.9103 40.176 50.6383 40.176C50.3663 40.176 50.1183 40.24 49.8943 40.368C49.6703 40.496 49.4916 40.6827 49.3583 40.928C49.225 41.1733 49.1583 41.4613 49.1583 41.792C49.1583 42.128 49.225 42.4213 49.3583 42.672C49.4916 42.9173 49.6703 43.1067 49.8943 43.24C50.1183 43.368 50.3663 43.432 50.6383 43.432C50.9103 43.432 51.1583 43.368 51.3823 43.24C51.6116 43.1067 51.793 42.9173 51.9263 42.672C52.0596 42.4213 52.1263 42.1307 52.1263 41.8ZM54.4686 38.904C54.3299 38.904 54.2126 38.856 54.1166 38.76C54.0206 38.664 53.9726 38.5467 53.9726 38.408C53.9726 38.2693 54.0206 38.152 54.1166 38.056C54.2126 37.96 54.3299 37.912 54.4686 37.912C54.6019 37.912 54.7139 37.96 54.8046 38.056C54.9006 38.152 54.9486 38.2693 54.9486 38.408C54.9486 38.5467 54.9006 38.664 54.8046 38.76C54.7139 38.856 54.6019 38.904 54.4686 38.904ZM54.8206 39.616V44H54.0926V39.616H54.8206ZM56.7893 38.08V44H56.0613V38.08H56.7893ZM59.8909 41.792C59.8909 41.344 59.9815 40.952 60.1629 40.616C60.3442 40.2747 60.5922 40.0107 60.9069 39.824C61.2269 39.6373 61.5842 39.544 61.9789 39.544C62.3202 39.544 62.6375 39.624 62.9309 39.784C63.2242 39.9387 63.4482 40.144 63.6029 40.4V38.08H64.3389V44H63.6029V43.176C63.4589 43.4373 63.2455 43.6533 62.9629 43.824C62.6802 43.9893 62.3495 44.072 61.9709 44.072C61.5815 44.072 61.2269 43.976 60.9069 43.784C60.5922 43.592 60.3442 43.3227 60.1629 42.976C59.9815 42.6293 59.8909 42.2347 59.8909 41.792ZM63.6029 41.8C63.6029 41.4693 63.5362 41.1813 63.4029 40.936C63.2695 40.6907 63.0882 40.504 62.8589 40.376C62.6349 40.2427 62.3869 40.176 62.1149 40.176C61.8429 40.176 61.5949 40.24 61.3709 40.368C61.1469 40.496 60.9682 40.6827 60.8349 40.928C60.7015 41.1733 60.6349 41.4613 60.6349 41.792C60.6349 42.128 60.7015 42.4213 60.8349 42.672C60.9682 42.9173 61.1469 43.1067 61.3709 43.24C61.5949 43.368 61.8429 43.432 62.1149 43.432C62.3869 43.432 62.6349 43.368 62.8589 43.24C63.0882 43.1067 63.2695 42.9173 63.4029 42.672C63.5362 42.4213 63.6029 42.1307 63.6029 41.8ZM69.5691 41.64C69.5691 41.7787 69.5611 41.9253 69.5451 42.08H66.0411C66.0678 42.512 66.2145 42.8507 66.4811 43.096C66.7531 43.336 67.0811 43.456 67.4651 43.456C67.7798 43.456 68.0411 43.384 68.2491 43.24C68.4625 43.0907 68.6118 42.8933 68.6971 42.648H69.4811C69.3638 43.0693 69.1291 43.4133 68.7771 43.68C68.4251 43.9413 67.9878 44.072 67.4651 44.072C67.0491 44.072 66.6758 43.9787 66.3451 43.792C66.0198 43.6053 65.7638 43.3413 65.5771 43C65.3905 42.6533 65.2971 42.2533 65.2971 41.8C65.2971 41.3467 65.3878 40.9493 65.5691 40.608C65.7505 40.2667 66.0038 40.0053 66.3291 39.824C66.6598 39.6373 67.0385 39.544 67.4651 39.544C67.8811 39.544 68.2491 39.6347 68.5691 39.816C68.8891 39.9973 69.1345 40.248 69.3051 40.568C69.4811 40.8827 69.5691 41.24 69.5691 41.64ZM68.8171 41.488C68.8171 41.2107 68.7558 40.9733 68.6331 40.776C68.5105 40.5733 68.3425 40.4213 68.1291 40.32C67.9211 40.2133 67.6891 40.16 67.4331 40.16C67.0651 40.16 66.7505 40.2773 66.4891 40.512C66.2331 40.7467 66.0865 41.072 66.0491 41.488H68.8171ZM71.4181 40.216V42.8C71.4181 43.0133 71.4634 43.1653 71.5541 43.256C71.6447 43.3413 71.8021 43.384 72.0261 43.384H72.5621V44H71.9061C71.5007 44 71.1967 43.9067 70.9941 43.72C70.7914 43.5333 70.6901 43.2267 70.6901 42.8V40.216H70.1221V39.616H70.6901V38.512H71.4181V39.616H72.5621V40.216H71.4181ZM73.1721 41.792C73.1721 41.344 73.2628 40.952 73.4441 40.616C73.6255 40.2747 73.8735 40.0107 74.1881 39.824C74.5081 39.6373 74.8628 39.544 75.2521 39.544C75.6361 39.544 75.9695 39.6267 76.2521 39.792C76.5348 39.9573 76.7455 40.1653 76.8841 40.416V39.616H77.6201V44H76.8841V43.184C76.7401 43.44 76.5241 43.6533 76.2361 43.824C75.9535 43.9893 75.6228 44.072 75.2441 44.072C74.8548 44.072 74.5028 43.976 74.1881 43.784C73.8735 43.592 73.6255 43.3227 73.4441 42.976C73.2628 42.6293 73.1721 42.2347 73.1721 41.792ZM76.8841 41.8C76.8841 41.4693 76.8175 41.1813 76.6841 40.936C76.5508 40.6907 76.3695 40.504 76.1401 40.376C75.9161 40.2427 75.6681 40.176 75.3961 40.176C75.1241 40.176 74.8761 40.24 74.6521 40.368C74.4281 40.496 74.2495 40.6827 74.1161 40.928C73.9828 41.1733 73.9161 41.4613 73.9161 41.792C73.9161 42.128 73.9828 42.4213 74.1161 42.672C74.2495 42.9173 74.4281 43.1067 74.6521 43.24C74.8761 43.368 75.1241 43.432 75.3961 43.432C75.6681 43.432 75.9161 43.368 76.1401 43.24C76.3695 43.1067 76.5508 42.9173 76.6841 42.672C76.8175 42.4213 76.8841 42.1307 76.8841 41.8ZM79.2264 38.904C79.0877 38.904 78.9704 38.856 78.8744 38.76C78.7784 38.664 78.7304 38.5467 78.7304 38.408C78.7304 38.2693 78.7784 38.152 78.8744 38.056C78.9704 37.96 79.0877 37.912 79.2264 37.912C79.3597 37.912 79.4717 37.96 79.5624 38.056C79.6584 38.152 79.7064 38.2693 79.7064 38.408C79.7064 38.5467 79.6584 38.664 79.5624 38.76C79.4717 38.856 79.3597 38.904 79.2264 38.904ZM79.5784 39.616V44H78.8504V39.616H79.5784ZM81.5471 38.08V44H80.8191V38.08H81.5471ZM84.3399 44.072C84.0039 44.072 83.7025 44.016 83.4359 43.904C83.1692 43.7867 82.9585 43.6267 82.8039 43.424C82.6492 43.216 82.5639 42.9787 82.5479 42.712H83.2999C83.3212 42.9307 83.4225 43.1093 83.6039 43.248C83.7905 43.3867 84.0332 43.456 84.3319 43.456C84.6092 43.456 84.8279 43.3947 84.9879 43.272C85.1479 43.1493 85.2279 42.9947 85.2279 42.808C85.2279 42.616 85.1425 42.4747 84.9719 42.384C84.8012 42.288 84.5372 42.1947 84.1799 42.104C83.8545 42.0187 83.5879 41.9333 83.3799 41.848C83.1772 41.7573 83.0012 41.6267 82.8519 41.456C82.7079 41.28 82.6359 41.0507 82.6359 40.768C82.6359 40.544 82.7025 40.3387 82.8359 40.152C82.9692 39.9653 83.1585 39.8187 83.4039 39.712C83.6492 39.6 83.9292 39.544 84.2439 39.544C84.7292 39.544 85.1212 39.6667 85.4199 39.912C85.7185 40.1573 85.8785 40.4933 85.8999 40.92H85.1719C85.1559 40.6907 85.0625 40.5067 84.8919 40.368C84.7265 40.2293 84.5025 40.16 84.2199 40.16C83.9585 40.16 83.7505 40.216 83.5959 40.328C83.4412 40.44 83.3639 40.5867 83.3639 40.768C83.3639 40.912 83.4092 41.032 83.4999 41.128C83.5959 41.2187 83.7132 41.2933 83.8519 41.352C83.9959 41.4053 84.1932 41.4667 84.4439 41.536C84.7585 41.6213 85.0145 41.7067 85.2119 41.792C85.4092 41.872 85.5772 41.9947 85.7159 42.16C85.8599 42.3253 85.9345 42.5413 85.9399 42.808C85.9399 43.048 85.8732 43.264 85.7399 43.456C85.6065 43.648 85.4172 43.8 85.1719 43.912C84.9319 44.0187 84.6545 44.072 84.3399 44.072ZM90.8844 40.216H89.9644V44H89.2364V40.216H88.6684V39.616H89.2364V39.304C89.2364 38.8133 89.3617 38.456 89.6124 38.232C89.8684 38.0027 90.2764 37.888 90.8364 37.888V38.496C90.5164 38.496 90.2897 38.56 90.1564 38.688C90.0284 38.8107 89.9644 39.016 89.9644 39.304V39.616H90.8844V40.216ZM93.6452 44.072C93.2345 44.072 92.8612 43.9787 92.5252 43.792C92.1945 43.6053 91.9332 43.3413 91.7412 43C91.5545 42.6533 91.4612 42.2533 91.4612 41.8C91.4612 41.352 91.5572 40.9573 91.7492 40.616C91.9465 40.2693 92.2132 40.0053 92.5492 39.824C92.8852 39.6373 93.2612 39.544 93.6772 39.544C94.0932 39.544 94.4692 39.6373 94.8052 39.824C95.1412 40.0053 95.4052 40.2667 95.5972 40.608C95.7945 40.9493 95.8932 41.3467 95.8932 41.8C95.8932 42.2533 95.7919 42.6533 95.5892 43C95.3919 43.3413 95.1225 43.6053 94.7812 43.792C94.4399 43.9787 94.0612 44.072 93.6452 44.072ZM93.6452 43.432C93.9065 43.432 94.1519 43.3707 94.3812 43.248C94.6105 43.1253 94.7945 42.9413 94.9332 42.696C95.0772 42.4507 95.1492 42.152 95.1492 41.8C95.1492 41.448 95.0799 41.1493 94.9412 40.904C94.8025 40.6587 94.6212 40.4773 94.3972 40.36C94.1732 40.2373 93.9305 40.176 93.6692 40.176C93.4025 40.176 93.1572 40.2373 92.9332 40.36C92.7145 40.4773 92.5385 40.6587 92.4052 40.904C92.2719 41.1493 92.2052 41.448 92.2052 41.8C92.2052 42.1573 92.2692 42.4587 92.3972 42.704C92.5305 42.9493 92.7065 43.1333 92.9252 43.256C93.1439 43.3733 93.3839 43.432 93.6452 43.432ZM97.5784 40.328C97.7064 40.0773 97.8877 39.8827 98.1224 39.744C98.3624 39.6053 98.653 39.536 98.9944 39.536V40.288H98.8024C97.9864 40.288 97.5784 40.7307 97.5784 41.616V44H96.8504V39.616H97.5784V40.328ZM102.696 40.328C102.824 40.0773 103.005 39.8827 103.24 39.744C103.48 39.6053 103.77 39.536 104.112 39.536V40.288H103.92C103.104 40.288 102.696 40.7307 102.696 41.616V44H101.968V39.616H102.696V40.328ZM108.952 41.64C108.952 41.7787 108.944 41.9253 108.928 42.08H105.424C105.451 42.512 105.597 42.8507 105.864 43.096C106.136 43.336 106.464 43.456 106.848 43.456C107.163 43.456 107.424 43.384 107.632 43.24C107.845 43.0907 107.995 42.8933 108.08 42.648H108.864C108.747 43.0693 108.512 43.4133 108.16 43.68C107.808 43.9413 107.371 44.072 106.848 44.072C106.432 44.072 106.059 43.9787 105.728 43.792C105.403 43.6053 105.147 43.3413 104.96 43C104.773 42.6533 104.68 42.2533 104.68 41.8C104.68 41.3467 104.771 40.9493 104.952 40.608C105.133 40.2667 105.387 40.0053 105.712 39.824C106.043 39.6373 106.421 39.544 106.848 39.544C107.264 39.544 107.632 39.6347 107.952 39.816C108.272 39.9973 108.517 40.248 108.688 40.568C108.864 40.8827 108.952 41.24 108.952 41.64ZM108.2 41.488C108.2 41.2107 108.139 40.9733 108.016 40.776C107.893 40.5733 107.725 40.4213 107.512 40.32C107.304 40.2133 107.072 40.16 106.816 40.16C106.448 40.16 106.133 40.2773 105.872 40.512C105.616 40.7467 105.469 41.072 105.432 41.488H108.2ZM109.641 41.8C109.641 41.3467 109.732 40.952 109.913 40.616C110.094 40.2747 110.345 40.0107 110.665 39.824C110.99 39.6373 111.361 39.544 111.777 39.544C112.316 39.544 112.758 39.6747 113.105 39.936C113.457 40.1973 113.689 40.56 113.801 41.024H113.017C112.942 40.7573 112.796 40.5467 112.577 40.392C112.364 40.2373 112.097 40.16 111.777 40.16C111.361 40.16 111.025 40.304 110.769 40.592C110.513 40.8747 110.385 41.2773 110.385 41.8C110.385 42.328 110.513 42.736 110.769 43.024C111.025 43.312 111.361 43.456 111.777 43.456C112.097 43.456 112.364 43.3813 112.577 43.232C112.79 43.0827 112.937 42.8693 113.017 42.592H113.801C113.684 43.04 113.449 43.4 113.097 43.672C112.745 43.9387 112.305 44.072 111.777 44.072C111.361 44.072 110.99 43.9787 110.665 43.792C110.345 43.6053 110.094 43.3413 109.913 43C109.732 42.6587 109.641 42.2587 109.641 41.8ZM115.148 38.904C115.01 38.904 114.892 38.856 114.796 38.76C114.7 38.664 114.652 38.5467 114.652 38.408C114.652 38.2693 114.7 38.152 114.796 38.056C114.892 37.96 115.01 37.912 115.148 37.912C115.282 37.912 115.394 37.96 115.484 38.056C115.58 38.152 115.628 38.2693 115.628 38.408C115.628 38.5467 115.58 38.664 115.484 38.76C115.394 38.856 115.282 38.904 115.148 38.904ZM115.5 39.616V44H114.772V39.616H115.5ZM120.741 41.64C120.741 41.7787 120.733 41.9253 120.717 42.08H117.213C117.24 42.512 117.386 42.8507 117.653 43.096C117.925 43.336 118.253 43.456 118.637 43.456C118.952 43.456 119.213 43.384 119.421 43.24C119.634 43.0907 119.784 42.8933 119.869 42.648H120.653C120.536 43.0693 120.301 43.4133 119.949 43.68C119.597 43.9413 119.16 44.072 118.637 44.072C118.221 44.072 117.848 43.9787 117.517 43.792C117.192 43.6053 116.936 43.3413 116.749 43C116.562 42.6533 116.469 42.2533 116.469 41.8C116.469 41.3467 116.56 40.9493 116.741 40.608C116.922 40.2667 117.176 40.0053 117.501 39.824C117.832 39.6373 118.21 39.544 118.637 39.544C119.053 39.544 119.421 39.6347 119.741 39.816C120.061 39.9973 120.306 40.248 120.477 40.568C120.653 40.8827 120.741 41.24 120.741 41.64ZM119.989 41.488C119.989 41.2107 119.928 40.9733 119.805 40.776C119.682 40.5733 119.514 40.4213 119.301 40.32C119.093 40.2133 118.861 40.16 118.605 40.16C118.237 40.16 117.922 40.2773 117.661 40.512C117.405 40.7467 117.258 41.072 117.221 41.488H119.989ZM123.334 43.328L124.694 39.616H125.47L123.75 44H122.902L121.182 39.616H121.966L123.334 43.328ZM126.562 38.904C126.424 38.904 126.306 38.856 126.21 38.76C126.114 38.664 126.066 38.5467 126.066 38.408C126.066 38.2693 126.114 38.152 126.21 38.056C126.306 37.96 126.424 37.912 126.562 37.912C126.696 37.912 126.808 37.96 126.898 38.056C126.994 38.152 127.042 38.2693 127.042 38.408C127.042 38.5467 126.994 38.664 126.898 38.76C126.808 38.856 126.696 38.904 126.562 38.904ZM126.914 39.616V44H126.186V39.616H126.914ZM130.291 39.536C130.824 39.536 131.256 39.6987 131.587 40.024C131.918 40.344 132.083 40.808 132.083 41.416V44H131.363V41.52C131.363 41.0827 131.254 40.7493 131.035 40.52C130.816 40.2853 130.518 40.168 130.139 40.168C129.755 40.168 129.448 40.288 129.219 40.528C128.995 40.768 128.883 41.1173 128.883 41.576V44H128.155V39.616H128.883V40.24C129.027 40.016 129.222 39.8427 129.467 39.72C129.718 39.5973 129.992 39.536 130.291 39.536ZM135.08 39.544C135.459 39.544 135.79 39.6267 136.072 39.792C136.36 39.9573 136.574 40.1653 136.712 40.416V39.616H137.448V44.096C137.448 44.496 137.363 44.8507 137.192 45.16C137.022 45.4747 136.776 45.72 136.456 45.896C136.142 46.072 135.774 46.16 135.352 46.16C134.776 46.16 134.296 46.024 133.912 45.752C133.528 45.48 133.302 45.1093 133.232 44.64H133.952C134.032 44.9067 134.198 45.12 134.448 45.28C134.699 45.4453 135 45.528 135.352 45.528C135.752 45.528 136.078 45.4027 136.328 45.152C136.584 44.9013 136.712 44.5493 136.712 44.096V43.176C136.568 43.432 136.355 43.6453 136.072 43.816C135.79 43.9867 135.459 44.072 135.08 44.072C134.691 44.072 134.336 43.976 134.016 43.784C133.702 43.592 133.454 43.3227 133.272 42.976C133.091 42.6293 133 42.2347 133 41.792C133 41.344 133.091 40.952 133.272 40.616C133.454 40.2747 133.702 40.0107 134.016 39.824C134.336 39.6373 134.691 39.544 135.08 39.544ZM136.712 41.8C136.712 41.4693 136.646 41.1813 136.512 40.936C136.379 40.6907 136.198 40.504 135.968 40.376C135.744 40.2427 135.496 40.176 135.224 40.176C134.952 40.176 134.704 40.24 134.48 40.368C134.256 40.496 134.078 40.6827 133.944 40.928C133.811 41.1733 133.744 41.4613 133.744 41.792C133.744 42.128 133.811 42.4213 133.944 42.672C134.078 42.9173 134.256 43.1067 134.48 43.24C134.704 43.368 134.952 43.432 135.224 43.432C135.496 43.432 135.744 43.368 135.968 43.24C136.198 43.1067 136.379 42.9173 136.512 42.672C136.646 42.4213 136.712 42.1307 136.712 41.8ZM146.083 39.536C146.425 39.536 146.729 39.608 146.995 39.752C147.262 39.8907 147.473 40.1013 147.627 40.384C147.782 40.6667 147.859 41.0107 147.859 41.416V44H147.139V41.52C147.139 41.0827 147.03 40.7493 146.811 40.52C146.598 40.2853 146.307 40.168 145.939 40.168C145.561 40.168 145.259 40.2907 145.035 40.536C144.811 40.776 144.699 41.1253 144.699 41.584V44H143.979V41.52C143.979 41.0827 143.87 40.7493 143.651 40.52C143.438 40.2853 143.147 40.168 142.779 40.168C142.401 40.168 142.099 40.2907 141.875 40.536C141.651 40.776 141.539 41.1253 141.539 41.584V44H140.811V39.616H141.539V40.248C141.683 40.0187 141.875 39.8427 142.115 39.72C142.361 39.5973 142.63 39.536 142.923 39.536C143.291 39.536 143.617 39.6187 143.899 39.784C144.182 39.9493 144.393 40.192 144.531 40.512C144.654 40.2027 144.857 39.9627 145.139 39.792C145.422 39.6213 145.737 39.536 146.083 39.536ZM150.966 44.072C150.555 44.072 150.182 43.9787 149.846 43.792C149.515 43.6053 149.254 43.3413 149.062 43C148.875 42.6533 148.782 42.2533 148.782 41.8C148.782 41.352 148.878 40.9573 149.07 40.616C149.267 40.2693 149.534 40.0053 149.87 39.824C150.206 39.6373 150.582 39.544 150.998 39.544C151.414 39.544 151.79 39.6373 152.126 39.824C152.462 40.0053 152.726 40.2667 152.918 40.608C153.115 40.9493 153.214 41.3467 153.214 41.8C153.214 42.2533 153.112 42.6533 152.91 43C152.712 43.3413 152.443 43.6053 152.102 43.792C151.76 43.9787 151.382 44.072 150.966 44.072ZM150.966 43.432C151.227 43.432 151.472 43.3707 151.702 43.248C151.931 43.1253 152.115 42.9413 152.254 42.696C152.398 42.4507 152.47 42.152 152.47 41.8C152.47 41.448 152.4 41.1493 152.262 40.904C152.123 40.6587 151.942 40.4773 151.718 40.36C151.494 40.2373 151.251 40.176 150.99 40.176C150.723 40.176 150.478 40.2373 150.254 40.36C150.035 40.4773 149.859 40.6587 149.726 40.904C149.592 41.1493 149.526 41.448 149.526 41.8C149.526 42.1573 149.59 42.4587 149.718 42.704C149.851 42.9493 150.027 43.1333 150.246 43.256C150.464 43.3733 150.704 43.432 150.966 43.432ZM156.307 39.536C156.84 39.536 157.272 39.6987 157.603 40.024C157.933 40.344 158.099 40.808 158.099 41.416V44H157.379V41.52C157.379 41.0827 157.269 40.7493 157.051 40.52C156.832 40.2853 156.533 40.168 156.155 40.168C155.771 40.168 155.464 40.288 155.235 40.528C155.011 40.768 154.899 41.1173 154.899 41.576V44H154.171V39.616H154.899V40.24C155.043 40.016 155.237 39.8427 155.483 39.72C155.733 39.5973 156.008 39.536 156.307 39.536ZM160.176 40.216V42.8C160.176 43.0133 160.221 43.1653 160.312 43.256C160.403 43.3413 160.56 43.384 160.784 43.384H161.32V44H160.664C160.259 44 159.955 43.9067 159.752 43.72C159.549 43.5333 159.448 43.2267 159.448 42.8V40.216H158.88V39.616H159.448V38.512H160.176V39.616H161.32V40.216H160.176ZM164.378 39.536C164.709 39.536 165.007 39.608 165.274 39.752C165.541 39.8907 165.749 40.1013 165.898 40.384C166.053 40.6667 166.13 41.0107 166.13 41.416V44H165.41V41.52C165.41 41.0827 165.301 40.7493 165.082 40.52C164.863 40.2853 164.565 40.168 164.186 40.168C163.802 40.168 163.495 40.288 163.266 40.528C163.042 40.768 162.93 41.1173 162.93 41.576V44H162.202V38.08H162.93V40.24C163.074 40.016 163.271 39.8427 163.522 39.72C163.778 39.5973 164.063 39.536 164.378 39.536ZM168.047 38.08V44H167.319V38.08H168.047ZM173.064 39.616L170.424 46.064H169.672L170.536 43.952L168.768 39.616H169.576L170.952 43.168L172.312 39.616H173.064ZM175.657 41.792C175.657 41.344 175.747 40.952 175.929 40.616C176.11 40.2747 176.358 40.0107 176.673 39.824C176.993 39.6373 177.347 39.544 177.737 39.544C178.121 39.544 178.454 39.6267 178.737 39.792C179.019 39.9573 179.23 40.1653 179.369 40.416V39.616H180.105V44H179.369V43.184C179.225 43.44 179.009 43.6533 178.721 43.824C178.438 43.9893 178.107 44.072 177.729 44.072C177.339 44.072 176.987 43.976 176.673 43.784C176.358 43.592 176.11 43.3227 175.929 42.976C175.747 42.6293 175.657 42.2347 175.657 41.792ZM179.369 41.8C179.369 41.4693 179.302 41.1813 179.169 40.936C179.035 40.6907 178.854 40.504 178.625 40.376C178.401 40.2427 178.153 40.176 177.881 40.176C177.609 40.176 177.361 40.24 177.137 40.368C176.913 40.496 176.734 40.6827 176.601 40.928C176.467 41.1733 176.401 41.4613 176.401 41.792C176.401 42.128 176.467 42.4213 176.601 42.672C176.734 42.9173 176.913 43.1067 177.137 43.24C177.361 43.368 177.609 43.432 177.881 43.432C178.153 43.432 178.401 43.368 178.625 43.24C178.854 43.1067 179.035 42.9173 179.169 42.672C179.302 42.4213 179.369 42.1307 179.369 41.8ZM181.063 41.8C181.063 41.3467 181.153 40.952 181.335 40.616C181.516 40.2747 181.767 40.0107 182.087 39.824C182.412 39.6373 182.783 39.544 183.199 39.544C183.737 39.544 184.18 39.6747 184.527 39.936C184.879 40.1973 185.111 40.56 185.223 41.024H184.439C184.364 40.7573 184.217 40.5467 183.999 40.392C183.785 40.2373 183.519 40.16 183.199 40.16C182.783 40.16 182.447 40.304 182.191 40.592C181.935 40.8747 181.807 41.2773 181.807 41.8C181.807 42.328 181.935 42.736 182.191 43.024C182.447 43.312 182.783 43.456 183.199 43.456C183.519 43.456 183.785 43.3813 183.999 43.232C184.212 43.0827 184.359 42.8693 184.439 42.592H185.223C185.105 43.04 184.871 43.4 184.519 43.672C184.167 43.9387 183.727 44.072 183.199 44.072C182.783 44.072 182.412 43.9787 182.087 43.792C181.767 43.6053 181.516 43.3413 181.335 43C181.153 42.6587 181.063 42.2587 181.063 41.8ZM187.082 40.216V42.8C187.082 43.0133 187.127 43.1653 187.218 43.256C187.309 43.3413 187.466 43.384 187.69 43.384H188.226V44H187.57C187.165 44 186.861 43.9067 186.658 43.72C186.455 43.5333 186.354 43.2267 186.354 42.8V40.216H185.786V39.616H186.354V38.512H187.082V39.616H188.226V40.216H187.082ZM189.484 38.904C189.346 38.904 189.228 38.856 189.132 38.76C189.036 38.664 188.988 38.5467 188.988 38.408C188.988 38.2693 189.036 38.152 189.132 38.056C189.228 37.96 189.346 37.912 189.484 37.912C189.618 37.912 189.73 37.96 189.82 38.056C189.916 38.152 189.964 38.2693 189.964 38.408C189.964 38.5467 189.916 38.664 189.82 38.76C189.73 38.856 189.618 38.904 189.484 38.904ZM189.836 39.616V44H189.108V39.616H189.836ZM192.709 43.328L194.069 39.616H194.845L193.125 44H192.277L190.557 39.616H191.341L192.709 43.328ZM195.937 38.904C195.799 38.904 195.681 38.856 195.585 38.76C195.489 38.664 195.441 38.5467 195.441 38.408C195.441 38.2693 195.489 38.152 195.585 38.056C195.681 37.96 195.799 37.912 195.937 37.912C196.071 37.912 196.183 37.96 196.273 38.056C196.369 38.152 196.417 38.2693 196.417 38.408C196.417 38.5467 196.369 38.664 196.273 38.76C196.183 38.856 196.071 38.904 195.937 38.904ZM196.289 39.616V44H195.561V39.616H196.289ZM198.418 40.216V42.8C198.418 43.0133 198.463 43.1653 198.554 43.256C198.645 43.3413 198.802 43.384 199.026 43.384H199.562V44H198.906C198.501 44 198.197 43.9067 197.994 43.72C197.791 43.5333 197.69 43.2267 197.69 42.8V40.216H197.122V39.616H197.69V38.512H198.418V39.616H199.562V40.216H198.418ZM204.22 39.616L201.58 46.064H200.828L201.692 43.952L199.924 39.616H200.732L202.108 43.168L203.468 39.616H204.22ZM206.813 41.792C206.813 41.344 206.903 40.952 207.085 40.616C207.266 40.2747 207.514 40.0107 207.829 39.824C208.149 39.6373 208.503 39.544 208.893 39.544C209.277 39.544 209.61 39.6267 209.893 39.792C210.175 39.9573 210.386 40.1653 210.525 40.416V39.616H211.261V44H210.525V43.184C210.381 43.44 210.165 43.6533 209.877 43.824C209.594 43.9893 209.263 44.072 208.885 44.072C208.495 44.072 208.143 43.976 207.829 43.784C207.514 43.592 207.266 43.3227 207.085 42.976C206.903 42.6293 206.813 42.2347 206.813 41.792ZM210.525 41.8C210.525 41.4693 210.458 41.1813 210.325 40.936C210.191 40.6907 210.01 40.504 209.781 40.376C209.557 40.2427 209.309 40.176 209.037 40.176C208.765 40.176 208.517 40.24 208.293 40.368C208.069 40.496 207.89 40.6827 207.757 40.928C207.623 41.1733 207.557 41.4613 207.557 41.792C207.557 42.128 207.623 42.4213 207.757 42.672C207.89 42.9173 208.069 43.1067 208.293 43.24C208.517 43.368 208.765 43.432 209.037 43.432C209.309 43.432 209.557 43.368 209.781 43.24C210.01 43.1067 210.191 42.9173 210.325 42.672C210.458 42.4213 210.525 42.1307 210.525 41.8ZM214.627 39.536C215.16 39.536 215.592 39.6987 215.923 40.024C216.254 40.344 216.419 40.808 216.419 41.416V44H215.699V41.52C215.699 41.0827 215.59 40.7493 215.371 40.52C215.152 40.2853 214.854 40.168 214.475 40.168C214.091 40.168 213.784 40.288 213.555 40.528C213.331 40.768 213.219 41.1173 213.219 41.576V44H212.491V39.616H213.219V40.24C213.363 40.016 213.558 39.8427 213.803 39.72C214.054 39.5973 214.328 39.536 214.627 39.536ZM217.336 41.792C217.336 41.344 217.427 40.952 217.608 40.616C217.79 40.2747 218.038 40.0107 218.352 39.824C218.672 39.6373 219.03 39.544 219.424 39.544C219.766 39.544 220.083 39.624 220.376 39.784C220.67 39.9387 220.894 40.144 221.048 40.4V38.08H221.784V44H221.048V43.176C220.904 43.4373 220.691 43.6533 220.408 43.824C220.126 43.9893 219.795 44.072 219.416 44.072C219.027 44.072 218.672 43.976 218.352 43.784C218.038 43.592 217.79 43.3227 217.608 42.976C217.427 42.6293 217.336 42.2347 217.336 41.792ZM221.048 41.8C221.048 41.4693 220.982 41.1813 220.848 40.936C220.715 40.6907 220.534 40.504 220.304 40.376C220.08 40.2427 219.832 40.176 219.56 40.176C219.288 40.176 219.04 40.24 218.816 40.368C218.592 40.496 218.414 40.6827 218.28 40.928C218.147 41.1733 218.08 41.4613 218.08 41.792C218.08 42.128 218.147 42.4213 218.28 42.672C218.414 42.9173 218.592 43.1067 218.816 43.24C219.04 43.368 219.288 43.432 219.56 43.432C219.832 43.432 220.08 43.368 220.304 43.24C220.534 43.1067 220.715 42.9173 220.848 42.672C220.982 42.4213 221.048 42.1307 221.048 41.8ZM227.283 39.536C227.817 39.536 228.249 39.6987 228.579 40.024C228.91 40.344 229.075 40.808 229.075 41.416V44H228.355V41.52C228.355 41.0827 228.246 40.7493 228.027 40.52C227.809 40.2853 227.51 40.168 227.131 40.168C226.747 40.168 226.441 40.288 226.211 40.528C225.987 40.768 225.875 41.1173 225.875 41.576V44H225.147V39.616H225.875V40.24C226.019 40.016 226.214 39.8427 226.459 39.72C226.71 39.5973 226.985 39.536 227.283 39.536ZM232.176 44.072C231.766 44.072 231.392 43.9787 231.056 43.792C230.726 43.6053 230.464 43.3413 230.272 43C230.086 42.6533 229.992 42.2533 229.992 41.8C229.992 41.352 230.088 40.9573 230.28 40.616C230.478 40.2693 230.744 40.0053 231.08 39.824C231.416 39.6373 231.792 39.544 232.208 39.544C232.624 39.544 233 39.6373 233.336 39.824C233.672 40.0053 233.936 40.2667 234.128 40.608C234.326 40.9493 234.424 41.3467 234.424 41.8C234.424 42.2533 234.323 42.6533 234.12 43C233.923 43.3413 233.654 43.6053 233.312 43.792C232.971 43.9787 232.592 44.072 232.176 44.072ZM232.176 43.432C232.438 43.432 232.683 43.3707 232.912 43.248C233.142 43.1253 233.326 42.9413 233.464 42.696C233.608 42.4507 233.68 42.152 233.68 41.8C233.68 41.448 233.611 41.1493 233.472 40.904C233.334 40.6587 233.152 40.4773 232.928 40.36C232.704 40.2373 232.462 40.176 232.2 40.176C231.934 40.176 231.688 40.2373 231.464 40.36C231.246 40.4773 231.07 40.6587 230.936 40.904C230.803 41.1493 230.736 41.448 230.736 41.8C230.736 42.1573 230.8 42.4587 230.928 42.704C231.062 42.9493 231.238 43.1333 231.456 43.256C231.675 43.3733 231.915 43.432 232.176 43.432ZM236.27 40.216V42.8C236.27 43.0133 236.315 43.1653 236.406 43.256C236.496 43.3413 236.654 43.384 236.878 43.384H237.414V44H236.758C236.352 44 236.048 43.9067 235.846 43.72C235.643 43.5333 235.542 43.2267 235.542 42.8V40.216H234.974V39.616H235.542V38.512H236.27V39.616H237.414V40.216H236.27ZM238.672 38.904C238.533 38.904 238.416 38.856 238.32 38.76C238.224 38.664 238.176 38.5467 238.176 38.408C238.176 38.2693 238.224 38.152 238.32 38.056C238.416 37.96 238.533 37.912 238.672 37.912C238.805 37.912 238.917 37.96 239.008 38.056C239.104 38.152 239.152 38.2693 239.152 38.408C239.152 38.5467 239.104 38.664 239.008 38.76C238.917 38.856 238.805 38.904 238.672 38.904ZM239.024 39.616V44H238.296V39.616H239.024ZM242.048 40.216H241.128V44H240.4V40.216H239.832V39.616H240.4V39.304C240.4 38.8133 240.526 38.456 240.776 38.232C241.032 38.0027 241.44 37.888 242 37.888V38.496C241.68 38.496 241.454 38.56 241.32 38.688C241.192 38.8107 241.128 39.016 241.128 39.304V39.616H242.048V40.216ZM243.273 38.904C243.135 38.904 243.017 38.856 242.921 38.76C242.825 38.664 242.777 38.5467 242.777 38.408C242.777 38.2693 242.825 38.152 242.921 38.056C243.017 37.96 243.135 37.912 243.273 37.912C243.407 37.912 243.519 37.96 243.609 38.056C243.705 38.152 243.753 38.2693 243.753 38.408C243.753 38.5467 243.705 38.664 243.609 38.76C243.519 38.856 243.407 38.904 243.273 38.904ZM243.625 39.616V44H242.897V39.616H243.625ZM244.594 41.8C244.594 41.3467 244.685 40.952 244.866 40.616C245.047 40.2747 245.298 40.0107 245.618 39.824C245.943 39.6373 246.314 39.544 246.73 39.544C247.269 39.544 247.711 39.6747 248.058 39.936C248.41 40.1973 248.642 40.56 248.754 41.024H247.97C247.895 40.7573 247.749 40.5467 247.53 40.392C247.317 40.2373 247.05 40.16 246.73 40.16C246.314 40.16 245.978 40.304 245.722 40.592C245.466 40.8747 245.338 41.2773 245.338 41.8C245.338 42.328 245.466 42.736 245.722 43.024C245.978 43.312 246.314 43.456 246.73 43.456C247.05 43.456 247.317 43.3813 247.53 43.232C247.743 43.0827 247.89 42.8693 247.97 42.592H248.754C248.637 43.04 248.402 43.4 248.05 43.672C247.698 43.9387 247.258 44.072 246.73 44.072C246.314 44.072 245.943 43.9787 245.618 43.792C245.298 43.6053 245.047 43.3413 244.866 43C244.685 42.6587 244.594 42.2587 244.594 41.8ZM249.453 41.792C249.453 41.344 249.544 40.952 249.725 40.616C249.907 40.2747 250.155 40.0107 250.469 39.824C250.789 39.6373 251.144 39.544 251.533 39.544C251.917 39.544 252.251 39.6267 252.533 39.792C252.816 39.9573 253.027 40.1653 253.165 40.416V39.616H253.901V44H253.165V43.184C253.021 43.44 252.805 43.6533 252.517 43.824C252.235 43.9893 251.904 44.072 251.525 44.072C251.136 44.072 250.784 43.976 250.469 43.784C250.155 43.592 249.907 43.3227 249.725 42.976C249.544 42.6293 249.453 42.2347 249.453 41.792ZM253.165 41.8C253.165 41.4693 253.099 41.1813 252.965 40.936C252.832 40.6907 252.651 40.504 252.421 40.376C252.197 40.2427 251.949 40.176 251.677 40.176C251.405 40.176 251.157 40.24 250.933 40.368C250.709 40.496 250.531 40.6827 250.397 40.928C250.264 41.1733 250.197 41.4613 250.197 41.792C250.197 42.128 250.264 42.4213 250.397 42.672C250.531 42.9173 250.709 43.1067 250.933 43.24C251.157 43.368 251.405 43.432 251.677 43.432C251.949 43.432 252.197 43.368 252.421 43.24C252.651 43.1067 252.832 42.9173 252.965 42.672C253.099 42.4213 253.165 42.1307 253.165 41.8ZM256.02 40.216V42.8C256.02 43.0133 256.065 43.1653 256.156 43.256C256.246 43.3413 256.404 43.384 256.628 43.384H257.164V44H256.508C256.102 44 255.798 43.9067 255.596 43.72C255.393 43.5333 255.292 43.2267 255.292 42.8V40.216H254.724V39.616H255.292V38.512H256.02V39.616H257.164V40.216H256.02ZM258.422 38.904C258.283 38.904 258.166 38.856 258.07 38.76C257.974 38.664 257.926 38.5467 257.926 38.408C257.926 38.2693 257.974 38.152 258.07 38.056C258.166 37.96 258.283 37.912 258.422 37.912C258.555 37.912 258.667 37.96 258.758 38.056C258.854 38.152 258.902 38.2693 258.902 38.408C258.902 38.5467 258.854 38.664 258.758 38.76C258.667 38.856 258.555 38.904 258.422 38.904ZM258.774 39.616V44H258.046V39.616H258.774ZM261.926 44.072C261.516 44.072 261.142 43.9787 260.806 43.792C260.476 43.6053 260.214 43.3413 260.022 43C259.836 42.6533 259.742 42.2533 259.742 41.8C259.742 41.352 259.838 40.9573 260.03 40.616C260.228 40.2693 260.494 40.0053 260.83 39.824C261.166 39.6373 261.542 39.544 261.958 39.544C262.374 39.544 262.75 39.6373 263.086 39.824C263.422 40.0053 263.686 40.2667 263.878 40.608C264.076 40.9493 264.174 41.3467 264.174 41.8C264.174 42.2533 264.073 42.6533 263.87 43C263.673 43.3413 263.404 43.6053 263.062 43.792C262.721 43.9787 262.342 44.072 261.926 44.072ZM261.926 43.432C262.188 43.432 262.433 43.3707 262.662 43.248C262.892 43.1253 263.076 42.9413 263.214 42.696C263.358 42.4507 263.43 42.152 263.43 41.8C263.43 41.448 263.361 41.1493 263.222 40.904C263.084 40.6587 262.902 40.4773 262.678 40.36C262.454 40.2373 262.212 40.176 261.95 40.176C261.684 40.176 261.438 40.2373 261.214 40.36C260.996 40.4773 260.82 40.6587 260.686 40.904C260.553 41.1493 260.486 41.448 260.486 41.8C260.486 42.1573 260.55 42.4587 260.678 42.704C260.812 42.9493 260.988 43.1333 261.206 43.256C261.425 43.3733 261.665 43.432 261.926 43.432ZM267.268 39.536C267.801 39.536 268.233 39.6987 268.564 40.024C268.894 40.344 269.06 40.808 269.06 41.416V44H268.34V41.52C268.34 41.0827 268.23 40.7493 268.012 40.52C267.793 40.2853 267.494 40.168 267.116 40.168C266.732 40.168 266.425 40.288 266.196 40.528C265.972 40.768 265.86 41.1173 265.86 41.576V44H265.132V39.616H265.86V40.24C266.004 40.016 266.198 39.8427 266.444 39.72C266.694 39.5973 266.969 39.536 267.268 39.536ZM271.801 44.072C271.465 44.072 271.163 44.016 270.897 43.904C270.63 43.7867 270.419 43.6267 270.265 43.424C270.11 43.216 270.025 42.9787 270.009 42.712H270.761C270.782 42.9307 270.883 43.1093 271.065 43.248C271.251 43.3867 271.494 43.456 271.793 43.456C272.07 43.456 272.289 43.3947 272.449 43.272C272.609 43.1493 272.689 42.9947 272.689 42.808C272.689 42.616 272.603 42.4747 272.433 42.384C272.262 42.288 271.998 42.1947 271.641 42.104C271.315 42.0187 271.049 41.9333 270.841 41.848C270.638 41.7573 270.462 41.6267 270.313 41.456C270.169 41.28 270.097 41.0507 270.097 40.768C270.097 40.544 270.163 40.3387 270.297 40.152C270.43 39.9653 270.619 39.8187 270.865 39.712C271.11 39.6 271.39 39.544 271.705 39.544C272.19 39.544 272.582 39.6667 272.881 39.912C273.179 40.1573 273.339 40.4933 273.361 40.92H272.633C272.617 40.6907 272.523 40.5067 272.353 40.368C272.187 40.2293 271.963 40.16 271.681 40.16C271.419 40.16 271.211 40.216 271.057 40.328C270.902 40.44 270.825 40.5867 270.825 40.768C270.825 40.912 270.87 41.032 270.961 41.128C271.057 41.2187 271.174 41.2933 271.313 41.352C271.457 41.4053 271.654 41.4667 271.905 41.536C272.219 41.6213 272.475 41.7067 272.673 41.792C272.87 41.872 273.038 41.9947 273.177 42.16C273.321 42.3253 273.395 42.5413 273.401 42.808C273.401 43.048 273.334 43.264 273.201 43.456C273.067 43.648 272.878 43.8 272.633 43.912C272.393 44.0187 272.115 44.072 271.801 44.072ZM274.661 44.048C274.522 44.048 274.405 44 274.309 43.904C274.213 43.808 274.165 43.6907 274.165 43.552C274.165 43.4133 274.213 43.296 274.309 43.2C274.405 43.104 274.522 43.056 274.661 43.056C274.794 43.056 274.906 43.104 274.997 43.2C275.093 43.296 275.141 43.4133 275.141 43.552C275.141 43.6907 275.093 43.808 274.997 43.904C274.906 44 274.794 44.048 274.661 44.048Z" fill="#666766"/>
</svg>
