<svg width="27" height="35" viewBox="0 0 27 35" fill="none" xmlns="http://www.w3.org/2000/svg">
<path fill-rule="evenodd" clip-rule="evenodd" d="M2.15137 1.18579H15.4928V2.3717H3.33728V20.4568H21.7188V8.00476H22.9048V21.6427H2.15137V1.18579Z" fill="#666766"/>
<path fill-rule="evenodd" clip-rule="evenodd" d="M20.5331 5.92954C21.843 5.92954 22.9049 4.86764 22.9049 3.55772C22.9049 2.24781 21.843 1.18591 20.5331 1.18591C19.2231 1.18591 18.1612 2.24781 18.1612 3.55772C18.1612 4.86764 19.2231 5.92954 20.5331 5.92954ZM20.5331 7.11545C22.4979 7.11545 24.0908 5.5226 24.0908 3.55772C24.0908 1.59285 22.4979 0 20.5331 0C18.5682 0 16.9753 1.59285 16.9753 3.55772C16.9753 5.5226 18.5682 7.11545 20.5331 7.11545Z" fill="#666766"/>
<path fill-rule="evenodd" clip-rule="evenodd" d="M17.6914 12.2785L13.1214 16.8485L9.86015 13.5872L6.42523 17.0221L5.58667 16.1836L9.86015 11.9101L13.1214 15.1713L16.8528 11.4399L17.6914 12.2785Z" fill="#666766"/>
<path d="M3.48565 31.4317H1.26247L0.852936 32.5653H0.150879L1.99378 27.4973H2.76166L4.59724 32.5653H3.89519L3.48565 31.4317ZM3.29551 30.8906L2.37406 28.3164L1.45261 30.8906H3.29551Z" fill="#666766"/>
<path d="M5.15178 30.5542C5.15178 30.1398 5.23466 29.779 5.40043 29.4718C5.56619 29.1598 5.79533 28.9185 6.08786 28.7478C6.38526 28.5772 6.7241 28.4919 7.10438 28.4919C7.5968 28.4919 8.00145 28.6113 8.31835 28.8502C8.64013 29.0891 8.85221 29.4206 8.95459 29.8448H8.23791C8.16965 29.601 8.03558 29.4084 7.83569 29.2671C7.64067 29.1257 7.3969 29.055 7.10438 29.055C6.7241 29.055 6.41695 29.1866 6.18293 29.4499C5.94891 29.7083 5.8319 30.0764 5.8319 30.5542C5.8319 31.0368 5.94891 31.4098 6.18293 31.6731C6.41695 31.9363 6.7241 32.068 7.10438 32.068C7.3969 32.068 7.64067 31.9997 7.83569 31.8632C8.03071 31.7267 8.16478 31.5317 8.23791 31.2782H8.95459C8.84734 31.6877 8.63282 32.0168 8.31104 32.2654C7.98926 32.5092 7.58704 32.6311 7.10438 32.6311C6.7241 32.6311 6.38526 32.5458 6.08786 32.3751C5.79533 32.2045 5.56619 31.9632 5.40043 31.6511C5.23466 31.3391 5.15178 30.9735 5.15178 30.5542Z" fill="#666766"/>
<path d="M10.6543 29.1062V31.4683C10.6543 31.6633 10.6958 31.8023 10.7786 31.8852C10.8615 31.9632 11.0053 32.0022 11.2101 32.0022H11.7001V32.5653H11.1004C10.7299 32.5653 10.452 32.4799 10.2667 32.3093C10.0815 32.1387 9.98883 31.8583 9.98883 31.4683V29.1062H9.4696V28.5577H9.98883V27.5485H10.6543V28.5577H11.7001V29.1062H10.6543Z" fill="#666766"/>
<path d="M12.8501 27.9068C12.7234 27.9068 12.6161 27.8629 12.5284 27.7752C12.4406 27.6874 12.3967 27.5802 12.3967 27.4534C12.3967 27.3267 12.4406 27.2194 12.5284 27.1316C12.6161 27.0439 12.7234 27 12.8501 27C12.972 27 13.0744 27.0439 13.1573 27.1316C13.245 27.2194 13.2889 27.3267 13.2889 27.4534C13.2889 27.5802 13.245 27.6874 13.1573 27.7752C13.0744 27.8629 12.972 27.9068 12.8501 27.9068ZM13.1719 28.5577V32.5653H12.5064V28.5577H13.1719Z" fill="#666766"/>
<path d="M15.798 31.951L17.0412 28.5577H17.7506L16.1783 32.5653H15.4031L13.8308 28.5577H14.5475L15.798 31.951Z" fill="#666766"/>
<path d="M18.7492 27.9068C18.6224 27.9068 18.5152 27.8629 18.4274 27.7752C18.3396 27.6874 18.2958 27.5802 18.2958 27.4534C18.2958 27.3267 18.3396 27.2194 18.4274 27.1316C18.5152 27.0439 18.6224 27 18.7492 27C18.8711 27 18.9734 27.0439 19.0563 27.1316C19.1441 27.2194 19.188 27.3267 19.188 27.4534C19.188 27.5802 19.1441 27.6874 19.0563 27.7752C18.9734 27.8629 18.8711 27.9068 18.7492 27.9068ZM19.071 28.5577V32.5653H18.4055V28.5577H19.071Z" fill="#666766"/>
<path d="M21.0169 29.1062V31.4683C21.0169 31.6633 21.0584 31.8023 21.1412 31.8852C21.2241 31.9632 21.368 32.0022 21.5727 32.0022H22.0627V32.5653H21.463C21.0925 32.5653 20.8146 32.4799 20.6293 32.3093C20.4441 32.1387 20.3514 31.8583 20.3514 31.4683V29.1062H19.8322V28.5577H20.3514V27.5485H21.0169V28.5577H22.0627V29.1062H21.0169Z" fill="#666766"/>
<path d="M26.3208 28.5577L23.9075 34.452H23.2201L24.0099 32.5214L22.3937 28.5577H23.1323L24.3901 31.8047L25.6334 28.5577H26.3208Z" fill="#666766"/>
</svg>
