<svg width="23" height="34" viewBox="0 0 23 34" fill="none" xmlns="http://www.w3.org/2000/svg">
<path d="M22.2416 22.4548H0V10.4101L11.2719 0.296143L22.2416 11.239V22.4548ZM1.20422 21.2506H21.0373V11.7435L11.228 1.95867L1.20422 10.9513V21.2506Z" fill="#666766"/>
<path d="M9.78624 18.4619L8.85015 17.7037L11.2879 14.6957H8.56982L12.2727 10.1128L13.2088 10.8709L11.0904 13.4914H13.7963L9.78624 18.4619Z" fill="#666766"/>
<path d="M3.73869 33.4637H4.40418V28.3665H3.73869V30.6043H1.14254V28.3665H0.477051V33.4637H1.14254V31.1527H3.73869V33.4637Z" fill="#666766"/>
<path d="M9.33618 31.4526C9.33618 30.1874 8.4513 29.3903 7.31046 29.3903C6.17693 29.3903 5.28473 30.1874 5.28473 31.4526C5.28473 32.7251 6.14767 33.5295 7.2812 33.5295C8.42205 33.5295 9.33618 32.7251 9.33618 31.4526ZM5.96485 31.4526C5.96485 30.4434 6.60109 29.968 7.30314 29.968C7.99057 29.968 8.65607 30.4434 8.65607 31.4526C8.65607 32.4691 7.97595 32.9445 7.2812 32.9445C6.58646 32.9445 5.96485 32.4691 5.96485 31.4526Z" fill="#666766"/>
<path d="M15.9958 33.4637H16.654V31.1016C16.654 29.9534 15.9447 29.383 15.0305 29.383C14.4162 29.383 13.8458 29.6974 13.6118 30.2752C13.3485 29.6755 12.8 29.383 12.1418 29.383C11.6153 29.383 11.1399 29.6097 10.8767 30.0338V29.4561H10.2112V33.4637H10.8767V31.2551C10.8767 30.3922 11.3374 29.9607 12.0102 29.9607C12.6684 29.9607 13.1072 30.3776 13.1072 31.1966V33.4637H13.7654V31.2551C13.7654 30.3922 14.2261 29.9607 14.8989 29.9607C15.5571 29.9607 15.9958 30.3776 15.9958 31.1966V33.4637Z" fill="#666766"/>
<path d="M19.4496 29.9534C20.1371 29.9534 20.7221 30.3849 20.7148 31.1674H18.1845C18.2576 30.3849 18.7988 29.9534 19.4496 29.9534ZM21.3218 32.2278H20.6051C20.4588 32.6592 20.0786 32.9664 19.4789 32.9664C18.7988 32.9664 18.2283 32.5203 18.1771 31.7085H21.3803C21.3949 31.5696 21.4022 31.4526 21.4022 31.3063C21.4022 30.2094 20.6417 29.3903 19.4789 29.3903C18.3088 29.3903 17.497 30.1874 17.497 31.4526C17.497 32.7251 18.338 33.5295 19.4789 33.5295C20.4735 33.5295 21.117 32.9591 21.3218 32.2278Z" fill="#666766"/>
</svg>
