<svg width="23" height="34" viewBox="0 0 23 34" fill="none" xmlns="http://www.w3.org/2000/svg">
<path d="M1.22799 30.7871V28.9149H2.20795C2.96851 28.9149 3.29029 29.266 3.29029 29.8583C3.29029 30.4287 2.96851 30.7871 2.20795 30.7871H1.22799ZM3.9704 29.8583C3.9704 29.0246 3.4073 28.3664 2.20795 28.3664H0.5625V33.4637H1.22799V31.3356H2.20795C3.47311 31.3356 3.9704 30.6335 3.9704 29.8583Z" fill="#666766"/>
<path d="M5.46302 31.2844C5.46302 30.3556 5.94568 30.0704 6.58192 30.0704H6.75744V29.383C6.1212 29.383 5.68972 29.6609 5.46302 30.107V29.4561H4.79753V33.4637H5.46302V31.2844Z" fill="#666766"/>
<path d="M11.3285 31.4526C11.3285 30.1874 10.4436 29.3903 9.30274 29.3903C8.16921 29.3903 7.27701 30.1874 7.27701 31.4526C7.27701 32.725 8.13996 33.5295 9.27349 33.5295C10.4143 33.5295 11.3285 32.725 11.3285 31.4526ZM7.95713 31.4526C7.95713 30.4434 8.59337 29.968 9.29543 29.968C9.98286 29.968 10.6483 30.4434 10.6483 31.4526C10.6483 32.4691 9.96823 32.9444 9.27349 32.9444C8.57874 32.9444 7.95713 32.4691 7.95713 31.4526Z" fill="#666766"/>
<path d="M12.3278 33.4637H12.9933V30.0046H13.8343V29.4561H12.9933V29.1709C12.9933 28.6517 13.1907 28.4323 13.7904 28.4323V27.8765C12.7666 27.8765 12.3278 28.2787 12.3278 29.1709V29.4561H11.8086V30.0046H12.3278V33.4637Z" fill="#666766"/>
<path d="M14.6102 33.4637H15.2757V29.4561H14.6102V33.4637ZM14.9539 28.8052C15.1953 28.8052 15.3927 28.6078 15.3927 28.3518C15.3927 28.0959 15.1953 27.8984 14.9539 27.8984C14.698 27.8984 14.5005 28.0959 14.5005 28.3518C14.5005 28.6078 14.698 28.8052 14.9539 28.8052Z" fill="#666766"/>
<path d="M16.4099 33.4637H17.0754V28.052H16.4099V33.4637Z" fill="#666766"/>
<path d="M19.9136 29.9534C20.601 29.9534 21.1861 30.3849 21.1788 31.1674H18.6484C18.7216 30.3849 19.2627 29.9534 19.9136 29.9534ZM21.7857 32.2278H21.0691C20.9228 32.6592 20.5425 32.9664 19.9428 32.9664C19.2627 32.9664 18.6923 32.5203 18.6411 31.7085H21.8442C21.8589 31.5696 21.8662 31.4526 21.8662 31.3063C21.8662 30.2093 21.1056 29.3903 19.9428 29.3903C18.7727 29.3903 17.961 30.1874 17.961 31.4526C17.961 32.725 18.802 33.5295 19.9428 33.5295C20.9374 33.5295 21.581 32.9591 21.7857 32.2278Z" fill="#666766"/>
<path fill-rule="evenodd" clip-rule="evenodd" d="M11.2119 1.50148C8.95583 1.50148 7.03444 3.52497 7.03444 6.14051C7.03444 8.75604 8.95583 10.7795 11.2119 10.7795C13.468 10.7795 15.3894 8.75604 15.3894 6.14051C15.3894 3.52497 13.468 1.50148 11.2119 1.50148ZM5.82935 6.14051C5.82935 2.96636 8.18813 0.296387 11.2119 0.296387C14.2357 0.296387 16.5945 2.96636 16.5945 6.14051C16.5945 9.31465 14.2357 11.9846 11.2119 11.9846C8.18813 11.9846 5.82935 9.31465 5.82935 6.14051Z" fill="#666766"/>
<path fill-rule="evenodd" clip-rule="evenodd" d="M1.82935 21.2838H20.5921C19.1755 17.0505 15.4858 14.0847 11.2107 14.0847C6.93557 14.0847 3.24633 17.0504 1.82935 21.2838ZM0.438654 21.7338C1.76891 16.6524 6.05875 12.8796 11.2107 12.8796C16.3625 12.8796 20.653 16.6523 21.9827 21.7339L22.1803 22.4889H0.240967L0.438654 21.7338Z" fill="#666766"/>
</svg>
