<svg width="44" height="34" viewBox="0 0 44 34" fill="none" xmlns="http://www.w3.org/2000/svg">
<path d="M0.889859 28.557C0.889859 30.02 2.00286 31.042 3.37486 31.042C4.38986 31.042 5.26486 30.538 5.63586 29.586H4.67686C4.41786 30.104 3.95586 30.349 3.37486 30.349C2.40886 30.349 1.70886 29.656 1.70886 28.557C1.70886 27.458 2.40886 26.772 3.37486 26.772C3.95586 26.772 4.41786 27.017 4.67686 27.535H5.63586C5.26486 26.583 4.38986 26.072 3.37486 26.072C2.00286 26.072 0.889859 27.101 0.889859 28.557ZM10.2449 29.068C10.2449 27.857 9.37692 27.08 8.27792 27.08C7.17892 27.08 6.31092 27.857 6.31092 29.068C6.31092 30.279 7.14392 31.063 8.24292 31.063C9.34892 31.063 10.2449 30.279 10.2449 29.068ZM7.12292 29.068C7.12292 28.193 7.66192 27.773 8.26392 27.773C8.85892 27.773 9.42592 28.193 9.42592 29.068C9.42592 29.943 8.83792 30.37 8.24292 30.37C7.64092 30.37 7.12292 29.943 7.12292 29.068ZM16.5008 31H17.2918V28.725C17.2918 27.647 16.6058 27.08 15.7028 27.08C15.1428 27.08 14.5968 27.374 14.3588 27.843C14.0928 27.339 13.5818 27.08 12.9728 27.08C12.5108 27.08 12.0908 27.269 11.8318 27.584V27.143H11.0338V31H11.8318V28.844C11.8318 28.137 12.2168 27.773 12.8048 27.773C13.3858 27.773 13.7708 28.137 13.7708 28.844V31H14.5618V28.844C14.5618 28.137 14.9468 27.773 15.5348 27.773C16.1158 27.773 16.5008 28.137 16.5008 28.844V31ZM23.7742 31H24.5652V28.725C24.5652 27.647 23.8792 27.08 22.9762 27.08C22.4162 27.08 21.8702 27.374 21.6322 27.843C21.3662 27.339 20.8552 27.08 20.2462 27.08C19.7842 27.08 19.3642 27.269 19.1052 27.584V27.143H18.3072V31H19.1052V28.844C19.1052 28.137 19.4902 27.773 20.0782 27.773C20.6592 27.773 21.0442 28.137 21.0442 28.844V31H21.8352V28.844C21.8352 28.137 22.2202 27.773 22.8082 27.773C23.3892 27.773 23.7742 28.137 23.7742 28.844V31ZM29.0737 27.143H28.2757V29.292C28.2757 29.999 27.8907 30.363 27.3027 30.363C26.7217 30.363 26.3367 29.999 26.3367 29.292V27.143H25.5457V29.411C25.5457 30.489 26.2317 31.056 27.1347 31.056C27.5897 31.056 28.0237 30.867 28.2757 30.538V31H29.0737V27.143ZM32.8636 31H33.6546V28.725C33.6546 27.647 32.9756 27.08 32.0726 27.08C31.6106 27.08 31.1836 27.269 30.9246 27.584V27.143H30.1266V31H30.9246V28.844C30.9246 28.137 31.3096 27.773 31.8976 27.773C32.4786 27.773 32.8636 28.137 32.8636 28.844V31ZM34.6725 31H35.4705V27.143H34.6725V31ZM35.0785 26.632C35.3585 26.632 35.5825 26.408 35.5825 26.121C35.5825 25.834 35.3585 25.61 35.0785 25.61C34.7915 25.61 34.5675 25.834 34.5675 26.121C34.5675 26.408 34.7915 26.632 35.0785 26.632ZM36.6442 29.929C36.6442 30.713 37.0712 31 37.7572 31H38.3872V30.335H37.8972C37.5612 30.335 37.4492 30.216 37.4492 29.929V27.794H38.3872V27.143H37.4492V26.184H36.6442V27.143H36.1892V27.794H36.6442V29.929ZM40.6417 30.083L39.5567 27.143H38.6677L40.1867 30.937L39.4027 32.813H40.2287L42.5947 27.143H41.7687L40.6417 30.083Z" fill="#666766"/>
<path fill-rule="evenodd" clip-rule="evenodd" d="M29.7002 12.786C30.176 10.9026 30.0531 8.91772 29.3487 7.10738L30.4359 6.68433C31.2283 8.72062 31.3665 10.9532 30.8313 13.0717C30.2962 15.1902 29.1143 17.0893 27.45 18.505L26.6941 17.6164C28.1737 16.3577 29.2245 14.6694 29.7002 12.786Z" fill="#666766"/>
<path fill-rule="evenodd" clip-rule="evenodd" d="M21.0685 1.17589C19.6476 1.11263 18.231 1.37488 16.9269 1.94262C15.6229 2.51036 14.4657 3.36857 13.544 4.45173C12.6222 5.53489 11.9601 6.81436 11.6082 8.19245C11.2563 9.57054 11.224 11.0108 11.5137 12.4033C11.8034 13.7958 12.4074 15.1037 13.2797 16.2271C14.152 17.3505 15.2694 18.2597 16.5467 18.8854C17.824 19.5111 19.2274 19.8366 20.6497 19.8371L20.6493 21.0038C19.0492 21.0032 17.4705 20.637 16.0335 19.9331C14.5966 19.2293 13.3395 18.2064 12.3582 16.9426C11.3769 15.6788 10.6974 14.2074 10.3715 12.6409C10.0456 11.0744 10.082 9.45414 10.4778 7.90383C10.8736 6.35352 11.6185 4.91415 12.6555 3.69563C13.6925 2.4771 14.9942 1.51163 16.4612 0.872945C17.9283 0.234256 19.5219 -0.0607699 21.1203 0.0103927C22.7188 0.0815553 24.2799 0.517025 25.6844 1.28355L25.1255 2.30761C23.877 1.62624 22.4893 1.23914 21.0685 1.17589Z" fill="#666766"/>
<path fill-rule="evenodd" clip-rule="evenodd" d="M22.3459 4.91472C21.1781 4.56005 19.9285 4.58024 18.7728 4.97244C17.6171 5.36464 16.6133 6.10915 15.9025 7.10131L14.9541 6.4219C15.8069 5.2315 17.0112 4.33824 18.3979 3.86767C19.7846 3.3971 21.2838 3.37289 22.685 3.79842C24.0861 4.22395 25.3187 5.07785 26.2095 6.24009C27.1002 7.40232 27.6044 8.81448 27.6512 10.2781C27.6979 11.7417 27.2849 13.1831 26.4701 14.3998C25.6553 15.6165 24.4797 16.5473 23.1085 17.0614C21.7374 17.5755 20.2396 17.647 18.8258 17.2658C17.4119 16.8847 16.153 16.0701 15.226 14.9365L16.1291 14.198C16.9018 15.1428 17.951 15.8217 19.1294 16.1394C20.3078 16.457 21.5562 16.3975 22.699 15.969C23.8418 15.5405 24.8216 14.7647 25.5007 13.7507C26.1798 12.7366 26.5241 11.5352 26.4851 10.3153C26.4462 9.09545 26.0259 7.91846 25.2835 6.94977C24.5411 5.98108 23.5138 5.26939 22.3459 4.91472Z" fill="#666766"/>
</svg>
